<?xml version="1.0" encoding="UTF-8"?>
<svg id="Capa_1" data-name="Capa 1" xmlns="http://www.w3.org/2000/svg" viewBox="0 0 636.17 495.39">
  <defs>
    <style>
      .cls-1 {
        fill: #000;
      }

      .cls-1, .cls-2, .cls-3, .cls-4, .cls-5, .cls-6, .cls-7 {
        stroke-width: 0px;
      }

      .cls-2 {
        fill: #b6b5b5;
      }

      .cls-8 {
        fill: #f2e500;
      }

      .cls-8, .cls-9 {
        stroke-width: 5px;
      }

      .cls-8, .cls-9, .cls-10 {
        stroke: #1d1d1b;
        stroke-miterlimit: 10;
      }

      .cls-9 {
        fill: none;
        stroke-linecap: round;
      }

      .cls-3 {
        fill: #010101;
      }

      .cls-4 {
        fill: #f0e500;
      }

      .cls-5, .cls-10 {
        fill: #1d1d1b;
      }

      .cls-6 {
        fill: #b5b524;
      }

      .cls-7 {
        fill: #fff;
      }

      .cls-10 {
        font-family: BodoniWide, 'Bodoni Wide';
        font-size: 27.28px;
        stroke-width: 2px;
      }
    </style>
  </defs>
  <path class="cls-8" d="M442.51,149.46c-.36-25.83-1.08-47.13-1.66-61.53-11.52-11.13-28.51-25.79-51.18-39.75-13.33-8.21-75.24-44.88-164.05-45.65C133.61,1.73,69.19,39.95,55.82,48.18c-22.93,14.12-39.95,28.91-51.18,39.75-.58,14.4-1.3,35.7-1.66,61.53-.83,59.77-1.14,90.41,3.83,127.66,4.06,30.46,7.46,54.62,20.17,84.51,13.1,30.81,29.98,53.38,42.64,67.91,10.16,10.8,23.91,23.07,41.87,33.96,44.47,26.97,88.68,29.68,111.26,29.36,22.57.32,66.78-2.39,111.26-29.36,17.96-10.89,31.71-23.16,41.87-33.96,12.66-14.54,29.54-37.11,42.64-67.91,12.71-29.89,16.11-54.05,20.17-84.51,4.97-37.25,4.66-67.89,3.83-127.66Z"/>
  <path class="cls-7" d="M442.28,179.96c-49.36,11.72-78.34,22.16-96.7,30.64-6.11,2.82-19.65,9.39-37.05,7.77-13.33-1.24-22.9-6.73-29.68-10.71-31.48-18.47-46.34-47.3-46.34-47.3-3.14-6.09-5.85-12.88-10.34-13.02-5.71-.18-9.88,10.5-13.28,17.36-12.99,26.2-39.85,47.12-62.23,52.51-14.76,3.55-26.52.09-48.2-6.3-25.56-7.53-33.87-16.87-61.56-24.51-14.28-3.94-26.42-5.41-34.31-6.03.68-30.73,1.36-61.47,2.04-92.2,32.42-30.49,64.06-47.88,85.4-57.64,5-2.29,95.25-42.31,187.28-23.55,28.55,5.82,60.75,18.01,62.23,18.57,20.56,7.85,37.46,16.09,50.12,22.86,5.51,3.97,9.96,7.28,13.01,9.56,11.81,8.85,10.44,8.32,14.04,10.6,5.64,3.57,8.66,4.67,12.36,8.81,1.7,1.91,2.08,2.8,4.24,4.84,3.68,3.48,5.79,3.89,7.15,6.51,1.42,2.75.82,5.62.66,6.64-1,6.28-.46,36.89,1.16,84.57Z"/>
  <g>
    <path class="cls-9" d="M222.44,145.3c-27.21,44.67-61.98,74.91-88.15,72.72-16.63-1.39-34.84-7.66-34.84-7.66-9.6-3.3-11.3-4.97-28.81-11.98-11.04-4.42-19.68-7.88-30.15-11-9.09-2.71-21.91-5.86-37.9-7.66l2.05-91.79c18.55-17.52,48.94-41.96,91.98-60.33C148.83,5.3,195.58,2.23,223.07,2.52c25.91-.22,68.49,2.64,116.73,21.48,48.69,19.01,82.14,46.1,101.06,63.94.71,30.7,1.43,61.4,2.14,92.11"/>
    <path class="cls-9" d="M442.29,179.72c-16,1.8-28.81,4.95-37.9,7.66-10.47,3.12-19.11,6.58-30.15,11-17.51,7.01-19.21,8.67-28.81,11.98,0,0-18.21,6.27-34.84,7.66-26.17,2.19-60.94-28.05-88.15-72.72"/>
  </g>
  <g>
    <polygon class="cls-6" points="134.31 89.62 120.84 99.03 125.47 82.25 112.82 71.8 129.43 71.23 135.06 55.29 140.76 71.76 156.86 72.43 143.75 83.1 148.14 99.42 134.31 89.62"/>
    <path class="cls-5" d="M135.05,58.32l4.99,14.42,14.15.59-11.57,9.41,3.83,14.26-12.13-8.6-11.78,8.22,4.07-14.73-11.11-9.18,14.65-.5,4.91-13.89M135.07,52.26l-1.91,5.39-4.46,12.61-13.28.46-5.27.18,4.07,3.36,10.11,8.35-3.72,13.48-1.48,5.35,4.55-3.17,10.62-7.41,10.99,7.78,4.53,3.21-1.44-5.36-3.5-13.01,10.56-8.6,4.09-3.33-5.27-.22-12.79-.54-4.54-13.13-1.87-5.41h0Z"/>
  </g>
  <g>
    <polygon class="cls-6" points="309.25 89.62 295.78 99.03 300.41 82.25 287.76 71.8 304.36 71.23 310 55.29 315.7 71.76 331.8 72.43 318.69 83.1 323.08 99.42 309.25 89.62"/>
    <path class="cls-5" d="M309.99,58.32l4.99,14.42,14.15.59-11.57,9.41,3.83,14.26-12.13-8.6-11.78,8.22,4.07-14.73-11.11-9.18,14.65-.5,4.91-13.89M310.01,52.26l-1.91,5.39-4.46,12.61-13.28.46-5.27.18,4.07,3.36,10.11,8.35-3.72,13.48-1.48,5.35,4.55-3.17,10.62-7.41,10.99,7.78,4.53,3.21-1.44-5.36-3.5-13.01,10.56-8.6,4.09-3.33-5.27-.22-12.79-.54-4.54-13.13-1.87-5.41h0Z"/>
  </g>
  <g>
    <polygon class="cls-2" points="222.22 58.22 208.74 67.62 213.38 50.84 200.73 40.4 217.33 39.83 222.97 23.88 228.67 40.36 244.77 41.03 231.66 51.7 236.04 68.01 222.22 58.22"/>
    <path class="cls-5" d="M222.96,26.91l4.99,14.42,14.15.59-11.57,9.41,3.83,14.26-12.13-8.6-11.78,8.22h0s4.07-14.73,4.07-14.73l-11.11-9.18,14.65-.5,4.91-13.89M222.98,20.85l-1.91,5.39-4.46,12.61-13.28.46-5.27.18,4.07,3.36,10.11,8.35-3.72,13.48-1.48,5.35,4.55-3.17,10.62-7.41,10.99,7.78,4.53,3.21-1.44-5.36-3.5-13.01,10.56-8.6,4.09-3.33-5.27-.22-12.79-.54-4.54-13.13-1.87-5.41h0Z"/>
  </g>
  <g id="Soccer_Ball" data-name="Soccer Ball">
    <g>
      <path class="cls-3" d="M76.62,79.36c.22,1.08.33,2.19.33,3.33,0,1.64-.24,3.22-.68,4.71.2-.76-.25-3.71-.25-3.71,0,0,.68-3.83.59-4.33h0Z"/>
      <path class="cls-3" d="M76.34,79.44c.41,2.03.43,4.18.06,6.21-.1.57-.24,1.12-.4,1.68.19.05.38.1.56.16.06-.23.06-.49.06-.73,0-.31-.02-.63-.05-.94-.05-.61-.12-1.21-.21-1.82-.02-.13-.03-.25-.05-.38v.16c.08-.45.15-.89.23-1.34.13-.78.25-1.56.34-2.34.03-.26.07-.54.03-.81-.03-.16-.22-.24-.36-.2-.16.05-.23.2-.2.36,0,0,0-.1,0-.04,0,.02,0,.03,0,.05,0,.04,0,.08,0,.12,0,.11-.01.21-.02.32-.01.14-.03.28-.05.42l-.03.23s0,.04,0,.06v.04s0-.06,0-.03c0,.04-.01.08-.02.13-.09.67-.2,1.34-.31,2.01-.04.23-.08.46-.11.68-.02.12-.05.24-.03.36,0,.06.02.11.03.17,0,.05.01.1.02.14,0,.03,0,.06.01.09,0,.05,0-.07,0-.02,0,.02,0,.04,0,.05.04.33.08.66.12.99.07.67.15,1.35.08,2.02,0,.05.01-.07,0-.03,0,.01,0,.03,0,.04,0,.02,0,.05-.02.07-.04.15.05.32.2.36.16.04.31-.05.36-.2.6-2.06.81-4.23.61-6.37-.06-.61-.15-1.23-.27-1.83-.03-.15-.22-.24-.36-.2-.16.05-.24.21-.21.36h0Z"/>
      <path class="cls-3" d="M68.27,95.35s1.07.59,3.77-.85c-2.52,2.51-5.84,4.21-9.54,4.7v-.78s4.37-1.69,5.77-3.08Z"/>
      <path class="cls-3" d="M68.13,95.6c.2.11.45.14.67.15.6.04,1.21-.1,1.77-.29.56-.19,1.1-.43,1.62-.71-.12-.15-.24-.31-.35-.46-.99.98-2.03,1.79-3.23,2.5-1.21.72-2.45,1.25-3.8,1.63-.38.11-.76.2-1.15.29-.2.04-.4.08-.6.11-.1.02-.19.03-.29.05l-.16.02s-.04,0-.06,0c0,0-.09.01-.05,0l.29.29v-.78c-.07.09-.14.19-.21.28.55-.21,1.09-.45,1.63-.69,1-.45,2-.92,2.94-1.49.47-.28.94-.59,1.33-.98.11-.11.11-.3,0-.41-.11-.11-.3-.11-.41,0-.07.07-.15.14-.23.21-.04.03-.08.06-.11.09-.02.02-.07.05-.02.01-.03.02-.05.04-.08.06-.2.15-.4.29-.62.42-.47.29-.95.56-1.45.81-.48.25-.97.48-1.47.7-.21.1-.43.19-.64.28-.05.02-.09.04-.14.06-.02,0-.05.02-.07.03-.01,0-.02,0-.03.01-.05.02.05-.02.02,0-.08.03-.16.07-.25.1-.18.08-.37.15-.55.22-.12.05-.21.14-.21.28v.78c0,.14.14.31.29.29,1.45-.19,2.87-.56,4.22-1.12,1.32-.54,2.56-1.24,3.7-2.1.64-.48,1.25-1.01,1.82-1.57.24-.24-.06-.61-.35-.46-.75.4-1.52.74-2.38.88h-.09s-.06.04,0,.01c-.01,0-.03,0-.04,0-.06,0-.13.01-.19.02-.11,0-.22,0-.33,0-.04,0-.09,0-.13,0-.02,0-.04,0-.05,0-.08,0,.07.01,0,0-.06-.01-.12-.02-.18-.04-.04-.01-.08-.03-.12-.04-.04-.01.09.04.04.02h0c-.14-.08-.32-.04-.4.1-.07.13-.03.32.11.4h0Z"/>
      <path class="cls-3" d="M68.49,79.6s3.58,4.64,3.55,5.46c0,0-.92,3.39-3.81,6.12,0,0-5.15-.43-6.28-1.48l.04-7.31c1.09.13,6.49-2.78,6.49-2.78h0Z"/>
      <path class="cls-3" d="M68.24,79.74c.33.43.65.85.97,1.29.6.82,1.2,1.65,1.75,2.51.23.35.45.71.64,1.08.02.04.03.07.05.11,0,.02.01.03.02.05.02.05.02.05,0,0,.02.06.05.12.06.18,0,.02.01.05.02.07,0,.01,0,.02,0,.03.01.04,0-.1,0-.04,0,.08.03-.09,0-.03-.07.21-.13.42-.21.62-.03.09-.07.18-.11.27l-.06.15s-.02.05-.03.07c0,0-.03.06,0,.02.02-.05,0,.02-.01.03-.11.25-.22.49-.34.74-.3.6-.64,1.19-1.01,1.75-.45.68-.92,1.27-1.49,1.86-.15.16-.3.31-.46.46.07-.03.14-.06.21-.09-.17-.01-.35-.03-.52-.05-.19-.02-.38-.04-.56-.06-.11-.01-.23-.03-.34-.04l-.17-.02s-.06,0,.02,0c-.02,0-.03,0-.05,0-.03,0-.07,0-.11-.01-1.08-.15-2.18-.33-3.22-.66-.13-.04-.26-.09-.38-.13-.03-.01-.05-.02-.08-.03-.02,0-.13-.04-.04-.02-.06-.02-.11-.05-.16-.07-.09-.05-.19-.09-.28-.15-.04-.03-.08-.05-.12-.08s.02,0,.03.02c0,0-.03-.02-.03-.02-.02-.02-.04-.03-.05-.05.03.07.06.14.09.21,0-.24,0-.49,0-.73v-1.75c.01-.7.02-1.4.02-2.11v-1.83c.01-.29.03-.6.01-.89h0s-.29.28-.29.28c.17.02.35-.02.51-.05.21-.05.42-.11.62-.18.57-.2,1.12-.44,1.67-.68,1.07-.48,2.12-1,3.15-1.55.23-.12.46-.24.68-.36.14-.08.18-.27.11-.4-.08-.14-.26-.18-.4-.11-.62.34-1.25.66-1.88.97-.57.28-1.13.56-1.71.82-.29.13-.57.26-.86.38.08-.03-.02,0-.04.02-.04.01-.07.03-.11.04-.07.03-.14.06-.21.09-.13.05-.25.1-.38.15-.24.09-.48.17-.73.23-.05.01-.1.02-.15.03-.02,0-.04,0-.06.01-.01,0-.02,0-.03,0-.06.01.07,0,.03,0-.07,0-.14.01-.22,0-.16-.02-.29.15-.29.29v1.66c-.02,1.08-.02,2.16-.03,3.25,0,.76,0,1.52-.01,2.28,0,.06,0,.14,0,.2.04.14.2.24.31.31.09.06.18.11.27.16.49.25,1.04.41,1.57.54,1.15.29,2.33.46,3.5.59.29.03.58.07.87.09.05,0,.09,0,.15-.02.12-.05.23-.18.32-.28.09-.09.18-.18.26-.27.33-.34.63-.7.92-1.07.9-1.16,1.63-2.44,2.17-3.81.11-.28.21-.56.3-.84.08-.26-.08-.57-.19-.8-.21-.43-.46-.83-.72-1.23-.32-.49-.65-.97-.99-1.45-.51-.72-1.04-1.44-1.58-2.14-.03-.04-.06-.08-.09-.11-.1-.12-.25-.19-.4-.11-.13.07-.21.28-.11.4h0Z"/>
      <path class="cls-3" d="M56.23,97.02h0c-2.26.2-5.5-1.01-5.5-1.01-3.47-3-3.7-5.26-3.7-5.26.78-.91,2.77-1.84,2.77-1.84.78,1.39,5.85,3.79,5.85,3.79-.04.77.57,4.22.58,4.33h0Z"/>
      <path class="cls-3" d="M55.95,97.1c.09-.12.19-.25.28-.37-.46.04-.93.02-1.39-.03-.06,0-.12-.01-.18-.02-.03,0-.06,0-.08,0h-.04s-.06-.01-.03,0c.03,0-.01,0-.02,0-.01,0-.03,0-.04,0-.03,0-.06,0-.1-.01-.06,0-.12-.02-.18-.03-.24-.04-.48-.09-.71-.14-.75-.16-1.49-.36-2.21-.6-.14-.05-.29-.09-.43-.15.04.03.09.05.13.08-.59-.51-1.16-1.06-1.67-1.65-.11-.13-.22-.26-.33-.39-.05-.06-.09-.11-.14-.17-.01-.01-.07-.09-.04-.05-.03-.03-.05-.07-.08-.1-.16-.22-.32-.44-.46-.67-.23-.36-.43-.73-.6-1.11,0-.02-.02-.04-.02-.05-.03-.07.01.03,0,0-.01-.04-.03-.07-.04-.11-.03-.07-.05-.13-.08-.2-.04-.1-.07-.21-.1-.32-.02-.08-.04-.15-.05-.23,0-.02,0-.04-.01-.06,0-.04.01.1,0,.06-.03.07-.06.14-.09.21.17-.2.37-.37.57-.53-.05.04.03-.02.04-.03.03-.02.06-.04.08-.06.06-.04.11-.08.17-.12.12-.08.24-.16.36-.24.4-.25.81-.48,1.23-.69.08-.04.17-.09.25-.12-.13-.03-.27-.07-.4-.11.22.38.58.69.92.96.47.37.97.71,1.48,1.02.94.58,1.92,1.11,2.92,1.6.21.11.42.21.64.31-.05-.08-.1-.17-.14-.25-.01.24.02.48.04.72.04.37.09.74.14,1.11.1.7.21,1.39.33,2.08.03.17.06.33.09.5.03.16.22.24.36.2.16-.05.23-.2.2-.36-.08-.43-.15-.86-.22-1.29-.06-.37-.12-.74-.17-1.12-.01-.09-.03-.19-.04-.28,0-.04-.01-.09-.02-.13,0-.03,0-.08,0-.02,0-.02,0-.05,0-.07-.02-.17-.04-.35-.06-.52-.03-.27-.07-.55-.05-.83,0-.09-.06-.21-.14-.25-.59-.28-1.17-.58-1.75-.89-1.05-.56-2.1-1.15-3.05-1.86-.03-.02-.06-.04-.08-.06-.03-.03.06.05,0,0-.01-.01-.03-.02-.04-.03-.06-.05-.11-.09-.17-.14-.1-.08-.2-.17-.29-.26-.08-.08-.16-.16-.23-.25,0,0-.01-.02-.02-.03-.04-.05,0,0,0,.01-.01,0-.04-.05-.04-.06-.03-.04-.05-.08-.07-.12-.08-.15-.26-.17-.4-.11-.33.15-.64.32-.96.5-.58.33-1.17.7-1.65,1.16-.12.11-.3.26-.3.43,0,.03,0,.07.01.1,0,.06.02.11.03.16.06.26.15.51.25.75.46,1.1,1.16,2.07,1.95,2.95.29.32.59.63.91.93.17.17.35.33.53.49.08.07.16.14.26.17.32.12.64.22.96.32.62.19,1.25.35,1.88.47.73.14,1.47.25,2.21.25.17,0,.33,0,.5-.02.2-.02.31-.17.28-.37h0c-.03-.16-.22-.24-.36-.21-.17.04-.23.2-.21.36h0Z"/>
      <path class="cls-3" d="M56.23,71.92s-.58,5.42-.43,6.32c0,0-5.77,2.95-6,3.29,0,0-2.74-2.24-3.15-4.21,0,0,1.51-4.78,4.24-6.22,0,0,3.19-.04,5.34.82Z"/>
      <path class="cls-3" d="M55.93,71.92c-.07.63-.13,1.26-.19,1.9-.1,1.09-.2,2.19-.25,3.29-.02.4-.05.81.02,1.2.04-.11.09-.22.13-.33-.66.34-1.32.68-1.99,1.03-1.08.56-2.15,1.12-3.2,1.73-.19.11-.38.22-.57.34-.13.08-.26.17-.35.3.15-.02.31-.04.46-.06-.33-.27-.64-.56-.94-.86-.29-.29-.58-.6-.84-.92-.07-.09-.14-.17-.21-.26-.02-.02-.04-.05-.06-.07.03.04,0,0-.02-.02-.04-.05-.07-.1-.11-.14-.13-.18-.26-.37-.38-.56-.13-.21-.24-.42-.34-.64,0,0-.02-.04,0,0,.01.03,0-.01,0-.02-.01-.03-.02-.06-.03-.09-.02-.05-.04-.1-.05-.15-.04-.11-.07-.22-.09-.34v.16c.05-.16.11-.32.17-.48.07-.18.14-.36.21-.54.02-.05.04-.1.06-.14,0-.02.01-.03.02-.05,0,0-.03.07,0,.02.01-.03.03-.06.04-.1.05-.12.1-.23.15-.35.24-.54.51-1.06.81-1.57.16-.28.34-.55.52-.81.04-.06.09-.12.13-.18.02-.03.05-.06.07-.1l.04-.06s.05-.07.01-.02c.1-.13.2-.25.31-.37.23-.27.48-.52.75-.75.03-.03.06-.05.1-.08.02-.01.03-.03.05-.04.01,0,.07-.05.01,0,.07-.05.14-.1.21-.15.14-.1.29-.19.44-.27-.05.01-.1.03-.15.04.4,0,.8.01,1.2.04.41.03.82.06,1.23.11.05,0,.11.01.16.02.03,0,.06,0,.08.01-.06,0,.03,0,.03,0,.11.02.22.03.33.05.24.04.47.08.71.13.52.11,1.03.25,1.52.45.14.06.33-.06.36-.2.04-.17-.05-.3-.2-.36-.83-.33-1.71-.51-2.59-.63-.74-.1-1.48-.17-2.23-.19-.18,0-.36,0-.54,0-.24,0-.47.18-.66.31-.63.43-1.15.99-1.61,1.6-.82,1.07-1.44,2.29-1.95,3.54-.12.3-.24.61-.34.92-.06.19.02.4.08.59.13.38.31.74.52,1.08.42.68.94,1.29,1.49,1.86.34.35.69.68,1.06.99.02.02.04.03.06.05.15.12.34.11.46-.06-.02.03-.06.06-.02.03.03-.02.1-.06,0,0,.05-.03.1-.07.15-.1.15-.1.31-.2.47-.29.48-.28.96-.54,1.45-.81,1.04-.56,2.09-1.11,3.14-1.65l.71-.36c.12-.06.16-.21.13-.33-.01-.09,0,.08,0,0,0-.03,0-.06,0-.1,0-.07,0-.14,0-.22,0-.2,0-.39,0-.59.02-.52.06-1.04.09-1.56.08-1.03.17-2.06.28-3.09.02-.23.05-.45.07-.68.02-.15-.15-.3-.29-.29-.17,0-.27.13-.29.29h0Z"/>
      <path class="cls-3" d="M72.37,72.27c-1.36-.12-3.63.97-3.63.97-.82-1.72-6.25-3.94-6.25-3.94,0,0,.29-2.72.64-3.04,3.31.57,6.28,2.11,8.61,4.32.29.27.62,1.68.62,1.68Z"/>
      <path class="cls-3" d="M72.37,71.97c-.63-.05-1.29.11-1.89.29-.54.16-1.07.37-1.58.59-.1.04-.2.09-.3.14.13.03.27.07.4.11-.21-.44-.6-.8-.97-1.1-.5-.4-1.04-.75-1.59-1.08-1-.59-2.05-1.1-3.11-1.57-.25-.11-.49-.22-.74-.32.07.09.14.19.21.28,0-.09.02-.18.03-.27.01-.09.02-.19.04-.29,0-.03,0-.06.01-.08,0-.06,0,.07,0,0,0-.01,0-.02,0-.03l.03-.2c.08-.53.16-1.06.29-1.57.03-.11.06-.22.1-.32,0-.02.02-.03-.02.04,0-.01.01-.03.02-.04,0-.02.02-.03.03-.05,0-.01.03-.03.03-.05-.01.05-.05.06-.01.02-.09.03-.19.05-.29.08.63.11,1.26.26,1.88.44.3.09.6.19.9.29.15.05.3.11.45.17.07.03.14.06.21.08.04.02.08.03.12.05t.08.03c1.15.49,2.25,1.12,3.27,1.86.28.21.51.38.78.61.27.23.54.46.8.71v-.41c-.11.11-.11.3,0,.41.01.01.02.02.03.03.03.03-.04-.06-.01-.02.02.03.04.06.06.09.02.03.04.07.06.11,0,.02.02.03.02.05,0,.01.01.02.02.03-.02-.04-.02-.04,0-.01.07.18.13.36.19.55.07.24.14.48.2.72.04.15.21.25.36.2.16-.04.24-.2.2-.36-.06-.26-.13-.51-.21-.76-.06-.21-.14-.41-.22-.61-.07-.15-.14-.32-.26-.43v.41c.11-.11.11-.31,0-.41-.8-.75-1.66-1.43-2.59-2.02-.93-.59-1.92-1.09-2.95-1.49-1.03-.4-2.12-.72-3.21-.89-.37-.06-.49.41-.57.69-.09.32-.15.64-.2.97-.06.35-.11.7-.16,1.05-.03.19-.06.39-.07.58,0,0,0,.02,0,.03-.01.14.1.24.21.28.01,0,.03.01.04.02.02,0,.03.01.05.02,0,0,.02,0,.03.01.05.02-.09-.04-.03-.01.14.06.27.11.4.17.44.2.89.4,1.32.61,1.12.55,2.25,1.14,3.25,1.9.01,0,.03.02.04.03-.07-.05,0,0,.02.01.03.02.06.05.09.07.06.05.11.09.17.14.11.09.21.19.31.29.05.05.09.1.14.15.02.02.04.05.06.07,0,0,.04.05,0,0-.03-.04,0,0,.01.02.07.09.13.19.18.29.07.15.27.17.4.11.08-.04.15-.07.23-.11.04-.02.08-.03.11-.05.02,0,.04-.02.06-.03,0,0,.02,0,.03-.01.05-.02-.06.02,0,0,.11-.05.23-.09.35-.14.57-.22,1.16-.42,1.77-.54.08-.02.16-.03.25-.04.06,0,0,0,0,0,.02,0,.05,0,.07,0,.04,0,.09,0,.13-.01.16-.01.32-.02.48,0,.15.01.3-.14.29-.29,0-.17-.13-.28-.29-.29h0Z"/>
      <path class="cls-3" d="M74.39,74.37c.72,1.22,1.27,2.49,1.65,3.86.11.4.21.79.29,1.2.03.15.21.24.36.2.16-.04.24-.2.2-.36-.29-1.43-.77-2.82-1.42-4.12-.18-.36-.37-.72-.58-1.07-.08-.14-.26-.18-.4-.11-.14.08-.18.26-.1.4Z"/>
      <path class="cls-3" d="M44.15,79.92c.42-2.42,1.38-4.72,2.8-6.73,1.41-1.98,3.27-3.64,5.39-4.82,2.34-1.31,5-2.01,7.68-2.05,2.76-.04,5.51.61,7.95,1.91,2.35,1.25,4.38,3.07,5.87,5.27.19.29.38.58.55.87.19.32.7.03.51-.29-1.42-2.4-3.43-4.43-5.81-5.88-2.39-1.46-5.13-2.29-7.93-2.44-2.82-.14-5.65.42-8.19,1.63-2.3,1.1-4.35,2.73-5.93,4.72-1.57,1.97-2.7,4.27-3.26,6.73-.07.31-.13.62-.19.93-.03.16.04.31.2.36.14.04.33-.05.36-.2Z"/>
      <path class="cls-3" d="M44.92,88.33c-.76-2.1-1.09-4.3-.98-6.52.03-.64.1-1.27.21-1.89.03-.15-.04-.32-.2-.36-.14-.03-.33.04-.36.2-.4,2.31-.32,4.69.23,6.97.14.6.32,1.18.54,1.76.05.15.2.25.36.2.14-.04.26-.21.2-.36Z"/>
      <path class="cls-3" d="M71.84,94.29c-1.62,1.6-3.56,2.88-5.69,3.69-2.26.86-4.7,1.21-7.11,1.03-2.02-.15-4.01-.68-5.83-1.56-1.79-.86-3.41-2.04-4.77-3.48s-2.48-3.12-3.24-4.95c-.09-.23-.18-.45-.27-.68-.06-.15-.2-.25-.36-.2-.14.04-.26.21-.2.36.72,1.95,1.78,3.76,3.15,5.33,1.34,1.54,2.96,2.83,4.75,3.8,1.86,1,3.9,1.64,5.99,1.89,2.43.3,4.94.06,7.27-.7,2.25-.73,4.33-1.94,6.09-3.52.22-.19.43-.39.63-.6.27-.26-.14-.68-.41-.41Z"/>
      <path class="cls-3" d="M76.34,79.44c.45,2.21.43,4.54-.05,6.74-.44,2-1.23,3.86-2.36,5.57-.61.92-1.3,1.75-2.09,2.55-.11.11-.11.3,0,.41s.3.11.41,0c1.45-1.44,2.64-3.15,3.48-5.01.92-2.03,1.43-4.22,1.5-6.45.04-1.33-.07-2.66-.33-3.97-.03-.15-.22-.24-.36-.2-.16.05-.24.2-.21.36h0Z"/>
      <path class="cls-3" d="M50.61,68.85c-.11.76-.17,1.57,0,2.32.03.12.16.22.28.21.4,0,.8.01,1.2.04.41.03.82.06,1.23.11.05,0,.11.01.16.02.03,0,.06,0,.08.01-.06,0,.03,0,.03,0,.11.02.22.03.33.05.24.04.47.08.71.13.52.11,1.03.25,1.52.45-.07-.09-.14-.19-.21-.28-.07.63-.13,1.26-.19,1.9-.1,1.09-.2,2.19-.25,3.29-.02.4-.05.81.02,1.2.04-.11.09-.22.13-.33-.66.34-1.32.68-1.99,1.03-1.08.56-2.15,1.12-3.2,1.73-.19.11-.38.22-.57.34-.13.08-.26.17-.35.3.15-.02.31-.04.46-.06-.33-.27-.64-.56-.94-.86-.29-.29-.58-.6-.84-.92-.07-.09-.14-.17-.21-.26-.02-.02-.04-.05-.06-.07.03.04,0,0-.02-.02-.04-.05-.07-.1-.11-.14-.13-.18-.26-.37-.38-.56-.13-.21-.24-.42-.34-.64,0,0-.02-.04,0,0,.01.03,0-.01,0-.02-.01-.03-.02-.06-.03-.09-.02-.05-.04-.1-.05-.15-.04-.11-.07-.22-.09-.34v.16c.05-.16.11-.32.17-.48.07-.18.14-.36.21-.54.02-.05.04-.1.06-.14,0-.02.01-.03.02-.05,0,0-.03.07,0,.02.01-.03.03-.06.04-.1.05-.12.1-.23.15-.35.24-.54.51-1.06.81-1.57.16-.28.34-.55.52-.81.04-.06.09-.12.13-.18.02-.03.05-.06.07-.1l.04-.06s.05-.07.01-.02c.1-.13.2-.25.31-.37.23-.27.48-.52.75-.75.03-.03.06-.05.1-.08.02-.01.03-.03.05-.04.01,0,.07-.05.01,0,.07-.05.14-.1.21-.15.14-.1.29-.19.44-.27.14-.07.18-.27.11-.4-.08-.14-.26-.18-.4-.11-.97.51-1.72,1.36-2.34,2.24-.57.82-1.04,1.71-1.44,2.63-.15.34-.29.68-.42,1.03-.06.16-.12.31-.17.48-.05.17.04.39.1.55.09.28.22.55.36.8.29.52.65,1,1.04,1.46.51.6,1.08,1.17,1.68,1.67,0,0,.02.02.03.03.15.12.34.11.46-.06-.02.03-.06.06-.02.03.03-.02.1-.06,0,0,.05-.03.1-.07.15-.1.15-.1.31-.2.47-.29.48-.28.96-.54,1.45-.81,1.04-.56,2.09-1.11,3.14-1.65l.71-.36c.12-.06.16-.21.13-.33-.01-.09,0,.08,0,0,0-.03,0-.06,0-.1,0-.07,0-.14,0-.22,0-.2,0-.39,0-.59.02-.52.06-1.04.09-1.56.08-1.03.17-2.06.28-3.09.02-.23.05-.45.07-.68.01-.14-.1-.24-.21-.28-.89-.36-1.85-.54-2.8-.66-.73-.09-1.46-.15-2.2-.17-.14,0-.28,0-.42,0,.09.07.19.14.28.21-.01-.06-.02-.11-.03-.17,0,0-.01-.09,0-.06,0,.03,0-.06,0-.07-.01-.11-.02-.23-.02-.34,0-.23,0-.46,0-.69,0-.18.03-.36.04-.54l.02-.16c0-.08-.01.09,0,0,.02-.15-.04-.32-.2-.36-.14-.03-.34.04-.36.2h0Z"/>
      <path class="cls-3" d="M44.13,80.05s0-.03,0-.04c0,.08,0-.02.01-.05,0-.03.02-.06.03-.09,0-.03.02-.05.03-.07,0-.01.01-.03.02-.04.03-.06-.02.03,0,.01.07-.15.15-.29.24-.43.01-.02.02-.03.04-.05s.07-.1.01-.02c.03-.05.07-.09.11-.13.08-.1.17-.19.26-.27.1-.1.21-.19.32-.28.03-.03.06-.05.1-.08.01-.01.03-.02.04-.03-.04.03,0,0,.01-.01.07-.05.14-.1.21-.15.4-.28.82-.51,1.25-.73.14-.07.18-.27.11-.4-.09-.14-.26-.17-.4-.11-.71.35-1.41.78-2,1.33-.31.3-.61.65-.79,1.04-.09.19-.17.4-.17.61,0,.15.13.3.29.29.15-.01.29-.13.29-.3h0Z"/>
      <path class="cls-3" d="M49.51,81.45c-.12.59-.2,1.19-.27,1.78-.14,1.21-.21,2.44-.11,3.65.06.71.16,1.42.38,2.1.04-.11.09-.22.13-.33-.74.35-1.47.76-2.12,1.26-.25.19-.49.39-.7.63.12-.02.24-.03.35-.05-.07-.05-.14-.09-.2-.14-.07-.05-.14-.1-.22-.16-.04-.03-.08-.06-.13-.09-.02-.02-.05-.04-.07-.05-.01,0-.02-.02-.03-.03-.02-.01.05.03,0,0-.44-.34-.87-.71-1.23-1.14-.03-.03-.05-.06-.07-.09-.01-.01-.02-.03-.03-.04.02.03.02.02,0,0-.04-.06-.08-.12-.12-.18-.04-.06-.07-.11-.1-.17-.01-.03-.03-.06-.04-.09-.02-.03.02.03,0,.02,0,0-.03-.07-.03-.08-.05-.15-.2-.25-.36-.2-.15.04-.26.21-.2.36.19.55.62,1.01,1.04,1.4.39.36.81.69,1.24,1,.09.06.18.13.27.19.1.07.27.05.35-.05.17-.2.37-.37.57-.53-.05.04.03-.02.04-.03.03-.02.06-.04.08-.06.06-.04.11-.08.17-.12.12-.08.24-.16.36-.24.4-.25.81-.48,1.23-.69.08-.04.17-.09.25-.12.11-.05.17-.22.13-.33-.09-.28-.17-.57-.22-.87-.03-.15-.06-.31-.08-.46,0,0,0-.06,0-.03,0,.04,0-.02,0-.03,0-.04,0-.08-.01-.12,0-.08-.02-.16-.03-.24-.06-.63-.07-1.27-.05-1.9.02-.58.06-1.16.12-1.74.01-.13.03-.25.04-.38,0-.06.01-.11.02-.17,0-.02,0-.06.01-.08,0,0,0,.07,0,.02,0-.02,0-.04,0-.06.03-.19.06-.38.09-.57.03-.2.06-.39.11-.59.03-.15-.04-.32-.2-.36-.14-.03-.32.04-.36.2h0Z"/>
      <path class="cls-3" d="M46.74,90.75c.03.28.11.55.21.81.27.73.67,1.4,1.12,2.03.35.48.73.94,1.14,1.37.24.25.48.5.73.73.14.13.27.25.41.37.1.09.19.18.31.23.59.23,1.21.4,1.82.56,1.09.28,2.23.5,3.36.48.13,0,.26,0,.39-.02.2-.02.31-.17.28-.37-.07-.43-.14-.85-.21-1.28-.06-.37-.12-.74-.17-1.12-.01-.09-.03-.19-.04-.28,0-.05-.01-.09-.02-.14,0-.01-.01-.08,0-.03,0,.04,0-.03,0-.04-.02-.17-.04-.35-.06-.52-.03-.28-.07-.56-.06-.83,0-.09-.06-.21-.14-.25-.59-.28-1.17-.58-1.75-.89-1.05-.56-2.1-1.15-3.05-1.86-.03-.02-.06-.04-.08-.06-.03-.03.06.05,0,0-.01-.01-.03-.02-.04-.03-.06-.05-.11-.09-.17-.14-.1-.08-.2-.17-.29-.26-.08-.08-.16-.16-.23-.25,0,0-.01-.02-.02-.03-.04-.05,0,0,0,.01-.01,0-.04-.05-.04-.06-.03-.04-.05-.08-.07-.12-.08-.14-.26-.18-.4-.11-.14.08-.18.26-.11.4.22.38.58.69.92.96.47.37.97.71,1.48,1.02.94.58,1.92,1.11,2.92,1.6.21.11.42.21.64.31-.05-.08-.1-.17-.14-.25-.01.24.02.48.04.72.04.37.09.75.14,1.12.1.69.21,1.39.33,2.08.03.16.06.32.08.49.09-.12.19-.25.28-.37-.46.04-.93.02-1.39-.03-.06,0-.12-.01-.18-.02-.03,0-.06,0-.08,0h-.04s-.06-.01-.03,0c.03,0-.01,0-.02,0-.01,0-.03,0-.04,0-.03,0-.06,0-.1-.01-.06,0-.12-.02-.18-.03-.24-.04-.48-.09-.71-.14-.75-.16-1.49-.36-2.21-.6-.14-.05-.29-.09-.43-.15.04.03.09.05.13.08-.59-.51-1.16-1.06-1.67-1.65-.11-.13-.22-.26-.33-.39-.05-.06-.09-.11-.14-.17-.01-.01-.07-.09-.04-.05-.03-.03-.05-.07-.08-.1-.16-.22-.32-.44-.46-.67-.23-.36-.43-.73-.6-1.11,0-.02-.02-.04-.02-.05-.03-.07.01.03,0,0-.01-.04-.03-.07-.04-.11-.03-.07-.05-.13-.08-.2-.04-.1-.07-.21-.1-.32-.02-.08-.04-.15-.05-.23,0-.02,0-.04-.01-.06,0-.04.01.1,0,.06-.02-.15-.12-.3-.29-.29-.14,0-.31.13-.29.29h0Z"/>
      <path class="cls-3" d="M56.43,72.12c-.11.09-.05.04-.02.02.03-.02.06-.05.1-.07.12-.09.24-.17.36-.25.42-.28.85-.54,1.29-.78.61-.33,1.21-.61,1.82-.84.35-.13.71-.25,1.07-.34.19-.05.39-.1.58-.14.09-.02.18-.03.26-.05.05,0,.09-.02.14-.02.02,0,.04,0,.06,0,0,0,.09-.01.05,0,.09-.01.19-.01.28-.03.08-.02-.02-.02,0-.01.01,0,.03.01.05.02.01,0,.03.01.04.02.06.03-.08-.03,0,0,.05.02.1.04.14.06.31.13.62.27.93.42.93.43,1.85.89,2.73,1.42.23.14.46.28.68.43.1.07.21.14.31.21.05.03.1.07.15.11.02.02.04.03.06.05.05.04-.04-.03,0,0,.02.01.03.02.05.04.17.14.34.28.5.44.07.07.14.14.2.22.01.02.03.03.04.05l.02.02s-.02-.02-.02-.02c0,.02.07.1.08.12.04.07.09.14.12.21-.01-.05-.03-.1-.04-.15.01.63.02,1.25.02,1.88,0,1.09,0,2.19-.09,3.29,0,.13-.02.26-.03.38,0,.06-.01.11-.02.17,0,.03-.02.13,0,.02,0,.02,0,.05,0,.07-.02.16-.05.32-.11.47.04-.06.09-.12.13-.17-.62.34-1.25.66-1.88.97-.57.28-1.13.56-1.71.82-.29.13-.57.26-.86.38.08-.03-.02,0-.04.02-.04.01-.07.03-.11.04-.07.03-.14.06-.21.09-.13.05-.25.1-.38.15-.24.09-.48.17-.73.23-.05.01-.1.02-.15.03-.02,0-.04,0-.06.01-.01,0-.02,0-.03,0-.06.01.07,0,.03,0-.07,0-.14.01-.22,0,.05.01.1.03.15.04-.65-.36-1.3-.74-1.94-1.12-1.11-.66-2.23-1.34-3.27-2.11-.06-.05-.13-.09-.18-.14.08.07-.02-.02-.04-.03-.03-.02-.06-.04-.08-.07-.09-.08-.19-.16-.28-.24-.07-.07-.14-.14-.21-.21-.01-.02-.03-.03-.04-.05-.05-.06.04.06,0,0-.02-.03-.04-.06-.05-.09-.07-.14-.27-.18-.4-.11-.14.08-.18.26-.11.4.09.16.23.3.36.43.2.19.42.35.63.52.54.41,1.11.78,1.68,1.14.61.39,1.22.76,1.84,1.13.47.28.93.55,1.4.82.11.06.23.13.34.2.12.07.25.08.39.07.53-.06,1.04-.26,1.53-.46.68-.27,1.35-.58,2.01-.89.61-.29,1.22-.6,1.82-.91.34-.18.69-.36,1.03-.54.02,0,.04-.02.06-.03.12-.08.16-.23.19-.37.06-.25.09-.51.11-.77.07-.69.09-1.38.1-2.07.01-.71.02-1.42.01-2.12,0-.41,0-.82-.02-1.22,0-.19-.13-.37-.24-.51-.19-.25-.41-.47-.65-.68-.58-.49-1.22-.9-1.88-1.28-.65-.37-1.32-.71-1.99-1.04-.46-.22-.93-.43-1.4-.63-.1-.04-.2-.09-.3-.13-.1-.03-.23,0-.33.01-.16.02-.31.04-.47.07-.27.05-.55.1-.82.17-1.01.26-1.99.67-2.92,1.16-.6.32-1.18.67-1.73,1.06-.1.07-.2.14-.29.21-.12.1-.1.31,0,.41.12.12.28.09.41,0h0Z"/>
      <path class="cls-3" d="M62.79,69.3c0-.09.02-.18.03-.27l.04-.3v-.08s0,.08,0,.02c0-.01,0-.02,0-.03l.03-.2c.08-.53.16-1.07.3-1.58.02-.06.03-.11.05-.17,0-.02.06-.14.06-.15,0,0-.03.07-.02.04,0,0,0-.02.01-.03,0-.02.02-.04.03-.05.01-.02.05-.09-.01,0,0,0,.02-.02.03-.03.11-.11.11-.3,0-.41s-.3-.11-.41,0c-.14.14-.2.34-.26.52-.08.24-.13.49-.18.74-.1.54-.18,1.09-.25,1.63-.01.12-.03.23-.04.35-.02.15.15.3.29.29.17,0,.28-.13.29-.29h0Z"/>
      <path class="cls-3" d="M68.89,73.49c.08-.04.15-.07.23-.11.04-.02.08-.03.11-.05.02,0,.04-.02.06-.03,0,0,.02,0,.03-.01.05-.02-.06.02,0,0,.11-.05.23-.09.35-.14.57-.22,1.16-.42,1.77-.54.08-.02.16-.03.25-.04.06,0,0,0,0,0,.02,0,.05,0,.07,0,.04,0,.09,0,.13-.01.16-.01.32-.02.48,0,.2.02.32-.2.28-.37-.06-.26-.13-.51-.21-.76-.06-.21-.14-.41-.22-.61-.07-.15-.14-.32-.26-.43-.11-.11-.3-.11-.41,0-.11.11-.11.3,0,.41.01.01.02.02.03.03.03.03-.04-.06-.01-.02.02.03.04.06.06.09.02.03.04.07.06.11,0,.02.02.03.02.05,0,.01.01.02.02.03-.02-.04-.02-.04,0-.01.07.18.13.36.19.55.07.24.14.48.2.72.09-.12.19-.25.28-.37-.63-.05-1.29.11-1.89.29-.54.16-1.07.37-1.58.59-.1.04-.2.09-.3.14-.14.07-.18.27-.11.4.09.15.26.18.4.11h0Z"/>
      <path class="cls-3" d="M72.22,72.52c.22.16.44.32.66.48.04.03.09.07.13.1l.04.03s-.04-.03,0,0c.03.02.05.04.08.06.1.08.21.16.31.25.2.16.39.33.58.5.09.08.17.17.25.26.02.02.04.04.06.06,0,0,.01.02.02.03.04.05-.01,0,0-.01,0,.02.07.1.08.12.08.14.26.18.4.11.14-.08.19-.26.11-.4-.23-.4-.63-.71-.98-1.01-.38-.31-.77-.61-1.17-.9-.08-.06-.17-.12-.25-.18-.13-.09-.32-.02-.4.11-.09.14-.03.31.1.4h0Z"/>
      <path class="cls-3" d="M68.24,79.74c.41.53.8,1.06,1.2,1.6.67.92,1.34,1.85,1.92,2.83.11.2.23.4.32.6.04.08-.02-.05,0,0,0,.02.02.04.02.06.01.03.03.07.04.11,0,.03.01.06.02.09.02.06,0-.08,0-.03,0,.01,0,.03,0,.04,0,.15.14.31.29.29.46-.05.92-.12,1.37-.22.76-.15,1.56-.34,2.23-.73.15-.09.29-.19.42-.31.09-.09.21-.2.24-.33.04-.14.05-.3.08-.45.12-.69.23-1.38.33-2.07.06-.37.11-.74.15-1.12.03-.23.06-.46.05-.69,0-.06,0-.11-.02-.17-.03-.15-.22-.24-.36-.2-.16.04-.23.2-.2.36.01.06,0-.09,0-.03,0,.02,0,.04,0,.05,0,.04,0,.08,0,.12,0,.12-.02.23-.03.35-.01.15-.03.3-.05.45-.01.08-.02.17-.03.25,0-.06,0-.03,0,0,0,.02,0,.04,0,.06l-.02.14c-.1.7-.21,1.41-.33,2.11-.03.2-.07.4-.1.6,0,.02,0,.04-.01.06,0,.05.04-.09,0-.02,0,0,.05-.05,0,0l-.03.03s-.05.05-.08.08c-.03.02-.05.04-.08.07-.04.03.05-.04,0,0-.02.01-.04.03-.05.04-.14.09-.28.17-.43.24-.04.02-.08.03-.11.05-.05.02.06-.02-.01,0-.02,0-.04.02-.07.03-.09.04-.18.07-.27.1-.36.12-.74.22-1.11.3-.33.07-.66.13-.99.18-.06,0-.12.02-.19.03-.03,0-.06,0-.08.01-.05,0,.02,0,.03,0-.01,0-.03,0-.04,0-.06,0-.13.01-.19.02,0,0-.02,0-.03,0l.29.29c0-.14-.04-.28-.1-.41-.08-.2-.17-.39-.28-.57-.26-.46-.55-.91-.84-1.34-.62-.92-1.27-1.81-1.93-2.69-.15-.19-.29-.39-.44-.58-.1-.12-.25-.19-.4-.11-.12.08-.2.28-.11.41h0Z"/>
      <path class="cls-3" d="M75.75,83.77c.02.1.03.2.04.3,0,.02,0,.05,0,.07s.01.12,0,.02c0,.06.02.12.02.18.02.14.03.28.05.42.07.63.14,1.26.15,1.89,0,.14,0,.29,0,.43,0,.03,0,.07,0,.1,0,.04-.03.11,0,.02-.02.05-.02.11-.03.16-.04.15.05.33.2.36.16.04.31-.05.36-.2.07-.23.07-.49.07-.74,0-.31-.02-.62-.05-.94-.05-.62-.12-1.23-.21-1.84-.02-.13-.03-.26-.06-.39-.02-.16-.22-.24-.36-.2-.17.05-.23.2-.2.36h0Z"/>
      <path class="cls-3" d="M71.76,84.98c-.03.12-.07.24-.11.35-.05.14-.1.28-.15.41-.03.08-.06.17-.1.25-.02.04-.04.09-.06.13-.03.07.02-.05,0,.02-.01.03-.02.05-.03.08-.45,1.04-1.02,2.03-1.68,2.94-.22.3-.45.58-.71.88-.28.32-.58.63-.89.93.07-.03.14-.06.21-.09-.17-.01-.35-.03-.52-.05-.19-.02-.38-.04-.56-.06-.11-.01-.23-.03-.34-.04l-.17-.02s-.06,0,.02,0c-.02,0-.03,0-.05,0-.03,0-.07,0-.11-.01-1.08-.15-2.18-.33-3.22-.66-.13-.04-.26-.09-.38-.13-.03-.01-.05-.02-.08-.03-.02,0-.13-.04-.04-.02-.06-.02-.11-.05-.16-.07-.09-.05-.19-.09-.28-.15-.04-.03-.08-.05-.12-.08s.02,0,.03.02c0,0-.03-.02-.03-.02-.02-.02-.04-.03-.05-.05.03.07.06.14.09.21,0-.24,0-.49,0-.73v-1.75c.01-.7.02-1.4.02-2.11v-1.83c.01-.3.02-.59.01-.89h0c0-.17-.14-.31-.29-.31-.16,0-.29.13-.29.29,0,.33,0,.65,0,.98,0,.74,0,1.48-.01,2.22,0,.8,0,1.61-.01,2.42,0,.52,0,1.03,0,1.55,0,.04,0,.09,0,.13,0,.18.14.28.28.37.29.21.63.34.96.46.85.3,1.74.47,2.62.61.76.12,1.52.22,2.29.3.14.01.28.04.42.04.16,0,.28-.15.38-.25.13-.13.26-.26.38-.39.24-.26.47-.53.7-.8.75-.93,1.39-1.95,1.9-3.03.27-.57.52-1.17.71-1.78,0-.03.02-.06.02-.08.04-.15-.05-.32-.2-.36-.15-.03-.31.05-.35.2h0Z"/>
      <path class="cls-3" d="M61.81,89.44c-.58.38-1.17.75-1.76,1.1-.53.32-1.07.62-1.62.91-.27.14-.55.28-.83.41-.13.06-.27.12-.4.18-.02,0-.08.03,0,0-.01,0-.02,0-.03.01-.03.01-.07.03-.1.04-.06.02-.12.05-.18.07-.24.09-.49.18-.75.23-.03,0-.05,0-.08.01-.01,0-.03,0-.04,0-.05,0,.09,0,.02,0-.05,0-.09,0-.14.01-.04,0-.09,0-.13,0-.08,0,.07.01.01,0-.02,0-.04,0-.06-.01-.1-.03-.21,0-.29.08-.08.08-.09.18-.08.29l.2,1.47c.11.77.21,1.55.31,2.33.02.17.03.35.07.52.03.13.13.18.24.23.14.07.29.13.44.19.28.11.56.21.84.3,1.09.34,2.22.56,3.36.72.41.06.82.11,1.24.15.11.01.22.02.33.03.07,0,.13.01.19,0,.13-.03.27-.11.39-.16.35-.14.69-.29,1.03-.44.93-.41,1.85-.84,2.73-1.34.42-.24.83-.49,1.21-.78.17-.13.35-.26.51-.42.1-.1.11-.19.11-.32l-.02-1.96c0-.67-.01-1.34-.02-2.01,0-.04,0-.08,0-.11,0-.15-.13-.3-.29-.29-.16,0-.29.13-.29.29,0,.47,0,.94.01,1.41,0,.75.01,1.5.02,2.25v.52c.03-.07.06-.14.09-.21-.07.07-.14.13-.21.19-.03.03-.07.06-.11.09-.02.02-.04.03-.06.05-.04.03,0,0,.01-.01-.02.01-.03.02-.05.04-.18.14-.37.26-.56.39-.43.28-.88.52-1.34.76-.46.24-.92.46-1.38.67-.21.1-.42.19-.63.28-.18.08-.37.14-.55.24.08-.04.02,0,0,0-.02,0-.04.02-.06.02-.04.02-.08.03-.12.05-.07.03-.13.06-.2.08-.09.04-.19.08-.28.11-.03,0-.05.02-.08.03-.07.03.06-.02.05,0,0,0-.12,0-.13,0-.29-.02-.58-.05-.87-.09-.11-.01-.21-.03-.32-.04-.02,0-.05,0-.07,0-.03,0-.1-.01-.03,0-.06,0-.12-.02-.19-.03-.26-.04-.51-.08-.77-.12-1.16-.2-2.33-.47-3.42-.92.06.02-.04-.02-.05-.02-.03-.01-.06-.02-.08-.04-.07-.03-.13-.06-.2-.09.04.06.09.12.13.17-.08-.48-.13-.97-.2-1.45-.11-.78-.21-1.56-.32-2.34-.02-.18-.05-.36-.07-.54l-.36.36c.41.11.87-.03,1.26-.16.56-.19,1.1-.45,1.63-.71,1.03-.53,2.03-1.12,3.01-1.74.22-.14.43-.27.64-.42.13-.09.19-.26.11-.4-.07-.14-.26-.2-.39-.11h0Z"/>
      <path class="cls-3" d="M68.13,95.6c.2.11.45.14.67.15.6.04,1.21-.1,1.77-.29.56-.19,1.1-.43,1.62-.71-.05.01-.1.03-.15.04.15,0,.3-.13.29-.29,0-.16-.13-.29-.29-.29-.14,0-.29.12-.42.18-.13.06-.25.12-.38.18-.06.03-.12.06-.18.08-.06.03-.05.02-.11.05-.11.05-.22.09-.33.13-.35.13-.7.23-1.06.3-.03,0-.06.01-.1.02-.02,0-.04,0-.06,0-.07.01.07,0,0,0-.07,0-.13.02-.2.02-.11,0-.22.01-.33,0-.04,0-.09,0-.13,0-.02,0-.04,0-.05,0-.01,0-.02,0-.03,0-.05,0,.08.01.04,0-.06-.01-.12-.02-.18-.04-.04-.01-.08-.03-.13-.04s.09.04.04.02h0c-.14-.08-.32-.04-.4.1-.08.13-.03.32.1.4h0Z"/>
      <path class="cls-3" d="M62.21,98.43v.78c0,.15.13.3.29.29.16,0,.29-.13.29-.29v-.78c0-.15-.13-.3-.29-.29-.16,0-.29.13-.29.29Z"/>
    </g>
  </g>
  <g id="Soccer_Ball-2" data-name="Soccer Ball">
    <g>
      <path class="cls-3" d="M403.26,78.49c.22,1.08.33,2.19.33,3.33,0,1.64-.24,3.22-.68,4.71.2-.76-.25-3.71-.25-3.71,0,0,.68-3.83.59-4.33h0Z"/>
      <path class="cls-3" d="M402.98,78.56c.41,2.03.43,4.18.06,6.21-.1.57-.24,1.12-.4,1.68.19.05.38.1.56.16.06-.23.06-.49.06-.73,0-.31-.02-.63-.05-.94-.05-.61-.12-1.21-.21-1.82-.02-.13-.03-.25-.05-.38v.16c.08-.45.15-.89.23-1.34.13-.78.25-1.56.34-2.34.03-.26.07-.54.03-.81-.03-.16-.22-.24-.36-.2-.16.05-.23.2-.2.36,0,0,0-.1,0-.04,0,.02,0,.03,0,.05,0,.04,0,.08,0,.12,0,.11-.01.21-.02.32-.01.14-.03.28-.05.42l-.03.23s0,.04,0,.06v.04s0-.06,0-.03c0,.04-.01.08-.02.13-.09.67-.2,1.34-.31,2.01-.04.23-.08.46-.11.68-.02.12-.05.24-.03.36,0,.06.02.11.03.17,0,.05.01.1.02.14,0,.03,0,.06.01.09,0,.05,0-.07,0-.02,0,.02,0,.04,0,.05.04.33.08.66.12.99.07.67.15,1.35.08,2.02,0,.05.01-.07,0-.03,0,.01,0,.03,0,.04,0,.02,0,.05-.02.07-.04.15.05.32.2.36.16.04.31-.05.36-.2.6-2.06.81-4.23.61-6.37-.06-.61-.15-1.23-.27-1.83-.03-.15-.22-.24-.36-.2-.16.05-.24.21-.21.36h0Z"/>
      <path class="cls-3" d="M394.91,94.47s1.07.59,3.77-.85c-2.52,2.51-5.84,4.21-9.54,4.7v-.78s4.37-1.69,5.77-3.08Z"/>
      <path class="cls-3" d="M394.77,94.73c.2.11.45.14.67.15.6.04,1.21-.1,1.77-.29.56-.19,1.1-.43,1.62-.71-.12-.15-.24-.31-.35-.46-.99.98-2.03,1.79-3.23,2.5-1.21.72-2.45,1.25-3.8,1.63-.38.11-.76.2-1.15.29-.2.04-.4.08-.6.11-.1.02-.19.03-.29.05l-.16.02s-.04,0-.06,0c0,0-.09.01-.05,0l.29.29v-.78c-.07.09-.14.19-.21.28.55-.21,1.09-.45,1.63-.69,1-.45,2-.92,2.94-1.49.47-.28.94-.59,1.33-.98.11-.11.11-.3,0-.41-.11-.11-.3-.11-.41,0-.07.07-.15.14-.23.21-.04.03-.08.06-.11.09-.02.02-.07.05-.02.01-.03.02-.05.04-.08.06-.2.15-.4.29-.62.42-.47.29-.95.56-1.45.81-.48.25-.97.48-1.47.7-.21.1-.43.19-.64.28-.05.02-.09.04-.14.06-.02,0-.05.02-.07.03-.01,0-.02,0-.03.01-.05.02.05-.02.02,0-.08.03-.16.07-.25.1-.18.08-.37.15-.55.22-.12.05-.21.14-.21.28v.78c0,.14.14.31.29.29,1.45-.19,2.87-.56,4.22-1.12,1.32-.54,2.56-1.24,3.7-2.1.64-.48,1.25-1.01,1.82-1.57.24-.24-.06-.61-.35-.46-.75.4-1.52.74-2.38.88h-.09s-.06.04,0,.01c-.01,0-.03,0-.04,0-.06,0-.13.01-.19.02-.11,0-.22,0-.33,0-.04,0-.09,0-.13,0-.02,0-.04,0-.05,0-.08,0,.07.01,0,0-.06-.01-.12-.02-.18-.04-.04-.01-.08-.03-.12-.04-.04-.01.09.04.04.02h0c-.14-.08-.32-.04-.4.1-.07.13-.03.32.11.4h0Z"/>
      <path class="cls-3" d="M395.13,78.72s3.58,4.64,3.55,5.46c0,0-.92,3.39-3.81,6.12,0,0-5.15-.43-6.28-1.48l.04-7.31c1.09.13,6.49-2.78,6.49-2.78h0Z"/>
      <path class="cls-3" d="M394.88,78.87c.33.43.65.85.97,1.29.6.82,1.2,1.65,1.75,2.51.23.35.45.71.64,1.08.02.04.03.07.05.11,0,.02.01.03.02.05.02.05.02.05,0,0,.02.06.05.12.06.18,0,.02.01.05.02.07,0,.01,0,.02,0,.03.01.04,0-.1,0-.04,0,.08.03-.09,0-.03-.07.21-.13.42-.21.62-.03.09-.07.18-.11.27l-.06.15s-.02.05-.03.07c0,0-.03.06,0,.02.02-.05,0,.02-.01.03-.11.25-.22.49-.34.74-.3.6-.64,1.19-1.01,1.75-.45.68-.92,1.27-1.49,1.86-.15.16-.3.31-.46.46.07-.03.14-.06.21-.09-.17-.01-.35-.03-.52-.05-.19-.02-.38-.04-.56-.06-.11-.01-.23-.03-.34-.04l-.17-.02s-.06,0,.02,0c-.02,0-.03,0-.05,0-.03,0-.07,0-.11-.01-1.08-.15-2.18-.33-3.22-.66-.13-.04-.26-.09-.38-.13-.03-.01-.05-.02-.08-.03-.02,0-.13-.04-.04-.02-.06-.02-.11-.05-.16-.07-.09-.05-.19-.09-.28-.15-.04-.03-.08-.05-.12-.08s.02,0,.03.02c0,0-.03-.02-.03-.02-.02-.02-.04-.03-.05-.05.03.07.06.14.09.21,0-.24,0-.49,0-.73v-1.75c.01-.7.02-1.4.02-2.11v-1.83c.01-.29.03-.6.01-.89h0s-.29.28-.29.28c.17.02.35-.02.51-.05.21-.05.42-.11.62-.18.57-.2,1.12-.44,1.67-.68,1.07-.48,2.12-1,3.15-1.55.23-.12.46-.24.68-.36.14-.08.18-.27.11-.4-.08-.14-.26-.18-.4-.11-.62.34-1.25.66-1.88.97-.57.28-1.13.56-1.71.82-.29.13-.57.26-.86.38.08-.03-.02,0-.04.02-.04.01-.07.03-.11.04-.07.03-.14.06-.21.09-.13.05-.25.1-.38.15-.24.09-.48.17-.73.23-.05.01-.1.02-.15.03-.02,0-.04,0-.06.01-.01,0-.02,0-.03,0-.06.01.07,0,.03,0-.07,0-.14.01-.22,0-.16-.02-.29.15-.29.29v1.66c-.02,1.08-.02,2.16-.03,3.25,0,.76,0,1.52-.01,2.28,0,.06,0,.14,0,.2.04.14.2.24.31.31.09.06.18.11.27.16.49.25,1.04.41,1.57.54,1.15.29,2.33.46,3.5.59.29.03.58.07.87.09.05,0,.09,0,.15-.02.12-.05.23-.18.32-.28.09-.09.18-.18.26-.27.33-.34.63-.7.92-1.07.9-1.16,1.63-2.44,2.17-3.81.11-.28.21-.56.3-.84.08-.26-.08-.57-.19-.8-.21-.43-.46-.83-.72-1.23-.32-.49-.65-.97-.99-1.45-.51-.72-1.04-1.44-1.58-2.14-.03-.04-.06-.08-.09-.11-.1-.12-.25-.19-.4-.11-.13.07-.21.28-.11.4h0Z"/>
      <path class="cls-3" d="M382.87,96.15h0c-2.26.2-5.5-1.01-5.5-1.01-3.47-3-3.7-5.26-3.7-5.26.78-.91,2.77-1.84,2.77-1.84.78,1.39,5.85,3.79,5.85,3.79-.04.77.57,4.22.58,4.33h0Z"/>
      <path class="cls-3" d="M382.59,96.22c.09-.12.19-.25.28-.37-.46.04-.93.02-1.39-.03-.06,0-.12-.01-.18-.02-.03,0-.06,0-.08,0h-.04s-.06-.01-.03,0c.03,0-.01,0-.02,0-.01,0-.03,0-.04,0-.03,0-.06,0-.1-.01-.06,0-.12-.02-.18-.03-.24-.04-.48-.09-.71-.14-.75-.16-1.49-.36-2.21-.6-.14-.05-.29-.09-.43-.15.04.03.09.05.13.08-.59-.51-1.16-1.06-1.67-1.65-.11-.13-.22-.26-.33-.39-.05-.06-.09-.11-.14-.17-.01-.01-.07-.09-.04-.05-.03-.03-.05-.07-.08-.1-.16-.22-.32-.44-.46-.67-.23-.36-.43-.73-.6-1.11,0-.02-.02-.04-.02-.05-.03-.07.01.03,0,0-.01-.04-.03-.07-.04-.11-.03-.07-.05-.13-.08-.2-.04-.1-.07-.21-.1-.32-.02-.08-.04-.15-.05-.23,0-.02,0-.04-.01-.06,0-.04.01.1,0,.06-.03.07-.06.14-.09.21.17-.2.37-.37.57-.53-.05.04.03-.02.04-.03.03-.02.06-.04.08-.06.06-.04.11-.08.17-.12.12-.08.24-.16.36-.24.4-.25.81-.48,1.23-.69.08-.04.17-.09.25-.12-.13-.03-.27-.07-.4-.11.22.38.58.69.92.96.47.37.97.71,1.48,1.02.94.58,1.92,1.11,2.92,1.6.21.11.42.21.64.31-.05-.08-.1-.17-.14-.25-.01.24.02.48.04.72.04.37.09.74.14,1.11.1.7.21,1.39.33,2.08.03.17.06.33.09.5.03.16.22.24.36.2.16-.05.23-.2.2-.36-.08-.43-.15-.86-.22-1.29-.06-.37-.12-.74-.17-1.12-.01-.09-.03-.19-.04-.28,0-.04-.01-.09-.02-.13,0-.03,0-.08,0-.02,0-.02,0-.05,0-.07-.02-.17-.04-.35-.06-.52-.03-.27-.07-.55-.05-.83,0-.09-.06-.21-.14-.25-.59-.28-1.17-.58-1.75-.89-1.05-.56-2.1-1.15-3.05-1.86-.03-.02-.06-.04-.08-.06-.03-.03.06.05,0,0-.01-.01-.03-.02-.04-.03-.06-.05-.11-.09-.17-.14-.1-.08-.2-.17-.29-.26-.08-.08-.16-.16-.23-.25,0,0-.01-.02-.02-.03-.04-.05,0,0,0,.01-.01,0-.04-.05-.04-.06-.03-.04-.05-.08-.07-.12-.08-.15-.26-.17-.4-.11-.33.15-.64.32-.96.5-.58.33-1.17.7-1.65,1.16-.12.11-.3.26-.3.43,0,.03,0,.07.01.1,0,.06.02.11.03.16.06.26.15.51.25.75.46,1.1,1.16,2.07,1.95,2.95.29.32.59.63.91.93.17.17.35.33.53.49.08.07.16.14.26.17.32.12.64.22.96.32.62.19,1.25.35,1.88.47.73.14,1.47.25,2.21.25.17,0,.33,0,.5-.02.2-.02.31-.17.28-.37h0c-.03-.16-.22-.24-.36-.21-.17.04-.23.2-.21.36h0Z"/>
      <path class="cls-3" d="M382.87,71.04s-.58,5.42-.43,6.32c0,0-5.77,2.95-6,3.29,0,0-2.74-2.24-3.15-4.21,0,0,1.51-4.78,4.24-6.22,0,0,3.19-.04,5.34.82Z"/>
      <path class="cls-3" d="M382.58,71.04c-.07.63-.13,1.26-.19,1.9-.1,1.09-.2,2.19-.25,3.29-.02.4-.05.81.02,1.2.04-.11.09-.22.13-.33-.66.34-1.32.68-1.99,1.03-1.08.56-2.15,1.12-3.2,1.73-.19.11-.38.22-.57.34-.13.08-.26.17-.35.3.15-.02.31-.04.46-.06-.33-.27-.64-.56-.94-.86-.29-.29-.58-.6-.84-.92-.07-.09-.14-.17-.21-.26-.02-.02-.04-.05-.06-.07.03.04,0,0-.02-.02-.04-.05-.07-.1-.11-.14-.13-.18-.26-.37-.38-.56-.13-.21-.24-.42-.34-.64,0,0-.02-.04,0,0,.01.03,0-.01,0-.02-.01-.03-.02-.06-.03-.09-.02-.05-.04-.1-.05-.15-.04-.11-.07-.22-.09-.34v.16c.05-.16.11-.32.17-.48.07-.18.14-.36.21-.54.02-.05.04-.1.06-.14,0-.02.01-.03.02-.05,0,0-.03.07,0,.02.01-.03.03-.06.04-.1.05-.12.1-.23.15-.35.24-.54.51-1.06.81-1.57.16-.28.34-.55.52-.81.04-.06.09-.12.13-.18.02-.03.05-.06.07-.1l.04-.06s.05-.07.01-.02c.1-.13.2-.25.31-.37.23-.27.48-.52.75-.75.03-.03.06-.05.1-.08.02-.01.03-.03.05-.04.01,0,.07-.05.01,0,.07-.05.14-.1.21-.15.14-.1.29-.19.44-.27-.05.01-.1.03-.15.04.4,0,.8.01,1.2.04.41.03.82.06,1.23.11.05,0,.11.01.16.02.03,0,.06,0,.08.01-.06,0,.03,0,.03,0,.11.02.22.03.33.05.24.04.47.08.71.13.52.11,1.03.25,1.52.45.14.06.33-.06.36-.2.04-.17-.05-.3-.2-.36-.83-.33-1.71-.51-2.59-.63-.74-.1-1.48-.17-2.23-.19-.18,0-.36,0-.54,0-.24,0-.47.18-.66.31-.63.43-1.15.99-1.61,1.6-.82,1.07-1.44,2.29-1.95,3.54-.12.3-.24.61-.34.92-.06.19.02.4.08.59.13.38.31.74.52,1.08.42.68.94,1.29,1.49,1.86.34.35.69.68,1.06.99.02.02.04.03.06.05.15.12.34.11.46-.06-.02.03-.06.06-.02.03.03-.02.1-.06,0,0,.05-.03.1-.07.15-.1.15-.1.31-.2.47-.29.48-.28.96-.54,1.45-.81,1.04-.56,2.09-1.11,3.14-1.65l.71-.36c.12-.06.16-.21.13-.33-.01-.09,0,.08,0,0,0-.03,0-.06,0-.1,0-.07,0-.14,0-.22,0-.2,0-.39,0-.59.02-.52.06-1.04.09-1.56.08-1.03.17-2.06.28-3.09.02-.23.05-.45.07-.68.02-.15-.15-.3-.29-.29-.17,0-.27.13-.29.29h0Z"/>
      <path class="cls-3" d="M399.01,71.39c-1.36-.12-3.63.97-3.63.97-.82-1.72-6.25-3.94-6.25-3.94,0,0,.29-2.72.64-3.04,3.31.57,6.28,2.11,8.61,4.32.29.27.62,1.68.62,1.68Z"/>
      <path class="cls-3" d="M399.01,71.1c-.63-.05-1.29.11-1.89.29-.54.16-1.07.37-1.58.59-.1.04-.2.09-.3.14.13.03.27.07.4.11-.21-.44-.6-.8-.97-1.1-.5-.4-1.04-.75-1.59-1.08-1-.59-2.05-1.1-3.11-1.57-.25-.11-.49-.22-.74-.32.07.09.14.19.21.28,0-.09.02-.18.03-.27.01-.09.02-.19.04-.29,0-.03,0-.06.01-.08,0-.06,0,.07,0,0,0-.01,0-.02,0-.03l.03-.2c.08-.53.16-1.06.29-1.57.03-.11.06-.22.1-.32,0-.02.02-.03-.02.04,0-.01.01-.03.02-.04,0-.02.02-.03.03-.05,0-.01.03-.03.03-.05-.01.05-.05.06-.01.02-.09.03-.19.05-.29.08.63.11,1.26.26,1.88.44.3.09.6.19.9.29.15.05.3.11.45.17.07.03.14.06.21.08.04.02.08.03.12.05t.08.03c1.15.49,2.25,1.12,3.27,1.86.28.21.51.38.78.61.27.23.54.46.8.71v-.41c-.11.11-.11.3,0,.41.01.01.02.02.03.03.03.03-.04-.06-.01-.02.02.03.04.06.06.09.02.03.04.07.06.11,0,.02.02.03.02.05,0,.01.01.02.02.03-.02-.04-.02-.04,0-.01.07.18.13.36.19.55.07.24.14.48.2.72.04.15.21.25.36.2.16-.04.24-.2.2-.36-.06-.26-.13-.51-.21-.76-.06-.21-.14-.41-.22-.61-.07-.15-.14-.32-.26-.43v.41c.11-.11.11-.31,0-.41-.8-.75-1.66-1.43-2.59-2.02-.93-.59-1.92-1.09-2.95-1.49-1.03-.4-2.12-.72-3.21-.89-.37-.06-.49.41-.57.69-.09.32-.15.64-.2.97-.06.35-.11.7-.16,1.05-.03.19-.06.39-.07.58,0,0,0,.02,0,.03-.01.14.1.24.21.28.01,0,.03.01.04.02.02,0,.03.01.05.02,0,0,.02,0,.03.01.05.02-.09-.04-.03-.01.14.06.27.11.4.17.44.2.89.4,1.32.61,1.12.55,2.25,1.14,3.25,1.9.01,0,.03.02.04.03-.07-.05,0,0,.02.01.03.02.06.05.09.07.06.05.11.09.17.14.11.09.21.19.31.29.05.05.09.1.14.15.02.02.04.05.06.07,0,0,.04.05,0,0-.03-.04,0,0,.01.02.07.09.13.19.18.29.07.15.27.17.4.11.08-.04.15-.07.23-.11.04-.02.08-.03.11-.05.02,0,.04-.02.06-.03,0,0,.02,0,.03-.01.05-.02-.06.02,0,0,.11-.05.23-.09.35-.14.57-.22,1.16-.42,1.77-.54.08-.02.16-.03.25-.04.06,0,0,0,0,0,.02,0,.05,0,.07,0,.04,0,.09,0,.13-.01.16-.01.32-.02.48,0,.15.01.3-.14.29-.29,0-.17-.13-.28-.29-.29h0Z"/>
      <path class="cls-3" d="M401.03,73.5c.72,1.22,1.27,2.49,1.65,3.86.11.4.21.79.29,1.2.03.15.21.24.36.2.16-.04.24-.2.2-.36-.29-1.43-.77-2.82-1.42-4.12-.18-.36-.37-.72-.58-1.07-.08-.14-.26-.18-.4-.11-.14.08-.18.26-.1.4Z"/>
      <path class="cls-3" d="M370.8,79.05c.42-2.42,1.38-4.72,2.8-6.73,1.41-1.98,3.27-3.64,5.39-4.82,2.34-1.31,5-2.01,7.68-2.05,2.76-.04,5.51.61,7.95,1.91,2.35,1.25,4.38,3.07,5.87,5.27.19.29.38.58.55.87.19.32.7.03.51-.29-1.42-2.4-3.43-4.43-5.81-5.88-2.39-1.46-5.13-2.29-7.93-2.44-2.82-.14-5.65.42-8.19,1.63-2.3,1.1-4.35,2.73-5.93,4.72-1.57,1.97-2.7,4.27-3.26,6.73-.07.31-.13.62-.19.93-.03.16.04.31.2.36.14.04.33-.05.36-.2Z"/>
      <path class="cls-3" d="M371.56,87.46c-.76-2.1-1.09-4.3-.98-6.52.03-.64.1-1.27.21-1.89.03-.15-.04-.32-.2-.36-.14-.03-.33.04-.36.2-.4,2.31-.32,4.69.23,6.97.14.6.32,1.18.54,1.76.05.15.2.25.36.2.14-.04.26-.21.2-.36Z"/>
      <path class="cls-3" d="M398.48,93.42c-1.62,1.6-3.56,2.88-5.69,3.69-2.26.86-4.7,1.21-7.11,1.03-2.02-.15-4.01-.68-5.83-1.56-1.79-.86-3.41-2.04-4.77-3.48s-2.48-3.12-3.24-4.95c-.09-.23-.18-.45-.27-.68-.06-.15-.2-.25-.36-.2-.14.04-.26.21-.2.36.72,1.95,1.78,3.76,3.15,5.33,1.34,1.54,2.96,2.83,4.75,3.8,1.86,1,3.9,1.64,5.99,1.89,2.43.3,4.94.06,7.27-.7,2.25-.73,4.33-1.94,6.09-3.52.22-.19.43-.39.63-.6.27-.26-.14-.68-.41-.41Z"/>
      <path class="cls-3" d="M402.98,78.56c.45,2.21.43,4.54-.05,6.74-.44,2-1.23,3.86-2.36,5.57-.61.92-1.3,1.75-2.09,2.55-.11.11-.11.3,0,.41s.3.11.41,0c1.45-1.44,2.64-3.15,3.48-5.01.92-2.03,1.43-4.22,1.5-6.45.04-1.33-.07-2.66-.33-3.97-.03-.15-.22-.24-.36-.2-.16.05-.24.2-.21.36h0Z"/>
      <path class="cls-3" d="M377.25,67.98c-.11.76-.17,1.57,0,2.32.03.12.16.22.28.21.4,0,.8.01,1.2.04.41.03.82.06,1.23.11.05,0,.11.01.16.02.03,0,.06,0,.08.01-.06,0,.03,0,.03,0,.11.02.22.03.33.05.24.04.47.08.71.13.52.11,1.03.25,1.52.45-.07-.09-.14-.19-.21-.28-.07.63-.13,1.26-.19,1.9-.1,1.09-.2,2.19-.25,3.29-.02.4-.05.81.02,1.2.04-.11.09-.22.13-.33-.66.34-1.32.68-1.99,1.03-1.08.56-2.15,1.12-3.2,1.73-.19.11-.38.22-.57.34-.13.08-.26.17-.35.3.15-.02.31-.04.46-.06-.33-.27-.64-.56-.94-.86-.29-.29-.58-.6-.84-.92-.07-.09-.14-.17-.21-.26-.02-.02-.04-.05-.06-.07.03.04,0,0-.02-.02-.04-.05-.07-.1-.11-.14-.13-.18-.26-.37-.38-.56-.13-.21-.24-.42-.34-.64,0,0-.02-.04,0,0,.01.03,0-.01,0-.02-.01-.03-.02-.06-.03-.09-.02-.05-.04-.1-.05-.15-.04-.11-.07-.22-.09-.34v.16c.05-.16.11-.32.17-.48.07-.18.14-.36.21-.54.02-.05.04-.1.06-.14,0-.02.01-.03.02-.05,0,0-.03.07,0,.02.01-.03.03-.06.04-.1.05-.12.1-.23.15-.35.24-.54.51-1.06.81-1.57.16-.28.34-.55.52-.81.04-.06.09-.12.13-.18.02-.03.05-.06.07-.1l.04-.06s.05-.07.01-.02c.1-.13.2-.25.31-.37.23-.27.48-.52.75-.75.03-.03.06-.05.1-.08.02-.01.03-.03.05-.04.01,0,.07-.05.01,0,.07-.05.14-.1.21-.15.14-.1.29-.19.44-.27.14-.07.18-.27.11-.4-.08-.14-.26-.18-.4-.11-.97.51-1.72,1.36-2.34,2.24-.57.82-1.04,1.71-1.44,2.63-.15.34-.29.68-.42,1.03-.06.16-.12.31-.17.48-.05.17.04.39.1.55.09.28.22.55.36.8.29.52.65,1,1.04,1.46.51.6,1.08,1.17,1.68,1.67,0,0,.02.02.03.03.15.12.34.11.46-.06-.02.03-.06.06-.02.03.03-.02.1-.06,0,0,.05-.03.1-.07.15-.1.15-.1.31-.2.47-.29.48-.28.96-.54,1.45-.81,1.04-.56,2.09-1.11,3.14-1.65l.71-.36c.12-.06.16-.21.13-.33-.01-.09,0,.08,0,0,0-.03,0-.06,0-.1,0-.07,0-.14,0-.22,0-.2,0-.39,0-.59.02-.52.06-1.04.09-1.56.08-1.03.17-2.06.28-3.09.02-.23.05-.45.07-.68.01-.14-.1-.24-.21-.28-.89-.36-1.85-.54-2.8-.66-.73-.09-1.46-.15-2.2-.17-.14,0-.28,0-.42,0,.09.07.19.14.28.21-.01-.06-.02-.11-.03-.17,0,0-.01-.09,0-.06,0,.03,0-.06,0-.07-.01-.11-.02-.23-.02-.34,0-.23,0-.46,0-.69,0-.18.03-.36.04-.54l.02-.16c0-.08-.01.09,0,0,.02-.15-.04-.32-.2-.36-.14-.03-.34.04-.36.2h0Z"/>
      <path class="cls-3" d="M370.77,79.17s0-.03,0-.04c0,.08,0-.02.01-.05,0-.03.02-.06.03-.09,0-.03.02-.05.03-.07,0-.01.01-.03.02-.04.03-.06-.02.03,0,.01.07-.15.15-.29.24-.43.01-.02.02-.03.04-.05s.07-.1.01-.02c.03-.05.07-.09.11-.13.08-.1.17-.19.26-.27.1-.1.21-.19.32-.28.03-.03.06-.05.1-.08.01-.01.03-.02.04-.03-.04.03,0,0,.01-.01.07-.05.14-.1.21-.15.4-.28.82-.51,1.25-.73.14-.07.18-.27.11-.4-.09-.14-.26-.17-.4-.11-.71.35-1.41.78-2,1.33-.31.3-.61.65-.79,1.04-.09.19-.17.4-.17.61,0,.15.13.3.29.29.15-.01.29-.13.29-.3h0Z"/>
      <path class="cls-3" d="M376.15,80.58c-.12.59-.2,1.19-.27,1.78-.14,1.21-.21,2.44-.11,3.65.06.71.16,1.42.38,2.1.04-.11.09-.22.13-.33-.74.35-1.47.76-2.12,1.26-.25.19-.49.39-.7.63.12-.02.24-.03.35-.05-.07-.05-.14-.09-.2-.14-.07-.05-.14-.1-.22-.16-.04-.03-.08-.06-.13-.09-.02-.02-.05-.04-.07-.05-.01,0-.02-.02-.03-.03-.02-.01.05.03,0,0-.44-.34-.87-.71-1.23-1.14-.03-.03-.05-.06-.07-.09-.01-.01-.02-.03-.03-.04.02.03.02.02,0,0-.04-.06-.08-.12-.12-.18-.04-.06-.07-.11-.1-.17-.01-.03-.03-.06-.04-.09-.02-.03.02.03,0,.02,0,0-.03-.07-.03-.08-.05-.15-.2-.25-.36-.2-.15.04-.26.21-.2.36.19.55.62,1.01,1.04,1.4.39.36.81.69,1.24,1,.09.06.18.13.27.19.1.07.27.05.35-.05.17-.2.37-.37.57-.53-.05.04.03-.02.04-.03.03-.02.06-.04.08-.06.06-.04.11-.08.17-.12.12-.08.24-.16.36-.24.4-.25.81-.48,1.23-.69.08-.04.17-.09.25-.12.11-.05.17-.22.13-.33-.09-.28-.17-.57-.22-.87-.03-.15-.06-.31-.08-.46,0,0,0-.06,0-.03,0,.04,0-.02,0-.03,0-.04,0-.08-.01-.12,0-.08-.02-.16-.03-.24-.06-.63-.07-1.27-.05-1.9.02-.58.06-1.16.12-1.74.01-.13.03-.25.04-.38,0-.06.01-.11.02-.17,0-.02,0-.06.01-.08,0,0,0,.07,0,.02,0-.02,0-.04,0-.06.03-.19.06-.38.09-.57.03-.2.06-.39.11-.59.03-.15-.04-.32-.2-.36-.14-.03-.32.04-.36.2h0Z"/>
      <path class="cls-3" d="M373.38,89.87c.03.28.11.55.21.81.27.73.67,1.4,1.12,2.03.35.48.73.94,1.14,1.37.24.25.48.5.73.73.14.13.27.25.41.37.1.09.19.18.31.23.59.23,1.21.4,1.82.56,1.09.28,2.23.5,3.36.48.13,0,.26,0,.39-.02.2-.02.31-.17.28-.37-.07-.43-.14-.85-.21-1.28-.06-.37-.12-.74-.17-1.12-.01-.09-.03-.19-.04-.28,0-.05-.01-.09-.02-.14,0-.01-.01-.08,0-.03,0,.04,0-.03,0-.04-.02-.17-.04-.35-.06-.52-.03-.28-.07-.56-.06-.83,0-.09-.06-.21-.14-.25-.59-.28-1.17-.58-1.75-.89-1.05-.56-2.1-1.15-3.05-1.86-.03-.02-.06-.04-.08-.06-.03-.03.06.05,0,0-.01-.01-.03-.02-.04-.03-.06-.05-.11-.09-.17-.14-.1-.08-.2-.17-.29-.26-.08-.08-.16-.16-.23-.25,0,0-.01-.02-.02-.03-.04-.05,0,0,0,.01-.01,0-.04-.05-.04-.06-.03-.04-.05-.08-.07-.12-.08-.14-.26-.18-.4-.11-.14.08-.18.26-.11.4.22.38.58.69.92.96.47.37.97.71,1.48,1.02.94.58,1.92,1.11,2.92,1.6.21.11.42.21.64.31-.05-.08-.1-.17-.14-.25-.01.24.02.48.04.72.04.37.09.75.14,1.12.1.69.21,1.39.33,2.08.03.16.06.32.08.49.09-.12.19-.25.28-.37-.46.04-.93.02-1.39-.03-.06,0-.12-.01-.18-.02-.03,0-.06,0-.08,0h-.04s-.06-.01-.03,0c.03,0-.01,0-.02,0-.01,0-.03,0-.04,0-.03,0-.06,0-.1-.01-.06,0-.12-.02-.18-.03-.24-.04-.48-.09-.71-.14-.75-.16-1.49-.36-2.21-.6-.14-.05-.29-.09-.43-.15.04.03.09.05.13.08-.59-.51-1.16-1.06-1.67-1.65-.11-.13-.22-.26-.33-.39-.05-.06-.09-.11-.14-.17-.01-.01-.07-.09-.04-.05-.03-.03-.05-.07-.08-.1-.16-.22-.32-.44-.46-.67-.23-.36-.43-.73-.6-1.11,0-.02-.02-.04-.02-.05-.03-.07.01.03,0,0-.01-.04-.03-.07-.04-.11-.03-.07-.05-.13-.08-.2-.04-.1-.07-.21-.1-.32-.02-.08-.04-.15-.05-.23,0-.02,0-.04-.01-.06,0-.04.01.1,0,.06-.02-.15-.12-.3-.29-.29-.14,0-.31.13-.29.29h0Z"/>
      <path class="cls-3" d="M383.07,71.25c-.11.09-.05.04-.02.02.03-.02.06-.05.1-.07.12-.09.24-.17.36-.25.42-.28.85-.54,1.29-.78.61-.33,1.21-.61,1.82-.84.35-.13.71-.25,1.07-.34.19-.05.39-.1.58-.14.09-.02.18-.03.26-.05.05,0,.09-.02.14-.02.02,0,.04,0,.06,0,0,0,.09-.01.05,0,.09-.01.19-.01.28-.03.08-.02-.02-.02,0-.01.01,0,.03.01.05.02.01,0,.03.01.04.02.06.03-.08-.03,0,0,.05.02.1.04.14.06.31.13.62.27.93.42.93.43,1.85.89,2.73,1.42.23.14.46.28.68.43.1.07.21.14.31.21.05.03.1.07.15.11.02.02.04.03.06.05.05.04-.04-.03,0,0,.02.01.03.02.05.04.17.14.34.28.5.44.07.07.14.14.2.22.01.02.03.03.04.05l.02.02s-.02-.02-.02-.02c0,.02.07.1.08.12.04.07.09.14.12.21-.01-.05-.03-.1-.04-.15.01.63.02,1.25.02,1.88,0,1.09,0,2.19-.09,3.29,0,.13-.02.26-.03.38,0,.06-.01.11-.02.17,0,.03-.02.13,0,.02,0,.02,0,.05,0,.07-.02.16-.05.32-.11.47.04-.06.09-.12.13-.17-.62.34-1.25.66-1.88.97-.57.28-1.13.56-1.71.82-.29.13-.57.26-.86.38.08-.03-.02,0-.04.02-.04.01-.07.03-.11.04-.07.03-.14.06-.21.09-.13.05-.25.1-.38.15-.24.09-.48.17-.73.23-.05.01-.1.02-.15.03-.02,0-.04,0-.06.01-.01,0-.02,0-.03,0-.06.01.07,0,.03,0-.07,0-.14.01-.22,0,.05.01.1.03.15.04-.65-.36-1.3-.74-1.94-1.12-1.11-.66-2.23-1.34-3.27-2.11-.06-.05-.13-.09-.18-.14.08.07-.02-.02-.04-.03-.03-.02-.06-.04-.08-.07-.09-.08-.19-.16-.28-.24-.07-.07-.14-.14-.21-.21-.01-.02-.03-.03-.04-.05-.05-.06.04.06,0,0-.02-.03-.04-.06-.05-.09-.07-.14-.27-.18-.4-.11-.14.08-.18.26-.11.4.09.16.23.3.36.43.2.19.42.35.63.52.54.41,1.11.78,1.68,1.14.61.39,1.22.76,1.84,1.13.47.28.93.55,1.4.82.11.06.23.13.34.2.12.07.25.08.39.07.53-.06,1.04-.26,1.53-.46.68-.27,1.35-.58,2.01-.89.61-.29,1.22-.6,1.82-.91.34-.18.69-.36,1.03-.54.02,0,.04-.02.06-.03.12-.08.16-.23.19-.37.06-.25.09-.51.11-.77.07-.69.09-1.38.1-2.07.01-.71.02-1.42.01-2.12,0-.41,0-.82-.02-1.22,0-.19-.13-.37-.24-.51-.19-.25-.41-.47-.65-.68-.58-.49-1.22-.9-1.88-1.28-.65-.37-1.32-.71-1.99-1.04-.46-.22-.93-.43-1.4-.63-.1-.04-.2-.09-.3-.13-.1-.03-.23,0-.33.01-.16.02-.31.04-.47.07-.27.05-.55.1-.82.17-1.01.26-1.99.67-2.92,1.16-.6.32-1.18.67-1.73,1.06-.1.07-.2.14-.29.21-.12.1-.1.31,0,.41.12.12.28.09.41,0h0Z"/>
      <path class="cls-3" d="M389.43,68.43c0-.09.02-.18.03-.27l.04-.3v-.08s0,.08,0,.02c0-.01,0-.02,0-.03l.03-.2c.08-.53.16-1.07.3-1.58.02-.06.03-.11.05-.17,0-.02.06-.14.06-.15,0,0-.03.07-.02.04,0,0,0-.02.01-.03,0-.02.02-.04.03-.05.01-.02.05-.09-.01,0,0,0,.02-.02.03-.03.11-.11.11-.3,0-.41s-.3-.11-.41,0c-.14.14-.2.34-.26.52-.08.24-.13.49-.18.74-.1.54-.18,1.09-.25,1.63-.01.12-.03.23-.04.35-.02.15.15.3.29.29.17,0,.28-.13.29-.29h0Z"/>
      <path class="cls-3" d="M395.53,72.62c.08-.04.15-.07.23-.11.04-.02.08-.03.11-.05.02,0,.04-.02.06-.03,0,0,.02,0,.03-.01.05-.02-.06.02,0,0,.11-.05.23-.09.35-.14.57-.22,1.16-.42,1.77-.54.08-.02.16-.03.25-.04.06,0,0,0,0,0,.02,0,.05,0,.07,0,.04,0,.09,0,.13-.01.16-.01.32-.02.48,0,.2.02.32-.2.28-.37-.06-.26-.13-.51-.21-.76-.06-.21-.14-.41-.22-.61-.07-.15-.14-.32-.26-.43-.11-.11-.3-.11-.41,0-.11.11-.11.3,0,.41.01.01.02.02.03.03.03.03-.04-.06-.01-.02.02.03.04.06.06.09.02.03.04.07.06.11,0,.02.02.03.02.05,0,.01.01.02.02.03-.02-.04-.02-.04,0-.01.07.18.13.36.19.55.07.24.14.48.2.72.09-.12.19-.25.28-.37-.63-.05-1.29.11-1.89.29-.54.16-1.07.37-1.58.59-.1.04-.2.09-.3.14-.14.07-.18.27-.11.4.09.15.26.18.4.11h0Z"/>
      <path class="cls-3" d="M398.86,71.65c.22.16.44.32.66.48.04.03.09.07.13.1l.04.03s-.04-.03,0,0c.03.02.05.04.08.06.1.08.21.16.31.25.2.16.39.33.58.5.09.08.17.17.25.26.02.02.04.04.06.06,0,0,.01.02.02.03.04.05-.01,0,0-.01,0,.02.07.1.08.12.08.14.26.18.4.11.14-.08.19-.26.11-.4-.23-.4-.63-.71-.98-1.01-.38-.31-.77-.61-1.17-.9-.08-.06-.17-.12-.25-.18-.13-.09-.32-.02-.4.11-.09.14-.03.31.1.4h0Z"/>
      <path class="cls-3" d="M394.88,78.87c.41.53.8,1.06,1.2,1.6.67.92,1.34,1.85,1.92,2.83.11.2.23.4.32.6.04.08-.02-.05,0,0,0,.02.02.04.02.06.01.03.03.07.04.11,0,.03.01.06.02.09.02.06,0-.08,0-.03,0,.01,0,.03,0,.04,0,.15.14.31.29.29.46-.05.92-.12,1.37-.22.76-.15,1.56-.34,2.23-.73.15-.09.29-.19.42-.31.09-.09.21-.2.24-.33.04-.14.05-.3.08-.45.12-.69.23-1.38.33-2.07.06-.37.11-.74.15-1.12.03-.23.06-.46.05-.69,0-.06,0-.11-.02-.17-.03-.15-.22-.24-.36-.2-.16.04-.23.2-.2.36.01.06,0-.09,0-.03,0,.02,0,.04,0,.05,0,.04,0,.08,0,.12,0,.12-.02.23-.03.35-.01.15-.03.3-.05.45-.01.08-.02.17-.03.25,0-.06,0-.03,0,0,0,.02,0,.04,0,.06l-.02.14c-.1.7-.21,1.41-.33,2.11-.03.2-.07.4-.1.6,0,.02,0,.04-.01.06,0,.05.04-.09,0-.02,0,0,.05-.05,0,0l-.03.03s-.05.05-.08.08c-.03.02-.05.04-.08.07-.04.03.05-.04,0,0-.02.01-.04.03-.05.04-.14.09-.28.17-.43.24-.04.02-.08.03-.11.05-.05.02.06-.02-.01,0-.02,0-.04.02-.07.03-.09.04-.18.07-.27.1-.36.12-.74.22-1.11.3-.33.07-.66.13-.99.18-.06,0-.12.02-.19.03-.03,0-.06,0-.08.01-.05,0,.02,0,.03,0-.01,0-.03,0-.04,0-.06,0-.13.01-.19.02,0,0-.02,0-.03,0l.29.29c0-.14-.04-.28-.1-.41-.08-.2-.17-.39-.28-.57-.26-.46-.55-.91-.84-1.34-.62-.92-1.27-1.81-1.93-2.69-.15-.19-.29-.39-.44-.58-.1-.12-.25-.19-.4-.11-.12.08-.2.28-.11.41h0Z"/>
      <path class="cls-3" d="M402.39,82.89c.02.1.03.2.04.3,0,.02,0,.05,0,.07s.01.12,0,.02c0,.06.02.12.02.18.02.14.03.28.05.42.07.63.14,1.26.15,1.89,0,.14,0,.29,0,.43,0,.03,0,.07,0,.1,0,.04-.03.11,0,.02-.02.05-.02.11-.03.16-.04.15.05.33.2.36.16.04.31-.05.36-.2.07-.23.07-.49.07-.74,0-.31-.02-.62-.05-.94-.05-.62-.12-1.23-.21-1.84-.02-.13-.03-.26-.06-.39-.02-.16-.22-.24-.36-.2-.17.05-.23.2-.2.36h0Z"/>
      <path class="cls-3" d="M398.4,84.1c-.03.12-.07.24-.11.35-.05.14-.1.28-.15.41-.03.08-.06.17-.1.25-.02.04-.04.09-.06.13-.03.07.02-.05,0,.02-.01.03-.02.05-.03.08-.45,1.04-1.02,2.03-1.68,2.94-.22.3-.45.58-.71.88-.28.32-.58.63-.89.93.07-.03.14-.06.21-.09-.17-.01-.35-.03-.52-.05-.19-.02-.38-.04-.56-.06-.11-.01-.23-.03-.34-.04l-.17-.02s-.06,0,.02,0c-.02,0-.03,0-.05,0-.03,0-.07,0-.11-.01-1.08-.15-2.18-.33-3.22-.66-.13-.04-.26-.09-.38-.13-.03-.01-.05-.02-.08-.03-.02,0-.13-.04-.04-.02-.06-.02-.11-.05-.16-.07-.09-.05-.19-.09-.28-.15-.04-.03-.08-.05-.12-.08s.02,0,.03.02c0,0-.03-.02-.03-.02-.02-.02-.04-.03-.05-.05.03.07.06.14.09.21,0-.24,0-.49,0-.73v-1.75c.01-.7.02-1.4.02-2.11v-1.83c.01-.3.02-.59.01-.89h0c0-.17-.14-.31-.29-.31-.16,0-.29.13-.29.29,0,.33,0,.65,0,.98,0,.74,0,1.48-.01,2.22,0,.8,0,1.61-.01,2.42,0,.52,0,1.03,0,1.55,0,.04,0,.09,0,.13,0,.18.14.28.28.37.29.21.63.34.96.46.85.3,1.74.47,2.62.61.76.12,1.52.22,2.29.3.14.01.28.04.42.04.16,0,.28-.15.38-.25.13-.13.26-.26.38-.39.24-.26.47-.53.7-.8.75-.93,1.39-1.95,1.9-3.03.27-.57.52-1.17.71-1.78,0-.03.02-.06.02-.08.04-.15-.05-.32-.2-.36-.15-.03-.31.05-.35.2h0Z"/>
      <path class="cls-3" d="M388.45,88.57c-.58.38-1.17.75-1.76,1.1-.53.32-1.07.62-1.62.91-.27.14-.55.28-.83.41-.13.06-.27.12-.4.18-.02,0-.08.03,0,0-.01,0-.02,0-.03.01-.03.01-.07.03-.1.04-.06.02-.12.05-.18.07-.24.09-.49.18-.75.23-.03,0-.05,0-.08.01-.01,0-.03,0-.04,0-.05,0,.09,0,.02,0-.05,0-.09,0-.14.01-.04,0-.09,0-.13,0-.08,0,.07.01.01,0-.02,0-.04,0-.06-.01-.1-.03-.21,0-.29.08-.08.08-.09.18-.08.29l.2,1.47c.11.77.21,1.55.31,2.33.02.17.03.35.07.52.03.13.13.18.24.23.14.07.29.13.44.19.28.11.56.21.84.3,1.09.34,2.22.56,3.36.72.41.06.82.11,1.24.15.11.01.22.02.33.03.07,0,.13.01.19,0,.13-.03.27-.11.39-.16.35-.14.69-.29,1.03-.44.93-.41,1.85-.84,2.73-1.34.42-.24.83-.49,1.21-.78.17-.13.35-.26.51-.42.1-.1.11-.19.11-.32l-.02-1.96c0-.67-.01-1.34-.02-2.01,0-.04,0-.08,0-.11,0-.15-.13-.3-.29-.29-.16,0-.29.13-.29.29,0,.47,0,.94.01,1.41,0,.75.01,1.5.02,2.25v.52c.03-.07.06-.14.09-.21-.07.07-.14.13-.21.19-.03.03-.07.06-.11.09-.02.02-.04.03-.06.05-.04.03,0,0,.01-.01-.02.01-.03.02-.05.04-.18.14-.37.26-.56.39-.43.28-.88.52-1.34.76-.46.24-.92.46-1.38.67-.21.1-.42.19-.63.28-.18.08-.37.14-.55.24.08-.04.02,0,0,0-.02,0-.04.02-.06.02-.04.02-.08.03-.12.05-.07.03-.13.06-.2.08-.09.04-.19.08-.28.11-.03,0-.05.02-.08.03-.07.03.06-.02.05,0,0,0-.12,0-.13,0-.29-.02-.58-.05-.87-.09-.11-.01-.21-.03-.32-.04-.02,0-.05,0-.07,0-.03,0-.1-.01-.03,0-.06,0-.12-.02-.19-.03-.26-.04-.51-.08-.77-.12-1.16-.2-2.33-.47-3.42-.92.06.02-.04-.02-.05-.02-.03-.01-.06-.02-.08-.04-.07-.03-.13-.06-.2-.09.04.06.09.12.13.17-.08-.48-.13-.97-.2-1.45-.11-.78-.21-1.56-.32-2.34-.02-.18-.05-.36-.07-.54l-.36.36c.41.11.87-.03,1.26-.16.56-.19,1.1-.45,1.63-.71,1.03-.53,2.03-1.12,3.01-1.74.22-.14.43-.27.64-.42.13-.09.19-.26.11-.4-.07-.14-.26-.2-.39-.11h0Z"/>
      <path class="cls-3" d="M394.77,94.73c.2.11.45.14.67.15.6.04,1.21-.1,1.77-.29.56-.19,1.1-.43,1.62-.71-.05.01-.1.03-.15.04.15,0,.3-.13.29-.29,0-.16-.13-.29-.29-.29-.14,0-.29.12-.42.18-.13.06-.25.12-.38.18-.06.03-.12.06-.18.08-.06.03-.05.02-.11.05-.11.05-.22.09-.33.13-.35.13-.7.23-1.06.3-.03,0-.06.01-.1.02-.02,0-.04,0-.06,0-.07.01.07,0,0,0-.07,0-.13.02-.2.02-.11,0-.22.01-.33,0-.04,0-.09,0-.13,0-.02,0-.04,0-.05,0-.01,0-.02,0-.03,0-.05,0,.08.01.04,0-.06-.01-.12-.02-.18-.04-.04-.01-.08-.03-.13-.04s.09.04.04.02h0c-.14-.08-.32-.04-.4.1-.08.13-.03.32.1.4h0Z"/>
      <path class="cls-3" d="M388.85,97.55v.78c0,.15.13.3.29.29.16,0,.29-.13.29-.29v-.78c0-.15-.13-.3-.29-.29-.16,0-.29.13-.29.29Z"/>
    </g>
  </g>
  <g>
    <path class="cls-5" d="M22.7,244.5v-.39c0-1.08.39-2.1,1.16-3.06.53-.65,1.23-1.4,2.08-2.24.86-.84,1.63-1.53,2.33-2.05l3.06-2.01.98-.39c.08,0,.17.04.28.13.1.09.17.15.21.19-.24.26-.49.48-.74.65-1.06.65-1.98,1.37-2.76,2.14-.78.78-1.16,1.39-1.16,1.82.04.17.1.26.18.26.57.43.86,1.06.86,1.89,0,.91-.29,1.69-.86,2.34-1.02,1.52-2.23,2.27-3.62,2.27-1.06,0-1.74-.52-2.02-1.56ZM29.87,244.5v-.39c0-.43.1-.93.31-1.5.2-.56.47-1.08.8-1.56,1.39-1.65,2.88-3.08,4.47-4.29.45-.35,1.01-.74,1.69-1.17.67-.43,1.13-.71,1.38-.84l.98-.39c.12,0,.23.04.34.13.1.09.17.15.21.19-.29.3-.53.52-.74.65-1.14.65-2.09,1.35-2.85,2.11-.76.76-1.13,1.38-1.13,1.85l.18.26c.57.35.86.98.86,1.89s-.27,1.65-.8,2.34c-1.1,1.52-2.33,2.27-3.68,2.27-1.14,0-1.82-.52-2.02-1.56Z"/>
    <path class="cls-5" d="M32.14,261.2v-2.08c0-5.46,2.67-10.86,8.03-16.18,2.82-2.86,5.8-5.09,8.95-6.7,3.15-1.6,6.11-2.41,8.89-2.41,4.62,0,6.92,1.78,6.92,5.33,0,2.9-1.39,5.76-4.17,8.58-1.39,1.43-2.96,2.58-4.72,3.45-1.76.87-3.41,1.3-4.96,1.3-1.27,0-2.28-.31-3.03-.94-.76-.62-1.13-1.45-1.13-2.49,0-1.21.37-2.38,1.1-3.52s1.76-2.1,3.06-2.88c.61-.34,1.36-.69,2.24-1.03.88-.34,1.48-.52,1.81-.52.16,0,.33.06.49.2,0,.04.02.09.06.13-.25.26-.45.39-.61.39-.33,0-.73.12-1.19.36-.47.24-1.09.72-1.87,1.45-1.14,1.12-1.72,2.28-1.72,3.48,0,.95.33,1.7.98,2.26.65.56,1.55.84,2.7.84,2.08,0,4.11-1.15,6.07-3.44.82-.95,1.48-2.1,1.99-3.45.51-1.34.77-2.6.77-3.77,0-2.82-1.49-4.22-4.47-4.22-2.53,0-5.13.93-7.78,2.79-1.31,1-2.71,2.24-4.2,3.74-1.49,1.5-2.65,2.85-3.46,4.06-1.31,1.91-2.32,3.86-3.03,5.85-.71,1.99-1.07,3.83-1.07,5.52,0,2.3.61,4.12,1.84,5.46,1.23,1.34,2.9,2.02,5.02,2.02,2.53,0,5.16-.91,7.87-2.73,2.72-1.82,4.69-4.01,5.91-6.56.12-.22.23-.37.34-.46.1-.09.19-.15.28-.2.08,0,.2.11.37.33.04.04.08.09.12.13,0,.13-.14.46-.43.97l-1.23,1.95c-2.01,3.21-4.61,5.76-7.79,7.67s-6.43,2.86-9.75,2.86c-5.37,0-8.43-2.51-9.17-7.54Z"/>
    <path class="cls-5" d="M56.34,263.37l-.06-.65c0-3.15,1.53-6,4.6-8.55s6.5-3.82,10.29-3.82,5.94,1.92,5.94,5.76c0,2.25-.96,4.58-2.88,7-.86,1.04-1.63,1.83-2.33,2.36-.7.54-1.72,1.11-3.06,1.72-1.72.65-3.21.97-4.47.97-4.82,0-7.5-1.6-8.03-4.79ZM61.61,265.82l.06.65c.33.52.82.78,1.47.78.82,0,1.73-.45,2.73-1.36,1-.91,2.18-2.31,3.52-4.21,1.18-1.68,2.22-3.41,3.09-5.18.88-1.77,1.32-3.04,1.32-3.82,0-.82-.45-1.23-1.35-1.23-1.92,0-4.37,2.09-7.35,6.28-1.02,1.47-1.86,2.95-2.51,4.43-.65,1.49-.98,2.71-.98,3.66Z"/>
    <path class="cls-5" d="M74.42,267.57l9.31-14.56c.29-.52.43-.95.43-1.3l-.06-.52h6.68l.12.71c0,.34-.13.69-.38,1.03l-1.48,2.2c.74-.59,1.23-1,1.47-1.21.74-.59,1.31-1.02,1.72-1.28,2.01-1.32,3.79-1.98,5.34-1.98,1.06,0,1.96.3,2.7.91.74.6,1.11,1.36,1.11,2.27,0,.73-.31,1.6-.92,2.59l-2.39,3.5-2.45,3.56c-.49.91-.74,1.42-.74,1.55,0,.52.29.78.86.78s1.48-.51,2.73-1.53c1.25-1.02,2.38-2.15,3.4-3.41l1.41-1.75,1.04-1.43c.16-.48.37-.72.61-.72l.37.32-.31.65-1.16,1.62c-1.47,2.28-3.38,4.29-5.73,6.01-2.35,1.72-4.32,2.58-5.91,2.58-2.29,0-3.43-.99-3.43-2.98,0-.73.23-1.53.7-2.4.47-.86,1.46-2.29,2.97-4.27,1.39-1.81,2.26-3,2.6-3.56.35-.56.52-1.01.52-1.36,0-.65-.29-.97-.86-.97-.45,0-1.08.2-1.9.58-.82.39-1.49.82-2.03,1.3l-1.72,1.62-1.29,1.23-6.45,10.19-6.9.02Z"/>
    <path class="cls-5" d="M108.67,252.04h-3.62l.67-.84h3.49c1.72-2.6,3.16-4.6,4.32-6.01s2.4-2.65,3.71-3.74c3.39-2.86,6.82-4.29,10.29-4.29,2.21,0,3.31.63,3.31,1.88,0,.61-.22,1.13-.67,1.56-.45.43-1.04.65-1.78.65-.08,0-.18-.09-.31-.26l.09-.26.34-.78v-.46c0-.95-.43-1.43-1.29-1.43-.98,0-2.23.82-3.74,2.47-.41.43-.92,1.04-1.53,1.82-.61.78-1.06,1.37-1.35,1.76-.94,1.26-1.8,2.51-2.57,3.77-.24.43-.9,1.54-1.96,3.32h4.78l-.49.84h-4.72l-2.88,4.81-3,5.4c-.78,1.47-2.21,3.49-4.29,6.04-1.18,1.52-2.45,2.97-3.8,4.35-1.18,1.21-2.29,2.19-3.31,2.93-3.02,2.12-6.03,3.18-9.01,3.18-1.55,0-2.86-.3-3.92-.91-1.06-.61-1.59-1.34-1.59-2.21,0-.65.25-1.23.74-1.75.49-.52,1.08-.78,1.78-.78,1.02,0,1.53.41,1.53,1.24-.16.3-.33.52-.49.65-.49.35-.74.84-.74,1.49,0,.43.18.8.55,1.11.37.3.86.46,1.47.46,1.23,0,2.74-.78,4.53-2.34,1.02-.87,1.9-1.8,2.63-2.79,1.68-2.25,3.47-5.03,5.39-8.32l3-5.33,2.88-4.68,1.53-2.54Z"/>
    <path class="cls-5" d="M126.62,251.19l.12.65c0,.48-.31,1.15-.92,2.02l-5.88,9.03c-.73,1-1.1,1.82-1.1,2.47,0,.74.27,1.1.8,1.1.57,0,1.31-.33,2.21-.97.69-.61,1.48-1.35,2.36-2.24.88-.89,1.52-1.59,1.93-2.11l1.41-1.88c.49-.52.84-1,1.04-1.43.2-.43.35-.67.43-.71.08-.04.16-.09.24-.13l.31.33-.31.78-1.16,1.75c-.53.74-1,1.34-1.41,1.82-.74.78-1.31,1.39-1.72,1.82-1.06,1.21-1.98,2.08-2.76,2.6-1.59,1.47-3.39,2.21-5.39,2.21-1.18,0-2.16-.33-2.94-.97-.78-.65-1.16-1.47-1.16-2.47,0-.65.07-1.15.22-1.49s.61-1.13,1.39-2.34l4.98-7.53c.52-.92.77-1.48.77-1.7v-.59h6.56ZM135.87,240.66h4.41c-.37.39-.72.78-1.04,1.17-.53.61-1.04,1.11-1.53,1.5-.82.74-1.68,1.41-2.57,2.01-.9.61-1.82,1.11-2.76,1.5l-2.39,1.11c-.2.22-.47.32-.8.32l-.24-.26c.08-.13.17-.25.28-.36.1-.11.28-.21.52-.29l1.78-1.3,2.08-1.88c1.06-1.21,1.82-2.38,2.27-3.51Z"/>
    <path class="cls-5" d="M143.29,253.86l1.72-2.67h6.62l-6.99,11.03-.92,1.57c-.41.57-.61,1.07-.61,1.5,0,.78.35,1.17,1.04,1.17.57,0,1.33-.44,2.27-1.31.57-.52,1.2-1.13,1.9-1.83.86-.87,1.57-1.64,2.14-2.29l1.29-1.77,1.23-1.57c.16-.48.39-.72.67-.72l.31.32-.31.71-1.29,1.68c-.2.3-.45.65-.74,1.04s-.96,1.14-2.03,2.26l-2.64,2.71c-1.76,1.64-3.65,2.46-5.66,2.46-1.27,0-2.29-.28-3.04-.83-.76-.55-1.14-1.3-1.14-2.24v-1.22l-1.69,1.82c-1.69,1.52-3.58,2.27-5.67,2.27-2.82,0-4.22-1.37-4.22-4.09,0-1.13.35-2.36,1.04-3.71.7-1.34,1.7-2.71,3-4.09,1.51-1.6,3.25-2.93,5.21-3.97,1.96-1.04,3.72-1.56,5.27-1.56,2.16,0,3.25.97,3.25,2.92v.39ZM131.83,264.65c0,.95.45,1.43,1.35,1.43.53,0,1.27-.41,2.21-1.24.94-.82,1.96-1.97,3.06-3.44.25-.3.55-.74.92-1.3.61-.95,1.06-1.67,1.35-2.14.78-1.3,1.27-2.2,1.47-2.7.2-.5.31-1.03.31-1.59,0-.91-.37-1.37-1.1-1.37-.61,0-1.52.53-2.73,1.59-1.21,1.06-2.32,2.26-3.34,3.61-2.33,3.21-3.49,5.59-3.49,7.15Z"/>
    <path class="cls-5" d="M176.19,260.42c-.53,1.04-.93,1.96-1.19,2.76-.27.8-.4,1.48-.4,2.05,0,1.21.65,1.82,1.96,1.82,1.67,0,3.27-.58,4.78-1.75,1.51-1.08,2.96-2.54,4.35-4.35.61-.69,1.13-1.35,1.56-1.98.43-.63.72-1.13.89-1.5.16-.37.37-.55.61-.55l.31.33-.31.71-1.1,1.75-1.29,1.69c-1.02,1.21-1.93,2.21-2.73,2.99-.8.78-1.32,1.28-1.56,1.5-2.08,1.65-4.51,2.47-7.29,2.47-2,0-3.55-.43-4.66-1.3s-1.65-2.12-1.65-3.77c0-1.13.33-2.36.98-3.71.65-1.34,1.53-2.6,2.63-3.77,1.55-1.65,3.33-2.95,5.33-3.9,2-.95,4.02-1.43,6.07-1.43,1.51,0,2.69.26,3.52.78.84.52,1.26,1.26,1.26,2.21,0,1.52-1.15,2.95-3.46,4.29-2.31,1.34-5.18,2.23-8.61,2.67ZM177.48,257.95l-.98,1.75c1.47-.3,2.63-.64,3.49-1.01.86-.37,1.76-.96,2.7-1.79,1.84-1.6,2.76-3.01,2.76-4.22,0-.74-.35-1.11-1.04-1.11-.9,0-2.19.87-3.86,2.6-.65.65-1.23,1.28-1.72,1.89-.49.61-.94,1.23-1.35,1.88Z"/>
    <path class="cls-5" d="M182.62,267.57l9.31-14.56c.29-.52.43-.95.43-1.3l-.06-.52h6.68l.12.71c0,.34-.13.69-.38,1.03l-1.48,2.2c.74-.59,1.23-1,1.47-1.21.74-.59,1.31-1.02,1.72-1.28,2.01-1.32,3.79-1.98,5.34-1.98,1.06,0,1.96.3,2.7.91.74.6,1.11,1.36,1.11,2.27,0,.73-.31,1.6-.92,2.59l-2.39,3.5-2.45,3.56c-.49.91-.74,1.42-.74,1.55,0,.52.29.78.86.78s1.48-.51,2.73-1.53c1.25-1.02,2.38-2.15,3.4-3.41l1.41-1.75,1.04-1.43c.16-.48.37-.72.61-.72l.37.32-.31.65-1.16,1.62c-1.47,2.28-3.38,4.29-5.73,6.01-2.35,1.72-4.32,2.58-5.91,2.58-2.29,0-3.43-.99-3.43-2.98,0-.73.23-1.53.7-2.4.47-.86,1.46-2.29,2.97-4.27,1.39-1.81,2.26-3,2.6-3.56.35-.56.52-1.01.52-1.36,0-.65-.29-.97-.86-.97-.45,0-1.08.2-1.9.58-.82.39-1.49.82-2.03,1.3l-1.72,1.62-1.29,1.23-6.45,10.19-6.9.02Z"/>
    <path class="cls-5" d="M234.34,262.24l-.98,1.75c-.37.61-.55,1.04-.55,1.3,0,.56.29.84.86.84,1.02,0,2.7-1.17,5.02-3.51.69-.65,1.44-1.47,2.24-2.47.8-1,1.38-1.82,1.75-2.47.24-.48.49-.72.74-.72l.25.33c-.08.35-.16.56-.25.65l-1.29,1.75c-.16.3-.54.79-1.13,1.46-.59.67-1.17,1.33-1.75,1.98-3.31,3.42-6.21,5.13-8.7,5.13-1.14,0-2.08-.3-2.82-.91-.74-.61-1.1-1.4-1.1-2.4,0-.65.13-1.25.37-1.82.25-.56.79-1.47,1.62-2.72l12.78-20.3c.44-.61.67-1.02.67-1.24v-.78h6.68l.12.65c0,.39-.37,1.15-1.1,2.27l-13.42,21.19Z"/>
    <path class="cls-5" d="M241.08,263.37l-.06-.65c0-3.15,1.53-6,4.6-8.55s6.49-3.82,10.29-3.82,5.94,1.92,5.94,5.76c0,2.25-.96,4.58-2.88,7-.86,1.04-1.63,1.83-2.33,2.36-.7.54-1.72,1.11-3.06,1.72-1.72.65-3.21.97-4.47.97-4.82,0-7.5-1.6-8.03-4.79ZM246.35,265.82l.06.65c.33.52.82.78,1.47.78.82,0,1.73-.45,2.73-1.36,1-.91,2.18-2.31,3.52-4.21,1.18-1.68,2.21-3.41,3.09-5.18.88-1.77,1.32-3.04,1.32-3.82,0-.82-.45-1.23-1.35-1.23-1.92,0-4.37,2.09-7.35,6.28-1.02,1.47-1.86,2.95-2.51,4.43-.65,1.49-.98,2.71-.98,3.66Z"/>
    <path class="cls-5" d="M297.14,253.73l1.65-2.53h6.62l-17.89,27.88h-6.67s8.88-13.84,8.88-13.84c-1.51,1.04-2.72,1.75-3.62,2.14-.9.39-1.78.58-2.63.58-2.53,0-3.8-1.34-3.8-4.03,0-1.3.41-2.73,1.23-4.29.82-1.56,1.95-3.03,3.4-4.42,1.45-1.39,3.07-2.51,4.87-3.38,1.8-.87,3.45-1.3,4.96-1.3,2,0,3,1.06,3,3.18ZM285.44,264.78v.26c.12.69.55,1.04,1.29,1.04,1.23,0,3.08-1.65,5.55-4.94.29-.39.75-1.04,1.39-1.95.64-.91,1.04-1.52,1.2-1.82.99-1.69,1.48-2.97,1.48-3.83s-.37-1.3-1.1-1.3c-.7,0-1.56.44-2.6,1.33-1.04.89-2.18,2.13-3.4,3.74l-2.51,3.83c-.37.61-.67,1.25-.92,1.92-.24.67-.37,1.25-.37,1.72Z"/>
    <path class="cls-5" d="M313.14,263.09c-3.06,3.25-5.96,4.88-8.7,4.88-1.1,0-1.99-.27-2.67-.81s-1.01-1.27-1.01-2.18.57-2.23,1.72-4.09l1.53-2.34,3-4.75c.61-1,.92-1.65.92-1.95v-.65h6.62v.58c0,.69-.37,1.54-1.1,2.54l-2.82,4.42-2.02,3.05c-.65,1.04-1.06,1.62-1.23,1.75-.41.65-.61,1.19-.61,1.62,0,.56.27.84.8.84s1.16-.26,1.9-.78c1.27-.78,2.44-1.7,3.52-2.76,1.08-1.06,2.01-2.2,2.79-3.41l2.94-4.61c.78-1.3,1.16-2.17,1.16-2.6v-.65h6.56v.72c0,.53-.47,1.49-1.41,2.89l-3.13,4.98-1.59,2.49-.98,1.31c-.41.7-.61,1.18-.61,1.44,0,.66.29.98.86.98.69,0,1.81-.72,3.34-2.18,1.53-1.45,3.01-3.17,4.44-5.15l.86-1.25c.08-.13.16-.22.24-.26.08-.04.14-.07.18-.07.08,0,.16.03.24.1.08.07.14.12.18.16-.08.17-.14.3-.18.39-.16.3-.47.73-.92,1.29-.24.35-.73.97-1.47,1.87-.57.73-1,1.25-1.28,1.55-.61.69-1.19,1.3-1.74,1.84-.55.54-1.13,1.09-1.74,1.65-1.63,1.46-3.42,2.2-5.37,2.2-1.1,0-1.98-.26-2.66-.78-.67-.52-1.01-1.24-1.01-2.14,0-.52.14-1.24.43-2.15Z"/>
    <path class="cls-5" d="M333.48,260.42c-.53,1.04-.93,1.96-1.19,2.76-.27.8-.4,1.48-.4,2.05,0,1.21.65,1.82,1.96,1.82,1.67,0,3.27-.58,4.78-1.75,1.51-1.08,2.96-2.54,4.35-4.35.61-.69,1.13-1.35,1.56-1.98s.72-1.13.89-1.5c.16-.37.37-.55.61-.55l.31.33-.31.71-1.1,1.75-1.29,1.69c-1.02,1.21-1.93,2.21-2.73,2.99-.8.78-1.32,1.28-1.56,1.5-2.08,1.65-4.51,2.47-7.29,2.47-2,0-3.55-.43-4.66-1.3s-1.65-2.12-1.65-3.77c0-1.13.33-2.36.98-3.71.65-1.34,1.53-2.6,2.63-3.77,1.55-1.65,3.33-2.95,5.33-3.9,2-.95,4.02-1.43,6.07-1.43,1.51,0,2.69.26,3.52.78.84.52,1.26,1.26,1.26,2.21,0,1.52-1.15,2.95-3.46,4.29-2.31,1.34-5.18,2.23-8.61,2.67ZM334.76,257.95l-.98,1.75c1.47-.3,2.63-.64,3.49-1.01.86-.37,1.76-.96,2.7-1.79,1.84-1.6,2.76-3.01,2.76-4.22,0-.74-.35-1.11-1.04-1.11-.9,0-2.19.87-3.86,2.6-.65.65-1.23,1.28-1.72,1.89-.49.61-.94,1.23-1.35,1.88Z"/>
    <path class="cls-5" d="M368.65,260.42c-.53,1.04-.93,1.96-1.19,2.76-.27.8-.4,1.48-.4,2.05,0,1.21.65,1.82,1.96,1.82,1.67,0,3.27-.58,4.78-1.75,1.51-1.08,2.96-2.54,4.35-4.35.61-.69,1.13-1.35,1.56-1.98s.72-1.13.89-1.5c.16-.37.37-.55.61-.55l.31.33-.31.71-1.1,1.75-1.29,1.69c-1.02,1.21-1.93,2.21-2.73,2.99-.8.78-1.32,1.28-1.56,1.5-2.08,1.65-4.51,2.47-7.29,2.47-2,0-3.55-.43-4.66-1.3s-1.65-2.12-1.65-3.77c0-1.13.33-2.36.98-3.71.65-1.34,1.53-2.6,2.63-3.77,1.55-1.65,3.33-2.95,5.33-3.9,2-.95,4.02-1.43,6.07-1.43,1.51,0,2.69.26,3.52.78.84.52,1.26,1.26,1.26,2.21,0,1.52-1.15,2.95-3.46,4.29-2.31,1.34-5.18,2.23-8.61,2.67ZM369.94,257.95l-.98,1.75c1.47-.3,2.63-.64,3.49-1.01.86-.37,1.76-.96,2.7-1.79,1.84-1.6,2.76-3.01,2.76-4.22,0-.74-.35-1.11-1.04-1.11-.9,0-2.19.87-3.86,2.6-.65.65-1.23,1.28-1.72,1.89-.49.61-.94,1.23-1.35,1.88Z"/>
    <path class="cls-5" d="M387.95,253.79c-.82.36-1.46.61-1.93.73-.47.12-.99.18-1.56.18h-1.41l-.67,1.04-.61,1.17c-.2.39-.43.71-.67.97-.08.09-.2.2-.37.33l-.24-.33.18-.65.24-.39.49-.84.8-1.69.86-1.69.61-1.75c1.06.74,2.25,1.1,3.55,1.1,1.39,0,3.49-.5,6.31-1.51-.86,1.08-1.53,1.95-2.02,2.6-.82,1.08-1.53,2.15-2.14,3.19-2,3.08-3,5.12-3,6.12,0,1.39.43,2.08,1.29,2.08.45,0,1.33-.63,2.64-1.88.73-.69,1.54-1.59,2.42-2.7.88-1.1,1.41-1.87,1.59-2.31.18-.43.4-.65.64-.65l.31.33c-.12.3-.22.52-.31.65l-1.23,1.82-1.23,1.62-1.47,1.75-2.27,2.21c-1.14,1.08-2.1,1.83-2.88,2.24-.78.41-1.61.62-2.51.62-1.02,0-1.86-.33-2.51-.98-.65-.65-.98-1.47-.98-2.47,0-.91.21-1.76.61-2.57.41-.8,1.25-2,2.51-3.61.7-.87,1.33-1.6,1.9-2.21.78-.82,1.8-1.67,3.06-2.54Z"/>
    <path class="cls-5" d="M399.71,260.42c-.53,1.04-.93,1.96-1.19,2.76-.27.8-.4,1.48-.4,2.05,0,1.21.65,1.82,1.96,1.82,1.67,0,3.27-.58,4.78-1.75,1.51-1.08,2.96-2.54,4.35-4.35.61-.69,1.13-1.35,1.56-1.98.43-.63.73-1.13.89-1.5.16-.37.37-.55.61-.55l.31.33-.31.71-1.1,1.75-1.29,1.69c-1.02,1.21-1.93,2.21-2.73,2.99-.8.78-1.32,1.28-1.56,1.5-2.08,1.65-4.51,2.47-7.29,2.47-2,0-3.55-.43-4.66-1.3s-1.65-2.12-1.65-3.77c0-1.13.33-2.36.98-3.71.65-1.34,1.53-2.6,2.63-3.77,1.55-1.65,3.33-2.95,5.33-3.9,2-.95,4.02-1.43,6.07-1.43,1.51,0,2.69.26,3.52.78.84.52,1.26,1.26,1.26,2.21,0,1.52-1.16,2.95-3.46,4.29-2.31,1.34-5.18,2.23-8.61,2.67ZM401,257.95l-.98,1.75c1.47-.3,2.63-.64,3.49-1.01.86-.37,1.76-.96,2.7-1.79,1.84-1.6,2.76-3.01,2.76-4.22,0-.74-.35-1.11-1.04-1.11-.9,0-2.19.87-3.86,2.6-.65.65-1.23,1.28-1.72,1.89-.49.61-.94,1.23-1.35,1.88Z"/>
    <path class="cls-5" d="M416.32,252.36l-.86,1.1-.55.71-.61.91-.8,1.04-.49.71-.37.39c-.08.13-.17.24-.28.33s-.17.13-.21.13l-.31-.33.67-.98.98-1.49,1.16-1.56,1.1-1.88c1.76,0,3.16-.11,4.23-.33.24-.04,1.21-.31,2.88-.79-.41,1.34-.67,2.34-.8,2.99s-.18,1.43-.18,2.34v2.67c0,3.08-.96,5.49-2.87,7.22-1.91,1.74-4.58,2.6-7.99,2.6-1.02,0-1.88-.21-2.59-.62-.71-.41-1.07-.92-1.07-1.53,0-.26.08-.54.24-.84.41-.78,1.04-1.17,1.9-1.17l.25.33c-.08.35-.16.56-.25.65l-.24.98.24.71c.33.43.61.65.86.65,1.27,0,2.53-1.26,3.8-3.77,1.47-2.86,2.21-5.66,2.21-8.38l-.06-2.79Z"/>
    <path class="cls-5" d="M88.75,311.69c-.41.69-1.12,1.59-2.14,2.71-1.02,1.12-1.98,2.09-2.88,2.91-1.14,1.03-2.28,1.77-3.4,2.2-1.12.43-2.46.65-4.01.65-3.64,0-5.45-1.55-5.45-4.66,0-2.59,1.31-5.27,3.92-8.03,2.9-3.07,6.25-4.6,10.05-4.6,1.27,0,2.34.22,3.22.65.88.43,1.32.98,1.32,1.62,0,.69-.31,1.24-.92,1.62-.61.39-1.12.58-1.53.58l-.12-.19v-.26l.18-.58.06-.52c0-.43-.12-.8-.37-1.1-.24-.3-.55-.46-.92-.46-.65,0-1.48.46-2.48,1.39-1,.93-2.07,2.21-3.22,3.85-.57.82-1.01,1.5-1.32,2.04-.31.54-.64,1.22-1.01,2.04-.7,1.6-1.04,2.74-1.04,3.43,0,1.17.69,1.75,2.08,1.75.94,0,1.92-.31,2.94-.94,1.02-.62,2.27-1.69,3.74-3.2.94-.95,1.75-1.84,2.42-2.68.67-.84,1.17-1.58,1.5-2.23.16-.43.37-.65.61-.65l.24.26-.31.71-1.16,1.68Z"/>
    <path class="cls-5" d="M104.01,305.86l1.72-2.67h6.62l-6.99,11.03-.92,1.57c-.41.57-.61,1.07-.61,1.5,0,.78.35,1.17,1.04,1.17.57,0,1.33-.44,2.27-1.31.57-.52,1.2-1.13,1.9-1.83.86-.87,1.57-1.64,2.14-2.29l1.29-1.77,1.23-1.57c.16-.48.39-.72.67-.72l.31.32-.31.71-1.29,1.68c-.2.3-.45.65-.74,1.04s-.96,1.14-2.03,2.26l-2.64,2.71c-1.76,1.64-3.65,2.46-5.66,2.46-1.27,0-2.29-.28-3.04-.83-.76-.55-1.14-1.3-1.14-2.24v-1.22l-1.69,1.82c-1.69,1.52-3.58,2.27-5.67,2.27-2.82,0-4.22-1.37-4.22-4.09,0-1.13.35-2.36,1.04-3.71.7-1.34,1.7-2.71,3-4.09,1.51-1.6,3.25-2.93,5.21-3.97,1.96-1.04,3.72-1.56,5.27-1.56,2.16,0,3.25.97,3.25,2.92v.39ZM92.55,316.65c0,.95.45,1.43,1.35,1.43.53,0,1.27-.41,2.21-1.24.94-.82,1.96-1.97,3.06-3.44.25-.3.55-.74.92-1.3.61-.95,1.06-1.67,1.35-2.14.78-1.3,1.27-2.2,1.47-2.7.2-.5.31-1.03.31-1.59,0-.91-.37-1.37-1.1-1.37-.61,0-1.52.53-2.73,1.59-1.21,1.06-2.32,2.26-3.34,3.61-2.33,3.21-3.49,5.59-3.49,7.15Z"/>
    <path class="cls-5" d="M100.83,331.08l16.18-25.35c.61-.91.92-1.52.92-1.82l-.18-.71h6.62l.06.71-.61,1.04-.43.78,2.08-1.69c.61-.39,1.34-.74,2.17-1.04.84-.3,1.58-.46,2.24-.46,1.18,0,2.14.41,2.88,1.24s1.1,1.93,1.1,3.31c0,2.77-1.33,5.57-3.98,8.38-3.02,3.21-6.31,4.81-9.87,4.81-2.21,0-3.57-.76-4.11-2.28l-8.42,13.09-6.65-.02ZM125.21,312.03l1.29-2.21.98-2.21c.41-.87.61-1.52.61-1.95,0-.91-.39-1.37-1.16-1.37-.9,0-2.02.69-3.37,2.08-1.35,1.39-2.7,3.23-4.04,5.53l-.98,1.69c-1.06,1.73-1.59,3.12-1.59,4.16,0,.87.45,1.3,1.35,1.3.61,0,1.17-.17,1.68-.52.51-.35.97-.76,1.38-1.24.12-.13.61-.76,1.47-1.88.49-.56.88-1.05,1.16-1.46.29-.41.69-1.05,1.23-1.92Z"/>
    <path class="cls-5" d="M150.95,305.86l1.72-2.67h6.62l-6.99,11.03-.92,1.57c-.41.57-.61,1.07-.61,1.5,0,.78.35,1.17,1.04,1.17.57,0,1.33-.44,2.27-1.31.57-.52,1.2-1.13,1.9-1.83.86-.87,1.57-1.64,2.14-2.29l1.29-1.77,1.23-1.57c.16-.48.39-.72.67-.72l.31.32-.31.71-1.29,1.68c-.2.3-.45.65-.74,1.04s-.96,1.14-2.03,2.26l-2.64,2.71c-1.76,1.64-3.65,2.46-5.66,2.46-1.27,0-2.29-.28-3.04-.83-.76-.55-1.14-1.3-1.14-2.24v-1.22l-1.69,1.82c-1.69,1.52-3.58,2.27-5.67,2.27-2.82,0-4.22-1.37-4.22-4.09,0-1.13.35-2.36,1.04-3.71.7-1.34,1.7-2.71,3-4.09,1.51-1.6,3.25-2.93,5.21-3.97,1.96-1.04,3.72-1.56,5.27-1.56,2.16,0,3.25.97,3.25,2.92v.39ZM139.49,316.65c0,.95.45,1.43,1.35,1.43.53,0,1.27-.41,2.21-1.24.94-.82,1.96-1.97,3.06-3.44.25-.3.55-.74.92-1.3.61-.95,1.06-1.67,1.35-2.14.78-1.3,1.27-2.2,1.47-2.7.2-.5.31-1.03.31-1.59,0-.91-.37-1.37-1.1-1.37-.61,0-1.52.53-2.73,1.59-1.21,1.06-2.32,2.26-3.34,3.61-2.33,3.21-3.49,5.59-3.49,7.15Z"/>
    <path class="cls-5" d="M178.09,303.65c-.9.48-1.61.81-2.14,1.01-.53.2-1.44.43-2.73.71-1.29.28-2.12.45-2.51.49-.39.04-1.13.06-2.24.06-.86,0-1.64.08-2.36.23-.72.15-1.3.36-1.75.63l-.98.66-1.59,1.59-.25.4c-.08.13-.17.23-.28.3-.1.07-.17.1-.21.1-.2,0-.31-.13-.31-.39.04-.13.07-.25.09-.36.02-.11.13-.25.34-.43l.74-.98.98-1.71c.53-.96.96-1.6,1.29-1.9.33-.31.92-.61,1.78-.92.86-.31,2.1-.46,3.74-.46l3.13.22,2.27.22.92.07c.57,0,1.23-.06,1.96-.17.74-.12,1.23-.23,1.47-.35l.55-.2h.24l.43.2c-.16.17-.31.33-.43.46l-.49.52-.86.98-.86,1.44c-.98,1.7-2.1,3.21-3.37,4.52-1.19,1.14-2.48,2.07-3.89,2.79-1.41.72-3.34,1.39-5.79,2-.82.22-1.53.42-2.14.59s-1.27.44-1.96.79c-.49.22-.91.45-1.26.69-.35.24-.83.65-1.44,1.21,1.55-.69,2.83-1.15,3.83-1.37,1-.22,2.11-.33,3.34-.33.57,0,1.07.02,1.5.07.43.04,1.07.15,1.93.33,1.35.35,2.33.52,2.94.52,1.1,0,2.14-.5,3.12-1.5.69-.56,1.31-1.13,1.84-1.69s1.04-1.15,1.53-1.75l1.35-1.75,1.16-1.69c.12-.22.22-.36.31-.42.08-.06.18-.12.31-.16.08,0,.15.04.21.13.06.09.11.15.15.2-.04.13-.08.25-.12.36-.04.11-.12.23-.25.36l-1.23,1.75-1.35,1.69c-.65.82-1.19,1.46-1.59,1.92-.41.46-.98,1.03-1.72,1.72-1.27,1.21-2.39,2.06-3.37,2.54s-2.08.71-3.31.71c-.74,0-1.3-.02-1.69-.07-.39-.04-1.23-.23-2.51-.55-1.29-.33-2.23-.53-2.82-.62-.59-.09-1.21-.13-1.87-.13-.9,0-1.59.13-2.08.39l-.55.26h-.24c-.08,0-.18-.07-.31-.2,0-.22.49-1,1.47-2.35,2.08-2.87,4.13-5.06,6.13-6.56s4.41-2.62,7.23-3.36l1.84-.59c.37-.09.77-.22,1.19-.39.43-.17.87-.35,1.32-.52.61-.3,1.05-.58,1.32-.82.27-.24.56-.62.89-1.14Z"/>
    <path class="cls-5" d="M213.14,305.66l8.56-13.47c.3-.43.45-.82.45-1.16l-.25-.9h6.8c.08.13.13.26.15.39.02.13.05.26.09.39,0,.17-.04.36-.12.55-.08.19-.27.55-.55,1.07l-13.17,20.73c-1.19,1.71-1.78,3-1.78,3.85s.29,1.22.86,1.22c.94,0,2.57-1.25,4.9-3.74.86-.9,1.67-1.85,2.45-2.84.78-.99,1.28-1.71,1.5-2.16.22-.45.44-.68.64-.68l.37.32-.37.71-1.16,1.74-1.41,1.68-1.47,1.68c-2.9,3.4-5.74,5.11-8.52,5.11-2.41,0-3.62-.93-3.62-2.79,0-.3.12-1.08.37-2.34-1.55,1.86-2.96,3.15-4.23,3.87-1.27.71-2.51,1.07-3.74,1.07-2.86,0-4.29-1.26-4.29-3.77,0-1.78.53-3.53,1.59-5.27,1.55-2.34,3.54-4.34,5.97-6.01,2.43-1.67,4.6-2.5,6.52-2.5,2.29,0,3.43,1.08,3.43,3.25ZM205.48,316.58c.9-.87,1.57-1.57,2.02-2.11.45-.54.92-1.2,1.41-1.98l1.78-2.99c.74-1.17,1.2-1.97,1.41-2.41.2-.43.31-.87.31-1.3,0-1-.35-1.5-1.04-1.5-.61,0-1.53.5-2.76,1.5-1.23,1-2.31,2.12-3.25,3.38-1.14,1.47-2.03,2.85-2.67,4.13-.63,1.28-.95,2.33-.95,3.15,0,1.04.45,1.56,1.35,1.56.65,0,1.45-.48,2.39-1.43Z"/>
    <path class="cls-5" d="M228.4,312.42c-.53,1.04-.93,1.96-1.19,2.76-.27.8-.4,1.48-.4,2.05,0,1.21.65,1.82,1.96,1.82,1.67,0,3.27-.58,4.78-1.75,1.51-1.08,2.96-2.54,4.35-4.35.61-.69,1.13-1.35,1.56-1.98.43-.63.72-1.13.89-1.5.16-.37.37-.55.61-.55l.31.33-.31.71-1.1,1.75-1.29,1.69c-1.02,1.21-1.93,2.21-2.73,2.99-.8.78-1.32,1.28-1.56,1.5-2.08,1.65-4.51,2.47-7.29,2.47-2,0-3.55-.43-4.66-1.3s-1.65-2.12-1.65-3.77c0-1.13.33-2.36.98-3.71.65-1.34,1.53-2.6,2.63-3.77,1.55-1.65,3.33-2.95,5.33-3.9,2-.95,4.02-1.43,6.07-1.43,1.51,0,2.69.26,3.52.78.84.52,1.26,1.26,1.26,2.21,0,1.52-1.15,2.95-3.46,4.29-2.31,1.34-5.18,2.23-8.61,2.67ZM229.68,309.95l-.98,1.75c1.47-.3,2.63-.64,3.49-1.01.86-.37,1.76-.96,2.7-1.79,1.84-1.6,2.76-3.01,2.76-4.22,0-.74-.35-1.11-1.04-1.11-.9,0-2.19.87-3.86,2.6-.65.65-1.23,1.28-1.72,1.89-.49.61-.94,1.23-1.35,1.88Z"/>
    <path class="cls-5" d="M262.1,314.24l-.98,1.75c-.37.61-.55,1.04-.55,1.3,0,.56.29.84.86.84,1.02,0,2.7-1.17,5.02-3.51.69-.65,1.44-1.47,2.24-2.47.8-1,1.38-1.82,1.75-2.47.24-.48.49-.72.73-.72l.25.33c-.08.35-.16.56-.25.65l-1.29,1.75c-.16.3-.54.79-1.13,1.46-.59.67-1.17,1.33-1.75,1.98-3.31,3.42-6.21,5.13-8.7,5.13-1.14,0-2.08-.3-2.82-.91-.74-.61-1.1-1.4-1.1-2.4,0-.65.13-1.25.37-1.82.25-.56.79-1.47,1.62-2.72l12.78-20.3c.44-.61.67-1.02.67-1.24v-.78h6.68l.12.65c0,.39-.37,1.15-1.1,2.27l-13.42,21.19Z"/>
    <path class="cls-5" d="M268.83,315.37l-.06-.65c0-3.15,1.53-6,4.6-8.55s6.49-3.82,10.29-3.82,5.94,1.92,5.94,5.76c0,2.25-.96,4.58-2.88,7-.86,1.04-1.63,1.83-2.33,2.36-.7.54-1.72,1.11-3.06,1.72-1.72.65-3.21.97-4.47.97-4.82,0-7.5-1.6-8.03-4.79ZM274.11,317.82l.06.65c.33.52.82.78,1.47.78.82,0,1.73-.45,2.73-1.36,1-.91,2.18-2.31,3.52-4.21,1.18-1.68,2.21-3.41,3.09-5.18.88-1.77,1.32-3.04,1.32-3.82,0-.82-.45-1.23-1.35-1.23-1.92,0-4.37,2.09-7.35,6.28-1.02,1.47-1.86,2.95-2.51,4.43-.65,1.49-.98,2.71-.98,3.66Z"/>
    <path class="cls-5" d="M299.96,317.17c-2.17,1.99-4.25,2.99-6.25,2.99-2.61,0-3.92-1.45-3.92-4.36,0-2.69,1.43-5.44,4.29-8.25,1.51-1.47,3.18-2.69,4.99-3.64,1.82-.95,3.38-1.43,4.69-1.43,2.29,0,3.43,1.08,3.43,3.25l1.65-2.53h6.74l-10.05,15.86c-2.04,3.21-3.53,5.41-4.47,6.6-.94,1.19-1.98,2.18-3.13,2.96-2.37,1.65-5.19,2.47-8.46,2.47-1.84,0-3.25-.3-4.23-.91-.98-.61-1.47-1.52-1.47-2.73,0-.61.24-1.17.74-1.69.49-.52,1.04-.78,1.65-.78,1.02,0,1.53.43,1.53,1.3-.08.26-.16.39-.24.39l-.49.33-.37.46-.18.91c0,1.21.76,1.82,2.27,1.82,1.02,0,2-.37,2.94-1.1.74-.56,1.33-1.17,1.78-1.82.33-.43.74-1,1.23-1.69.78-1.17,1.47-2.25,2.08-3.25l1.9-2.86,1.35-2.28ZM295.8,316.78v.32c.12.61.53.91,1.23.91s1.43-.32,2.19-.97,1.76-1.8,2.99-3.45c1.07-1.39,2.03-2.91,2.9-4.58.86-1.67,1.29-2.81,1.29-3.41,0-.82-.39-1.23-1.16-1.23-1.55,0-3.59,1.78-6.13,5.33-2.21,3.08-3.31,5.44-3.31,7.08Z"/>
    <path class="cls-5" d="M322.14,305.79c-.82.36-1.46.61-1.93.73-.47.12-.99.18-1.56.18h-1.41l-.67,1.04-.61,1.17c-.2.39-.43.71-.67.97-.08.09-.2.2-.37.33l-.25-.33.18-.65.24-.39.49-.84.8-1.69.86-1.69.61-1.75c1.06.74,2.25,1.1,3.55,1.1,1.39,0,3.49-.5,6.31-1.51-.86,1.08-1.53,1.95-2.02,2.6-.82,1.08-1.53,2.15-2.14,3.19-2,3.08-3,5.12-3,6.12,0,1.39.43,2.08,1.29,2.08.45,0,1.33-.63,2.63-1.88.74-.69,1.54-1.59,2.42-2.7.88-1.1,1.41-1.87,1.59-2.31.18-.43.4-.65.64-.65l.31.33c-.12.3-.22.52-.31.65l-1.23,1.82-1.23,1.62-1.47,1.75-2.27,2.21c-1.14,1.08-2.1,1.83-2.88,2.24s-1.61.62-2.51.62c-1.02,0-1.86-.33-2.51-.98-.65-.65-.98-1.47-.98-2.47,0-.91.2-1.76.61-2.57.41-.8,1.25-2,2.51-3.61.7-.87,1.33-1.6,1.9-2.21.78-.82,1.8-1.67,3.06-2.54Z"/>
    <path class="cls-5" d="M343.28,305.86l1.72-2.67h6.62l-6.99,11.03-.92,1.57c-.41.57-.61,1.07-.61,1.5,0,.78.35,1.17,1.04,1.17.57,0,1.33-.44,2.27-1.31.57-.52,1.2-1.13,1.9-1.83.86-.87,1.57-1.64,2.14-2.29l1.29-1.77,1.23-1.57c.16-.48.39-.72.67-.72l.31.32-.31.71-1.29,1.68c-.2.3-.45.65-.74,1.04s-.96,1.14-2.03,2.26l-2.64,2.71c-1.76,1.64-3.65,2.46-5.66,2.46-1.27,0-2.29-.28-3.05-.83-.76-.55-1.14-1.3-1.14-2.24v-1.22l-1.69,1.82c-1.69,1.52-3.58,2.27-5.67,2.27-2.82,0-4.22-1.37-4.22-4.09,0-1.13.35-2.36,1.04-3.71.7-1.34,1.69-2.71,3-4.09,1.51-1.6,3.25-2.93,5.21-3.97,1.96-1.04,3.72-1.56,5.27-1.56,2.16,0,3.25.97,3.25,2.92v.39ZM331.82,316.65c0,.95.45,1.43,1.35,1.43.53,0,1.27-.41,2.21-1.24.94-.82,1.96-1.97,3.06-3.44.25-.3.55-.74.92-1.3.61-.95,1.06-1.67,1.35-2.14.78-1.3,1.27-2.2,1.47-2.7s.31-1.03.31-1.59c0-.91-.37-1.37-1.1-1.37-.61,0-1.52.53-2.73,1.59-1.21,1.06-2.32,2.26-3.34,3.61-2.33,3.21-3.49,5.59-3.49,7.15Z"/>
    <path class="cls-5" d="M360.32,305.79c-.82.36-1.46.61-1.93.73-.47.12-.99.18-1.56.18h-1.41l-.67,1.04-.61,1.17c-.2.39-.43.71-.67.97-.08.09-.2.2-.37.33l-.25-.33.18-.65.24-.39.49-.84.8-1.69.86-1.69.61-1.75c1.06.74,2.25,1.1,3.55,1.1,1.39,0,3.49-.5,6.31-1.51-.86,1.08-1.53,1.95-2.02,2.6-.82,1.08-1.53,2.15-2.14,3.19-2,3.08-3,5.12-3,6.12,0,1.39.43,2.08,1.29,2.08.45,0,1.33-.63,2.63-1.88.74-.69,1.54-1.59,2.42-2.7.88-1.1,1.41-1.87,1.59-2.31.18-.43.4-.65.64-.65l.31.33c-.12.3-.22.52-.31.65l-1.23,1.82-1.23,1.62-1.47,1.75-2.27,2.21c-1.14,1.08-2.1,1.83-2.88,2.24s-1.61.62-2.51.62c-1.02,0-1.86-.33-2.51-.98-.65-.65-.98-1.47-.98-2.47,0-.91.2-1.76.61-2.57.41-.8,1.25-2,2.51-3.61.7-.87,1.33-1.6,1.9-2.21.78-.82,1.8-1.67,3.06-2.54Z"/>
    <path class="cls-5" d="M376.74,297.8c.2-.3.45-.54.74-.72,1.06-.7,1.98-1.44,2.76-2.22s1.16-1.37,1.16-1.76l-.18-.26c-.57-.35-.86-.96-.86-1.83s.26-1.66.77-2.35c.51-.7,1.11-1.25,1.81-1.67.69-.41,1.33-.62,1.9-.62,1.35,0,2.02.65,2.02,1.96,0,1.05-.39,2.05-1.16,3.01-.57.74-1.25,1.49-2.02,2.26-.78.76-1.56,1.45-2.36,2.06-.8.61-1.61,1.17-2.45,1.67-.84.5-1.38.75-1.62.75-.12,0-.23-.03-.31-.1-.08-.07-.14-.12-.18-.16ZM384.64,297.08c1.1-.7,2.03-1.43,2.79-2.19.76-.76,1.13-1.36,1.13-1.8l-.12-.26c-.65-.39-.98-1-.98-1.83,0-.39.08-.79.25-1.21.16-.42.39-.82.67-1.21.45-.61,1.03-1.13,1.75-1.57.71-.44,1.34-.65,1.87-.65.61,0,1.11.19,1.5.55.39.37.58.84.58,1.41,0,1-.41,2-1.23,3.01-1.14,1.53-2.6,2.96-4.35,4.31-.74.61-1.54,1.17-2.42,1.67-.88.5-1.44.75-1.69.75-.12,0-.22-.02-.31-.06-.08-.04-.14-.11-.18-.2.04-.09.11-.2.21-.33.1-.13.28-.26.52-.39Z"/>
  </g>
  <g>
    <path class="cls-5" d="M54.24,371.84l-.93,4.68h6.44c.05.3.06.52.05.67-.01.15-.04.3-.09.46-.05.18-.1.4-.16.64-.06.24-.15.52-.29.84h-9.53l3.34-17.21h9.53c0,.39-.01.7-.03.93-.02.23-.06.41-.1.55-.05.21-.09.44-.14.71-.05.26-.13.5-.24.71h-6.51l-.86,4.41h5.37c.05.3.06.52.05.67-.01.15-.04.3-.09.46-.05.18-.1.4-.15.64-.06.24-.16.52-.29.84h-5.37Z"/>
    <path class="cls-5" d="M74.62,362.13c.34-.11.65-.18.93-.19.28-.01.5-.02.69-.02.25,0,.49.01.72.03.23.02.47.13.72.31l-3.2,16.45c-.6.21-1.12.33-1.57.36s-.86.05-1.22.05h-.46c-.2,0-.41,0-.64-.02-.23-.01-.45-.03-.67-.07-.22-.03-.41-.07-.57-.12l-1.38-13.53-2.62,13.49c-.37.11-.69.18-.96.21-.28.02-.5.03-.69.03-.25,0-.48-.02-.69-.05-.21-.03-.45-.14-.72-.33l3.17-16.42c.62-.21,1.1-.33,1.43-.36.33-.03.69-.05,1.08-.05s.83.01,1.31.03c.48.02.95.13,1.41.31l1.2,13.7,2.72-13.84Z"/>
    <path class="cls-5" d="M87.25,362.1c.37-.07.68-.11.95-.12.26-.01.46-.02.6-.02s.33,0,.59.02c.25.01.57.05.96.12l-2.82,14.42h5.92c.02.39.02.67,0,.84-.02.17-.05.34-.07.5-.05.18-.09.34-.12.48-.03.14-.13.4-.29.79h-9.02l3.3-17.04Z"/>
    <path class="cls-5" d="M106.05,378.69c-.32.16-.64.28-.96.34-.32.07-.61.1-.86.1-.18,0-.4,0-.64-.02-.24-.01-.5-.07-.77-.19l-.1-5.06h-3.58l-2.03,5.06c-.32.11-.6.18-.84.19-.24.01-.45.02-.64.02-.25,0-.53-.03-.84-.1-.31-.07-.59-.18-.84-.34l6.99-16.38c.57-.18,1.01-.29,1.31-.33.3-.03.64-.05,1.03-.05s.73.02,1.02.05c.29.03.68.14,1.19.33l.59,16.38ZM102.67,370.98l-.1-5.58-2.24,5.58h2.34Z"/>
    <path class="cls-5" d="M109.35,375.21c.57.53,1.18.91,1.82,1.14.64.23,1.24.34,1.79.34.41,0,.79-.02,1.14-.07.34-.05.66-.16.95-.34.29-.18.53-.45.74-.81.21-.36.38-.85.52-1.5.07-.39-.06-.72-.4-.98-.33-.26-.76-.5-1.29-.72-.53-.22-1.1-.45-1.72-.71-.62-.25-1.18-.59-1.67-1-.49-.41-.87-.92-1.14-1.53-.26-.61-.3-1.38-.12-2.32.34-1.84,1.08-3.12,2.2-3.86,1.12-.73,2.72-1.1,4.78-1.1.8,0,1.51.06,2.12.19.61.13,1.29.35,2.05.67-.07.28-.14.52-.21.74-.07.22-.15.43-.26.64s-.22.41-.36.62c-.14.21-.31.45-.52.72-.48-.21-.96-.37-1.43-.5-.47-.13-1.11-.19-1.91-.19-.46,0-.88.02-1.26.05-.38.03-.71.12-1,.26-.29.14-.52.34-.71.62-.18.28-.32.65-.41,1.14-.09.46.02.83.34,1.12.32.29.75.55,1.27.79.53.24,1.1.49,1.72.74.62.25,1.18.57,1.69.96.5.39.9.87,1.17,1.45.28.57.32,1.31.14,2.2-.25,1.24-.61,2.22-1.07,2.93-.46.71-1,1.25-1.62,1.6s-1.29.58-2.01.67c-.72.09-1.47.14-2.25.14-.92,0-1.8-.1-2.65-.31-.85-.21-1.56-.65-2.13-1.34.11-.48.29-.91.53-1.29.24-.38.63-.76,1.15-1.15Z"/>
    <path class="cls-5" d="M139.88,367.02c-.18.87-.42,1.58-.71,2.12-.29.54-.74,1-1.36,1.39.46.37.73.83.83,1.39.09.56.05,1.26-.14,2.08-.25,1.29-.6,2.27-1.03,2.96-.44.69-.96,1.19-1.57,1.51-.61.32-1.27.51-2,.57-.72.06-1.49.09-2.29.09h-4.03l3.34-17.21h4.03c.8,0,1.55.03,2.25.09.7.06,1.29.24,1.77.55.48.31.81.82,1,1.51.18.7.15,1.68-.1,2.94ZM132.07,376.52c.3,0,.63-.02.98-.07.36-.05.69-.15,1-.31.31-.16.59-.4.83-.71.24-.31.41-.72.5-1.22.09-.48.08-.87-.03-1.17-.12-.3-.29-.53-.53-.71-.24-.17-.53-.29-.86-.36-.33-.07-.65-.1-.95-.1h-.89l-.93,4.65h.9ZM136.79,367.02c.09-.5.07-.9-.05-1.19-.13-.29-.32-.5-.57-.65-.25-.15-.55-.25-.88-.29-.33-.05-.65-.07-.95-.07h-.9l-.86,4.44h.9c.3,0,.62-.02.98-.07.36-.05.69-.15,1-.31s.59-.39.83-.69c.24-.3.41-.69.5-1.17Z"/>
    <path class="cls-5" d="M146.32,379.31c-1.47,0-2.57-.15-3.3-.47-.73-.31-1.23-.75-1.48-1.33-.25-.57-.33-1.26-.24-2.07.09-.8.23-1.7.41-2.69l2.1-10.71c.39-.07.72-.11.98-.12.26-.01.46-.02.6-.02s.33,0,.59.02c.25.01.56.05.93.12l-2.13,10.95c-.14.69-.24,1.26-.29,1.72-.06.46-.03.84.09,1.14.11.3.34.51.69.64s.86.19,1.55.19,1.23-.06,1.64-.19c.4-.13.72-.34.95-.64.23-.3.4-.68.52-1.14.11-.46.24-1.03.38-1.72l2.13-10.95c.39-.07.72-.11.98-.12.26-.01.46-.02.6-.02s.34,0,.6.02c.26.01.57.05.91.12l-2.1,10.71c-.18.99-.38,1.88-.6,2.69-.22.8-.56,1.49-1.03,2.07-.47.57-1.13,1.02-1.98,1.33-.85.31-2.01.47-3.48.47Z"/>
    <path class="cls-5" d="M159.85,371.84l-.93,4.68h6.44c.05.3.06.52.05.67-.01.15-.04.3-.09.46-.05.18-.1.4-.16.64-.06.24-.15.52-.29.84h-9.53l3.34-17.21h9.53c0,.39-.01.7-.03.93-.02.23-.06.41-.1.55-.05.21-.09.44-.14.71-.05.26-.13.5-.24.71h-6.51l-.86,4.41h5.37c.05.3.06.52.05.67-.01.15-.04.3-.09.46-.05.18-.1.4-.15.64-.06.24-.16.52-.29.84h-5.37Z"/>
    <path class="cls-5" d="M180.23,362.13c.34-.11.65-.18.93-.19.28-.01.5-.02.69-.02.25,0,.49.01.72.03.23.02.47.13.72.31l-3.2,16.45c-.6.21-1.12.33-1.57.36s-.86.05-1.22.05h-.46c-.2,0-.41,0-.64-.02-.23-.01-.45-.03-.67-.07-.22-.03-.41-.07-.57-.12l-1.38-13.53-2.62,13.49c-.37.11-.69.18-.96.21-.28.02-.5.03-.69.03-.25,0-.48-.02-.69-.05-.21-.03-.45-.14-.72-.33l3.17-16.42c.62-.21,1.1-.33,1.43-.36.33-.03.69-.05,1.08-.05s.83.01,1.31.03c.48.02.95.13,1.41.31l1.2,13.7,2.72-13.84Z"/>
    <path class="cls-5" d="M193.96,378.69c-.32.16-.64.28-.96.34-.32.07-.61.1-.86.1-.18,0-.4,0-.64-.02-.24-.01-.5-.07-.77-.19l-.1-5.06h-3.58l-2.03,5.06c-.32.11-.6.18-.84.19-.24.01-.45.02-.64.02-.25,0-.53-.03-.84-.1-.31-.07-.59-.18-.84-.34l6.99-16.38c.57-.18,1.01-.29,1.31-.33.3-.03.64-.05,1.03-.05s.73.02,1.02.05c.29.03.68.14,1.19.33l.59,16.38ZM190.59,370.98l-.1-5.58-2.24,5.58h2.34Z"/>
    <path class="cls-5" d="M197.27,375.21c.57.53,1.18.91,1.82,1.14.64.23,1.24.34,1.79.34.41,0,.79-.02,1.14-.07.34-.05.66-.16.95-.34.29-.18.53-.45.74-.81.21-.36.38-.85.52-1.5.07-.39-.06-.72-.4-.98-.33-.26-.76-.5-1.29-.72-.53-.22-1.1-.45-1.72-.71-.62-.25-1.18-.59-1.67-1-.49-.41-.87-.92-1.14-1.53-.26-.61-.3-1.38-.12-2.32.34-1.84,1.08-3.12,2.2-3.86,1.12-.73,2.72-1.1,4.78-1.1.8,0,1.51.06,2.12.19.61.13,1.29.35,2.05.67-.07.28-.14.52-.21.74-.07.22-.15.43-.26.64s-.22.41-.36.62c-.14.21-.31.45-.52.72-.48-.21-.96-.37-1.43-.5-.47-.13-1.11-.19-1.91-.19-.46,0-.88.02-1.26.05-.38.03-.71.12-1,.26-.29.14-.52.34-.71.62-.18.28-.32.65-.41,1.14-.09.46.02.83.34,1.12.32.29.75.55,1.27.79.53.24,1.1.49,1.72.74.62.25,1.18.57,1.69.96.5.39.9.87,1.17,1.45.28.57.32,1.31.14,2.2-.25,1.24-.61,2.22-1.07,2.93-.46.71-1,1.25-1.62,1.6s-1.29.58-2.01.67c-.72.09-1.47.14-2.25.14-.92,0-1.8-.1-2.65-.31-.85-.21-1.56-.65-2.13-1.34.11-.48.29-.91.53-1.29.24-.38.63-.76,1.15-1.15Z"/>
    <path class="cls-5" d="M222.87,378.97c-.39.09-.72.14-.98.15-.26.01-.45.02-.57.02-.16,0-.37,0-.62-.02-.25-.01-.56-.06-.93-.15l1.41-7.19-3.48-9.4c.46-.23.9-.36,1.33-.4.42-.03.72-.05.88-.05.09,0,.32,0,.67.02.36.01.65.07.88.19l1.89,6.54,4.44-6.54c.25-.09.56-.15.93-.17.37-.02.6-.03.69-.03.16,0,.44.02.84.05s.79.17,1.15.4l-7.13,9.4-1.41,7.19Z"/>
    <path class="cls-5" d="M241.19,371.84l-.93,4.68h6.44c.05.3.06.52.05.67-.01.15-.04.3-.09.46-.05.18-.1.4-.15.64-.06.24-.15.52-.29.84h-9.53l3.34-17.21h9.53c0,.39-.01.7-.03.93-.02.23-.06.41-.1.55-.05.21-.09.44-.14.71-.05.26-.13.5-.24.71h-6.51l-.86,4.41h5.37c.05.3.06.52.05.67-.01.15-.04.3-.09.46-.05.18-.1.4-.15.64-.06.24-.15.52-.29.84h-5.37Z"/>
    <path class="cls-5" d="M261.57,362.13c.34-.11.65-.18.93-.19.28-.01.5-.02.69-.02.25,0,.49.01.72.03.23.02.47.13.72.31l-3.2,16.45c-.6.21-1.12.33-1.57.36s-.86.05-1.22.05h-.47c-.2,0-.41,0-.64-.02-.23-.01-.45-.03-.67-.07s-.41-.07-.57-.12l-1.38-13.53-2.62,13.49c-.37.11-.69.18-.96.21-.28.02-.5.03-.69.03-.25,0-.48-.02-.69-.05s-.45-.14-.72-.33l3.17-16.42c.62-.21,1.1-.33,1.43-.36s.69-.05,1.08-.05.83.01,1.31.03c.48.02.95.13,1.41.31l1.21,13.7,2.72-13.84Z"/>
    <path class="cls-5" d="M274.2,362.1c.37-.07.68-.11.95-.12.26-.01.47-.02.6-.02s.33,0,.59.02c.25.01.57.05.96.12l-2.82,14.42h5.92c.02.39.02.67,0,.84-.02.17-.05.34-.07.5-.05.18-.09.34-.12.48-.03.14-.13.4-.29.79h-9.02l3.3-17.04Z"/>
    <path class="cls-5" d="M292.99,378.69c-.32.16-.64.28-.96.34-.32.07-.61.1-.86.1-.18,0-.4,0-.64-.02-.24-.01-.5-.07-.77-.19l-.1-5.06h-3.58l-2.03,5.06c-.32.11-.6.18-.84.19-.24.01-.45.02-.64.02-.25,0-.53-.03-.84-.1-.31-.07-.59-.18-.84-.34l6.99-16.38c.57-.18,1.01-.29,1.31-.33.3-.03.64-.05,1.03-.05s.73.02,1.02.05.68.14,1.19.33l.59,16.38ZM289.62,370.98l-.1-5.58-2.24,5.58h2.34Z"/>
    <path class="cls-5" d="M296.3,375.21c.57.53,1.18.91,1.82,1.14.64.23,1.24.34,1.79.34.41,0,.79-.02,1.14-.07.34-.05.66-.16.95-.34.29-.18.53-.45.74-.81.21-.36.38-.85.52-1.5.07-.39-.06-.72-.4-.98-.33-.26-.76-.5-1.29-.72-.53-.22-1.1-.45-1.72-.71-.62-.25-1.18-.59-1.67-1-.49-.41-.87-.92-1.14-1.53-.26-.61-.3-1.38-.12-2.32.34-1.84,1.08-3.12,2.2-3.86,1.12-.73,2.72-1.1,4.79-1.1.8,0,1.51.06,2.12.19s1.29.35,2.05.67c-.07.28-.14.52-.21.74-.07.22-.15.43-.26.64-.1.21-.22.41-.36.62-.14.21-.31.45-.52.72-.48-.21-.96-.37-1.43-.5-.47-.13-1.11-.19-1.91-.19-.46,0-.88.02-1.26.05-.38.03-.71.12-1,.26-.29.14-.52.34-.71.62s-.32.65-.41,1.14c-.09.46.02.83.34,1.12.32.29.75.55,1.27.79.53.24,1.1.49,1.72.74.62.25,1.18.57,1.69.96.5.39.9.87,1.17,1.45.28.57.32,1.31.14,2.2-.25,1.24-.61,2.22-1.07,2.93-.46.71-1,1.25-1.62,1.6-.62.36-1.29.58-2.01.67-.72.09-1.47.14-2.25.14-.92,0-1.8-.1-2.65-.31-.85-.21-1.56-.65-2.13-1.34.11-.48.29-.91.53-1.29.24-.38.63-.76,1.15-1.15Z"/>
    <path class="cls-5" d="M322.11,379.14c-.18,0-.4,0-.65-.02-.25-.01-.54-.07-.86-.19l-.21-14.04-2.72,14.01c-.39.11-.72.18-.98.21-.26.02-.49.03-.67.03-.25,0-.48-.02-.69-.05s-.45-.14-.72-.33l3.17-16.42c.64-.21,1.12-.33,1.45-.36.32-.03.68-.05,1.07-.05s.81.02,1.27.05c.46.03.94.14,1.45.33l.45,9.81,4.27-9.81c.57-.18,1.1-.29,1.58-.33s.92-.05,1.31-.05.74.02,1.05.05.73.15,1.26.36l-3.17,16.42c-.34.18-.63.29-.84.33-.22.03-.45.05-.71.05-.18,0-.41-.01-.67-.03-.26-.02-.57-.09-.91-.21l2.72-14.01-5.65,14.04c-.34.11-.65.18-.91.19-.26.01-.49.02-.67.02Z"/>
    <path class="cls-5" d="M343.63,378.69c-.32.16-.64.28-.96.34-.32.07-.61.1-.86.1-.18,0-.4,0-.64-.02-.24-.01-.5-.07-.77-.19l-.1-5.06h-3.58l-2.03,5.06c-.32.11-.6.18-.84.19-.24.01-.45.02-.64.02-.25,0-.53-.03-.84-.1-.31-.07-.59-.18-.84-.34l6.99-16.38c.57-.18,1.01-.29,1.31-.33.3-.03.64-.05,1.03-.05s.73.02,1.02.05.68.14,1.19.33l.59,16.38ZM340.26,370.98l-.1-5.58-2.24,5.58h2.34Z"/>
    <path class="cls-5" d="M348.62,362.1c.37-.07.68-.11.95-.12.26-.01.47-.02.6-.02s.33,0,.59.02c.25.01.57.05.96.12l-2.82,14.42h5.92c.02.39.02.67,0,.84-.02.17-.05.34-.07.5-.05.18-.09.34-.12.48-.03.14-.13.4-.29.79h-9.02l3.3-17.04Z"/>
    <path class="cls-5" d="M367.41,378.69c-.32.16-.64.28-.96.34-.32.07-.61.1-.86.1-.18,0-.4,0-.64-.02-.24-.01-.5-.07-.77-.19l-.1-5.06h-3.58l-2.03,5.06c-.32.11-.6.18-.84.19-.24.01-.45.02-.64.02-.25,0-.53-.03-.84-.1-.31-.07-.59-.18-.84-.34l6.99-16.38c.57-.18,1.01-.29,1.31-.33.3-.03.64-.05,1.03-.05s.73.02,1.02.05.68.14,1.19.33l.59,16.38ZM364.04,370.98l-.1-5.58-2.24,5.58h2.34Z"/>
    <path class="cls-5" d="M370.72,375.21c.57.53,1.18.91,1.82,1.14.64.23,1.24.34,1.79.34.41,0,.79-.02,1.14-.07.34-.05.66-.16.95-.34.29-.18.53-.45.74-.81.21-.36.38-.85.52-1.5.07-.39-.06-.72-.4-.98-.33-.26-.76-.5-1.29-.72-.53-.22-1.1-.45-1.72-.71-.62-.25-1.18-.59-1.67-1-.49-.41-.87-.92-1.14-1.53-.26-.61-.3-1.38-.12-2.32.34-1.84,1.08-3.12,2.2-3.86,1.12-.73,2.72-1.1,4.79-1.1.8,0,1.51.06,2.12.19s1.29.35,2.05.67c-.07.28-.14.52-.21.74-.07.22-.15.43-.26.64-.1.21-.22.41-.36.62-.14.21-.31.45-.52.72-.48-.21-.96-.37-1.43-.5-.47-.13-1.11-.19-1.91-.19-.46,0-.88.02-1.26.05-.38.03-.71.12-1,.26-.29.14-.52.34-.71.62s-.32.65-.41,1.14c-.09.46.02.83.34,1.12.32.29.75.55,1.27.79.53.24,1.1.49,1.72.74.62.25,1.18.57,1.69.96.5.39.9.87,1.17,1.45.28.57.32,1.31.14,2.2-.25,1.24-.61,2.22-1.07,2.93-.46.71-1,1.25-1.62,1.6-.62.36-1.29.58-2.01.67-.72.09-1.47.14-2.25.14-.92,0-1.8-.1-2.65-.31-.85-.21-1.56-.65-2.13-1.34.11-.48.29-.91.53-1.29.24-.38.63-.76,1.15-1.15Z"/>
    <path class="cls-5" d="M383.45,375.56c.37-.07.68-.11.95-.12.26-.01.47-.02.6-.02s.33,0,.58.02c.25.01.57.05.96.12l-.69,3.44c-.39.07-.71.11-.96.12-.25.01-.45.02-.58.02s-.34,0-.6-.02c-.26-.01-.58-.05-.95-.12l.69-3.44ZM385.28,374.01c-.28,0-.51-.01-.71-.03-.2-.02-.4-.05-.6-.07l2.07-11.81c.39-.09.73-.14,1.02-.15.29-.01.49-.02.6-.02.14,0,.34,0,.62.02.28.01.59.06.93.15-.44,2-.86,3.95-1.27,5.85-.41,1.9-.83,3.89-1.24,5.95-.53.07-1,.1-1.41.1Z"/>
    <path class="cls-5" d="M390.1,375.56c.37-.07.68-.11.95-.12.26-.01.47-.02.6-.02s.33,0,.58.02c.25.01.57.05.96.12l-.69,3.44c-.39.07-.71.11-.96.12-.25.01-.45.02-.58.02s-.34,0-.6-.02c-.26-.01-.58-.05-.95-.12l.69-3.44ZM391.92,374.01c-.28,0-.51-.01-.71-.03-.2-.02-.4-.05-.6-.07l2.07-11.81c.39-.09.73-.14,1.02-.15.29-.01.49-.02.6-.02.14,0,.34,0,.62.02.28.01.59.06.93.15-.44,2-.86,3.95-1.27,5.85-.41,1.9-.83,3.89-1.24,5.95-.53.07-1,.1-1.41.1Z"/>
  </g>
  <path class="cls-1" d="M103.98,134.64c-7.17.75-14.77,1.89-22.73,3.56-25.68,5.39-46.84,14.56-63.09,23.5,2.54,1.34,5.97,3.12,10.34,3.84,4.71.77,9.23,1.09,9.23,1.09,0,0-12.34,13.04-10.94,16.52,9.36-4.62,20.88-9.42,34.39-13.28,16.94-4.84,32.17-6.82,44.39-7.54-.53-9.23-1.06-18.45-1.59-27.68Z"/>
  <path class="cls-1" d="M345.14,134.48c7.17.75,14.77,1.89,22.73,3.56,25.68,5.39,46.84,14.56,63.09,23.5-2.54,1.34-5.97,3.12-10.34,3.84-4.71.77-9.23,1.09-9.23,1.09,0,0,12.34,13.04,10.94,16.52-9.36-4.62-20.88-9.42-34.39-13.28-16.94-4.84-32.17-6.82-44.39-7.54.53-9.23,1.06-18.45,1.59-27.68Z"/>
  <path class="cls-4" d="M364.45,158.73c-35.25-10.1-83.77-19.97-141.83-19.99-58.24-.02-106.89,9.88-142.2,19.99v-30.19c33.95-10.72,82.54-21.88,141.46-21.95,59.46-.07,108.46,11.18,142.57,21.95v30.19Z"/>
  <text class="cls-10" transform="translate(106.88 144.15) rotate(-9.73) scale(1.33 1)"><tspan x="0" y="0">E</tspan></text>
  <text class="cls-10" transform="translate(135.06 139.32) rotate(-7.12) scale(1.33 1)"><tspan x="0" y="0">L</tspan></text>
  <text class="cls-10" transform="translate(163 135.97) rotate(-5.39) scale(1.33 1)"><tspan x="0" y="0"> </tspan></text>
  <text class="cls-10" transform="translate(172.75 134.9) rotate(-3.62) scale(1.33 1)"><tspan x="0" y="0">T</tspan></text>
  <text class="cls-10" transform="translate(201.86 133.07) rotate(-1.04) scale(1.33 1)"><tspan x="0" y="0">A</tspan></text>
  <text class="cls-10" transform="translate(229.37 132.56) rotate(1.48) scale(1.33 1)"><tspan x="0" y="0">L</tspan></text>
  <text class="cls-10" transform="translate(257.42 133.28) rotate(4.05) scale(1.33 1)"><tspan x="0" y="0">L</tspan></text>
  <text class="cls-10" transform="translate(285.4 135.25) rotate(6.66) scale(1.33 1)"><tspan x="0" y="0">E</tspan></text>
  <text class="cls-10" transform="translate(313.79 138.51) rotate(9.51) scale(1.33 1)"><tspan x="0" y="0">R</tspan></text>
  <text class="cls-10" transform="translate(339.5 143.03) rotate(77.46) scale(1.33 1)"><tspan x="0" y="0"> </tspan></text>
</svg>