<?xml version="1.0" encoding="UTF-8"?>
<svg id="Capa_1" data-name="Capa 1" xmlns="http://www.w3.org/2000/svg" viewBox="0 0 549.39 613.38">
  <defs>
    <style>
      .cls-1 {
        fill: #000;
      }

      .cls-1, .cls-2, .cls-3, .cls-4, .cls-5, .cls-6 {
        stroke-width: 0px;
      }

      .cls-2 {
        fill: #21487d;
      }

      .cls-3 {
        fill: #010101;
      }

      .cls-4 {
        fill: #d7672b;
      }

      .cls-5 {
        fill: #fff;
      }

      .cls-6 {
        fill: #b1b2b6;
      }
    </style>
  </defs>
  <path class="cls-6" d="M259.41,609.38c-14.25-9.03-28.77-17.62-42.86-26.92-29.57-19.54-57.78-40.88-84.56-64.04-30.62-26.5-58.79-55.43-84.17-87.07-15.13-18.86-29.13-38.44-40.92-59.58-6.63-11.89-8.11-24.4-6.05-37.75,1.56-10.08,1.98-20.33,3.11-30.49,1.65-14.83,3.56-29.63,5.18-44.46.92-8.39,1.3-16.82,2.27-25.22,2.6-22.63,4.78-45.31,7.29-67.95,2.1-18.96,4.4-37.89,6.66-56.83,1.61-13.47,9-22.74,21.46-27.56,21.54-8.34,43.26-16.21,64.89-24.31,21.61-8.09,43.35-15.88,64.77-24.46,16.74-6.71,33.63-12.97,50.54-19.21,11.37-4.19,22.72-8.59,34.38-11.75,10.57-2.87,21.4-2.17,31.92,1.6,15.3,5.48,30.72,10.63,45.97,16.25,9.97,3.67,19.85,7.58,29.66,11.72,13.89,5.86,28.19,10.75,42.33,16.03,25.52,9.54,51.04,19.06,76.56,28.58,4.99,1.86,10.04,3.57,14.95,5.61,13.51,5.59,20.06,16.2,21.8,30.35,2.14,17.33,3.45,34.75,5.98,52.05,1.09,7.45,1.5,15.02,2.36,22.53,1.74,15.14,3.07,30.32,4.69,45.48,3.53,33.09,6.86,66.2,10.83,99.24,1.52,12.63,1.73,24.86-3.7,36.56-3.87,8.33-8.84,16.07-13.76,23.81-11.76,18.53-25.57,35.55-39.49,52.45-16.4,19.91-34.71,38.05-53.47,55.73-5.66,5.34-26.36,24.53-56.51,47.89-22.78,17.65-53.16,39.37-90.99,61.76-2.59,1.42-7.4,3.6-13.79,3.95-8.36.46-14.65-2.49-17.34-3.95ZM533.78,341.55c-1.4-9.74-2.09-20.96-3.67-32.1-1.54-10.83-1.99-21.81-3.2-32.69-2.91-26.32-6.09-52.61-8.97-78.93-2.84-25.89-5.97-51.77-7.93-77.73-1.07-14.13-7.03-22.14-20.6-26.84-29.64-10.28-58.8-21.94-88.21-32.88-32.9-12.24-65.82-24.4-98.82-36.37-7.21-2.61-14.26-5.88-21.95-6.99-8.78-1.27-16.93,1.02-25.11,4.06-26.23,9.76-52.61,19.11-78.86,28.8-27.77,10.25-55.46,20.72-83.19,31.1-13.04,4.88-26.09,9.73-39.09,14.71-7.43,2.85-12.56,7.93-13.5,16.15-2.39,20.72-4.53,41.47-6.9,62.19-2.59,22.63-4.57,45.33-7.36,67.95-2.8,22.77-4.73,45.64-7.09,68.46-.86,8.39-1.27,16.88-2.91,25.13-2.07,10.44-.59,20.01,4.55,29.11,10.14,17.95,21.93,34.78,34.53,51.08,23.25,30.1,49.4,57.49,77.69,82.81,23.74,21.25,48.77,40.91,74.97,59.07,17.65,12.23,35.73,23.79,54.1,34.9,7.49,4.53,15.2,5.85,23.04,1.08,18.08-10.99,36.06-22.16,53.46-34.23,23.98-16.64,47.17-34.31,69.2-53.46,24.39-21.2,47.33-43.91,68.34-68.5,19.85-23.23,38.13-47.61,53.08-74.35,3.51-6.27,4.7-13.03,4.39-21.53Z"/>
  <path class="cls-1" d="M533.78,341.55c.31,8.5-.88,15.26-4.39,21.53-14.95,26.74-33.22,51.12-53.08,74.35-21.01,24.59-43.94,47.29-68.34,68.5-22.03,19.15-45.22,36.82-69.2,53.46-17.4,12.07-35.38,23.24-53.46,34.23-7.84,4.77-15.56,3.44-23.04-1.08-18.37-11.1-36.45-22.66-54.1-34.9-26.2-18.16-51.23-37.82-74.97-59.07-28.29-25.32-54.45-52.71-77.69-82.81-12.59-16.3-24.38-33.13-34.53-51.08-5.14-9.1-6.62-18.67-4.55-29.11,1.64-8.24,2.05-16.74,2.91-25.13,2.35-22.82,4.29-45.69,7.09-68.46,2.78-22.62,4.77-45.32,7.36-67.95,2.37-20.72,4.51-41.47,6.9-62.19.95-8.22,6.07-13.3,13.5-16.15,13-4.99,26.05-9.83,39.09-14.71,27.72-10.38,55.42-20.85,83.19-31.1,26.25-9.69,52.64-19.04,78.86-28.8,8.18-3.05,16.33-5.33,25.11-4.06,7.69,1.11,14.75,4.38,21.95,6.99,33,11.97,65.92,24.13,98.82,36.37,29.41,10.94,58.57,22.6,88.21,32.88,13.57,4.71,19.53,12.72,20.6,26.84,1.96,25.96,5.1,51.84,7.93,77.73,2.88,26.32,6.06,52.61,8.97,78.93,1.2,10.88,1.66,21.86,3.2,32.69,1.58,11.14,2.26,22.36,3.67,32.1ZM274.74,211.52c0-.11,0-.21,0-.32-73.36,0-146.72,0-220.07,0-7.87,0-8.54.69-9.32,8.41-1.52,14.88-3.17,29.75-4.76,44.63-2.47,23.12-4,46.4-7.75,69.3-2.16,13.19,1.82,23.6,8.48,33.73,7.15,10.86,14.5,21.6,22.29,32.05,16.06,21.55,33.9,41.5,52.76,60.56,19.38,19.58,40.28,37.46,61.75,54.73,12.58,10.12,25.51,19.74,38.7,29,16.09,11.3,32.79,21.7,49.49,32.09,5.63,3.5,10.67,3.68,16.47.05,15.53-9.74,31.13-19.35,46.23-29.78,26.22-18.11,51.38-37.55,75.13-58.78,21.76-19.44,42.48-39.98,61.32-62.27,16.33-19.32,31.59-39.48,44.62-61.28,5.13-8.59,8.05-17.05,6.79-27.27-3.45-27.93-6.3-55.94-9.41-83.91-1.31-11.77-2.78-23.52-3.95-35.31-.36-3.66-2.03-5.37-5.57-5.5-1.48-.05-2.96-.14-4.44-.14-72.92,0-145.83,0-218.75,0ZM198.06,92c6.07,2.97,148.91,3.13,156.96-.03-4.27-2.91-8.54-4.77-12.88-6.37-17.49-6.44-35.03-12.74-52.55-19.09-7.88-2.86-15.84-3.67-23.89-.76-19.77,7.12-39.55,14.2-59.25,21.49-2.92,1.08-6.11,2.14-8.39,4.76ZM344.14,152.41h.02c0,6.22.02,12.45,0,18.67-.01,2.58.24,4.8,3.69,4.76,3.33-.04,4.32-1.83,4.23-4.86-.2-6.66.37-13.34-.73-19.97-.18-1.1-.61-2.55.78-3.15,1.51-.64,1.99.86,2.62,1.78.93,1.33,1.77,2.73,2.64,4.11,4.09,6.52,8.2,13.03,12.27,19.57,1.75,2.81,4.48,2.79,7.09,2.18,2.57-.6,1.86-3.06,1.87-4.87.06-12.15.03-24.3.05-36.45,0-2.71-.18-5.05-3.92-5-3.78.04-3.8,2.49-3.79,5.14.02,6.82.06,13.63.05,20.45,0,.96.45,2.27-.83,2.71-1.29.44-1.74-.83-2.26-1.65-1.99-3.12-3.93-6.28-5.88-9.42-2.97-4.78-6-9.52-8.9-14.34-1.66-2.75-4.1-3.31-6.89-2.63-2.89.7-2.03,3.26-2.06,5.18-.09,5.93-.03,11.85-.03,17.78ZM385.04,152.02c-.29,9.24,2.17,16.96,10.36,21.45,8.09,4.43,16.55,4.24,24.57-.35,9.57-5.48,12.95-21.55,7.28-33.06-2.27-4.6-5.75-7.89-10.49-9.69-16.57-6.28-32.99,4.24-31.73,21.66ZM133.06,176.34c14.43.14,22.88-8.44,23.03-23.37.14-14.88-8.32-24.29-22.23-24.32-14.91-.03-22.79,9.24-22.97,23.75-.17,13.96,7.64,23.94,22.18,23.94ZM308.02,152.27s.02,0,.02,0c0,6.07.1,12.15-.04,18.22-.07,3.23.34,5.42,4.43,5.42,4.01,0,3.64-2.55,3.68-5.09.02-1.63-.08-3.27.05-4.89.12-1.5-.62-3.56,1.62-4.07,2.07-.47,3.71.41,4.84,2.31,1.59,2.67,3.39,5.22,4.89,7.94,1.56,2.83,3.81,4,6.95,3.66,1.14-.12,2.56.35,3.24-.89.68-1.22-.29-2.23-.94-3.2-1.49-2.21-2.88-4.5-4.53-6.58-2.42-3.05-2.32-5.18.73-8.16,9.19-8.99,5.13-23.43-7.25-27.02-4.38-1.27-8.83-.48-13.25-.74-3.23-.19-4.54,1.16-4.47,4.42.14,6.22.04,12.44.04,18.66ZM174.55,176.2c1.33,0,2.69.17,3.99-.03,5.18-.82,9.92-2.65,11.84-8.03,2.03-5.69.64-10.75-3.92-14.9-3.41-3.11-7.83-4.05-11.85-5.86-2.58-1.17-5.22-2.35-5.25-5.86-.03-3.82,2.38-6.14,6.91-6.47,3.43-.24,6.79.35,10.13,1.06,1.6.34,3.04.1,3.53-1.74.36-1.37.26-2.82-1.31-3.37-6.54-2.3-13.21-3.89-19.83-.49-9.47,4.86-9.91,16.9-.97,22.7,3.27,2.12,7.02,3.13,10.51,4.74,3.04,1.4,6.02,3.36,5.31,7.28-.67,3.67-4.02,4.44-7.16,4.89-1.44.21-2.95.05-4.41-.08-2.36-.22-4.7-.58-7.06-.82-1.66-.17-2.97.37-3.34,2.16-.33,1.63.7,2.43,2.04,2.99,3.47,1.47,7.09,2.1,10.84,1.83ZM447.92,176.28c9.67.01,15.63-3.65,17.03-10.03,1.51-6.88-2.93-13.51-11.35-16.9-1.51-.61-3.06-1.13-4.56-1.74-1.09-.45-2.16-.95-3.21-1.49-2.22-1.14-3.17-3.02-3-5.48.17-2.32,1.54-3.77,3.55-4.7,3.41-1.58,6.94-1.1,10.46-.53,1.45.23,2.91.55,4.37.57,1.32.01,2.16-.86,2.4-2.2.23-1.34-.22-2.37-1.52-2.85-6.88-2.55-13.79-3.7-20.59.12-5.31,2.99-7.46,9.53-5.48,15.29,2.04,5.92,7.08,8.03,12.19,10.07,2.48.99,5.08,1.71,7.09,3.55,3.51,3.21,2.56,7.92-1.9,9.48-2.25.79-4.56,1.11-6.99.7-2.62-.44-5.29-.67-7.94-.9-1.52-.13-2.55.68-3.01,2.11-.55,1.73.69,2.42,1.92,3,3.57,1.69,7.39,2.05,10.56,1.94ZM277.33,152.7c0,6.36.05,12.73-.02,19.09-.03,2.73.9,4.08,3.87,4.01,5.92-.14,11.84-.02,17.75-.03,1.87,0,3.69-.15,3.75-2.68.06-2.52-1.5-3.34-3.71-3.37-3.25-.04-6.51-.08-9.76-.09-2.56-.02-3.73-1.25-3.73-3.84,0-11.36-.8-10.39,8.8-10.37,2.24,0,4.81.12,4.82-3.12,0-3.33-2.65-3-4.84-3.02-9.53-.09-8.69,1.33-8.85-9.28-.05-3.51,1.06-5.24,4.87-4.94,2.94.23,5.91-.04,8.87-.05,1.99-.01,3.59-.47,3.51-2.92-.07-2.38-1.69-2.85-3.66-2.85-5.92,0-11.84.04-17.75-.05-2.81-.04-4,1.11-3.95,3.97.11,6.51.03,13.02.03,19.53ZM215.98,152.41s.02,0,.03,0c0,6.37.05,12.74-.03,19.11-.03,2.67.77,4.25,3.75,4.22,6.07-.06,12.15-.03,18.22,0,2.09.01,3.42-.62,3.43-3,.01-2.44-1.51-3-3.48-3.03-3.41-.05-6.81-.05-10.22-.06-2.33,0-3.53-1.07-3.56-3.5-.13-11.93-.6-10.83,8.91-10.75,2.24.02,4.79.18,4.69-3.17-.1-3.39-2.77-2.9-4.92-2.9-9.79.02-8.65.19-8.71-9.11,0-.15.01-.3,0-.44-.47-3.59,1.4-4.77,4.67-4.7,2.96.07,5.93-.01,8.89,0,2.16,0,3.84-.49,3.8-3.16-.04-2.64-1.94-2.63-3.74-2.65-5.78-.06-11.56,0-17.33-.1-3.22-.05-4.51,1.37-4.44,4.57.13,6.22.04,12.44.04,18.67ZM92.22,149.75s-.02,0-.03,0c0-5.48-.03-10.95.01-16.43.02-2.52-.41-4.33-3.64-4.17-2.77.14-4.56.81-4.55,4.01.04,12.88.04,25.75,0,38.63,0,2.81,1.3,4.06,4.04,4.04,5.92-.03,11.84-.04,17.76-.05,2.01,0,3.52-.55,3.51-2.96,0-2.36-1.45-3.04-3.47-3.06-3.26-.03-6.51-.04-9.77-.02-2.71.02-4.01-1.06-3.91-4,.18-5.32.05-10.66.05-15.98ZM254.8,155.42s.02,0,.03,0c0,5.18.04,10.36-.02,15.55-.03,2.86.54,4.8,4.1,4.88,3.83.09,3.91-2.16,3.9-4.88-.04-9.03-.03-18.06-.05-27.09q-.01-7.92,7.71-8.86c.29-.04.59-.04.88-.08,1.67-.23,2.16-1.35,2.13-2.84-.03-1.45-.42-2.76-2.16-2.77-8.29,0-16.57.01-24.86.12-1.57.02-2.3,1.2-2.32,2.73-.03,1.58.78,2.51,2.34,2.69,1.03.12,2.09.27,3.09.12,4.29-.66,5.42,1.47,5.27,5.35-.2,5.03-.05,10.07-.05,15.1Z"/>
  <path class="cls-4" d="M274.74,211.52c72.92,0,145.83,0,218.75,0,1.48,0,2.96.08,4.44.14,3.54.13,5.2,1.84,5.57,5.5,1.17,11.78,2.64,23.54,3.95,35.31,3.11,27.97,5.96,55.98,9.41,83.91,1.26,10.22-1.66,18.69-6.79,27.27-13.03,21.8-28.29,41.96-44.62,61.28-18.83,22.29-39.55,42.82-61.32,62.27-23.76,21.22-48.92,40.67-75.13,58.78-15.1,10.43-30.7,20.04-46.23,29.78-5.8,3.63-10.84,3.46-16.47-.05-16.7-10.39-33.4-20.79-49.49-32.09-13.19-9.26-26.12-18.89-38.7-29-21.47-17.27-42.38-35.15-61.75-54.73-18.86-19.05-36.7-39.01-52.76-60.56-7.79-10.45-15.14-21.19-22.29-32.05-6.67-10.13-10.65-20.54-8.48-33.73,3.76-22.91,5.28-46.18,7.75-69.3,1.59-14.88,3.24-29.75,4.76-44.63.79-7.72,1.46-8.41,9.32-8.41,73.36,0,146.72,0,220.07,0,0,.11,0,.21,0,.32ZM405.82,225.08v.13c-23.71,0-47.41-.02-71.12.02-5.8,0-8.11,1.89-8.1,7.01.02,10.51.34,21.03.48,31.54.05,3.89,1.65,6.65,4.98,8.8,9.2,5.95,17.79,12.59,25.39,20.64,10.07,10.65,16.85,23.2,22.17,36.55,5.83,14.65,7.38,30.06,6.65,45.81-.85,18.19-6.44,34.81-15.64,50.34-9.62,16.25-23.23,28.6-38.58,39.2-2.78,1.92-4.57,4.03-4.59,7.54-.05,16.3-.24,32.59-.23,48.89,0,4.52,1.47,5.06,5.52,2.65,10.08-5.99,19.17-13.4,28.4-20.5,20.77-15.97,40.21-33.54,58.82-51.98,6.71-6.65,13.1-13.59,18.91-21.12,7.34-9.52,16.35-17.59,24.11-26.81,10.83-12.84,19.72-26.94,28.82-40.95,4.4-6.78,7.04-14,5.69-22.22-1.44-8.77-1.98-17.66-2.73-26.48-2.27-26.72-6.41-53.23-8.44-79.97-.59-7.84-1.46-8.61-9.4-9.04-.74-.04-1.48-.05-2.22-.05-22.96,0-45.93,0-68.89,0ZM143.53,224.83c0,.08,0,.15,0,.23-22.82,0-45.64,0-68.45,0-5.37,0-6.75,1.42-7.25,6.71-.53,5.6-1.39,11.16-1.99,16.75-3.31,30.78-6.51,61.57-9.91,92.33-.77,6.95.35,13.42,4.19,19.12,7.5,11.13,14.52,22.55,22.49,33.41,16.68,22.76,35.67,43.38,55.57,63.23,13.19,13.17,27.26,25.42,41.7,37.2,10.43,8.51,21.13,16.7,31.84,24.86,2.38,1.81,5.4,5.22,7.86,3.9,2.39-1.28,1.46-5.67,1.46-8.75-.03-14.22-.2-28.45-.09-42.67.02-3.13-1.28-4.79-3.71-6.42-7.49-5.03-14.82-10.39-21.2-16.75-15.65-15.63-26.13-34.15-30.57-56.02-4.17-20.54-3.04-40.86,3.74-60.48,6.57-19.05,18.11-35.17,33.58-48.23,4.62-3.9,9.69-7.3,14.68-10.73,2.98-2.05,4.27-4.67,4.25-8.24-.05-8.74.09-17.49.05-26.23-.06-12.71-.62-13.21-13.32-13.2-21.64.02-43.27,0-64.91,0ZM371.9,369.36c1.08-51.31-41.93-98.23-96.5-98.29-52.64-.06-96.02,41.1-98.04,93.45-2.13,55.18,41.54,100.64,96.53,101.04,52.98.38,97.09-41.23,98.01-96.2Z"/>
  <path class="cls-2" d="M405.82,225.21c22.96,0,45.93,0,68.89,0,.74,0,1.48,0,2.22.05,7.94.43,8.8,1.21,9.4,9.04,2.02,26.74,6.16,53.25,8.44,79.97.75,8.82,1.29,17.71,2.73,26.48,1.35,8.21-1.29,15.44-5.69,22.22-9.1,14.01-17.99,28.1-28.82,40.95-7.77,9.21-16.78,17.29-24.11,26.81-5.81,7.53-12.2,14.47-18.91,21.12-18.61,18.45-38.06,36.01-58.82,51.98-9.23,7.1-18.32,14.51-28.4,20.5-4.05,2.41-5.52,1.86-5.52-2.65,0-16.3.18-32.59.23-48.89.01-3.51,1.81-5.62,4.59-7.54,15.35-10.59,28.96-22.95,38.58-39.2,9.2-15.54,14.79-32.15,15.64-50.34.74-15.75-.81-31.16-6.65-45.81-5.32-13.35-12.1-25.9-22.17-36.55-7.6-8.04-16.19-14.68-25.39-20.64-3.32-2.15-4.93-4.9-4.98-8.8-.13-10.51-.46-21.03-.48-31.54,0-5.12,2.3-7.01,8.1-7.01,23.71-.04,47.41-.02,71.12-.02v-.13Z"/>
  <path class="cls-2" d="M143.53,224.96c21.64,0,43.27.01,64.91,0,12.7-.01,13.26.49,13.32,13.2.04,8.74-.11,17.49-.05,26.23.02,3.57-1.27,6.19-4.25,8.24-4.99,3.44-10.06,6.83-14.68,10.73-15.47,13.06-27.01,29.19-33.58,48.23-6.77,19.62-7.91,39.94-3.74,60.48,4.44,21.87,14.92,40.4,30.57,56.02,6.38,6.37,13.7,11.72,21.2,16.75,2.43,1.63,3.74,3.29,3.71,6.42-.11,14.22.06,28.45.09,42.67,0,3.08.93,7.47-1.46,8.75-2.46,1.32-5.48-2.08-7.86-3.9-10.71-8.16-21.41-16.35-31.84-24.86-14.45-11.78-28.51-24.03-41.7-37.2-19.89-19.85-38.88-40.47-55.57-63.23-7.97-10.87-14.99-22.28-22.49-33.41-3.84-5.7-4.95-12.17-4.19-19.12,3.4-30.77,6.61-61.56,9.91-92.33.6-5.59,1.46-11.16,1.99-16.75.5-5.29,1.89-6.71,7.25-6.71,22.82,0,45.64,0,68.45,0,0-.08,0-.15,0-.23Z"/>
  <path class="cls-2" d="M371.9,369.36c-.92,54.97-45.04,96.58-98.01,96.2-54.99-.4-98.66-45.86-96.53-101.04,2.02-52.35,45.4-93.51,98.04-93.45,54.57.06,97.58,46.98,96.5,98.29ZM344.71,396.94c1.63.15,3.12.63,4.43.34,6.2-1.37,11.68-7.43,12.61-13.86,1.75-12.11,1.53-24.18-.3-36.29-.77-5.07-3.1-8.97-6.08-13.01-5.16-6.99-13.04-11.08-16.16-20.71-3.54-10.97-12.91-18.73-24.78-22.33-3.9-1.18-8.13-2.14-11.5-5.01,1.24-1.29,2.57-.69,3.63-1.13,1.36-.57,1.55-1.48.26-2.21-3.21-1.8-16.04-6.22-20.64-4.04,3.38,2.75,8.23,1.92,11.54,4.63-.58,1.15-1.41,1.15-2.07.95-10.12-3.09-18.15,1.11-25.62,7.29-1.09.9-2.22,1.21-3.66,1.18-4.14-.07-8.32-.23-12.43.19-7.13.73-14.49.72-21.1,3.96-2.97,1.46-3.61.93-3.95-2.19-.48-4.4-1.93-5.02-5.94-3.1-1.19.57-2.36,1.25-3.4,2.06-12.19,9.36-21.52,21.07-28.56,34.69-1.72,3.33-2.23,6.73-1.7,10.32.44,2.94,1.53,4.06,5.14,3.24,4.72-1.07,9.74-2.4,13.98,2.74,2.67,3.24,5.33,7.43,8.52,9.28,6.05,3.49,3.92,5.04,1.7,10.12-3.35,7.65-6.58,15.81-7.62,24.38-.34,2.84-1.56,3.58-4.12,2.73-4.07-1.34-8.15-2.65-12.23-3.98-2.44-.8-4.29.11-4.89,2.43-1.29,5.01-2.4,9.99-.13,15.2,4.93,11.38,11.49,21.65,20.22,30.43,4.6,4.63,9.86,8.54,16.62,9.43,7.59.99,9.01-.32,9.1-7.81.02-1.92.22-3.93-.22-5.76-.95-3.92-1.06-6.53,4.18-4.27.77.33,1.76.22,2.64.21,8.84-.16,17.74,1.13,26.48-1.48,1.76-.52,4.05-1.34,5.58,1.12,3.71,5.97,8.62,10.8,14.32,14.86,2.29,1.63,2.11,3.11.05,4.95-2.29,2.04-5.18,2.82-7.68,4.31-2.51,1.5-6.63,3.04-5.96,6.2.78,3.67,4.95,2.75,8.03,2.55.29-.02.59.01.89,0,20.1-.52,36.83-8.86,51.38-22.23,1.7-1.56,2.76-3.35.32-5.15-1.67-1.22-.95-2.27.07-3.25,3.09-2.96,4.97-6.76,6.14-10.66,2.05-6.85,7.05-13.38,2.91-21.31ZM185.58,388.68c2.4-1.92,2.99-4.2,2.61-6.32-1.94-10.72-1.94-21.41-.02-32.12.08-.42,0-.89-.06-1.32-.15-1-.04-2.37-1.26-2.55-1.35-.2-1.46,1.22-1.72,2.17-3.7,13.24-4.04,26.45.46,40.15ZM265.84,459.05c-.46-.8-.59-1.35-.89-1.48-8.87-3.69-17.99-6.64-27.32-8.91-.96-.23-2.27-.4-2.7.84-.51,1.49.77,2.15,1.85,2.55,4.97,1.88,9.97,3.69,14.98,5.46,4.47,1.58,9.09,1.58,14.08,1.53ZM262.16,430.8c2.93.61,5.85,1.54,10.01.57-4.04-1.73-7-1.7-10.01-.57ZM312.14,285.36c-.4-.07-.77-.19-1.12-.15-.12.01-.19.45-.29.69.36.11.71.27,1.07.3.07,0,.19-.45.34-.84Z"/>
  <path class="cls-4" d="M344.71,396.94c4.14,7.93-.86,14.47-2.91,21.31-1.17,3.9-3.05,7.7-6.14,10.66-1.03.98-1.74,2.03-.07,3.25,2.45,1.8,1.38,3.59-.32,5.15-14.54,13.37-31.27,21.7-51.38,22.23-.3,0-.59-.03-.89,0-3.08.2-7.25,1.12-8.03-2.55-.68-3.16,3.45-4.7,5.96-6.2,2.51-1.5,5.4-2.27,7.68-4.31,2.06-1.84,2.24-3.32-.05-4.95-5.7-4.06-10.61-8.9-14.32-14.86-1.52-2.45-3.81-1.64-5.58-1.12-8.74,2.6-17.64,1.32-26.48,1.48-.89.02-1.87.13-2.64-.21-5.24-2.26-5.13.35-4.18,4.27.44,1.83.24,3.83.22,5.76-.09,7.49-1.51,8.8-9.1,7.81-6.76-.88-12.02-4.8-16.62-9.43-8.73-8.78-15.29-19.05-20.22-30.43-2.26-5.22-1.15-10.19.13-15.2.6-2.33,2.45-3.23,4.89-2.43,4.08,1.33,8.16,2.64,12.23,3.98,2.56.84,3.77.11,4.12-2.73,1.04-8.57,4.27-16.73,7.62-24.38,2.22-5.07,4.35-6.62-1.7-10.12-3.19-1.84-5.85-6.03-8.52-9.28-4.23-5.14-9.26-3.81-13.98-2.74-3.62.82-4.71-.3-5.14-3.24-.53-3.59-.02-6.99,1.7-10.32,7.05-13.62,16.37-25.33,28.56-34.69,1.05-.8,2.21-1.49,3.4-2.06,4.01-1.92,5.46-1.3,5.94,3.1.34,3.12.98,3.65,3.95,2.19,6.61-3.24,13.96-3.24,21.1-3.96,4.11-.42,8.28-.26,12.43-.19,1.44.02,2.57-.28,3.66-1.18,7.47-6.17,15.5-10.38,25.62-7.29.66.2,1.49.2,2.07-.95-3.3-2.71-8.16-1.88-11.54-4.63,4.6-2.18,17.43,2.24,20.64,4.04,1.3.73,1.1,1.64-.26,2.21-1.06.44-2.39-.16-3.63,1.13,3.37,2.87,7.6,3.83,11.5,5.01,11.87,3.6,21.24,11.37,24.78,22.33,3.11,9.63,10.99,13.72,16.16,20.71,2.98,4.04,5.31,7.94,6.08,13.01,1.83,12.11,2.06,24.18.3,36.29-.93,6.43-6.41,12.49-12.61,13.86-1.32.29-2.81-.19-4.43-.34ZM282.87,319.68c.59,2.9-.01,6.51-2.3,9-7.13,7.78-11.52,17.5-18.46,25.37-1.42,1.61-1.78,2.86-.31,4.59,7.65,9.01,15.1,18.19,23.54,26.51,1.92,1.89,3.64,2.35,6.3,1.47,7.02-2.32,14.15-4.34,21.28-6.3,4.98-1.37,10.1-4.1,15.21.7-1.99-2.7-3.71-5.02-3.78-8.37-.18-8.73-.76-17.45-1.11-26.18-.19-4.82-.96-9.79,2.6-12.81-15-2.14-28.13-10.18-42.97-13.98ZM211.92,326.58c-6.53,6.77-6.82,11.72-1.01,14.85-1.34-5.17-.7-10.03,1.01-14.85Z"/>
  <path class="cls-4" d="M185.58,388.68c-4.5-13.7-4.16-26.91-.46-40.15.27-.95.37-2.37,1.72-2.17,1.21.18,1.11,1.56,1.26,2.55.06.44.14.9.06,1.32-1.92,10.71-1.91,21.39.02,32.12.38,2.13-.21,4.4-2.61,6.32Z"/>
  <path class="cls-4" d="M265.84,459.05c-5,.05-9.62.04-14.08-1.53-5.01-1.77-10-3.59-14.98-5.46-1.08-.41-2.36-1.07-1.85-2.55.42-1.23,1.74-1.07,2.7-.84,9.33,2.27,18.45,5.22,27.32,8.91.3.13.43.68.89,1.48Z"/>
  <path class="cls-4" d="M262.16,430.8c3.01-1.13,5.97-1.16,10.01.57-4.16.97-7.08.04-10.01-.57Z"/>
  <path class="cls-4" d="M312.14,285.36c-.16.39-.27.84-.34.84-.36-.03-.71-.19-1.07-.3.09-.24.17-.67.29-.69.35-.04.72.08,1.12.15Z"/>
  <path class="cls-2" d="M282.87,319.68c14.84,3.8,27.98,11.83,42.97,13.98-3.56,3.02-2.79,8-2.6,12.81.35,8.73.93,17.45,1.11,26.18.07,3.35,1.79,5.67,3.78,8.37-5.11-4.8-10.23-2.07-15.21-.7-7.13,1.96-14.26,3.98-21.28,6.3-2.66.88-4.38.41-6.3-1.47-8.44-8.31-15.89-17.49-23.54-26.51-1.47-1.73-1.11-2.98.31-4.59,6.94-7.86,11.33-17.59,18.46-25.37,2.28-2.49,2.89-6.11,2.3-9ZM280.23,336.56c7.88-7.82,16.23-4.69,24.45-1.51,2.21.85,4.46,1.48,6.68,2.23.93.31,2.15,1.07,2.76-.14.71-1.4-.66-2.09-1.62-2.71-1.11-.72-2.25-1.47-3.49-1.91-5.13-1.82-10.31-3.47-15.27-5.76-2.57-1.19-5.17-.4-7.5,1.27-2.83,2.03-4.93,4.57-6.02,8.53Z"/>
  <path class="cls-2" d="M211.92,326.58c-1.71,4.83-2.35,9.69-1.01,14.85-5.81-3.14-5.52-8.08,1.01-14.85Z"/>
  <path class="cls-4" d="M280.23,336.56c1.08-3.96,3.19-6.5,6.02-8.53,2.33-1.67,4.93-2.46,7.5-1.27,4.96,2.29,10.14,3.94,15.27,5.76,1.23.44,2.38,1.19,3.49,1.91.95.62,2.33,1.3,1.62,2.71-.62,1.22-1.83.45-2.76.14-2.23-.74-4.47-1.37-6.68-2.23-8.22-3.18-16.57-6.31-24.45,1.51Z"/>
  <circle class="cls-4" cx="277.64" cy="367.51" r="101.68"/>
  <g id="Soccer_Ball" data-name="Soccer Ball">
    <g>
      <path class="cls-3" d="M369.57,348.37c1.26,6.19,1.91,12.59,1.91,19.15,0,9.42-1.36,18.52-3.89,27.12,1.14-4.39-1.42-21.35-1.42-21.35,0,0,3.89-22.05,3.4-24.93h0Z"/>
      <path class="cls-3" d="M367.95,348.81c2.36,11.69,2.48,24.03.33,35.74-.6,3.25-1.37,6.47-2.3,9.64,1.08.3,2.17.6,3.24.9.34-1.35.36-2.81.35-4.2,0-1.8-.13-3.62-.28-5.41-.29-3.5-.71-6.99-1.19-10.46-.1-.72-.2-1.46-.31-2.18v.9c.45-2.57.88-5.15,1.3-7.72.72-4.47,1.43-8.95,1.93-13.45.17-1.52.41-3.12.16-4.65-.14-.9-1.26-1.4-2.07-1.18-.94.26-1.3,1.16-1.17,2.07,0,.04-.05-.56-.04-.22,0,.1,0,.19,0,.29,0,.23,0,.46,0,.69-.03.62-.07,1.22-.14,1.84-.07.81-.17,1.6-.26,2.41l-.16,1.3c-.02.11-.03.22-.05.33l-.03.22s.05-.36.03-.17c-.04.24-.06.48-.1.72-.53,3.87-1.15,7.74-1.79,11.59-.22,1.31-.43,2.62-.66,3.92-.12.7-.28,1.37-.18,2.07.05.34.1.66.14,1,.04.28.08.56.12.83.03.17.05.34.07.52.04.29-.05-.41-.02-.11.02.1.03.21.05.31.25,1.9.48,3.81.68,5.71.41,3.83.86,7.78.48,11.63-.03.28.07-.42.02-.15-.02.08-.03.16-.04.24-.03.14-.05.27-.09.4-.22.85.28,1.87,1.18,2.07.9.21,1.8-.27,2.07-1.18,3.47-11.84,4.68-24.36,3.52-36.64-.34-3.53-.85-7.05-1.55-10.52-.18-.89-1.24-1.4-2.07-1.18-.93.27-1.36,1.19-1.19,2.08h0Z"/>
      <path class="cls-3" d="M321.55,440.34s6.17,3.39,21.69-4.87c-14.5,14.42-33.59,24.25-54.88,27.06v-4.48s25.12-9.75,33.19-17.71Z"/>
      <path class="cls-3" d="M320.7,441.8c1.15.63,2.57.8,3.85.89,3.43.24,6.97-.58,10.2-1.66,3.23-1.08,6.33-2.5,9.33-4.1-.68-.88-1.36-1.76-2.04-2.65-5.67,5.64-11.69,10.3-18.57,14.37-6.98,4.12-14.07,7.19-21.85,9.4-2.17.63-4.38,1.17-6.6,1.64-1.15.24-2.3.46-3.45.66-.55.09-1.1.18-1.65.27l-.92.14c-.13.02-.24.04-.37.05-.05,0-.53.07-.29.05l1.69,1.69v-4.48c-.41.54-.82,1.08-1.23,1.62,3.16-1.23,6.29-2.57,9.39-3.95,5.77-2.56,11.5-5.3,16.9-8.58,2.69-1.63,5.39-3.42,7.65-5.63.65-.63.63-1.74,0-2.38-.65-.65-1.73-.63-2.38,0-.43.42-.87.82-1.33,1.21-.22.18-.44.36-.66.54-.13.1-.39.3-.1.07-.15.12-.3.23-.45.34-1.14.85-2.33,1.64-3.54,2.39-2.7,1.69-5.49,3.21-8.33,4.65-2.78,1.41-5.61,2.75-8.46,4.03-1.23.55-2.46,1.1-3.71,1.63-.27.12-.53.24-.81.34-.14.05-.27.12-.41.17-.06.03-.12.05-.18.07-.27.12.29-.12.09-.04-.47.2-.94.4-1.41.59-1.05.43-2.1.87-3.17,1.28-.7.27-1.23.82-1.23,1.62v4.48c0,.82.78,1.8,1.69,1.69,8.34-1.11,16.51-3.23,24.29-6.44,7.57-3.13,14.73-7.15,21.29-12.07,3.7-2.77,7.21-5.79,10.49-9.05,1.39-1.37-.37-3.52-2.04-2.65-4.33,2.3-8.73,4.24-13.67,5.07l-.54.08c-.19.03-.34.15.03,0-.07.03-.18.02-.25.03-.36.05-.73.08-1.11.1-.63.05-1.25.05-1.88.03-.24,0-.5-.03-.74-.05-.1,0-.21-.02-.31-.03-.46-.05.4.07.05,0-.35-.06-.7-.12-1.04-.21-.24-.06-.45-.14-.69-.23-.24-.08.53.24.21.09l-.05-.03c-.8-.43-1.83-.2-2.3.61-.43.75-.17,1.85.63,2.29h0Z"/>
      <path class="cls-3" d="M322.8,349.74s20.59,26.69,20.44,31.4c0,0-5.32,19.52-21.92,35.21,0,0-29.6-2.46-36.11-8.53l.23-42.07c6.28.77,37.36-16.02,37.36-16.02h0Z"/>
      <path class="cls-3" d="M321.35,350.58c1.88,2.45,3.73,4.91,5.55,7.4,3.48,4.73,6.91,9.5,10.09,14.44,1.3,2.02,2.58,4.08,3.66,6.23.1.21.2.41.3.62.05.09.08.18.13.28.12.26.11.28,0-.02.13.34.27.67.37,1.02.04.14.07.26.1.4,0,.06.02.13.04.18.06.25-.03-.55-.03-.21,0,.47.16-.5.04-.15-.43,1.19-.77,2.4-1.21,3.59-.2.53-.4,1.05-.61,1.57l-.35.87c-.06.14-.12.29-.18.43-.02.04-.15.36-.04.09.11-.26-.05.09-.06.14-.61,1.43-1.26,2.84-1.95,4.23-1.72,3.48-3.66,6.86-5.82,10.08-2.6,3.89-5.31,7.3-8.59,10.73-.86.91-1.75,1.78-2.65,2.64.4-.16.8-.33,1.19-.49-1-.08-1.99-.18-2.99-.29-1.09-.12-2.17-.24-3.24-.36-.64-.08-1.3-.15-1.94-.24l-1.01-.14c-.1,0-.33-.04.12.02-.09,0-.18-.03-.27-.04-.2-.03-.41-.05-.61-.08-6.23-.87-12.53-1.89-18.54-3.81-.74-.24-1.48-.49-2.2-.77-.15-.06-.31-.12-.46-.18-.13-.05-.77-.25-.23-.09-.32-.1-.63-.28-.93-.43-.54-.26-1.08-.54-1.59-.87-.24-.14-.46-.31-.69-.47s.14.02.14.11c0-.02-.15-.12-.16-.14-.1-.09-.21-.17-.31-.26.16.4.33.8.49,1.19,0-1.4.02-2.79.02-4.19l.05-10.06c.02-4.04.05-8.07.06-12.11l.05-10.52c0-1.69.12-3.42.03-5.11v-.07l-1.69,1.69c.97.11,1.99-.1,2.94-.3,1.21-.26,2.41-.64,3.59-1.05,3.28-1.13,6.47-2.51,9.63-3.93,6.14-2.76,12.18-5.78,18.15-8.9,1.3-.68,2.62-1.37,3.91-2.07.8-.43,1.05-1.54.61-2.3-.47-.81-1.5-1.03-2.3-.61-3.57,1.93-7.19,3.79-10.82,5.6-3.25,1.62-6.52,3.22-9.82,4.73-1.64.75-3.28,1.48-4.94,2.18.47-.2-.13.05-.22.09-.21.08-.41.17-.62.25-.4.16-.8.33-1.21.49-.72.29-1.46.57-2.19.84-1.37.5-2.76.97-4.18,1.32-.29.07-.58.14-.88.19-.13.03-.24.05-.37.06-.06,0-.12.02-.18.03-.37.06.43-.04.16-.02-.42.03-.82.07-1.25.03-.91-.11-1.68.85-1.69,1.69l-.05,9.57c-.04,6.22-.06,12.45-.1,18.67-.03,4.38-.05,8.75-.07,13.13,0,.37-.05.79.05,1.14.22.8,1.13,1.36,1.78,1.79.5.34,1.01.63,1.55.91,2.85,1.44,5.96,2.36,9.04,3.13,6.61,1.65,13.38,2.62,20.14,3.4,1.67.19,3.34.4,5.02.52.31.02.54,0,.86-.13.69-.29,1.3-1.06,1.82-1.59.51-.51,1.01-1.01,1.5-1.54,1.88-1.97,3.64-4.03,5.31-6.18,5.17-6.68,9.38-14.06,12.49-21.92.63-1.59,1.22-3.21,1.7-4.85.44-1.51-.47-3.26-1.11-4.58-1.19-2.45-2.66-4.77-4.14-7.05-1.83-2.82-3.74-5.58-5.69-8.32-2.96-4.16-6-8.26-9.1-12.31-.16-.22-.34-.43-.5-.65-.55-.72-1.45-1.11-2.3-.61-.74.42-1.2,1.59-.63,2.3h0Z"/>
      <path class="cls-3" d="M252.25,449.97h0c-13.01,1.13-31.62-5.83-31.62-5.83-19.96-17.27-21.31-30.28-21.31-30.28,4.49-5.23,15.93-10.59,15.93-10.59,4.49,8.02,33.64,21.81,33.64,21.81-.23,4.43,3.25,24.29,3.36,24.89h0Z"/>
      <path class="cls-3" d="M250.63,450.42c.54-.7,1.08-1.41,1.62-2.12-2.66.23-5.35.12-8.01-.14-.35-.04-.7-.07-1.05-.12-.16-.02-.33-.04-.48-.05l-.24-.03s-.35-.05-.18-.03c.18.03-.08,0-.1-.02-.08,0-.16-.02-.24-.04-.19-.03-.37-.05-.56-.08-.34-.05-.7-.11-1.04-.16-1.37-.23-2.74-.49-4.1-.78-4.3-.92-8.55-2.09-12.72-3.48-.82-.27-1.64-.54-2.45-.85.24.14.5.29.74.43-3.41-2.95-6.65-6.09-9.62-9.49-.64-.73-1.27-1.47-1.88-2.22-.26-.33-.53-.65-.79-.99-.06-.08-.4-.51-.21-.26-.15-.2-.3-.4-.45-.6-.93-1.25-1.83-2.53-2.67-3.84-1.3-2.05-2.49-4.18-3.48-6.4-.05-.1-.09-.21-.14-.31-.19-.43.08.2,0-.02-.08-.21-.17-.41-.25-.62-.15-.39-.3-.77-.43-1.17-.21-.6-.41-1.21-.57-1.83-.12-.43-.23-.87-.31-1.31-.02-.12-.04-.24-.06-.35-.05-.25.07.59.05.32-.16.4-.33.8-.49,1.19.98-1.13,2.11-2.12,3.29-3.04-.27.21.18-.14.24-.18.16-.12.32-.24.48-.35.33-.24.65-.47.98-.7.68-.47,1.38-.92,2.07-1.37,2.28-1.44,4.66-2.76,7.07-3.99.48-.24.96-.49,1.45-.72-.77-.2-1.53-.4-2.3-.61,1.25,2.21,3.32,3.97,5.28,5.53,2.71,2.14,5.59,4.06,8.53,5.86,5.44,3.34,11.07,6.37,16.78,9.22,1.21.61,2.43,1.21,3.66,1.79-.28-.48-.55-.97-.83-1.45-.06,1.37.1,2.76.24,4.12.23,2.13.51,4.26.82,6.38.57,4,1.21,8,1.88,11.99.16.98.33,1.92.49,2.86.15.9,1.25,1.4,2.07,1.18.94-.26,1.33-1.17,1.18-2.07-.43-2.46-.84-4.93-1.24-7.4-.34-2.14-.68-4.29-.99-6.42-.08-.53-.15-1.08-.23-1.61-.04-.24-.06-.49-.1-.73-.03-.19-.05-.43,0-.1-.02-.14-.04-.28-.05-.42-.13-1-.25-1.99-.37-3-.17-1.57-.38-3.17-.31-4.75.03-.54-.33-1.21-.83-1.45-3.4-1.61-6.75-3.33-10.07-5.11-6.03-3.22-12.06-6.61-17.52-10.72-.16-.12-.32-.24-.48-.36-.19-.14.33.26.04.03-.08-.06-.17-.14-.25-.2-.33-.26-.65-.53-.97-.79-.58-.48-1.14-.99-1.69-1.5-.47-.46-.93-.93-1.35-1.44-.05-.05-.08-.1-.12-.14-.23-.27-.05.05.05.07-.06,0-.22-.3-.25-.35-.15-.22-.3-.44-.43-.68-.48-.84-1.49-.99-2.3-.61-1.88.88-3.71,1.87-5.5,2.89-3.35,1.91-6.7,4.01-9.51,6.67-.7.66-1.7,1.49-1.74,2.49,0,.19.05.39.08.58.05.32.11.63.18.94.34,1.49.85,2.93,1.44,4.33,2.63,6.31,6.69,11.92,11.24,16.97,1.66,1.85,3.41,3.62,5.21,5.33,1.01.95,2.03,1.88,3.07,2.8.46.41.9.79,1.48,1,1.82.67,3.67,1.26,5.53,1.82,3.56,1.08,7.17,2,10.81,2.73,4.18.82,8.45,1.43,12.72,1.41.96,0,1.91-.05,2.86-.12,1.17-.1,1.81-.99,1.62-2.13h0c-.14-.91-1.26-1.4-2.07-1.19-.97.25-1.35,1.16-1.2,2.06h0Z"/>
      <path class="cls-3" d="M252.25,305.55s-3.36,31.18-2.46,36.33c0,0-33.2,16.94-34.54,18.95,0,0-15.78-12.89-18.09-24.22,0,0,8.68-27.48,24.39-35.78,0,0,18.37-.22,30.71,4.71Z"/>
      <path class="cls-3" d="M250.56,305.55c-.39,3.63-.75,7.28-1.09,10.91-.59,6.3-1.16,12.61-1.43,18.94-.1,2.28-.26,4.67.12,6.93.25-.63.52-1.27.77-1.9-3.81,1.95-7.62,3.92-11.43,5.91-6.19,3.23-12.39,6.47-18.43,9.97-1.1.63-2.2,1.28-3.26,1.98-.74.48-1.52.98-2.03,1.71.88-.12,1.76-.23,2.65-.34-1.88-1.54-3.66-3.23-5.38-4.94-1.69-1.69-3.32-3.43-4.86-5.26-.41-.49-.81-.98-1.2-1.47-.11-.14-.21-.27-.32-.41.17.23-.04-.05-.1-.13-.21-.27-.42-.55-.62-.82-.76-1.05-1.5-2.12-2.17-3.23-.72-1.2-1.37-2.43-1.94-3.71,0-.03-.1-.24-.03-.05.08.19-.04-.08-.05-.12-.06-.17-.14-.34-.2-.51-.11-.29-.22-.59-.31-.88-.21-.63-.38-1.29-.52-1.94v.9c.29-.92.63-1.84.96-2.75.39-1.04.79-2.07,1.21-3.1.11-.28.23-.55.34-.83.04-.09.07-.18.12-.27,0,.03-.16.39-.05.13.08-.19.16-.37.24-.56.29-.67.59-1.34.89-2.01,1.4-3.08,2.95-6.11,4.68-9.02.94-1.59,1.93-3.14,2.99-4.66.24-.35.5-.71.75-1.05.14-.18.27-.36.41-.55l.24-.33s.31-.41.07-.09c.57-.73,1.16-1.46,1.77-2.16,1.34-1.55,2.78-3.02,4.34-4.34.18-.15.36-.31.55-.46.1-.08.2-.16.31-.24.07-.05.39-.3.07-.05.39-.3.79-.59,1.2-.87.82-.56,1.67-1.08,2.55-1.55-.28.07-.56.15-.85.23,2.29-.03,4.59.07,6.88.22,2.36.14,4.72.34,7.07.63.31.04.63.07.93.12.15.02.32.04.47.06-.37-.05.15.02.18.03.64.09,1.29.18,1.92.29,1.36.22,2.71.46,4.06.75,2.97.63,5.92,1.44,8.74,2.56.82.33,1.88-.35,2.07-1.18.22-.97-.3-1.72-1.18-2.07-4.76-1.89-9.83-2.93-14.88-3.62-4.25-.59-8.54-.95-12.82-1.1-1.03-.04-2.07-.05-3.1-.05-1.39,0-2.7,1.05-3.81,1.81-3.62,2.5-6.62,5.71-9.29,9.18-4.73,6.17-8.28,13.2-11.2,20.39-.71,1.74-1.38,3.5-1.97,5.28-.36,1.11.11,2.31.47,3.37.73,2.17,1.78,4.24,2.98,6.19,2.4,3.89,5.4,7.41,8.57,10.68,1.93,1.99,3.95,3.91,6.08,5.7.11.09.21.18.32.26.88.72,1.98.62,2.65-.34-.11.16-.36.37-.09.15.16-.14.56-.37-.02,0,.29-.18.56-.41.85-.6.89-.58,1.79-1.12,2.71-1.66,2.75-1.6,5.54-3.13,8.33-4.64,5.99-3.23,12.03-6.39,18.09-9.51l4.08-2.09c.71-.36.9-1.19.77-1.9-.08-.49.04.45,0,0-.02-.19-.04-.37-.05-.56-.03-.42-.04-.83-.05-1.25-.02-1.13.02-2.27.05-3.4.11-3,.32-6,.54-9,.45-5.93,1.01-11.87,1.61-17.79.14-1.3.26-2.59.41-3.89.09-.88-.84-1.72-1.69-1.69-.98.05-1.57.75-1.68,1.69h0Z"/>
      <path class="cls-3" d="M345.1,307.57c-7.85-.67-20.86,5.61-20.86,5.61-4.71-9.87-35.93-22.65-35.93-22.65,0,0,1.69-15.67,3.67-17.48,19.02,3.27,36.12,12.14,49.55,24.85,1.66,1.53,3.57,9.67,3.57,9.67Z"/>
      <path class="cls-3" d="M345.1,305.88c-3.65-.3-7.41.62-10.88,1.66-3.11.93-6.13,2.1-9.11,3.4-.58.25-1.15.51-1.72.78.77.2,1.53.4,2.3.61-1.22-2.53-3.45-4.58-5.6-6.32-2.87-2.33-5.97-4.34-9.15-6.21-5.76-3.39-11.79-6.33-17.89-9.05-1.42-.63-2.85-1.25-4.29-1.85.41.54.82,1.08,1.23,1.62.05-.52.12-1.03.18-1.54.06-.54.14-1.1.21-1.64.02-.16.05-.32.06-.48.05-.36-.05.42,0,.05,0-.06.02-.14.03-.2l.16-1.17c.43-3.03.9-6.07,1.69-9.02.17-.63.37-1.24.6-1.85.05-.14.14-.14-.09.21.04-.06.06-.14.09-.21.05-.1.1-.19.15-.29.04-.07.15-.18.16-.26-.06.29-.31.34-.06.12-.54.14-1.09.29-1.64.43,3.65.63,7.28,1.47,10.83,2.52,1.75.52,3.47,1.08,5.18,1.69.87.31,1.73.63,2.58.97.4.15.8.32,1.2.48.23.09.45.19.68.28q.18.07.44.19c6.64,2.84,12.96,6.44,18.79,10.69,1.63,1.19,2.93,2.2,4.51,3.52,1.58,1.31,3.11,2.67,4.59,4.08v-2.38c-.63.63-.66,1.75,0,2.38.06.06.12.14.18.19.19.17-.23-.34-.08-.11.1.17.22.34.32.51.11.2.22.41.32.62.05.1.09.2.14.29.03.06.06.14.09.2-.1-.23-.11-.25-.04-.08.41,1.04.77,2.09,1.1,3.15.42,1.37.8,2.75,1.13,4.14.21.89,1.21,1.41,2.07,1.18.91-.24,1.39-1.18,1.18-2.07-.34-1.47-.75-2.94-1.21-4.38-.37-1.2-.79-2.38-1.28-3.53-.38-.89-.82-1.82-1.51-2.49v2.38c.63-.63.66-1.76,0-2.38-4.58-4.32-9.57-8.22-14.88-11.6-5.36-3.41-11.06-6.27-16.99-8.57-5.93-2.31-12.17-4.16-18.45-5.12-2.14-.33-2.85,2.37-3.29,3.97-.52,1.83-.86,3.71-1.18,5.57-.34,2.01-.63,4.02-.9,6.04-.14,1.11-.33,2.23-.41,3.35,0,.05,0,.12-.02.17-.08.79.6,1.36,1.23,1.62.07.03.14.06.22.09.09.04.17.07.26.11.05.02.1.05.15.06.27.12-.51-.22-.15-.06.78.33,1.55.66,2.32,1.01,2.56,1.12,5.09,2.3,7.6,3.52,6.47,3.14,12.97,6.55,18.7,10.92.07.05.15.12.23.17-.39-.3.03.02.1.08.17.14.34.27.52.42.34.27.66.54.99.82.62.53,1.21,1.1,1.78,1.69.26.28.53.56.78.85.12.14.23.27.34.41.04.05.22.27.03.04-.2-.25.04.05.07.1.39.53.73,1.08,1.01,1.66.42.86,1.54.97,2.3.61.43-.21.88-.41,1.32-.61.22-.1.44-.2.66-.29.13-.05.25-.11.37-.16.05-.03.12-.05.17-.07.31-.14-.34.14-.04.02.66-.27,1.32-.54,1.99-.81,3.3-1.29,6.7-2.42,10.18-3.08.47-.09.94-.16,1.42-.24.33-.05.04,0-.03,0,.14-.02.28-.04.42-.05.25-.03.5-.05.75-.07.92-.07,1.85-.09,2.77-.02.88.07,1.72-.82,1.69-1.69-.05-.98-.75-1.61-1.69-1.69h0Z"/>
      <path class="cls-3" d="M356.76,319.65c4.14,7.04,7.29,14.35,9.51,22.21.64,2.27,1.2,4.57,1.67,6.88.18.89,1.23,1.4,2.07,1.18.92-.25,1.36-1.18,1.18-2.07-1.69-8.23-4.45-16.21-8.18-23.73-1.04-2.09-2.16-4.15-3.34-6.16-.46-.78-1.51-1.06-2.3-.61-.78.46-1.06,1.52-.6,2.3Z"/>
      <path class="cls-3" d="M182.79,351.58c2.42-13.93,7.92-27.17,16.11-38.7,8.11-11.4,18.8-20.93,31.01-27.73,13.48-7.51,28.74-11.56,44.16-11.81,15.87-.25,31.7,3.5,45.72,10.96,13.49,7.19,25.19,17.66,33.78,30.32,1.11,1.64,2.17,3.32,3.18,5.02,1.11,1.86,4.01.17,2.91-1.69-8.18-13.78-19.71-25.5-33.41-33.83-13.76-8.38-29.53-13.19-45.6-14.03-16.2-.83-32.48,2.42-47.12,9.4-13.22,6.32-25.01,15.69-34.13,27.15-9.02,11.33-15.52,24.58-18.78,38.7-.41,1.77-.76,3.54-1.07,5.33-.15.9.24,1.81,1.18,2.07.8.23,1.9-.27,2.06-1.17Z"/>
      <path class="cls-3" d="M187.2,400c-4.39-12.07-6.29-24.72-5.62-37.53.19-3.7.59-7.28,1.21-10.89.14-.86-.23-1.86-1.18-2.07-.82-.18-1.91.24-2.07,1.18-2.27,13.28-1.87,26.97,1.33,40.08.83,3.43,1.87,6.81,3.08,10.13.31.85,1.14,1.43,2.07,1.18.82-.24,1.5-1.22,1.18-2.08Z"/>
      <path class="cls-3" d="M342.05,434.28c-9.31,9.23-20.5,16.55-32.75,21.22-13.01,4.96-27.02,6.96-40.9,5.92-11.6-.87-23.06-3.92-33.53-8.98-10.27-4.96-19.6-11.75-27.46-20.01-7.86-8.25-14.24-17.96-18.66-28.48-.54-1.3-1.05-2.61-1.54-3.93-.32-.85-1.14-1.43-2.07-1.18-.82.23-1.49,1.21-1.18,2.07,4.13,11.24,10.27,21.64,18.12,30.66,7.69,8.84,17.02,16.31,27.35,21.86,10.71,5.76,22.43,9.43,34.48,10.9,14,1.7,28.4.34,41.81-4.02,12.95-4.2,24.93-11.14,35.06-20.22,1.24-1.11,2.46-2.27,3.64-3.44,1.55-1.51-.83-3.89-2.37-2.36Z"/>
      <path class="cls-3" d="M367.95,348.81c2.56,12.72,2.47,26.11-.29,38.79-2.52,11.53-7.05,22.22-13.58,32.04-3.52,5.3-7.47,10.09-12.03,14.64-.64.64-.64,1.74,0,2.38s1.73.64,2.38,0c8.34-8.31,15.19-18.11,20.04-28.83,5.27-11.67,8.23-24.29,8.65-37.09.25-7.65-.41-15.32-1.92-22.82-.18-.89-1.24-1.4-2.07-1.18-.93.26-1.36,1.18-1.19,2.07h0Z"/>
      <path class="cls-3" d="M219.91,287.92c-.63,4.36-.95,9.03,0,13.36.15.71.92,1.24,1.62,1.23,2.29-.03,4.59.07,6.88.22,2.36.14,4.72.34,7.07.63.31.04.63.07.93.12.15.02.32.04.47.06-.37-.05.15.02.18.03.64.09,1.29.18,1.92.29,1.36.22,2.71.46,4.06.75,2.97.63,5.92,1.44,8.74,2.56-.41-.54-.82-1.08-1.23-1.62-.39,3.63-.75,7.28-1.09,10.91-.59,6.3-1.16,12.61-1.43,18.94-.1,2.28-.26,4.67.12,6.93.25-.63.52-1.27.77-1.9-3.81,1.95-7.62,3.92-11.43,5.91-6.19,3.23-12.39,6.47-18.43,9.97-1.1.63-2.2,1.28-3.26,1.98-.74.48-1.52.98-2.03,1.71.88-.12,1.76-.23,2.65-.34-1.88-1.54-3.66-3.23-5.38-4.94-1.69-1.69-3.32-3.43-4.86-5.26-.41-.49-.81-.98-1.2-1.47-.11-.14-.21-.27-.32-.41.17.23-.04-.05-.1-.13-.21-.27-.42-.55-.62-.82-.76-1.05-1.5-2.12-2.17-3.23-.72-1.2-1.37-2.43-1.94-3.71,0-.03-.1-.24-.03-.05.08.19-.04-.08-.05-.12-.06-.17-.14-.34-.2-.51-.11-.29-.22-.59-.31-.88-.21-.63-.38-1.29-.52-1.94v.9c.29-.92.63-1.84.96-2.75.39-1.04.79-2.07,1.21-3.1.11-.28.23-.55.34-.83.04-.09.07-.18.12-.27,0,.03-.16.39-.05.13.08-.19.16-.37.24-.56.29-.67.59-1.34.89-2.01,1.4-3.08,2.95-6.11,4.68-9.02.94-1.59,1.93-3.14,2.99-4.66.24-.35.5-.71.75-1.05.14-.18.27-.36.41-.55l.24-.33s.31-.41.07-.09c.57-.73,1.16-1.46,1.77-2.16,1.34-1.55,2.78-3.02,4.34-4.34.18-.15.36-.31.55-.46.1-.08.2-.16.31-.24.07-.05.39-.3.07-.05.39-.3.79-.59,1.2-.87.82-.56,1.67-1.08,2.55-1.55.8-.43,1.05-1.54.61-2.3-.47-.82-1.5-1.03-2.3-.61-5.55,2.95-9.89,7.82-13.46,12.91-3.3,4.7-6,9.84-8.31,15.1-.85,1.95-1.66,3.91-2.4,5.91-.34.9-.71,1.81-.96,2.74-.27.98.25,2.26.57,3.19.54,1.6,1.26,3.15,2.08,4.63,1.67,3,3.76,5.77,5.98,8.37,2.94,3.45,6.2,6.7,9.69,9.62.05.05.12.1.17.14.88.72,1.98.62,2.65-.34-.11.16-.36.37-.09.15.16-.14.56-.37-.02,0,.29-.18.56-.41.85-.6.89-.58,1.79-1.12,2.71-1.66,2.75-1.6,5.54-3.13,8.33-4.64,5.99-3.23,12.03-6.39,18.09-9.51l4.08-2.09c.71-.36.9-1.19.77-1.9-.08-.49.04.45,0,0-.02-.19-.04-.37-.05-.56-.03-.42-.04-.83-.05-1.25-.02-1.13.02-2.27.05-3.4.11-3,.32-6,.54-9,.45-5.93,1.01-11.87,1.61-17.79.14-1.3.26-2.59.41-3.89.08-.79-.6-1.37-1.23-1.62-5.15-2.05-10.65-3.08-16.12-3.79-4.2-.54-8.42-.86-12.64-.96-.8-.02-1.6-.04-2.4-.03.54.41,1.08.82,1.62,1.23-.07-.33-.14-.64-.18-.97,0-.05-.07-.51-.05-.32.02.17-.04-.35-.05-.41-.06-.65-.11-1.3-.13-1.96-.05-1.32-.02-2.65.05-3.97.05-1.03.14-2.06.25-3.08l.11-.9c.05-.43-.07.49,0,.05.13-.87-.22-1.85-1.18-2.07-.81-.19-1.95.24-2.08,1.17h0Z"/>
      <path class="cls-3" d="M182.65,352.32c0-.08,0-.17.02-.25-.02.44.03-.11.07-.28.05-.18.09-.36.14-.53.05-.14.09-.28.14-.42.03-.08.06-.17.1-.25.14-.37-.09.2-.04.08.41-.85.85-1.67,1.4-2.45.07-.1.14-.2.21-.29s.38-.56.08-.11c.17-.26.4-.51.61-.74.47-.55.97-1.07,1.49-1.58.59-.57,1.2-1.11,1.83-1.63.19-.15.37-.31.56-.45.08-.06.15-.13.24-.18-.24.19.02-.02.08-.06.41-.31.82-.6,1.23-.89,2.27-1.59,4.7-2.95,7.19-4.19.82-.41,1.04-1.56.61-2.3-.49-.83-1.49-1.01-2.3-.61-4.11,2.04-8.14,4.47-11.49,7.64-1.81,1.71-3.52,3.72-4.55,6.01-.49,1.09-.96,2.29-.96,3.51,0,.88.77,1.72,1.69,1.69.88-.06,1.65-.76,1.65-1.7h0Z"/>
      <path class="cls-3" d="M213.62,360.39c-.7,3.39-1.16,6.83-1.56,10.27-.82,6.96-1.2,14.02-.65,21.01.32,4.07.92,8.17,2.21,12.06.25-.63.52-1.27.77-1.9-4.27,2.01-8.47,4.39-12.22,7.25-1.44,1.1-2.85,2.25-4.04,3.62.68-.09,1.36-.17,2.04-.26-.4-.26-.79-.53-1.18-.81-.42-.3-.83-.6-1.25-.91-.24-.18-.48-.35-.72-.53-.14-.1-.27-.21-.41-.31-.06-.05-.13-.09-.18-.14-.11-.08.26.2-.04-.03-2.53-1.98-5-4.09-7.09-6.53-.14-.17-.28-.34-.43-.51-.07-.08-.14-.17-.2-.25.14.17.1.14,0-.02-.24-.34-.48-.67-.71-1.01-.21-.33-.41-.66-.58-1.01-.08-.16-.15-.34-.24-.49-.09-.17.14.15.05.14-.05,0-.15-.42-.17-.46-.29-.86-1.16-1.42-2.07-1.18-.84.23-1.47,1.21-1.18,2.07,1.07,3.19,3.57,5.79,5.97,8.04,2.24,2.08,4.66,3.99,7.14,5.77.52.37,1.03.73,1.56,1.09.58.38,1.58.27,2.04-.26.98-1.13,2.11-2.12,3.29-3.04-.27.21.18-.14.24-.18.16-.12.32-.24.48-.35.33-.24.65-.47.98-.7.68-.47,1.38-.92,2.07-1.37,2.28-1.44,4.66-2.76,7.07-3.99.48-.24.96-.49,1.45-.72.63-.3.99-1.24.77-1.9-.53-1.63-.96-3.31-1.29-4.99-.17-.88-.32-1.76-.43-2.65,0-.05-.05-.37-.02-.16.03.21-.02-.12-.02-.16-.03-.24-.05-.46-.08-.7-.05-.47-.1-.93-.14-1.4-.34-3.63-.4-7.3-.29-10.95.1-3.34.35-6.69.72-10.01.08-.73.16-1.46.25-2.18.05-.34.08-.66.13-1,.02-.12,0-.35.06-.45,0,.02-.05.42-.02.12.02-.11.03-.22.05-.33.15-1.1.32-2.19.49-3.28.18-1.13.37-2.27.61-3.39.17-.86-.24-1.86-1.18-2.07-.83-.19-1.87.25-2.06,1.17h0Z"/>
      <path class="cls-3" d="M197.64,413.88c.16,1.59.66,3.16,1.22,4.66,1.57,4.19,3.83,8.08,6.45,11.7,2,2.76,4.2,5.39,6.54,7.87,1.36,1.45,2.77,2.85,4.22,4.21.78.72,1.57,1.45,2.36,2.16.55.49,1.09,1.05,1.78,1.32,3.39,1.31,6.95,2.3,10.47,3.21,6.27,1.62,12.81,2.9,19.31,2.78.75-.02,1.5-.05,2.25-.12,1.17-.1,1.81-.99,1.62-2.13-.41-2.46-.83-4.9-1.23-7.36-.34-2.14-.68-4.28-.99-6.42-.08-.53-.15-1.08-.23-1.61-.04-.26-.07-.53-.11-.8,0-.06-.06-.45-.03-.2.04.24-.03-.18-.04-.25-.14-1-.25-2-.37-3-.17-1.59-.39-3.21-.32-4.8.03-.54-.33-1.21-.83-1.45-3.4-1.61-6.75-3.33-10.07-5.11-6.03-3.22-12.06-6.61-17.52-10.72-.16-.12-.32-.24-.48-.36-.19-.14.33.26.04.03-.08-.06-.17-.14-.25-.2-.33-.26-.65-.53-.97-.79-.58-.48-1.14-.99-1.69-1.5-.47-.46-.93-.93-1.35-1.44-.05-.05-.08-.1-.12-.14-.23-.27-.05.05.05.07-.06,0-.22-.3-.25-.35-.15-.22-.3-.44-.43-.68-.44-.79-1.52-1.06-2.3-.61-.8.46-1.05,1.5-.61,2.3,1.25,2.21,3.32,3.97,5.28,5.53,2.71,2.14,5.59,4.06,8.53,5.86,5.44,3.34,11.07,6.37,16.78,9.22,1.21.61,2.43,1.21,3.66,1.79-.28-.48-.55-.97-.83-1.45-.06,1.37.1,2.76.24,4.12.23,2.16.52,4.3.82,6.44.57,4,1.21,7.99,1.88,11.97.15.93.33,1.87.48,2.81.54-.71,1.08-1.42,1.62-2.13-2.66.23-5.35.12-8.01-.14-.35-.04-.7-.07-1.05-.12-.16-.02-.33-.04-.48-.05l-.24-.03s-.35-.05-.18-.03c.18.03-.08,0-.1-.02-.08,0-.16-.02-.24-.04-.19-.03-.37-.05-.56-.08-.34-.05-.7-.11-1.04-.16-1.37-.23-2.74-.49-4.1-.78-4.3-.92-8.55-2.09-12.72-3.48-.82-.27-1.64-.54-2.45-.85.24.14.5.29.74.43-3.41-2.95-6.65-6.09-9.62-9.49-.64-.73-1.27-1.47-1.88-2.22-.26-.33-.53-.65-.79-.99-.06-.08-.4-.51-.21-.26-.15-.2-.3-.4-.45-.6-.93-1.25-1.83-2.53-2.67-3.84-1.3-2.05-2.49-4.18-3.48-6.4-.05-.1-.09-.21-.14-.31-.19-.43.08.2,0-.02-.08-.21-.17-.41-.25-.62-.15-.39-.3-.77-.43-1.17-.21-.6-.41-1.21-.57-1.83-.12-.43-.23-.87-.31-1.31-.02-.12-.04-.24-.06-.35-.05-.25.07.59.05.32-.09-.87-.71-1.72-1.69-1.69-.82.05-1.76.75-1.66,1.69h0Z"/>
      <path class="cls-3" d="M253.43,306.74c-.66.52-.29.23-.14.11.18-.14.37-.27.56-.41.69-.5,1.39-.99,2.09-1.46,2.39-1.61,4.87-3.1,7.39-4.49,3.51-1.91,6.94-3.52,10.49-4.84,2.02-.75,4.08-1.41,6.16-1.97,1.11-.29,2.22-.55,3.34-.78.51-.1,1.01-.19,1.52-.28.27-.05.53-.09.81-.13.12-.02.24-.04.36-.05,0,0,.53-.07.27-.04.53-.07,1.11-.07,1.63-.18.44-.09-.11-.12-.05-.08.08.05.2.08.29.12.08.04.16.06.24.1.37.15-.47-.2-.05-.03.28.12.55.24.83.35,1.79.77,3.58,1.57,5.35,2.39,5.35,2.48,10.63,5.15,15.68,8.18,1.32.8,2.62,1.61,3.9,2.47.6.4,1.19.81,1.77,1.23.28.2.56.41.84.62.12.09.24.18.36.27.3.23-.22-.17-.03-.02.09.07.17.14.26.21,1,.79,1.97,1.62,2.86,2.52.41.41.81.82,1.18,1.27.08.1.17.2.25.31l.11.14c.17.21-.11-.13-.11-.14,0,.13.4.55.48.67.25.38.49.78.69,1.2-.07-.28-.15-.56-.23-.85.08,3.6.11,7.2.11,10.8,0,6.3-.04,12.62-.51,18.91-.05.73-.12,1.48-.2,2.21-.04.32-.07.63-.11.96-.02.14-.13.76-.02.13-.03.13-.04.26-.05.39-.14.92-.29,1.86-.62,2.72.25-.34.52-.67.77-1.01-3.57,1.93-7.19,3.79-10.82,5.6-3.25,1.62-6.52,3.22-9.82,4.73-1.64.75-3.28,1.48-4.94,2.18.47-.2-.13.05-.22.09-.21.08-.41.17-.62.25-.4.16-.8.33-1.21.49-.72.29-1.46.57-2.19.84-1.37.5-2.76.97-4.18,1.32-.29.07-.58.14-.88.19-.13.03-.24.05-.37.06-.06,0-.12.02-.18.03-.37.06.43-.04.16-.02-.42.03-.82.07-1.25.03.28.07.56.15.85.23-3.75-2.09-7.47-4.26-11.15-6.45-6.4-3.81-12.81-7.68-18.79-12.11-.35-.26-.72-.51-1.06-.8.43.38-.12-.09-.23-.18-.16-.13-.32-.25-.47-.38-.54-.44-1.09-.9-1.6-1.38-.42-.39-.83-.79-1.21-1.21-.08-.09-.16-.19-.24-.28-.28-.33.25.37.03.03-.11-.16-.22-.33-.31-.5-.43-.81-1.54-1.05-2.3-.61-.82.47-1.03,1.5-.61,2.3.49.93,1.3,1.74,2.06,2.46,1.14,1.08,2.39,2.04,3.64,2.99,3.1,2.35,6.36,4.49,9.64,6.58,3.49,2.22,7.01,4.37,10.57,6.48,2.68,1.59,5.37,3.15,8.08,4.69.66.37,1.32.75,1.98,1.12.7.39,1.46.46,2.25.38,3.04-.32,6-1.5,8.83-2.62,3.92-1.57,7.76-3.32,11.57-5.14,3.52-1.69,7.02-3.43,10.49-5.22,1.98-1.01,3.94-2.05,5.9-3.09.1-.05.22-.11.32-.17.71-.43.92-1.34,1.1-2.1.34-1.46.5-2.96.64-4.45.38-3.95.5-7.94.58-11.91.08-4.08.09-8.15.06-12.22-.02-2.35-.05-4.69-.09-7.04-.03-1.11-.72-2.1-1.38-2.96-1.1-1.45-2.37-2.73-3.75-3.91-3.33-2.82-7.03-5.17-10.8-7.35-3.73-2.15-7.57-4.11-11.47-5.97-2.65-1.27-5.34-2.49-8.05-3.64-.57-.24-1.13-.54-1.72-.72-.56-.17-1.33.02-1.9.08-.91.11-1.8.23-2.7.38-1.58.26-3.14.6-4.69,1-5.84,1.5-11.45,3.86-16.77,6.68-3.44,1.82-6.79,3.84-9.96,6.09-.56.4-1.12.82-1.68,1.23-.72.55-.59,1.79,0,2.38.68.69,1.63.53,2.35-.02h0Z"/>
      <path class="cls-3" d="M289.99,290.52c.05-.52.12-1.03.18-1.54l.22-1.74.05-.43c.03-.24-.06.45,0,.1,0-.06.02-.14.03-.2l.16-1.17c.43-3.05.91-6.14,1.72-9.11.09-.32.18-.63.28-.95.04-.12.36-.78.32-.87,0,0-.19.42-.09.22.03-.05.05-.12.08-.17.05-.11.11-.21.16-.31.08-.14.29-.53-.07.05.04-.05.09-.11.14-.15.64-.64.64-1.74,0-2.38s-1.73-.64-2.38,0c-.79.79-1.17,1.93-1.49,2.97-.43,1.4-.73,2.84-1.01,4.28-.6,3.11-1.04,6.25-1.43,9.4-.08.68-.16,1.35-.24,2.03-.09.88.84,1.72,1.69,1.69,1-.05,1.59-.75,1.69-1.69h0Z"/>
      <path class="cls-3" d="M325.1,314.63c.43-.21.88-.41,1.32-.61.22-.1.44-.2.66-.29.13-.05.25-.11.37-.16.05-.03.12-.05.17-.07.31-.14-.34.14-.04.02.66-.27,1.32-.54,1.99-.81,3.3-1.29,6.7-2.42,10.18-3.08.47-.09.94-.16,1.42-.24.33-.05.04,0-.03,0,.14-.02.28-.04.42-.05.25-.03.5-.05.75-.07.92-.07,1.85-.09,2.77-.02,1.13.09,1.86-1.14,1.62-2.13-.34-1.47-.75-2.94-1.21-4.38-.37-1.2-.79-2.38-1.28-3.53-.38-.89-.82-1.82-1.51-2.49-.65-.63-1.73-.65-2.38,0-.63.63-.66,1.75,0,2.38.06.06.12.14.18.19.19.17-.23-.34-.08-.11.1.17.22.34.32.51.11.2.22.41.32.62.05.1.09.2.14.29.03.06.06.14.09.2-.1-.23-.11-.25-.04-.08.41,1.04.77,2.09,1.1,3.15.42,1.37.8,2.75,1.13,4.14.54-.71,1.08-1.42,1.62-2.13-3.65-.3-7.41.62-10.88,1.66-3.11.93-6.13,2.1-9.11,3.4-.58.25-1.15.51-1.72.78-.82.4-1.03,1.56-.61,2.3.49.85,1.48,1.01,2.3.62h0Z"/>
      <path class="cls-3" d="M344.25,309.02c1.28.9,2.54,1.82,3.79,2.76.25.19.51.39.76.58l.24.19c.19.14-.24-.18-.05-.04.15.12.3.24.45.35.6.47,1.2.94,1.78,1.43,1.13.92,2.25,1.88,3.32,2.89.5.48.99.97,1.45,1.49.11.12.21.24.32.36.04.05.08.09.12.14.22.26-.06,0-.05-.06-.02.09.41.6.47.71.46.78,1.51,1.06,2.3.61.79-.46,1.07-1.51.61-2.3-1.35-2.29-3.62-4.1-5.64-5.79-2.18-1.81-4.45-3.53-6.75-5.2-.48-.34-.95-.69-1.43-1.02-.74-.52-1.87-.14-2.3.61-.49.83-.14,1.78.6,2.29h0Z"/>
      <path class="cls-3" d="M321.35,350.58c2.34,3.04,4.63,6.12,6.89,9.21,3.86,5.29,7.73,10.64,11.03,16.3.66,1.13,1.3,2.28,1.83,3.48.21.47-.11-.29.02.04.05.11.09.22.13.34.07.2.14.4.21.61.05.17.08.34.13.53.09.36-.02-.47-.03-.18,0,.08,0,.15,0,.24-.02.84.79,1.78,1.69,1.69,2.65-.28,5.29-.72,7.9-1.24,4.37-.87,8.95-1.98,12.84-4.22.86-.5,1.69-1.08,2.43-1.77.54-.51,1.21-1.18,1.4-1.91.22-.82.3-1.72.44-2.56.67-3.96,1.31-7.92,1.9-11.89.32-2.14.62-4.29.86-6.44.14-1.31.34-2.66.28-4,0-.32-.05-.63-.11-.95-.17-.89-1.24-1.4-2.07-1.18-.93.25-1.35,1.18-1.18,2.07.07.34-.04-.54-.02-.16,0,.1,0,.21.02.31,0,.24,0,.48,0,.72-.03.67-.09,1.35-.15,2.02-.08.87-.19,1.74-.3,2.6-.06.48-.12.96-.19,1.43.05-.32.03-.18,0,.05-.02.11-.03.23-.05.34l-.11.79c-.57,4.05-1.22,8.09-1.9,12.12-.19,1.15-.39,2.29-.59,3.44-.02.11-.05.24-.06.34,0,.3.24-.51,0-.09-.02.04.26-.31.04-.05l-.16.19c-.14.15-.3.31-.45.45-.14.14-.29.25-.44.38-.22.19.29-.21.05-.04-.1.07-.21.15-.31.23-.78.54-1.62,1-2.48,1.4-.22.1-.44.2-.66.3-.27.13.33-.13-.07.03-.13.05-.25.1-.38.15-.52.21-1.03.4-1.56.57-2.09.72-4.24,1.28-6.41,1.75-1.88.41-3.77.75-5.67,1.05-.35.05-.72.11-1.07.15-.16.03-.33.05-.48.06-.28.04.1-.02.19-.03-.08,0-.15.02-.24.03-.36.05-.72.07-1.08.14-.05,0-.09,0-.14.02l1.69,1.69c.02-.82-.25-1.63-.55-2.38-.46-1.13-1.01-2.23-1.6-3.3-1.48-2.66-3.14-5.22-4.85-7.74-3.55-5.27-7.3-10.41-11.13-15.48-.84-1.11-1.69-2.24-2.54-3.34-.55-.72-1.45-1.11-2.3-.61-.72.45-1.17,1.62-.61,2.34h0Z"/>
      <path class="cls-3" d="M364.56,373.73c.09.57.16,1.15.24,1.73.02.14.04.27.05.42s.08.71,0,.09c.04.35.09.71.14,1.06.1.8.2,1.6.3,2.4.43,3.61.82,7.24.89,10.87.02.83.02,1.67-.04,2.5,0,.2-.03.4-.05.59-.02.21-.19.64,0,.09-.1.29-.11.63-.2.92-.25.84.31,1.88,1.18,2.07.91.21,1.79-.27,2.07-1.18.41-1.35.42-2.85.42-4.24,0-1.79-.12-3.59-.26-5.38-.29-3.55-.72-7.09-1.2-10.61-.1-.74-.2-1.48-.32-2.22-.14-.9-1.27-1.4-2.07-1.18-.96.26-1.3,1.17-1.17,2.07h0Z"/>
      <path class="cls-3" d="M341.62,380.69c-.19.69-.42,1.36-.64,2.03-.27.8-.56,1.59-.86,2.36-.18.48-.37.96-.57,1.44-.1.25-.21.51-.32.76-.16.38.13-.3-.04.09-.06.15-.13.3-.2.45-2.59,5.97-5.84,11.67-9.69,16.93-1.28,1.74-2.56,3.35-4.07,5.07-1.62,1.86-3.33,3.63-5.11,5.33.4-.16.8-.33,1.19-.49-1-.08-1.99-.18-2.99-.29-1.09-.12-2.17-.24-3.24-.36-.64-.08-1.3-.15-1.94-.24l-1.01-.14c-.1,0-.33-.04.12.02-.09,0-.18-.03-.27-.04-.2-.03-.41-.05-.61-.08-6.23-.87-12.53-1.89-18.54-3.81-.74-.24-1.48-.49-2.2-.77-.15-.06-.31-.12-.46-.18-.13-.05-.77-.25-.23-.09-.32-.1-.63-.28-.93-.43-.54-.26-1.08-.54-1.59-.87-.24-.14-.46-.31-.69-.47s.14.02.14.11c0-.02-.15-.12-.16-.14-.1-.09-.21-.17-.31-.26.16.4.33.8.49,1.19,0-1.4.02-2.79.02-4.19l.05-10.06c.02-4.04.05-8.07.06-12.11l.05-10.52c0-1.7.07-3.42.03-5.11v-.07c0-.88-.78-1.72-1.69-1.69-.92.05-1.68.74-1.69,1.69,0,1.88-.02,3.74-.03,5.62-.03,4.27-.05,8.53-.07,12.79-.03,4.63-.05,9.27-.07,13.9-.02,2.98-.04,5.95-.05,8.93,0,.24,0,.5,0,.75.04,1.06.82,1.59,1.59,2.15,1.66,1.2,3.63,1.97,5.55,2.65,4.87,1.71,10,2.69,15.08,3.52,4.37.72,8.76,1.29,13.17,1.74.78.08,1.6.24,2.39.23.94,0,1.59-.84,2.21-1.46.74-.73,1.48-1.48,2.18-2.24,1.4-1.49,2.73-3.03,4-4.62,4.3-5.36,7.98-11.21,10.94-17.41,1.58-3.31,3.02-6.72,4.08-10.24.05-.15.1-.32.14-.48.24-.85-.29-1.87-1.18-2.07-.86-.2-1.79.27-2.04,1.18h0Z"/>
      <path class="cls-3" d="M284.37,406.37c-3.32,2.21-6.71,4.31-10.14,6.35-3.05,1.82-6.14,3.58-9.3,5.24-1.57.82-3.14,1.61-4.75,2.36-.77.36-1.55.71-2.33,1.04-.09.04-.44.18,0,0-.06.03-.13.05-.2.08-.19.08-.39.16-.58.24-.34.14-.7.27-1.04.41-1.4.53-2.85,1.01-4.32,1.3-.14.03-.29.05-.44.08-.07,0-.14.02-.22.04-.28.05.51-.05.1,0-.26.03-.53.05-.79.06-.25,0-.52,0-.77-.02-.45-.03.38.08.07,0-.12-.03-.24-.05-.34-.07-.58-.15-1.21,0-1.64.43-.47.47-.52,1.01-.43,1.64l1.14,8.45c.61,4.46,1.21,8.92,1.81,13.38.14,1,.2,2.03.41,3.01.15.73.76,1.06,1.38,1.34.83.39,1.68.74,2.53,1.1,1.59.64,3.2,1.21,4.83,1.73,6.28,1.98,12.79,3.23,19.31,4.14,2.36.33,4.73.62,7.11.84.63.06,1.28.12,1.91.17.38.03.74.08,1.11,0,.77-.2,1.53-.61,2.27-.91,1.99-.82,3.97-1.66,5.94-2.52,5.35-2.34,10.64-4.84,15.71-7.71,2.4-1.36,4.77-2.8,6.98-4.47,1-.75,2.03-1.52,2.91-2.42.56-.57.63-1.11.63-1.82l-.11-11.28c-.04-3.85-.07-7.7-.11-11.56,0-.22,0-.44,0-.66,0-.88-.77-1.72-1.69-1.69-.91.04-1.69.74-1.69,1.69.03,2.7.05,5.4.07,8.09.04,4.3.08,8.61.12,12.92l.03,2.99c.16-.4.33-.8.49-1.19-.39.38-.8.75-1.21,1.11-.2.17-.41.34-.62.51-.12.09-.23.18-.34.27-.23.18.05-.04.07-.06-.09.06-.18.14-.27.21-1.04.79-2.13,1.52-3.23,2.22-2.49,1.59-5.07,3.02-7.7,4.38-2.62,1.36-5.28,2.64-7.96,3.87-1.21.55-2.42,1.1-3.64,1.63-1.04.45-2.16.83-3.16,1.36.45-.24.1-.04-.03,0-.11.05-.23.09-.34.14-.23.09-.45.19-.67.28-.39.16-.77.32-1.16.48-.53.22-1.08.43-1.61.65-.14.05-.3.11-.43.17-.38.18.33-.12.3,0,0,.02-.72-.05-.75-.05-1.67-.14-3.33-.31-4.99-.5-.62-.07-1.23-.14-1.85-.23-.14-.02-.28-.04-.42-.05-.15-.02-.55-.07-.16-.02-.35-.05-.72-.1-1.07-.14-1.49-.21-2.96-.44-4.44-.69-6.69-1.14-13.39-2.68-19.68-5.28.32.13-.22-.1-.29-.13-.16-.07-.32-.14-.48-.21-.38-.17-.76-.34-1.13-.53.25.34.52.67.77,1.01-.46-2.77-.75-5.57-1.13-8.35-.61-4.49-1.21-8.96-1.82-13.45-.14-1.03-.28-2.06-.42-3.09l-2.07,2.07c2.36.63,5-.16,7.23-.92,3.23-1.1,6.33-2.56,9.38-4.1,5.95-3.03,11.7-6.45,17.33-10.02,1.24-.79,2.47-1.58,3.7-2.39.75-.51,1.08-1.49.61-2.3-.4-.79-1.5-1.15-2.27-.64h0Z"/>
      <path class="cls-3" d="M320.7,441.8c1.15.63,2.57.8,3.85.89,3.43.24,6.97-.58,10.2-1.66,3.23-1.08,6.33-2.5,9.33-4.1-.28.07-.56.15-.85.23.88,0,1.72-.77,1.69-1.69-.05-.92-.74-1.69-1.69-1.69-.81,0-1.69.67-2.39,1.03-.72.36-1.46.72-2.2,1.06-.34.16-.7.32-1.05.47-.34.15-.26.12-.61.26-.63.26-1.28.51-1.92.75-1.99.72-4.04,1.33-6.12,1.7-.18.04-.37.06-.55.09-.11.02-.22.03-.32.05-.38.06.41-.05.04,0-.39.05-.77.09-1.16.12-.63.05-1.26.06-1.89.04-.25,0-.5-.03-.75-.05-.1,0-.21-.02-.31-.03-.06,0-.12-.02-.18-.02-.26-.03.47.07.23.03-.35-.06-.71-.12-1.06-.21-.24-.06-.48-.15-.72-.24s.54.24.21.09l-.05-.03c-.8-.43-1.83-.2-2.3.61-.45.74-.2,1.84.6,2.28h0Z"/>
      <path class="cls-3" d="M286.68,458.06v4.49c0,.88.77,1.72,1.69,1.69.92-.05,1.69-.74,1.69-1.69v-4.49c0-.88-.77-1.72-1.69-1.69-.92.05-1.69.74-1.69,1.69Z"/>
    </g>
  </g>
  <path class="cls-4" d="M182.28,96.06h190.72l-77.86-30.04c-3.25-1.54-9.43-3.94-17.5-3.86-7.88.08-13.9,2.49-17.11,4.06-26.09,9.94-52.17,19.89-78.26,29.83Z"/>
  <rect class="cls-1" x="77.98" y="115.72" width="399.32" height="72"/>
  <g>
    <path class="cls-5" d="M87.85,180.39v-45.76h5.5v40.07h20.84v5.69h-26.34Z"/>
    <path class="cls-5" d="M136.14,180.92c-2.93,0-5.66-.59-8.17-1.77-2.51-1.18-4.68-2.82-6.52-4.94-1.83-2.11-3.26-4.59-4.29-7.42-1.03-2.83-1.54-5.93-1.54-9.28s.51-6.45,1.54-9.28c1.03-2.83,2.46-5.31,4.29-7.42,1.83-2.11,4-3.76,6.49-4.94,2.49-1.18,5.22-1.76,8.19-1.76s5.65.58,8.14,1.73c2.49,1.16,4.66,2.79,6.49,4.9,1.83,2.11,3.25,4.6,4.26,7.45,1.01,2.85,1.51,5.96,1.51,9.31s-.5,6.52-1.51,9.35c-1.01,2.83-2.43,5.31-4.26,7.42-1.83,2.11-4,3.75-6.49,4.9-2.49,1.16-5.21,1.73-8.14,1.73ZM136.08,175.1c2.16,0,4.15-.43,5.97-1.31,1.81-.87,3.39-2.1,4.73-3.69,1.34-1.59,2.38-3.45,3.13-5.59.75-2.13,1.13-4.47,1.13-6.99s-.38-4.85-1.13-6.96c-.75-2.11-1.8-3.98-3.13-5.59-1.34-1.61-2.92-2.85-4.73-3.73-1.81-.87-3.8-1.31-5.97-1.31s-4.1.44-5.91,1.31c-1.81.87-3.4,2.11-4.76,3.73-1.36,1.61-2.41,3.48-3.16,5.59-.75,2.11-1.13,4.43-1.13,6.96s.38,4.86,1.13,6.99c.75,2.14,1.81,4,3.16,5.59,1.36,1.59,2.94,2.82,4.76,3.69,1.81.87,3.79,1.31,5.91,1.31Z"/>
    <path class="cls-5" d="M175.13,180.92c-2.93,0-5.74-.53-8.41-1.6-2.68-1.07-4.79-2.45-6.32-4.15l2.03-5.1c1.47,1.53,3.34,2.79,5.61,3.79,2.27,1,4.64,1.5,7.09,1.5,2.24,0,4.05-.3,5.44-.92,1.39-.61,2.42-1.45,3.08-2.52.66-1.07.99-2.28.99-3.63,0-1.57-.43-2.83-1.29-3.79-.86-.96-1.98-1.73-3.35-2.32-1.37-.59-2.89-1.1-4.54-1.54-1.65-.43-3.31-.95-4.98-1.54-1.67-.59-3.19-1.34-4.56-2.26-1.38-.92-2.48-2.15-3.33-3.69-.84-1.55-1.27-3.54-1.27-5.98s.52-4.52,1.57-6.5c1.05-1.98,2.66-3.57,4.84-4.77,2.18-1.2,4.96-1.8,8.33-1.8,2.24,0,4.45.35,6.65,1.05,2.2.7,4.11,1.7,5.72,3.01l-1.81,5.23c-1.65-1.31-3.39-2.26-5.22-2.84-1.83-.59-3.61-.88-5.33-.88-2.16,0-3.94.33-5.33.98-1.39.65-2.41,1.53-3.05,2.61-.64,1.09-.96,2.31-.96,3.66,0,1.61.43,2.9,1.29,3.86.86.96,1.98,1.72,3.36,2.29,1.37.57,2.89,1.08,4.54,1.54,1.65.46,3.31.97,4.98,1.54,1.67.57,3.19,1.31,4.56,2.22,1.37.92,2.48,2.14,3.33,3.66.84,1.53,1.27,3.49,1.27,5.88s-.53,4.46-1.59,6.44c-1.06,1.98-2.7,3.57-4.92,4.77-2.22,1.2-5.01,1.8-8.39,1.8Z"/>
    <path class="cls-5" d="M216.27,174.71h22.44v5.69h-27.94v-45.76h27.17v5.69h-21.67v34.38ZM215.77,154.38h19.8v5.56h-19.8v-5.56Z"/>
    <path class="cls-5" d="M254.21,180.39v-40.07h-13.2v-5.69h31.84v5.69h-13.2v40.07h-5.44Z"/>
    <path class="cls-5" d="M283.31,174.71h22.44v5.69h-27.94v-45.76h27.17v5.69h-21.67v34.38ZM282.81,154.38h19.8v5.56h-19.8v-5.56Z"/>
    <path class="cls-5" d="M313.61,180.39v-45.76h15.01c3.37,0,6.25.63,8.63,1.9,2.38,1.26,4.22,3.09,5.5,5.49,1.28,2.4,1.93,5.25,1.93,8.56s-.64,6.16-1.93,8.53c-1.28,2.38-3.12,4.2-5.5,5.46-2.38,1.26-5.26,1.9-8.63,1.9h-11.99l2.48-3.01v16.93h-5.5ZM319.11,164.12l-2.48-3.2h11.82c3.52,0,6.19-.9,8-2.71,1.81-1.81,2.72-4.35,2.72-7.62s-.91-5.8-2.72-7.58c-1.81-1.79-4.48-2.68-8-2.68h-11.82l2.48-3.27v27.06ZM339.35,180.39l-9.79-16.6h5.88l9.9,16.6h-5.99Z"/>
    <path class="cls-5" d="M352.55,180.39v-45.76h4.51l25.46,37.59h-2.36v-37.59h5.5v45.76h-4.51l-25.46-37.59h2.36v37.59h-5.5Z"/>
    <path class="cls-5" d="M413.54,180.92c-2.93,0-5.66-.59-8.17-1.77-2.51-1.18-4.68-2.82-6.52-4.94-1.83-2.11-3.26-4.59-4.29-7.42-1.03-2.83-1.54-5.93-1.54-9.28s.51-6.45,1.54-9.28c1.03-2.83,2.46-5.31,4.29-7.42,1.83-2.11,4-3.76,6.49-4.94,2.49-1.18,5.22-1.76,8.19-1.76s5.65.58,8.14,1.73c2.49,1.16,4.66,2.79,6.49,4.9,1.83,2.11,3.25,4.6,4.26,7.45,1.01,2.85,1.51,5.96,1.51,9.31s-.5,6.52-1.51,9.35c-1.01,2.83-2.43,5.31-4.26,7.42-1.83,2.11-4,3.75-6.49,4.9-2.49,1.16-5.21,1.73-8.14,1.73ZM413.48,175.1c2.16,0,4.15-.43,5.97-1.31,1.81-.87,3.39-2.1,4.73-3.69,1.34-1.59,2.38-3.45,3.13-5.59.75-2.13,1.13-4.47,1.13-6.99s-.38-4.85-1.13-6.96c-.75-2.11-1.8-3.98-3.13-5.59-1.34-1.61-2.92-2.85-4.73-3.73-1.81-.87-3.8-1.31-5.97-1.31s-4.1.44-5.91,1.31c-1.81.87-3.4,2.11-4.76,3.73-1.36,1.61-2.41,3.48-3.16,5.59-.75,2.11-1.13,4.43-1.13,6.96s.38,4.86,1.13,6.99c.75,2.14,1.81,4,3.16,5.59,1.36,1.59,2.94,2.82,4.76,3.69,1.81.87,3.79,1.31,5.91,1.31Z"/>
    <path class="cls-5" d="M452.53,180.92c-2.93,0-5.74-.53-8.41-1.6-2.68-1.07-4.79-2.45-6.32-4.15l2.03-5.1c1.47,1.53,3.34,2.79,5.61,3.79,2.27,1,4.64,1.5,7.09,1.5,2.24,0,4.05-.3,5.44-.92,1.39-.61,2.42-1.45,3.08-2.52.66-1.07.99-2.28.99-3.63,0-1.57-.43-2.83-1.29-3.79-.86-.96-1.98-1.73-3.35-2.32-1.37-.59-2.89-1.1-4.54-1.54-1.65-.43-3.31-.95-4.98-1.54-1.67-.59-3.19-1.34-4.56-2.26-1.38-.92-2.48-2.15-3.33-3.69-.84-1.55-1.27-3.54-1.27-5.98s.52-4.52,1.57-6.5c1.05-1.98,2.66-3.57,4.84-4.77,2.18-1.2,4.96-1.8,8.33-1.8,2.24,0,4.45.35,6.65,1.05,2.2.7,4.11,1.7,5.72,3.01l-1.81,5.23c-1.65-1.31-3.39-2.26-5.22-2.84-1.83-.59-3.61-.88-5.33-.88-2.16,0-3.94.33-5.33.98-1.39.65-2.41,1.53-3.05,2.61-.64,1.09-.96,2.31-.96,3.66,0,1.61.43,2.9,1.29,3.86.86.96,1.98,1.72,3.36,2.29,1.37.57,2.89,1.08,4.54,1.54,1.65.46,3.31.97,4.98,1.54,1.67.57,3.19,1.31,4.56,2.22,1.37.92,2.48,2.14,3.33,3.66.84,1.53,1.27,3.49,1.27,5.88s-.53,4.46-1.59,6.44c-1.06,1.98-2.7,3.57-4.92,4.77-2.22,1.2-5.01,1.8-8.39,1.8Z"/>
  </g>
</svg>