<?xml version="1.0" encoding="UTF-8"?>
<svg id="Capa_1" data-name="Capa 1" xmlns="http://www.w3.org/2000/svg" viewBox="0 0 396.55 511.25">
  <defs>
    <style>
      .cls-1, .cls-2, .cls-3 {
        fill: none;
      }

      .cls-1, .cls-2, .cls-4, .cls-5 {
        stroke-miterlimit: 10;
      }

      .cls-1, .cls-4, .cls-5 {
        stroke: #213a2b;
        stroke-width: 1.5px;
      }

      .cls-2 {
        stroke: #000;
        stroke-width: 22px;
      }

      .cls-3, .cls-6, .cls-7 {
        stroke-width: 0px;
      }

      .cls-6, .cls-5 {
        fill: #213a2b;
      }

      .cls-4 {
        fill: #de6a3a;
      }

      .cls-7 {
        fill: #fff;
      }

      .cls-8 {
        fill: #1d1d1b;
        font-family: Fidel-Black, Fidel;
        font-size: 68.58px;
        font-weight: 800;
      }
    </style>
  </defs>
  <path class="cls-2" d="M385.55,357.71c-20.8,82.71-97.55,141.62-185.2,142.53-89.15.92-168.19-58.38-189.35-142.53V11h374.55v346.71Z"/>
  <path class="cls-3" d="M103.3,140.33q0-16.5,10-16.5"/>
  <path class="cls-3" d="M105.63,124.77q0,28.42,20.9,28.42"/>
  <text class="cls-8" transform="translate(53 118.5) rotate(-23.04) scale(1.01 1)"><tspan x="0" y="0"> </tspan></text>
  <text class="cls-8" transform="translate(61.76 114.65) rotate(-20.69) scale(1.01 1)"><tspan x="0" y="0">L</tspan></text>
  <text class="cls-8" transform="translate(80.21 107.48) rotate(-16.79) scale(1.01 1)"><tspan x="0" y="0">O</tspan></text>
  <text class="cls-8" transform="translate(107.93 99.17) rotate(-12.5) scale(1.01 1)"><tspan x="0" y="0">S</tspan></text>
  <text class="cls-8" transform="translate(131.96 93.99) rotate(-9.48) scale(1.01 1)"><tspan x="0" y="0"> </tspan></text>
  <text class="cls-8" transform="translate(141.28 92.13) rotate(-6.64) scale(1.01 1)"><tspan x="0" y="0">P</tspan></text>
  <text class="cls-8" transform="translate(169.87 88.87) rotate(-2.39) scale(1.01 1)"><tspan x="0" y="0">E</tspan></text>
  <text class="cls-8" transform="translate(193.71 87.92) rotate(1.11) scale(1.01 1)"><tspan x="0" y="0">L</tspan></text>
  <text class="cls-8" transform="translate(213.54 88.16) rotate(4.84) scale(1.01 1)"><tspan x="0" y="0">A</tspan></text>
  <text class="cls-8" transform="translate(241.03 90.57) rotate(8.59) scale(1.01 1)"><tspan x="0" y="0">C</tspan></text>
  <text class="cls-8" transform="translate(261.93 93.58) rotate(12.33) scale(1.01 1)"><tspan x="0" y="0">H</tspan></text>
  <text class="cls-8" transform="translate(290.19 99.73) rotate(16.53) scale(1.01 1)"><tspan x="0" y="0">O</tspan></text>
  <text class="cls-8" transform="translate(318.01 108.04) rotate(20.31) scale(1.01 1)"><tspan x="0" y="0">S</tspan></text>
  <text class="cls-8" transform="translate(341.13 116.76) rotate(22.71) scale(1.01 1)"><tspan x="0" y="0"> </tspan></text>
  <text class="cls-8" transform="translate(350.13 120.52) rotate(24.08) scale(1.01 1)"><tspan x="0" y="0"> </tspan></text>
  <g>
    <path class="cls-4" d="M349.6,255.62c0,14.21-1.99,35.89-12.26,59.78-9.36,21.79-22.26,37.63-33.05,48.23-16.37,16.08-32.77,24.89-42.21,29.28-25.73,11.96-49.28,14.05-63.81,14.06-23.65,0-41.79-5.54-50.34-8.56-45.34-16.03-69.07-49.15-75.13-58.14-7.21-10.7-25.87-41.33-25.86-84.64,0-6.19.46-44.05,22.97-80.19,1.91-3.06,5.16-8.03,9.73-13.77,20.26-25.51,43.62-37.93,51.98-42.03,9.98-4.89,34.11-15.35,66.65-15.35,24.12,0,42.81,5.76,52.72,9.44,30.54,11.35,49.98,29.87,59.41,40.27,8.4,9.26,19.68,24.02,28.04,44.55,9.38,23.02,11.16,43.68,11.16,57.09Z"/>
    <path class="cls-1" d="M235.12,197.5c-8.22-3.47-20.91-7.67-36.66-8.15-46.37-1.43-78.25,30.58-85.19,37.55-33.19,33.33-38.84,74.76-40.49,88.24-1.16,9.52-1.25,17.6-1.09,23.41"/>
    <path class="cls-4" d="M181.61,240.73c-4.9,4.52-12.3,12.57-17.25,24.71-8.12,19.89-4.55,38.27-2.16,50.64,4.12,21.24,12.8,35.74,21.84,50.92,10.26,17.24,20.87,30.22,28.78,38.96"/>
    <path class="cls-1" d="M196.47,212.49c-14.67,5.35-31.29,14.37-45.19,29.76-32.98,36.54-38.04,95.04-15.62,150.95"/>
    <path class="cls-1" d="M189.25,285.11c2.05,8.16,5.94,20.05,13.7,32.62,2.01,3.26,9.15,14.36,25.07,28.35,10.99,9.66,29.19,23.35,55.76,34.23"/>
    <path class="cls-1" d="M210.14,301.52c10.67,6.97,31.51,18.58,60.39,22.38,29.96,3.94,53.85-2.45,66-6.62"/>
    <path class="cls-1" d="M258.21,204.61c-4.89-7.5-15.23-21.02-32.8-29.4-3.9-1.86-15.9-7.15-37.92-7.02-36.32.23-63.92,15.01-78,22.76-27.82,15.31-47.88,34.76-61.5,51.06"/>
    <path class="cls-1" d="M271.56,211.77c-2.33-5.92-6.13-14.09-12.31-22.66-23.94-33.18-60.41-40.62-69.78-42.53-40.82-8.3-74.23,7.5-92.92,16.31-12.91,6.09-22.83,12.63-29.37,17.37"/>
    <path class="cls-1" d="M284.99,224.62c.45-8.77.11-23.59-6.2-39.97,0,0-8.38-21.52-28.98-39.4-42.32-36.75-109.26-27-117.66-25.67"/>
    <path class="cls-5" d="M252.93,114.78c.11-.23,18.33,6.91,31.94,17.33,8.76,6.7,19.69,15.79,19.69,15.79,0,0,.01.01.01.01h0s21.47,21.45,32.57,47.66c3.39,8.01,6.04,16.77,6.04,16.77.78,2.13,1.73,5.14,2.43,8.84,0,0,2.3,12.15-.83,25.42-3.88,16.43-20.02,33.9-39.43,44.95-28.41,16.17-63.95,18.68-66.72,10.67-2.91-8.42,34.45-16.53,53.11-54.17,20.17-40.69,2.74-84.93,1.8-87.24-3.11-7.6-11.87-29.06-31.35-40.94-4.13-2.52-9.31-4.95-9.25-5.08Z"/>
    <circle class="cls-7" cx="235.12" cy="253.47" r="55.72"/>
    <path class="cls-6" d="M192.22,213.9c1.74-1.74,3.48-3.48,5.21-5.21.3-.21.6-.4.89-.62,2.3-1.68,4.48-3.54,6.9-5.02,27.56-16.86,62.73-8.54,79.54,18.93,15.56,25.44,9.17,59.27-16.37,77.23-8.95,6.29-18.95,9.72-29.87,10.28-13.37.68-25.56-2.81-36.48-10.55-1.61-1.14-3.15-2.39-4.72-3.58-1.73-1.73-3.47-3.47-5.2-5.2-.2-.29-.39-.6-.61-.88-1.11-1.44-2.31-2.81-3.34-4.31-6.2-8.98-9.67-18.92-10.2-29.84-.65-13.36,2.88-25.55,10.64-36.5,1.15-1.62,2.4-3.16,3.6-4.74ZM240.72,281.31c2.34-2.62,5.1-5.81,7.96-8.9,1.37-1.48,2.06-3,1.25-4.97-.14-.33-.16-.71-.24-1.06-1.88-8.22-4.39-16.21-8.27-23.72-.25-.48-.47-.83-1.11-.95-8.41-1.5-16.81-3.03-25.21-4.58-.6-.11-1.03-.11-1.5.38-4.61,4.83-8.92,9.9-12.65,15.45-3.17,4.71-3.24,5.03-1.61,10.52,1.89,6.35,4.89,12.19,8.27,17.85.18.31.56.58.9.7,8.13,2.82,16.43,4.87,25.04,5.53.61.05,1.04-.08,1.49-.54,1.71-1.77,3.46-3.48,5.7-5.72ZM274.79,269.73c1.05-1.32,2.17-2.6,3.14-3.98,3.27-4.61,5.49-9.74,7.19-15.1.22-.69.28-1.51.15-2.22-1.16-6.41-3.68-12.33-6.44-18.18-.83-1.76-1.98-2.78-3.77-3.41-6.25-2.19-12.73-3.08-19.29-3.53-.3-.02-.73.35-.93.65-1.4,2.05-2.69,4.18-4.16,6.18-2.5,3.39-5.1,6.7-7.69,10.02-.46.59-.53,1.04-.19,1.76,1.28,2.68,2.55,5.37,3.65,8.13,2.32,5.82,3.96,11.86,5.25,17.99.08.37.41.92.7.98,5.82,1.16,11.65,2.2,17.59,2.56,1.94.12,3.53-.3,4.79-1.85ZM213.54,214.92c-.05-.03-.08-.05-.11-.06-5.06-1.17-10.19-1.08-15.33-.86-.26.01-.54.22-.76.39-4.24,3.28-7.52,7.36-9.89,12.15-1.28,2.59-2.78,5.08-2.93,8.13-.29,5.97-.44,11.92.49,17.85.13.82.42,1.35,1.23,1.56,3.29.86,6.57,1.74,9.87,2.56.26.07.78-.19.92-.44,4.38-7.49,9.88-14.09,15.9-20.29.27-.28.44-.79.42-1.19-.11-3.34-.4-6.68-.37-10.02.02-3.24.36-6.47.56-9.77ZM245.21,300.58c-.26-.26-.44-.45-.63-.63-3.32-3.18-6.69-6.31-9.25-10.19-.2-.31-.74-.5-1.15-.55-2.14-.26-4.29-.39-6.42-.7-6.97-1-13.73-2.83-20.37-5.13-.35-.12-.92-.2-1.16-.01-2.38,1.9-4.73,3.85-7.06,5.82-.16.14-.28.56-.19.72,1.42,2.6,3.06,5.12,5.49,6.83,7.58,5.33,16.05,8.42,25.29,9.35.54.06,1.15.03,1.65-.16,3.76-1.37,7.51-2.77,11.25-4.2.85-.32,1.67-.76,2.55-1.16ZM277.89,226.28c.55-2.11,1.09-4.12,1.58-6.14.05-.22-.15-.55-.31-.77-2.8-3.81-6.07-7.15-9.78-10.09-7.36-5.84-15.68-9.48-24.93-11.04-.59-.1-.97-.05-1.3.54-.45.8-1.05,1.53-1.57,2.29-.98,1.44-1.95,2.88-2.93,4.32.83.53,1.58.95,2.28,1.45,5.32,3.82,9.62,8.67,13.77,13.67.59.72,1.17,1.18,2.19,1.25,7.12.54,14.15,1.56,21,4.52ZM198.58,212.22c.52.05.71.08.9.08,4.91-.12,9.81-.11,14.63,1.04.22.05.53-.01.74-.13,5.87-3.35,12.21-5.47,18.72-7.04,2.34-.56,4.08-1.46,5.21-3.65.82-1.59,1.95-3.01,3.04-4.65-12.24-1.22-23.52,1.13-33.97,7.28-3.29,1.93-6.39,4.12-9.27,7.06ZM286.62,251.95c-1.25,2.91-2.32,5.73-3.63,8.43-2.32,4.77-5.23,9.14-9.47,12.49-.3.24-.48.77-.52,1.19-.33,3.2-.52,6.41-.93,9.59-.3,2.34-.87,4.64-1.33,7.01.37.01.8,0,1.22.05,1.21.13,2.16-.24,2.94-1.22,1.01-1.27,2.14-2.44,3.16-3.71,6.07-7.56,9.79-16.16,11.24-25.72.38-2.47.5-4.99.75-7.55-1.31-.22-2.41-.4-3.43-.57ZM271.67,292.59c-.03-.14-.05-.28-.08-.43-.97.13-2.07.02-2.89.45-2.74,1.46-5.32,3.23-8.06,4.69-3.77,1.99-7.72,3.51-12.02,3.94-.77.08-1.54.31-2.26.61-3.28,1.35-6.53,2.74-9.79,4.12-.22.09-.43.2-.64.3,13.62-.14,25.52-4.73,35.75-13.67ZM182.42,240.04c-1.69,7.51-1.8,15.15-.23,23.06.38-2.3.63-4.37,1.09-6.39.34-1.48.29-2.89.13-4.39-.44-4.11-.68-8.23-.99-12.28Z"/>
  </g>
</svg>