<?xml version="1.0" encoding="UTF-8"?>
<svg id="Capa_1" data-name="Capa 1" xmlns="http://www.w3.org/2000/svg" viewBox="0 0 336.06 335.97">
  <defs>
    <style>
      .cls-1 {
        fill: none;
        stroke: #ed6a78;
        stroke-miterlimit: 10;
        stroke-width: 3px;
      }

      .cls-2 {
        fill: #000;
      }

      .cls-2, .cls-3, .cls-4, .cls-5, .cls-6, .cls-7 {
        stroke-width: 0px;
      }

      .cls-3 {
        fill: #ed6a78;
      }

      .cls-4 {
        fill: #31a9e1;
      }

      .cls-5 {
        fill: #fad3d1;
      }

      .cls-6 {
        fill: #f5abb0;
      }

      .cls-7 {
        fill: #fff;
      }
    </style>
  </defs>
  <ellipse class="cls-4" cx="140.23" cy="192.14" rx="4.07" ry="5.39"/>
  <path class="cls-2" d="M168.04,324.16c-86.35-.07-156.36-69.99-156.25-156.47C11.9,81.78,81.54,11.7,168.11,11.74c86.26.04,155.98,69.8,156.16,155.85.18,86.47-69.79,156.47-156.23,156.57ZM215.91,172.23c-8.74,3.27-16.61,7.8-23.21,14.47-3.13-6.23-5.34-12.63-5.92-19.5-.59-6.86,0-13.59,2.94-19.98-.19-.06-.32-.11-.45-.14-7.59-1.77-15.25-2.07-22.96-1-12.03,1.68-22.9,6.04-32.07,14.16-3.67,3.25-6.2,7.26-7.25,12.11-.06.26-.05.53-.03.8.23,2.69.5,5.39.7,8.08.26,3.49.6,6.97,1.67,10.33.37,1.16.81,2.3,1.25,3.53h-2.08c.63,1.17,1.19,2.22,1.77,3.26.07.12.26.23.39.23.89.02,1.77.01,2.57.01-.47-1.51-1.05-2.99-1.37-4.52-.71-3.34-.61-6.64,1.01-9.75,1.94-3.72,5.81-4.33,8.85-1.44,2.02,1.91,3.23,4.28,3.8,6.94.41,1.96.52,3.98.77,6.08.71.18,1.63.35,2.5.64.85.29,1.66.71,2.48,1.07-.03.09-.06.18-.09.27-5.48-1.58-10.84-1.42-16.29.94,6.34,1.62,8.8,2.49,9.68,3.46-.37-.11-.62-.17-.87-.26-3.74-1.23-7.51-2.37-11.46-2.7-1.42-.12-2.82-.06-4.25.53.21.08.33.14.46.17,2.43.54,4.67,1.55,6.77,2.85,1.72,1.06,3.33,2.3,5.08,3.31,3.39,1.96,6.4,4.36,9.19,7.09,2.3,2.26,4.19,4.75,5.13,7.87.43,1.42.78,2.88.42,4.36-.26,1.09-.73,2.13-1.12,3.21,5.72-.52,10.86-2.75,15.35-6.46,3.94-3.26,6.87-7.27,8.84-12.04-2.68-.18-5.03-1.82-5.32-3.08.15.09.27.14.37.22,1.54,1.15,3.27,1.72,5.18,1.82,2.94.15,5.68-.64,8.37-1.69.24-.09.49-.15.74-.23-2.66,1.63-5.45,2.82-8.58,2.96,0,.15-.01.24.02.31,1.69,3.74,2.4,7.7,2.66,11.77.27,4.2-.46,8.18-2.72,11.78-1.51,2.41-3.45,4.4-6.25,5.29-2.82.9-5.26-.18-6.24-2.91-.46-1.28-.61-2.71-.69-4.09-.11-1.95-.67-3.67-1.69-5.03-3.51,1.07-6.88,2.09-10.21,3.1,1.85.71,3.84,1.44,5.8,2.23.39.16.81.45,1.04.8,1.3,1.98,2.73,3.83,4.52,5.38,2.28,1.98,4.83,3.39,7.97,3.39,3.12,0,5.95-1.04,8.39-2.87,1.83-1.37,3.79-2.21,5.98-2.67.05-.01.11-.02.16-.04,6.23-1.57,12.45-3.15,18.43-5.54,5.74-2.3,11.05-5.27,15.47-9.67,5.25-5.22,9.18-11.22,10.44-18.65,1.23-7.22-.92-13.34-6.65-17.97-1.64-1.32-2.98-2.76-4-4.56-.16-.29-.34-.56-.53-.83-.09-.13-.21-.23-.34-.33-.24-.19-.59-.3-.74-.55-1.27-2.07-2.5-4.17-3.8-6.34ZM180.43,133.12c-.92.52-1.75,1.05-2.62,1.48-4.59,2.26-8.97,1.71-12.42-1.63-1.63-1.57-2.81-3.49-3.63-5.6-1.53-3.93-1.93-7.99-1.34-12.16.66-4.71,2.22-9.04,5.09-12.89,3.08-4.14,9.38-5.9,14.34-1.76.5.42.99.84,1.28,1.09.5-.28.85-.62,1.23-.67,1.38-.17,2.78-.25,4.16-.36,3.89-.31,7.79-.63,11.68-.93,1.3-.1,2.59-.17,3.94-.26-.02.51-.04.87-.06,1.3,2.31-.23,4.57-.45,6.81-.69,2.86-.31,5.58-.1,7.85,1.96.17.16.55.16.82.12,3.43-.52,6.84-1.12,10.28-1.6,4.11-.57,7.39,1.2,9.24,4.88.33.65.59,1.33.91,2.07.28-.26.52-.48.76-.69,1.95-1.77,4.12-3.17,6.65-3.95,3.85-1.19,7.2-.33,9.89,2.69,1.88,2.11,2.61,4.69,2.71,7.48.28,7.19-1.58,13.8-5.43,19.84-1.69,2.65-3.71,5.01-6.61,6.45-4.8,2.39-10.51,1.63-13.5-3.95-.51-.95-.86-1.98-1.27-2.96-.42.41-.87.81-1.28,1.24-2.82,2.96-6.14,4.54-10.3,3.67-2-.42-3.99-.92-5.99-1.36-.28-.06-.74-.06-.87.1-.75.96-1.43,1.97-2.27,3.14.95.52,1.75,1.07,2.64,1.39.65.23,1.4.14,2.11.2,4.6.4,9.21.71,13.8,1.22,6.38.72,12.76,1.43,19.1,2.43,7.44,1.18,14.84,2.66,22.25,4.01,1.06.19,2.11.44,3.2.67,4.52-14.64,9-29.18,13.52-43.82-79.39-16.51-158.67-16.1-238.03,0,4.53,14.69,9.02,29.24,13.51,43.81.29-.05.48-.06.66-.11,9.56-2.23,19.21-3.95,28.94-5.2,7.88-1.01,15.78-1.91,23.7-2.62,7.37-.66,14.77-1.1,22.17-1.48,6.47-.33,12.95-.52,19.42-.64,12.11-.22,24.23-.07,36.33.44,1.14.05,2.08-.13,3.04-.82,2.04-1.46,4.38-2.18,6.92-2.2-2.33-.53-4.66-.99-6.97-1.55-1.03-.25-2.01-.53-3.09-.45-3.68.25-7.37.44-11.05.63-2.07.11-2.07.09-2.21-2.01ZM221.91,178.77c.49.79,1.02,1.74,1.64,2.64.34.5.76.99,1.25,1.34,2.44,1.77,4.53,3.87,6.08,6.47,3.06,5.13,3.39,10.6,1.85,16.23-2.31,8.45-7.43,15-14.24,20.31-4.62,3.61-9.88,6.07-15.43,7.82-5.7,1.8-11.51,3.26-17.25,4.92-.87.25-1.67.74-2.47,1.19-1.18.68-2.28,1.52-3.49,2.13-5.64,2.84-10.7,2.18-15.49-1.95-1.79-1.55-3.29-3.35-4.59-5.33-.17-.26-.41-.55-.68-.66-1.93-.77-3.84-1.6-5.82-2.22-1.18-.37-2.51-.72-3.68-.53-2.86.47-5.72.4-8.58.4-.86,0-1.73.05-2.58.17-2.19.31-4.36.35-6.5-.26-4.98-1.42-7.82-4.99-9.45-9.66-1.26-3.62-2.07-7.37-2.43-11.19-.25-2.68-.26-5.36.82-7.91.64-1.5,1.66-2.63,3.26-3.12,1.07-.33,2.14-.65,3.21-.97.43-.13.86-.25,1.33-.38-.46-.91-.93-1.72-1.28-2.57-.25-.6-.63-.76-1.24-.82-6.61-.63-12.74-2.52-17.89-6.92-3.42-2.92-5.71-6.45-5.9-11.09-.02-.56-.1-1.12-.16-1.74-1.73.14-3.39.23-5.05.41-3.39.37-6.77.8-10.16,1.17-1.13.13-1.14.09-1.17,1.19-.15,6.16.61,12.21,2.28,18.15,2.86,10.13,7.97,19,15,26.79,6.11,6.76,13.25,12.21,21.29,16.48,11.25,5.98,23.28,9.2,35.97,9.99,8.48.53,16.87-.13,25.17-1.97,10.43-2.31,20.15-6.34,29.02-12.32,12.09-8.15,21.29-18.72,26.86-32.29,3.36-8.18,4.86-16.71,4.56-25.55-.02-.65-.28-.84-.86-.9-1.11-.12-2.2-.36-3.31-.45-4.55-.38-9.1-.73-13.64-1.07-.2-.01-.44.05-.6.17-1.86,1.27-3.71,2.56-5.66,3.91ZM23.02,143.44c0,.08,0,.16,0,.23.31.21.62.43.94.64,7.38,4.9,14.76,9.79,22.13,14.69.93.62,1.07,1.05.67,2.07-2.93,7.39-5.86,14.78-8.79,22.17-.1.24-.17.49-.29.84.27-.06.43-.1.58-.14,7.18-1.78,14.32-3.78,21.56-5.28,7.54-1.56,15.15-2.77,22.77-3.85,6.19-.88,12.43-1.33,18.65-1.99.35-.04.87.19.94-.48.05-.56-.04-.96-.63-1.25-13.17-6.35-26.32-12.72-39.49-19.06-.86-.41-1.38-.96-1.66-1.87-1.37-4.52-2.79-9.03-4.16-13.55-.18-.58-.44-.73-1-.6-.77.18-1.55.32-2.33.48-6.31,1.31-12.63,2.54-18.92,3.97-3.7.84-7.32,1.98-10.98,2.98ZM313.16,143.62c-.27-.1-.42-.17-.57-.21-4.69-1.27-9.35-2.7-14.08-3.78-5.83-1.34-11.72-2.39-17.58-3.58-.56-.11-.82,0-1,.59-1.42,4.68-2.88,9.34-4.32,14.02-.21.7-.29,1.48-1.35,1.29-.13-.02-.3.12-.44.19-5.68,2.75-11.37,5.49-17.05,8.24-6.94,3.35-13.88,6.7-20.81,10.06-1.44.7-2.88,1.4-4.51,2.2,11.46.81,22.66,2.05,33.78,3.92,11.13,1.87,22.11,4.38,33.16,7.57-.17-.5-.23-.71-.31-.9-2.89-7.29-5.78-14.58-8.67-21.87-.54-1.35-.45-1.64.75-2.44,2.16-1.44,4.33-2.87,6.49-4.31,5.46-3.63,10.93-7.26,16.52-10.97ZM220.64,177.58c2.95-1.23,5.59-2.82,7.6-5.31,2.4-2.97,3.45-6.47,3.86-10.2.03-.25-.07-.54-.2-.76-1.22-2.15-2.7-4.1-4.54-5.77-2.49-2.26-5.51-3.5-8.65-4.52-3.27-1.07-6.57-2.07-9.53-3.91-.24-.15-.46-.33-.68-.5,2.66.97,5.24,2.07,8.08,2.54-.02-.16-.01-.25-.05-.31-1.56-3.11-3.43-5.99-6.18-8.17-2.88-2.28-6.08-3.35-9.73-2.22-3.1.96-5.41,3.04-7.34,5.55-3.41,4.43-4.74,9.6-5.21,15.04-.73,8.36.93,16.31,4.33,23.93.22.49.43.97.69,1.53,4.51-4.27,9.52-7.6,14.95-10.31,5.44-2.72,11.19-4.58,17.07-6.11-2.64,1.21-5.28,2.42-7.95,3.65,1.2,2.02,2.33,3.91,3.49,5.87ZM233.9,121.69c-.06,1.69-.26,4.01-.2,6.31.06,2.36.5,4.67,1.88,6.69,1.47,2.14,3.49,3.08,6.06,2.77,2.7-.32,4.81-1.71,6.5-3.77,4.4-5.37,6.57-11.59,6.83-18.49.08-2.08.02-4.15-.92-6.1-1.47-3.05-4.38-4.4-7.62-3.4-.96.29-1.9.7-2.77,1.2-3.94,2.3-6.47,5.79-8.2,9.93-.12.3-.24.59-.36.89-.11-.24-.08-.43-.07-.61.15-2.01.38-4.02.4-6.03.01-1.67-.41-3.31-1.29-4.78-1.24-2.06-3.05-3.12-5.48-2.83-2.63.31-5.25.7-7.87,1.1-1.76.27-1.75.31-1.94,2.06-.04.35-.09.7-.13,1.06-.64,5.95-1.27,11.9-1.9,17.85-.28,2.6-.55,5.21-.83,7.88,1.88.59,3.74.93,5.66,1.03,1.57.08,2.94-.36,4.2-1.32,2.25-1.72,4.08-3.82,5.46-6.26,1.06-1.86,1.92-3.84,2.59-5.19ZM107.48,166.23c-.09-.05-.17-.1-.26-.15-1.09,1.15-2.18,2.29-3.25,3.46-.17.18-.3.47-.3.71-.05,1.67-.07,3.33-.08,5-.03,3.88,1.08,7.38,3.92,10.1,1.62,1.56,3.42,3,5.34,4.17,3.98,2.44,8.45,3.48,13.06,3.98.87.09,1.75.14,2.71.21-.08-.29-.1-.42-.15-.55-1.13-3.14-1.67-6.39-1.95-9.69-.24-2.89-.33-5.79-.71-8.66-.65-4.85-2.25-9.44-4.28-13.89-.11-.25-.2-.51-.3-.76.09-.04.19-.09.28-.13,2.09,2.95,3.37,6.32,4.77,9.83,1.25-3.71,3.26-6.73,5.82-9.41-2.78-2.82-5.77-5.17-9.52-6.36-3.34-1.06-6.5-.82-9.21,1.62-2.75,2.47-3.92,5.78-4.75,9.25-.03.13-.01.27,0,.41.22,4.48,1.68,8.49,4.55,11.96.12.15.22.32.33.49-.51-.16-.96-.4-1.25-.76-2.57-3.17-3.92-6.9-4.74-10.85ZM133.14,159.44s.12-.09.22-.17c3.41-2.93,7.04-5.54,11.02-7.65,6.41-3.41,13.25-5.48,20.4-6.64,4.39-.71,8.8-.96,13.24-.76,4.02.19,8,.67,11.91,1.67.18.05.49.01.57-.11.92-1.3,1.82-2.63,2.77-4.02-28.67-1.07-57.26-.4-85.84,2.48.51,5.16,1.01,10.14,1.52,15.29.64-1.03,1.13-1.94,1.74-2.76,2.66-3.61,6.18-5.15,10.66-4.3,2.43.46,4.65,1.45,6.64,2.89,1.77,1.27,3.42,2.7,5.17,4.1ZM143.17,230.15s0-.08,0-.12c1.23,0,2.46.05,3.69-.01,1.57-.07,3.09-.41,4.47-1.2,1.46-.83,2.26-2.09,2.43-3.76.19-1.97-.39-3.78-1.2-5.54-1.54-3.36-4.21-5.79-6.99-8.02-2.72-2.18-5.69-4.04-8.61-5.97-1.48-.98-3.03-1.85-4.6-2.67-1.87-.99-3.9-1.56-5.99-1.88-2-.31-3.34.3-4.07,2.19-.47,1.2-.77,2.52-.83,3.81-.25,5.21.89,10.23,2.65,15.08,2.25,6.24,7.57,9.27,13.95,8.24.62-.1,1.23-.28,1.85-.28,1.09,0,2.18.09,3.27.15ZM210.24,122.78c.26-.24.47-.42.66-.61,3.67-3.62,5.75-7.95,5.7-13.16-.03-3.36-1.91-6.58-6.72-6.02-2.8.32-5.59.63-8.4.89-.68.06-.84.32-.87.95-.45,7.48-.93,14.95-1.39,22.43-.1,1.66-.2,3.32-.3,5.06,1.89.41,3.74.8,5.66,1.22.21-2.04.41-3.98.64-6.17,1.78,2.38,3.41,4.57,5.09,6.83,1.49-2.08,2.92-4.08,4.37-6.1-1.48-1.78-2.93-3.52-4.43-5.32ZM177.55,119.49c-.93.78-1.85,1.6-2.82,2.35-1.73,1.35-3,.95-3.79-1.08-1.08-2.76-.36-5.26,1.02-7.66.62-1.08,1.63-1.29,2.66-.59.57.39,1.03.96,1.51,1.48.3.33.54.71.85,1.12,1.48-2.51,2.92-4.92,4.33-7.36.11-.18.1-.56-.02-.73-.78-1.12-1.49-2.31-2.43-3.28-1.79-1.83-3.91-2.94-6.63-2.38-2.36.48-3.9,1.98-5.12,3.9-3.07,4.83-4.28,10.14-3.77,15.81.31,3.44,1.43,6.61,3.74,9.28,1.78,2.06,4.01,2.91,6.67,2.41,3.09-.58,5.52-2.25,7.4-4.76.61-.81.82-1.55.08-2.39-.25-.28-.39-.66-.59-.98-1.09-1.82-2.19-3.64-3.1-5.15ZM197.18,112.01c.49-3.19.94-6.19,1.4-9.2-.2-.03-.28-.06-.36-.05-4.41.34-8.82.69-13.24,1.03-.51.04-.54.32-.55.71-.27,8.93-.54,17.86-.81,26.8,0,.21.03.42.04.71,4.24-.21,8.43-.42,12.7-.63.27-3.36.54-6.66.81-10.01-2.4.24-4.64.47-6.96.7.03-.44.1-.77.07-1.08-.08-.75.33-.91.97-.93.82-.03,1.63-.16,2.45-.16.61,0,.79-.26.86-.81.15-1.25.35-2.49.53-3.73.08-.6.15-1.21.23-1.87-1.56.1-2.99.2-4.51.3.05-.6.09-1.1.15-1.75h6.21ZM144.83,195.64c.25-3.14-.29-6.08-1.68-8.85-.73-1.46-1.68-2.75-3.05-3.68-1.99-1.36-4.12-1.03-5.56.88-.36.48-.69,1-.9,1.55-1.58,4.21-1.09,8.31.8,12.3.03.06.13.09.19.13.74-.3,1.47-.61,2.21-.88.72-.27,1.45-.51,2.2-.77-1.29-2.08-1.41-4.22-.36-5.7.51.47,1.13.67,1.7.21.47-.37.81-.89,1.28-1.42,1.79,2.01,1.47,4.16.36,6.4.95-.06,1.81-.11,2.8-.17ZM227.66,154.08c.34-3.39.65-6.58.98-9.88-4.74-.42-9.37-.83-14.02-1.24.01.18,0,.25.02.29,1.15,1.95,2.3,3.9,3.47,5.83.13.21.36.42.59.49,3.22.88,6.2,2.25,8.97,4.52ZM180.99,119.07v-4.67c-1.62,2.13-1.64,2.44-.25,4.5.01.02.04.03.25.17ZM209.42,138.2c-.7-.96-1.27-1.74-1.87-2.55-.44,1.63-.43,1.64,1.87,2.55ZM173.4,118.6c1.47-1.13,1.68-1.21.38-2.45-.13.87-.25,1.66-.38,2.45Z"/>
  <ellipse class="cls-4" cx="174.29" cy="189.31" rx="4.93" ry="6.57" transform="translate(-67.97 102.55) rotate(-27.66)"/>
  <path class="cls-2" d="M0,164.16c.1-1.88.21-3.76.31-5.64.97-17.86,4.71-35.12,11.23-51.77,7.36-18.8,17.8-35.73,31.27-50.76,15.48-17.27,33.74-30.8,54.79-40.56,12.48-5.79,25.49-9.94,39.01-12.5,7.61-1.44,15.29-2.36,23.03-2.71,7.63-.35,15.26-.27,22.87.39,19.85,1.72,38.83,6.75,56.87,15.25,22.72,10.7,42.11,25.72,58.12,45.06,16.3,19.68,27.53,41.95,33.67,66.77,1.98,8,3.39,16.1,4.09,24.31.3,3.54.45,7.09.67,10.64.03.4.09.8.14,1.21v7.88c-.05.49-.12.97-.14,1.46-.23,9.07-1.26,18.04-2.98,26.94-2.74,14.16-7.2,27.76-13.53,40.72-14.96,30.64-37.11,54.73-66.49,72.03-25.09,14.77-52.27,22.34-81.38,22.97-.84.02-1.69.09-2.53.13h-1.64c-.32-.03-.65-.09-.97-.09-10.03-.08-19.98-1.05-29.83-2.92-12.13-2.3-23.86-5.89-35.19-10.8-20.99-9.11-39.39-21.95-55.14-38.54-17.8-18.74-30.63-40.44-38.45-65.08-4.23-13.32-6.71-26.98-7.47-40.94C.22,175.68.11,173.78,0,171.87c0-2.57,0-5.14,0-7.71ZM325.82,167.8c-.13-86.61-69.93-156.74-156.31-157.57C82.28,9.38,9.43,80.01,10.27,169.62c.81,85.57,69.99,154.99,155.89,156.02,87.49,1.05,159.63-69.46,159.66-157.85Z"/>
  <path class="cls-3" d="M325.82,167.8c-.02,88.38-72.16,158.9-159.66,157.85-85.9-1.03-155.08-70.45-155.89-156.02C9.43,80.01,82.28,9.38,169.5,10.23c86.39.84,156.19,70.96,156.31,157.57ZM168.04,324.16c86.44-.1,156.41-70.09,156.23-156.57-.18-86.06-69.9-155.81-156.16-155.85-86.57-.04-156.21,70.04-156.32,155.95-.11,86.47,69.9,156.4,156.25,156.47Z"/>
  <path class="cls-3" d="M23.02,143.44c3.66-1,7.29-2.14,10.98-2.98,6.28-1.42,12.61-2.65,18.92-3.97.78-.16,1.56-.3,2.33-.48.56-.13.82.02,1,.6,1.37,4.52,2.79,9.03,4.16,13.55.28.91.8,1.46,1.66,1.87,13.17,6.34,26.32,12.71,39.49,19.06.59.29.69.68.63,1.25-.06.68-.58.45-.94.48-6.22.65-12.47,1.11-18.65,1.99-7.62,1.08-15.24,2.3-22.77,3.85-7.24,1.49-14.38,3.5-21.56,5.28-.15.04-.31.07-.58.14.12-.35.19-.6.29-.84,2.93-7.39,5.86-14.78,8.79-22.17.41-1.02.27-1.45-.67-2.07-7.38-4.9-14.76-9.79-22.13-14.69-.32-.21-.62-.43-.94-.64,0-.08,0-.16,0-.23Z"/>
  <path class="cls-3" d="M313.16,143.62c-5.59,3.71-11.05,7.34-16.52,10.97-2.16,1.44-4.33,2.87-6.49,4.31-1.2.8-1.28,1.09-.75,2.44,2.89,7.29,5.78,14.58,8.67,21.87.08.2.14.4.31.9-11.05-3.18-22.03-5.7-33.16-7.57-11.12-1.87-22.32-3.11-33.78-3.92,1.64-.8,3.07-1.5,4.51-2.2,6.94-3.35,13.88-6.7,20.81-10.06,5.68-2.75,11.37-5.49,17.05-8.24.15-.07.31-.22.44-.19,1.06.2,1.14-.59,1.35-1.29,1.44-4.67,2.9-9.34,4.32-14.02.18-.59.44-.7,1-.59,5.86,1.19,11.75,2.24,17.58,3.58,4.73,1.09,9.39,2.51,14.08,3.78.15.04.3.11.57.21Z"/>
  <path class="cls-5" d="M220.64,177.58c-1.16-1.95-2.29-3.85-3.49-5.87,2.68-1.23,5.31-2.44,7.95-3.65-5.87,1.53-11.62,3.39-17.07,6.11-5.43,2.72-10.44,6.05-14.95,10.31-.25-.56-.47-1.04-.69-1.53-3.4-7.62-5.06-15.57-4.33-23.93.48-5.44,1.81-10.62,5.21-15.04,1.93-2.51,4.24-4.59,7.34-5.55,3.64-1.13,6.85-.06,9.73,2.22,2.76,2.18,4.63,5.06,6.18,8.17.03.07.02.15.05.31-2.84-.47-5.41-1.57-8.08-2.54.23.17.45.35.68.5,2.95,1.84,6.25,2.84,9.53,3.91,3.13,1.02,6.16,2.26,8.65,4.52,1.84,1.67,3.32,3.62,4.54,5.77.13.22.22.52.2.76-.41,3.73-1.46,7.23-3.86,10.2-2.01,2.49-4.65,4.08-7.6,5.31Z"/>
  <path class="cls-7" d="M233.9,121.69c-.67,1.35-1.53,3.33-2.59,5.19-1.39,2.44-3.21,4.54-5.46,6.26-1.26.96-2.63,1.4-4.2,1.32-1.92-.1-3.78-.44-5.66-1.03.28-2.67.55-5.28.83-7.88.63-5.95,1.27-11.9,1.9-17.85.04-.35.09-.7.13-1.06.19-1.74.19-1.78,1.94-2.06,2.62-.4,5.24-.79,7.87-1.1,2.43-.29,4.24.76,5.48,2.83.88,1.46,1.3,3.1,1.29,4.78-.01,2.01-.25,4.02-.4,6.03-.01.19-.05.37.07.61.12-.3.24-.6.36-.89,1.73-4.14,4.26-7.63,8.2-9.93.86-.5,1.81-.91,2.77-1.2,3.24-1,6.15.35,7.62,3.4.94,1.95,1,4.02.92,6.1-.26,6.9-2.43,13.12-6.83,18.49-1.69,2.06-3.8,3.45-6.5,3.77-2.57.31-4.59-.63-6.06-2.77-1.38-2.02-1.83-4.33-1.88-6.69-.05-2.31.14-4.62.2-6.31ZM247.82,118.88c-.09-.57-.15-1.26-.33-1.91-.33-1.17-1.3-1.7-2.48-1.4-1.26.32-2.17,1.13-2.92,2.13-1.78,2.38-2.54,5.12-2.6,8.06-.01.68.22,1.41.5,2.04.39.87,1.23,1.26,2.12.92.79-.31,1.65-.72,2.2-1.34,2.11-2.38,3.25-5.21,3.51-8.5ZM222.81,125.65c.49-.19.9-.25,1.18-.48.8-.64,1.69-1.25,2.29-2.05,1.62-2.17,2.17-4.67,1.78-7.36-.19-1.25-.7-1.84-1.52-1.81-.92.03-2.05,1.06-2.2,1.98-.26,1.64-.52,3.29-.78,4.93-.24,1.55-.49,3.11-.75,4.79Z"/>
  <path class="cls-5" d="M107.48,166.23c.82,3.95,2.17,7.67,4.74,10.85.29.36.73.6,1.25.76-.11-.16-.2-.34-.33-.49-2.87-3.47-4.33-7.48-4.55-11.96,0-.14-.03-.28,0-.41.83-3.47,2-6.78,4.75-9.25,2.72-2.44,5.87-2.68,9.21-1.62,3.75,1.19,6.74,3.54,9.52,6.36-2.55,2.68-4.57,5.69-5.82,9.41-1.4-3.52-2.67-6.89-4.77-9.83-.09.04-.19.09-.28.13.1.25.19.51.3.76,2.02,4.45,3.62,9.04,4.28,13.89.39,2.87.47,5.77.71,8.66.28,3.3.83,6.56,1.95,9.69.05.13.07.26.15.55-.96-.07-1.84-.12-2.71-.21-4.61-.5-9.08-1.54-13.06-3.98-1.91-1.18-3.71-2.62-5.34-4.17-2.84-2.72-3.94-6.22-3.92-10.1.01-1.67.03-3.34.08-5,0-.24.14-.53.3-.71,1.07-1.17,2.16-2.31,3.25-3.46.09.05.17.1.26.15Z"/>
  <path class="cls-7" d="M133.14,159.44c-1.75-1.4-3.4-2.82-5.17-4.1-1.99-1.43-4.21-2.43-6.64-2.89-4.47-.85-8,.69-10.66,4.3-.61.82-1.1,1.74-1.74,2.76-.51-5.15-1.01-10.13-1.52-15.29,28.58-2.88,57.17-3.55,85.84-2.48-.95,1.4-1.84,2.72-2.77,4.02-.08.12-.4.15-.57.11-3.91-1-7.89-1.48-11.91-1.67-4.44-.21-8.85.04-13.24.76-7.14,1.16-13.98,3.24-20.4,6.64-3.98,2.11-7.61,4.72-11.02,7.65-.1.09-.21.17-.22.17Z"/>
  <path class="cls-6" d="M143.17,230.15c-1.09-.05-2.18-.15-3.27-.15-.62,0-1.23.18-1.85.28-6.38,1.03-11.7-2-13.95-8.24-1.75-4.85-2.89-9.87-2.65-15.08.06-1.28.36-2.61.83-3.81.73-1.88,2.07-2.49,4.07-2.19,2.09.32,4.12.89,5.99,1.88,1.57.83,3.12,1.69,4.6,2.67,2.91,1.93,5.88,3.8,8.61,5.97,2.79,2.23,5.45,4.66,6.99,8.02.81,1.76,1.39,3.56,1.2,5.54-.16,1.67-.97,2.93-2.43,3.76-1.38.79-2.9,1.13-4.47,1.2-1.23.06-2.46.01-3.69.01,0,.04,0,.08,0,.12ZM131.83,211.31c-.05.06-.1.12-.15.17.97,2.74,4.69,8.54,6.81,10.43.74.66,1.63,1.19,2.52,1.64.82.41,1.73.36,2.44-.34.7-.68.76-1.55.51-2.44-.34-1.22-1.16-2.08-2.22-2.74-1.82-1.13-3.81-1.74-5.93-2-.36-.05-.8-.26-1.01-.54-.87-1.15-1.67-2.37-2.49-3.55-.15-.22-.32-.42-.48-.63ZM124.13,214.23s-.09.1-.14.14c.16.19.31.38.48.56.69.77,1.44,1.5,2.07,2.32.28.37.4.91.44,1.39.07,1-.05,2.02.06,3.02.18,1.5.54,2.97,1.83,3.97.82.64,1.76.74,2.44.32.68-.42,1.07-1.34.7-2.33-.43-1.13-.89-2.35-1.67-3.23-1.84-2.08-3.87-3.98-5.83-5.95-.1-.1-.25-.14-.38-.21Z"/>
  <path class="cls-7" d="M227.66,154.08c-2.76-2.27-5.74-3.64-8.97-4.52-.23-.06-.46-.28-.59-.49-1.17-1.94-2.32-3.88-3.47-5.83-.02-.04,0-.1-.02-.29,4.65.41,9.28.82,14.02,1.24-.33,3.3-.64,6.48-.98,9.88Z"/>
  <path class="cls-3" d="M180.99,119.07c-.21-.14-.24-.15-.25-.17-1.38-2.06-1.37-2.37.25-4.5v4.67Z"/>
  <path class="cls-3" d="M209.42,138.2c-2.3-.91-2.3-.92-1.87-2.55.59.81,1.16,1.59,1.87,2.55Z"/>
  <path class="cls-7" d="M173.4,118.6c.12-.79.24-1.58.38-2.45,1.31,1.24,1.09,1.32-.38,2.45Z"/>
  <path class="cls-2" d="M181.54,193.94c1.07.09,2.11.17,3.14.25,0,.08.01.16.02.25-6.64.33-13.32.52-18.48,5.65-.06-.08-.13-.16-.19-.24.82-.94,1.64-1.88,2.49-2.86-2.27-1.44-3.99-3.42-5.11-5.9-1.1-2.43-1.46-4.97-.91-7.6,1.23-5.86,7.18-8.55,12.73-5.78,5.77,2.88,8.87,10.32,6.32,15.98-.02.04,0,.1,0,.25ZM177.51,193.83c.42,0,.71,0,1,0q1.84-.03,2.35-1.86c1.62-5.79-2.5-12.63-8.4-13.94-3.75-.83-7.15,1.01-8.45,4.6-1.76,4.88.91,10.76,5.21,13.32.14.08.38.14.52.08,1.4-.57,2.8-1.17,4.03-1.7-.55-1.01-1.25-2.02-1.68-3.14-.44-1.14-.43-2.38.15-3.58.69.49,1.44.82,2.11.34.58-.41.98-1.07,1.5-1.67.81.48,1.45,1.3,1.88,2.31.73,1.73.68,3.45-.21,5.23Z"/>
  <path class="cls-2" d="M164.64,162.21c2.5.05,4.5.91,6.18,2.39,1.28,1.13,2.42,2.43,3.59,3.69.18.19.16.57.24.86-.35,0-.76.15-1.02,0-2.33-1.26-4.67-2.57-7.29-3.07-1.81-.34-3.68-.36-5.52-.5-.54-.04-1.1.08-1.63,0-.3-.05-.71-.34-.77-.59-.06-.24.21-.69.45-.84,1.82-1.17,3.79-1.92,5.78-1.94Z"/>
  <path class="cls-2" d="M130.88,177.91c.39-1.72.62-3.5,1.21-5.14,1.36-3.79,4.56-4.35,7.61-3.97.28.03.65.36.73.63.07.22-.2.57-.36.83-.08.13-.26.21-.4.27-3.24,1.35-5.26,3.88-6.76,6.92-.25.51-.46,1.06-.75,1.54-.16.27-.47.44-.71.66-.13-.32-.3-.63-.39-.96-.06-.23-.01-.49-.01-.73-.06-.02-.11-.03-.17-.05Z"/>
  <path class="cls-2" d="M247.82,118.88c-.26,3.3-1.4,6.13-3.51,8.5-.55.62-1.4,1.03-2.2,1.34-.89.34-1.73-.05-2.12-.92-.28-.63-.51-1.36-.5-2.04.06-2.93.81-5.67,2.6-8.06.75-1,1.67-1.81,2.92-2.13,1.18-.3,2.15.22,2.48,1.4.18.65.23,1.34.33,1.91ZM244.57,119.63c-1.22,1.43-1.72,3.13-1.91,4.95.95-1.53,1.8-3.09,1.91-4.95Z"/>
  <path class="cls-2" d="M131.83,211.31c.16.21.33.41.48.63.83,1.19,1.62,2.4,2.49,3.55.21.28.65.49,1.01.54,2.12.27,4.11.87,5.93,2,1.05.66,1.87,1.52,2.22,2.74.25.89.18,1.76-.51,2.44-.71.7-1.62.75-2.44.34-.89-.44-1.78-.98-2.52-1.64-2.12-1.9-5.84-7.7-6.81-10.43.05-.06.1-.12.15-.17Z"/>
  <path class="cls-2" d="M124.13,214.23c.13.07.28.11.38.21,1.96,1.97,3.99,3.87,5.83,5.95.78.88,1.24,2.1,1.67,3.23.37.98-.02,1.9-.7,2.33-.68.42-1.62.32-2.44-.32-1.29-1-1.66-2.47-1.83-3.97-.12-.99,0-2.01-.06-3.02-.03-.48-.16-1.02-.44-1.39-.62-.82-1.37-1.55-2.07-2.32-.16-.18-.32-.37-.48-.56.05-.05.09-.1.14-.14Z"/>
  <path class="cls-2" d="M205.45,118.16c.25-1.89.46-3.65.71-5.4.07-.48,1.08-.95,1.93-.94.68,0,1.24.26,1.29.98.05.64.05,1.35-.19,1.92-.68,1.65-1.89,2.81-3.74,3.44Z"/>
  <path class="cls-7" d="M244.57,119.63c-.11,1.86-.96,3.42-1.91,4.95.19-1.82.69-3.52,1.91-4.95Z"/>
  <path class="cls-2" d="M125.6,124.99c-.31-3.56-.59-6.82-.86-10.08-.06-.72.77-1.75,1.55-1.98.85-.25,1.33.25,1.74.88,1.71,2.64,1.45,7.27-.6,9.65-.46.54-1.1.93-1.84,1.54Z"/>
  <path class="cls-2" d="M110.65,120.7c-.29,1.38-.47,2.8-.9,4.14-.24.77-.78,1.51-1.36,2.09-1.07,1.06-2.4.89-3.33-.29-.94-1.18-1.2-2.6-1.43-4.04-.33-2.06-.24-4.09.6-6.02.3-.68.73-1.36,1.27-1.88,1.25-1.21,2.81-.99,3.74.48,1.06,1.67,1.36,3.54,1.41,5.52ZM106.97,123.5c.49-1.9.76-3.81.1-5.93-.81,2.09-.6,4.01-.1,5.93Z"/>
  <path class="cls-7" d="M144.96,121.05c-.38-2.05-.17-3.93.69-5.79.66,1.17.31,4.2-.69,5.79Z"/>
  <path class="cls-7" d="M106.97,123.5c-.5-1.92-.71-3.84.1-5.93.66,2.13.39,4.03-.1,5.93Z"/>
  <path class="cls-5" d="M215.7,172.23c1.3,2.17,2.53,4.27,3.8,6.34.15.24.49.36.74.55.12.09.25.2.34.33.19.27.37.55.53.83,1.02,1.8,2.36,3.24,4,4.56,5.73,4.63,7.88,10.75,6.65,17.97-1.26,7.43-5.19,13.43-10.44,18.65-4.42,4.39-9.73,7.37-15.47,9.67-5.98,2.39-12.2,3.97-18.43,5.54-.05.01-.11.02-.16.04-2.19.46-4.15,1.29-5.98,2.67-2.44,1.83-5.27,2.87-8.39,2.87-3.13,0-5.68-1.41-7.97-3.39-1.79-1.55-3.23-3.41-4.52-5.38-.23-.35-.64-.64-1.04-.8-1.96-.79-3.95-1.52-5.8-2.23,3.33-1.01,6.7-2.03,10.21-3.1,1.03,1.35,1.58,3.08,1.69,5.03.08,1.37.23,2.8.69,4.09.97,2.73,3.42,3.81,6.24,2.91,2.81-.89,4.74-2.88,6.25-5.29,2.26-3.6,2.99-7.58,2.72-11.78-.26-4.07-.97-8.03-2.66-11.77-.03-.07-.01-.15-.02-.31,3.14-.15,5.92-1.33,8.58-2.96-.25.08-.5.14-.74.23-2.69,1.05-5.43,1.84-8.37,1.69-1.91-.1-3.64-.67-5.18-1.82-.1-.08-.22-.13-.37-.22.29,1.26,2.64,2.9,5.32,3.08-1.97,4.77-4.9,8.79-8.84,12.04-4.49,3.71-9.62,5.94-15.35,6.46.39-1.09.86-2.13,1.12-3.21.35-1.47,0-2.93-.42-4.36-.94-3.13-2.83-5.62-5.13-7.87-2.79-2.73-5.81-5.13-9.19-7.09-1.75-1.01-3.36-2.25-5.08-3.31-2.1-1.3-4.34-2.31-6.77-2.85-.13-.03-.25-.09-.46-.17,1.43-.59,2.83-.65,4.25-.53,3.95.33,7.72,1.47,11.46,2.7.25.08.5.15.87.26-.87-.97-3.33-1.84-9.68-3.46,5.45-2.36,10.81-2.52,16.29-.94.03-.09.06-.18.09-.27-.83-.36-1.63-.78-2.48-1.07-.87-.3-1.79-.46-2.5-.64-.25-2.1-.36-4.12-.77-6.08-.56-2.66-1.78-5.03-3.8-6.94-3.04-2.89-6.91-2.28-8.85,1.44-1.62,3.11-1.72,6.41-1.01,9.75.33,1.53.91,3.02,1.37,4.52-.8,0-1.69,0-2.57-.01-.14,0-.33-.11-.39-.23-.58-1.04-1.14-2.09-1.77-3.26h2.08c-.44-1.23-.88-2.37-1.25-3.53-1.07-3.36-1.41-6.84-1.67-10.33-.2-2.7-.47-5.39-.7-8.08-.02-.26-.02-.54.03-.8,1.05-4.85,3.58-8.86,7.25-12.11,9.17-8.12,20.04-12.48,32.07-14.16,7.72-1.07,15.37-.77,22.96,1,.13.03.25.08.45.14-2.94,6.39-3.53,13.12-2.94,19.98.59,6.87,2.8,13.28,5.92,19.5,6.6-6.67,14.47-11.2,23.21-14.47ZM181.33,193.94c0-.14-.02-.2,0-.25,2.55-5.67-.56-13.1-6.32-15.98-5.55-2.77-11.5-.08-12.73,5.78-.55,2.63-.19,5.17.91,7.6,1.12,2.48,2.84,4.46,5.11,5.9-.85.97-1.67,1.92-2.49,2.86.06.08.13.16.19.24,5.16-5.14,11.85-5.32,18.48-5.65,0-.08-.01-.16-.02-.25-1.04-.08-2.07-.17-3.14-.25ZM164.42,162.21c-1.98.02-3.95.77-5.78,1.94-.25.16-.51.61-.45.84.06.25.48.54.77.59.53.09,1.09-.03,1.63,0,1.84.14,3.71.15,5.52.5,2.62.5,4.96,1.81,7.29,3.07.26.14.68,0,1.02,0-.07-.29-.06-.66-.24-.86-1.17-1.26-2.31-2.56-3.59-3.69-1.68-1.48-3.67-2.34-6.18-2.39ZM130.66,177.91c.06.02.11.03.17.05,0,.25-.05.5.01.73.09.33.25.64.39.96.24-.22.54-.39.71-.66.3-.49.5-1.03.75-1.54,1.5-3.05,3.52-5.57,6.76-6.92.15-.06.33-.14.4-.27.16-.26.43-.61.36-.83-.08-.27-.45-.59-.73-.63-3.05-.38-6.25.18-7.61,3.97-.59,1.65-.82,3.43-1.21,5.14Z"/>
  <ellipse class="cls-7" cx="173.8" cy="186.18" rx="2.01" ry="2.08"/>
  <path class="cls-7" d="M210.24,122.78c1.5,1.8,2.95,3.54,4.43,5.32-1.45,2.02-2.87,4.02-4.37,6.1-1.68-2.26-3.31-4.45-5.09-6.83-.23,2.19-.43,4.13-.64,6.17-1.93-.41-3.78-.81-5.66-1.22.1-1.74.2-3.4.3-5.06.47-7.48.94-14.95,1.39-22.43.04-.63.19-.89.87-.95,2.8-.26,5.6-.57,8.4-.89,4.8-.56,6.68,2.67,6.72,6.02.05,5.21-2.02,9.54-5.7,13.16-.19.19-.4.37-.66.61ZM205.45,118.16c1.84-.63,3.05-1.79,3.74-3.44.24-.57.23-1.28.19-1.92-.05-.72-.61-.98-1.29-.98-.85,0-1.86.46-1.93.94-.25,1.75-.46,3.51-.71,5.4Z"/>
  <path class="cls-7" d="M177.55,119.49c.91,1.51,2,3.33,3.1,5.15.2.33.34.7.59.98.75.84.53,1.58-.08,2.39-1.88,2.51-4.31,4.18-7.4,4.76-2.66.5-4.89-.35-6.67-2.41-2.31-2.67-3.43-5.84-3.74-9.28-.51-5.67.7-10.98,3.77-15.81,1.22-1.92,2.76-3.42,5.12-3.9,2.72-.56,4.84.55,6.63,2.38.94.96,1.65,2.16,2.43,3.28.12.17.13.54.02.73-1.41,2.43-2.85,4.85-4.33,7.36-.31-.41-.54-.8-.85-1.12-.48-.52-.93-1.09-1.51-1.48-1.04-.7-2.04-.5-2.66.59-1.38,2.4-2.1,4.91-1.02,7.66.79,2.03,2.07,2.43,3.79,1.08.97-.75,1.88-1.57,2.82-2.35Z"/>
  <path class="cls-7" d="M197.18,112.01h-6.21c-.06.65-.1,1.15-.15,1.75,1.52-.1,2.95-.2,4.51-.3-.08.66-.15,1.27-.23,1.87-.17,1.24-.38,2.48-.53,3.73-.07.55-.25.81-.86.81-.82,0-1.63.14-2.45.16-.64.02-1.05.18-.97.93.03.31-.04.64-.07,1.08,2.32-.23,4.56-.46,6.96-.7-.27,3.35-.54,6.65-.81,10.01-4.27.21-8.46.42-12.7.63-.02-.29-.05-.5-.04-.71.27-8.93.54-17.86.81-26.8.01-.39.04-.67.55-.71,4.41-.33,8.82-.68,13.24-1.03.08,0,.16.02.36.05-.46,3.01-.92,6.01-1.4,9.2Z"/>
  <path class="cls-2" d="M222.81,125.65c.26-1.68.51-3.23.75-4.79.26-1.64.52-3.29.78-4.93.15-.93,1.27-1.95,2.2-1.98.82-.03,1.33.56,1.52,1.81.4,2.69-.16,5.18-1.78,7.36-.6.81-1.49,1.41-2.29,2.05-.28.23-.69.29-1.18.48Z"/>
  <path class="cls-7" d="M135.8,115.95c.24-2.97,1.03-5.62,2.43-8.07,1.36-2.38,3.16-4.32,5.64-5.55,2.85-1.4,5.77-.93,8.08,1.26,1.52,1.44,2.34,3.26,2.86,5.25,1.77,6.81,1.34,13.39-2.11,19.61-.66,1.18-1.63,2.29-2.7,3.13-3.78,3.01-8.41,2.23-11.07-1.81-1.84-2.8-2.69-5.95-3.07-9.24-.1-.81-.14-1.63-.24-2.45-.23,2.91-.84,5.72-2,8.4-.82,1.89-1.87,3.63-3.25,5.18-1.02,1.15-2.26,1.85-3.76,1.94-1.77.1-3.54.03-5.32.05-.51,0-.54-.32-.59-.7-.51-3.68-1.04-7.36-1.55-11.04-.74-5.36-1.47-10.72-2.23-16.07-.09-.6.06-.83.61-.99,2.81-.8,5.6-1.66,8.42-2.42,2.26-.61,4.21.08,5.85,1.69,1.99,1.96,2.9,4.47,3.39,7.14.27,1.49.39,3.02.6,4.68ZM149.28,117.08c-.32-1.31-.51-2.65-.99-3.87-.69-1.75-2.47-2.19-3.87-.96-.74.64-1.36,1.51-1.78,2.4-.95,2.03-1.1,4.23-.74,6.42.16.95.48,1.92.96,2.75.69,1.21,2.01,1.51,3.09.64.82-.66,1.59-1.56,1.98-2.51.62-1.52.9-3.18,1.34-4.87ZM125.6,124.99c.74-.61,1.37-1,1.84-1.54,2.04-2.38,2.3-7.01.6-9.65-.41-.63-.89-1.13-1.74-.88-.78.23-1.61,1.26-1.55,1.98.27,3.26.56,6.52.86,10.08Z"/>
  <path class="cls-7" d="M117.22,120.43c.02,3.81-.58,7.32-2.16,10.61-1.3,2.71-3.31,4.59-6.38,5.11-1.97.33-3.66-.31-5.19-1.51-1.93-1.52-3.08-3.59-4-5.81-2.42-5.85-3.02-11.78-.7-17.8.86-2.23,2.18-4.16,4.08-5.65,3.3-2.58,7.13-2.24,9.98.84,1.47,1.59,2.29,3.52,2.94,5.53.93,2.88,1.47,5.83,1.42,8.69ZM110.65,120.7c-.05-1.98-.35-3.85-1.41-5.52-.93-1.47-2.5-1.69-3.74-.48-.53.52-.97,1.19-1.27,1.88-.84,1.93-.93,3.96-.6,6.02.23,1.43.49,2.86,1.43,4.04.94,1.18,2.27,1.35,3.33.29.58-.58,1.11-1.32,1.36-2.09.43-1.34.61-2.75.9-4.14Z"/>
  <path class="cls-7" d="M83.38,117.66c-.6-3.1-1.19-6.12-1.79-9.22,4.38-1.11,8.65-2.2,13.02-3.31.11,1.16.2,2.19.31,3.21.19,1.68.37,3.37.59,5.04.07.5-.06.75-.57.87-.71.17-1.4.42-2.17.65.46,2.47.9,4.88,1.35,7.29.81,4.29,1.63,8.58,2.42,12.88.04.24-.09.7-.26.77-1.9.74-3.83,1.43-5.86,2.18-1.34-7.09-2.66-14.11-4.01-21.22-1,.28-1.98.56-3.05.87Z"/>
  <path class="cls-3" d="M180.43,133.12c.15,2.1.15,2.12,2.21,2.01,3.69-.19,7.37-.38,11.05-.63,1.09-.07,2.07.21,3.09.45,2.31.55,4.64,1.01,6.97,1.55-2.54.02-4.87.73-6.92,2.2-.96.69-1.91.87-3.04.82-12.11-.51-24.22-.66-36.33-.44-6.48.12-12.96.31-19.42.64-7.39.38-14.79.81-22.17,1.48-7.91.71-15.82,1.61-23.7,2.62-9.73,1.25-19.38,2.97-28.94,5.2-.18.04-.37.06-.66.11-4.49-14.57-8.98-29.12-13.51-43.81,79.37-16.11,158.64-16.52,238.03,0-4.52,14.64-9,29.17-13.52,43.82-1.09-.23-2.14-.48-3.2-.67-7.41-1.36-14.81-2.84-22.25-4.01-6.34-1-12.72-1.72-19.1-2.43-4.59-.51-9.2-.82-13.8-1.22-.71-.06-1.47.03-2.11-.2-.89-.32-1.69-.88-2.64-1.39.83-1.17,1.51-2.19,2.27-3.14.13-.17.59-.16.87-.1,2,.44,3.98.94,5.99,1.36,4.17.87,7.48-.71,10.3-3.67.41-.43.86-.83,1.28-1.24.41.98.76,2.01,1.27,2.96,2.98,5.58,8.7,6.34,13.5,3.95,2.9-1.45,4.92-3.8,6.61-6.45,3.85-6.04,5.71-12.66,5.43-19.84-.11-2.79-.83-5.37-2.71-7.48-2.69-3.02-6.04-3.88-9.89-2.69-2.52.78-4.7,2.18-6.65,3.95-.24.22-.48.43-.76.69-.32-.74-.58-1.42-.91-2.07-1.85-3.68-5.13-5.45-9.24-4.88-3.43.47-6.85,1.07-10.28,1.6-.27.04-.65.04-.82-.12-2.27-2.06-4.99-2.27-7.85-1.96-2.25.24-4.5.46-6.81.69.02-.42.03-.79.06-1.3-1.35.09-2.65.16-3.94.26-3.9.3-7.79.62-11.68.93-1.39.11-2.78.19-4.16.36-.38.05-.72.38-1.23.67-.29-.25-.78-.67-1.28-1.09-4.95-4.14-11.26-2.38-14.34,1.76-2.87,3.85-4.42,8.18-5.09,12.89-.59,4.17-.18,8.23,1.34,12.16.82,2.12,2.01,4.03,3.63,5.6,3.45,3.34,7.83,3.89,12.42,1.63.87-.43,1.7-.96,2.62-1.48ZM135.42,129.94c.54.78,1.03,1.63,1.65,2.38,2.73,3.3,6.17,4.84,10.46,3.8,3.45-.84,6.03-2.94,7.74-6.01,3.59-6.41,4.38-13.24,2.88-20.39-.61-2.89-1.56-5.62-3.63-7.86-3.07-3.32-7.48-4.29-11.6-2.44-2.48,1.11-4.46,2.84-6.06,5.01-.17.22-.34.44-.55.71-.23-.39-.4-.67-.57-.94-2.34-3.69-6.36-6.02-10.99-4.61-3.32,1.01-6.64,1.99-9.94,3.05-.69.22-1.17.23-1.79-.2-2.27-1.58-4.8-2.25-7.54-1.64-2.64.58-4.71,2.1-6.47,4.1-.38.43-.74.89-1.22,1.47-.15-1.54-.31-2.89-.41-4.25-.05-.61-.27-.71-.84-.57-5.84,1.5-11.69,2.98-17.55,4.44-.67.17-.88.44-.74,1.13.63,3.16,1.21,6.33,1.82,9.49.31,1.6.67,3.19,1.03,4.87,1.03-.28,1.96-.53,2.96-.79,1.36,7.18,2.7,14.25,4.04,21.32.22,0,.34.03.43,0,3.71-1.37,7.43-2.75,11.13-4.15.18-.07.37-.44.36-.66-.04-.62-.18-1.24-.31-2.01,2.66,2.9,5.64,4.58,9.56,3.93,3.79-.63,6.34-2.95,8.37-6.29.15,1.08.27,1.93.38,2.79.06.5.28.79.82.82,2.21.11,4.42.33,6.62.32,3.07-.02,5.73-1.07,7.63-3.62.79-1.06,1.57-2.15,2.34-3.2Z"/>
  <path class="cls-2" d="M135.42,129.94c-.77,1.06-1.54,2.14-2.34,3.2-1.9,2.55-4.56,3.6-7.63,3.62-2.21.01-4.41-.21-6.62-.32-.54-.03-.76-.31-.82-.82-.1-.86-.23-1.72-.38-2.79-2.03,3.34-4.58,5.66-8.37,6.29-3.91.65-6.89-1.03-9.56-3.93.13.77.27,1.39.31,2.01.01.22-.17.59-.36.66-3.7,1.41-7.42,2.78-11.13,4.15-.09.03-.21,0-.43,0-1.34-7.07-2.68-14.14-4.04-21.32-.99.27-1.92.51-2.96.79-.36-1.68-.72-3.27-1.03-4.87-.62-3.16-1.2-6.33-1.82-9.49-.14-.69.07-.97.74-1.13,5.85-1.46,11.7-2.94,17.55-4.44.57-.15.8-.04.84.57.1,1.36.26,2.71.41,4.25.48-.58.84-1.03,1.22-1.47,1.75-2,3.83-3.52,6.47-4.1,2.75-.6,5.27.07,7.54,1.64.63.43,1.11.42,1.79.2,3.3-1.06,6.62-2.04,9.94-3.05,4.63-1.4,8.66.92,10.99,4.61.17.28.34.56.57.94.21-.27.38-.49.55-.71,1.6-2.18,3.58-3.9,6.06-5.01,4.12-1.85,8.53-.88,11.6,2.44,2.07,2.24,3.02,4.96,3.63,7.86,1.51,7.14.71,13.98-2.88,20.39-1.72,3.07-4.3,5.17-7.74,6.01-4.29,1.04-7.72-.49-10.46-3.8-.62-.75-1.12-1.6-1.65-2.38ZM135.8,115.95c-.21-1.67-.32-3.19-.6-4.68-.49-2.67-1.4-5.18-3.39-7.14-1.64-1.61-3.59-2.3-5.85-1.69-2.82.76-5.61,1.63-8.42,2.42-.55.16-.69.39-.61.99.77,5.35,1.49,10.71,2.23,16.07.51,3.68,1.04,7.36,1.55,11.04.05.38.08.7.59.7,1.77-.02,3.55.05,5.32-.05,1.5-.09,2.74-.79,3.76-1.94,1.38-1.55,2.43-3.29,3.25-5.18,1.16-2.68,1.77-5.49,2-8.4.1.82.14,1.64.24,2.45.39,3.29,1.24,6.45,3.07,9.24,2.65,4.04,7.29,4.82,11.07,1.81,1.06-.85,2.04-1.95,2.7-3.13,3.45-6.22,3.88-12.81,2.11-19.61-.52-1.99-1.34-3.81-2.86-5.25-2.31-2.19-5.23-2.66-8.08-1.26-2.49,1.23-4.28,3.17-5.64,5.55-1.4,2.45-2.19,5.1-2.43,8.07ZM117.22,120.43c.05-2.86-.48-5.81-1.42-8.69-.65-2.01-1.47-3.94-2.94-5.53-2.85-3.08-6.68-3.42-9.98-.84-1.9,1.49-3.22,3.42-4.08,5.65-2.32,6.03-1.72,11.96.7,17.8.92,2.22,2.07,4.29,4,5.81,1.52,1.2,3.21,1.84,5.19,1.51,3.08-.52,5.09-2.4,6.38-5.11,1.57-3.29,2.18-6.8,2.16-10.61ZM83.38,117.66c1.07-.31,2.05-.58,3.05-.87,1.34,7.11,2.67,14.13,4.01,21.22,2.03-.74,3.96-1.43,5.86-2.18.17-.07.3-.53.26-.77-.79-4.3-1.61-8.59-2.42-12.88-.45-2.41-.89-4.82-1.35-7.29.76-.23,1.46-.48,2.17-.65.51-.12.64-.37.57-.87-.22-1.68-.41-3.36-.59-5.04-.11-1.02-.2-2.05-.31-3.21-4.38,1.11-8.65,2.2-13.02,3.31.6,3.1,1.19,6.12,1.79,9.22Z"/>
  <path class="cls-2" d="M149.28,117.08c-.44,1.69-.72,3.35-1.34,4.87-.39.96-1.16,1.86-1.98,2.51-1.08.87-2.4.57-3.09-.64-.47-.83-.8-1.8-.96-2.75-.36-2.19-.22-4.39.74-6.42.42-.89,1.04-1.76,1.78-2.4,1.4-1.22,3.18-.79,3.87.96.48,1.22.67,2.56.99,3.87ZM144.96,121.05c1-1.59,1.36-4.62.69-5.79-.87,1.86-1.08,3.73-.69,5.79Z"/>
  <path class="cls-1" d="M85.88,173.33c-.39,7.68.08,20.05,6.13,33.03,13.5,28.95,46.66,43.51,75.45,43.05,25.67-.41,57.01-12.9,71.15-40.73,6.95-13.67,7.66-26.93,7.34-35.09"/>
  <ellipse class="cls-7" cx="140.23" cy="190.27" rx="1.9" ry="1.51" transform="translate(-82.8 268.53) rotate(-72.95)"/>
</svg>