<?xml version="1.0" encoding="UTF-8"?>
<svg id="Capa_1" data-name="Capa 1" xmlns="http://www.w3.org/2000/svg" viewBox="0 0 454.21 633.8">
  <defs>
    <style>
      .cls-1 {
        fill: #dea503;
      }

      .cls-1, .cls-2, .cls-3, .cls-4, .cls-5, .cls-6 {
        stroke-width: 0px;
      }

      .cls-2, .cls-7 {
        fill: #000;
      }

      .cls-7, .cls-8 {
        stroke: #000;
        stroke-miterlimit: 10;
        stroke-width: 0px;
      }

      .cls-3 {
        fill: #dea502;
      }

      .cls-4 {
        fill: #010101;
      }

      .cls-8, .cls-5 {
        fill: #1d1d1b;
      }

      .cls-6 {
        fill: #d4161a;
      }
    </style>
  </defs>
  <g>
    <path class="cls-6" d="M227.07,623.34l-.31.09c-40.37-9.28-78.5-26.95-110.44-51.19-17.92-13.59-62.31-51.98-87.6-114.76-12.42-30.82-18.71-63.11-18.71-95.96v-232.83c2.78,2.45,5.59,4.87,8.43,7.23,30.2,25.17,52.02,43.35,85.76,49.7,3.82.72,12.76,2.39,23.99,2.39,9.48,0,18.83-1.17,27.78-3.48,25.03-6.46,41.73-20.36,55.15-31.53l.16-.13c5.54-4.61,10.84-9.54,15.83-14.72,4.99,5.18,10.29,10.11,15.83,14.72l.17.14c13.42,11.17,30.12,25.07,55.15,31.53,8.95,2.31,18.3,3.48,27.78,3.48,11.24,0,20.17-1.67,23.98-2.39,33.75-6.35,55.57-24.53,85.77-49.7,2.84-2.36,5.65-4.78,8.43-7.23v232.83c0,32.85-6.29,65.14-18.71,95.96-25.29,62.78-69.69,101.17-87.6,114.76-31.95,24.25-70.1,41.92-110.48,51.2l-.35-.1Z"/>
    <path class="cls-5" d="M434.21,150.23v211.3c0,31.57-6.05,62.6-17.99,92.22-24.36,60.47-67.12,97.44-84.37,110.53-30.29,22.99-66.38,39.86-104.63,48.94l-.12-.03-.12.03c-38.25-9.08-74.34-25.95-104.63-48.94-17.25-13.09-60.01-50.06-84.37-110.53-11.94-29.63-17.99-60.66-17.99-92.22v-211.3c26.58,21.98,49.3,39,82.36,45.22,4.09.77,13.66,2.56,25.83,2.56,10.33,0,20.51-1.28,30.28-3.79,27.21-7.02,45.61-22.34,59.05-33.53l.17-.14c3.22-2.68,6.37-5.47,9.43-8.35,3.06,2.88,6.2,5.66,9.43,8.35l.16.14c13.44,11.19,31.84,26.51,59.05,33.53,9.77,2.52,19.95,3.79,30.28,3.79,12.17,0,21.74-1.79,25.84-2.56,33.04-6.22,55.76-23.24,82.34-45.22M454.21,105.64c-5.47,5.44-13.9,13.49-24.83,22.6-29.33,24.44-50.03,41.69-81.21,47.56-4.3.81-12.14,2.22-22.14,2.22-7.43,0-16.04-.78-25.29-3.16-22.95-5.92-38.61-19.01-51.41-29.67-10.07-8.39-17.43-16.3-22.21-21.88h0s-.01-.01-.01-.01h-.01c-4.79,5.59-12.14,13.51-22.21,21.89-12.8,10.66-28.46,23.75-51.41,29.67-9.24,2.38-17.86,3.16-25.29,3.16-10,0-17.84-1.41-22.14-2.22-31.18-5.87-51.88-23.11-81.21-47.56-10.93-9.11-19.36-17.16-24.83-22.6v255.88c0,33.09,6.27,67.03,19.44,99.7,27.8,69.02,76.97,108.48,90.83,118.99,44.81,34.01,90.15,47.66,116.83,53.55h0s0,0,.01,0c0,0,0,0,.01,0h0c26.67-5.9,72.02-19.55,116.83-53.56,13.86-10.51,63.03-49.98,90.83-118.99,13.16-32.67,19.44-66.6,19.44-99.7V105.64h0Z"/>
  </g>
  <g id="Soccer_Ball" data-name="Soccer Ball">
    <g>
      <path class="cls-4" d="M282.31,46.09c.74,3.64,1.12,7.4,1.12,11.26,0,5.54-.8,10.89-2.29,15.94.67-2.58-.84-12.55-.84-12.55,0,0,2.29-12.96,2-14.65h0Z"/>
      <path class="cls-4" d="M281.36,46.35c1.38,6.87,1.46,14.13.19,21.01-.35,1.91-.8,3.8-1.35,5.67.63.18,1.27.35,1.91.53.2-.79.21-1.65.21-2.47,0-1.06-.07-2.13-.17-3.18-.17-2.06-.42-4.11-.7-6.15-.06-.43-.12-.86-.18-1.28v.53c.27-1.51.52-3.03.76-4.54.43-2.63.84-5.26,1.13-7.9.1-.89.24-1.83.1-2.73-.09-.53-.74-.82-1.21-.69-.55.15-.77.68-.69,1.21,0,.02-.03-.33-.02-.13,0,.06,0,.11,0,.17,0,.13,0,.27,0,.4-.02.36-.04.72-.08,1.08-.04.47-.1.94-.15,1.42l-.1.77c-.01.06-.02.13-.03.19l-.02.13s.03-.21.02-.1c-.02.14-.04.28-.06.43-.31,2.27-.68,4.55-1.05,6.81-.13.77-.26,1.54-.39,2.31-.07.41-.17.8-.11,1.22.03.2.06.39.09.59.02.17.05.33.07.49.02.1.03.2.04.3.02.17-.03-.24-.01-.06.01.06.02.12.03.18.15,1.12.28,2.24.4,3.36.24,2.25.51,4.58.28,6.84-.02.17.04-.25.01-.09-.01.05-.02.1-.02.14-.02.08-.03.16-.05.23-.13.5.17,1.1.69,1.21.53.12,1.06-.16,1.21-.69,2.04-6.96,2.75-14.32,2.07-21.54-.2-2.08-.5-4.14-.91-6.18-.11-.52-.73-.83-1.21-.69-.55.16-.8.7-.7,1.23h0Z"/>
      <path class="cls-4" d="M254.08,100.16s3.63,1.99,12.75-2.87c-8.52,8.48-19.75,14.25-32.26,15.91v-2.63s14.77-5.73,19.51-10.41Z"/>
      <path class="cls-4" d="M253.58,101.01c.68.37,1.51.47,2.26.52,2.02.14,4.1-.34,6-.97,1.9-.63,3.72-1.47,5.49-2.41-.4-.52-.8-1.03-1.2-1.56-3.33,3.31-6.87,6.06-10.91,8.45-4.1,2.42-8.27,4.22-12.84,5.53-1.28.37-2.57.69-3.88.96-.68.14-1.35.27-2.03.39-.32.05-.64.11-.97.16l-.54.08c-.07.01-.14.02-.22.03-.03,0-.31.04-.17.03l.99.99v-2.63c-.24.32-.48.63-.72.95,1.86-.72,3.7-1.51,5.52-2.32,3.39-1.51,6.76-3.12,9.93-5.04,1.58-.96,3.17-2.01,4.5-3.31.38-.37.37-1.02,0-1.4-.38-.38-1.02-.37-1.4,0-.25.25-.51.48-.78.71-.13.11-.26.21-.39.32-.07.06-.23.18-.06.04-.09.07-.18.13-.27.2-.67.5-1.37.96-2.08,1.41-1.59.99-3.23,1.89-4.9,2.73-1.64.83-3.3,1.62-4.98,2.37-.72.32-1.45.64-2.18.96-.16.07-.31.14-.47.2-.08.03-.16.07-.24.1-.04.02-.07.03-.11.04-.16.07.17-.07.05-.02-.28.12-.55.23-.83.35-.62.26-1.24.51-1.86.75-.41.16-.72.48-.72.95v2.63c0,.48.46,1.06.99.99,4.91-.66,9.71-1.9,14.28-3.79,4.45-1.84,8.66-4.2,12.52-7.1,2.17-1.63,4.24-3.4,6.17-5.32.81-.8-.22-2.07-1.2-1.56-2.55,1.35-5.13,2.49-8.04,2.98l-.32.05c-.11.02-.2.09.02,0-.04.02-.11.01-.15.02-.21.03-.43.05-.65.06-.37.03-.74.03-1.1.02-.14,0-.29-.02-.44-.03-.06,0-.12-.01-.18-.02-.27-.03.23.04.03,0-.21-.04-.41-.07-.61-.12-.14-.04-.27-.09-.4-.13-.14-.05.31.14.12.05l-.03-.02c-.47-.26-1.08-.12-1.35.36-.25.44-.1,1.09.37,1.35h0Z"/>
      <path class="cls-4" d="M254.82,46.89s12.11,15.69,12.02,18.46c0,0-3.13,11.47-12.89,20.7,0,0-17.4-1.45-21.23-5.01l.13-24.73c3.69.45,21.96-9.42,21.96-9.42h0Z"/>
      <path class="cls-4" d="M253.97,47.39c1.11,1.44,2.19,2.89,3.27,4.35,2.05,2.78,4.06,5.59,5.93,8.49.77,1.19,1.52,2.4,2.15,3.66.06.12.12.24.18.36.03.05.05.11.07.17.07.15.06.17,0-.01.07.2.16.39.22.6.02.08.04.15.06.23,0,.04.01.07.02.11.04.15-.02-.32-.02-.12,0,.28.1-.29.02-.09-.25.7-.45,1.41-.71,2.11-.12.31-.23.62-.36.92l-.21.51c-.04.09-.07.17-.11.25-.01.02-.09.21-.02.05.06-.15-.03.05-.04.09-.36.84-.74,1.67-1.15,2.49-1.01,2.05-2.15,4.03-3.42,5.93-1.53,2.29-3.12,4.29-5.05,6.31-.51.53-1.03,1.05-1.56,1.55.23-.1.47-.19.7-.29-.59-.05-1.17-.11-1.76-.17-.64-.07-1.27-.14-1.91-.21-.38-.05-.76-.09-1.14-.14l-.59-.08c-.06,0-.19-.02.07.01-.05,0-.11-.02-.16-.02-.12-.02-.24-.03-.36-.05-3.66-.51-7.37-1.11-10.9-2.24-.44-.14-.87-.29-1.29-.45-.09-.04-.18-.07-.27-.11-.07-.03-.45-.15-.13-.05-.19-.06-.37-.17-.55-.25-.32-.15-.63-.32-.94-.51-.14-.09-.27-.18-.4-.28s.08.01.09.06c0-.01-.09-.07-.1-.08-.06-.05-.12-.1-.18-.15.1.23.19.47.29.7,0-.82.01-1.64.01-2.46l.03-5.91c.01-2.38.03-4.75.04-7.12l.03-6.18c0-1,.07-2.01.02-3v-.04l-.99.99c.57.06,1.17-.06,1.73-.18.71-.15,1.42-.38,2.11-.62,1.93-.67,3.8-1.48,5.66-2.31,3.61-1.62,7.16-3.4,10.67-5.23.77-.4,1.54-.8,2.3-1.21.47-.26.62-.91.36-1.35-.28-.47-.88-.61-1.35-.36-2.1,1.13-4.22,2.23-6.36,3.29-1.91.95-3.84,1.89-5.77,2.78-.96.44-1.93.87-2.9,1.28.28-.12-.07.03-.13.05-.12.05-.24.1-.36.15-.23.1-.47.19-.71.29-.43.17-.86.34-1.29.5-.8.29-1.62.57-2.46.78-.17.04-.34.08-.52.11-.07.02-.14.03-.22.04-.04,0-.07.01-.11.02-.22.04.25-.02.1-.01-.25.02-.48.04-.74.02-.53-.06-.99.5-.99.99l-.03,5.62c-.02,3.66-.04,7.32-.06,10.98-.02,2.57-.03,5.15-.04,7.72,0,.22-.03.46.03.67.13.47.67.8,1.04,1.05.29.2.6.37.91.53,1.67.85,3.5,1.38,5.32,1.84,3.88.97,7.87,1.54,11.84,2,.98.11,1.97.23,2.95.3.18.01.32,0,.51-.07.4-.17.76-.62,1.07-.94.3-.3.6-.6.88-.91,1.1-1.16,2.14-2.37,3.12-3.63,3.04-3.93,5.51-8.27,7.34-12.89.37-.94.72-1.89,1-2.85.26-.89-.28-1.92-.65-2.7-.7-1.44-1.57-2.8-2.43-4.14-1.08-1.66-2.2-3.28-3.35-4.89-1.74-2.44-3.53-4.86-5.35-7.24-.1-.13-.2-.26-.29-.38-.32-.42-.85-.65-1.35-.36-.44.25-.7.93-.37,1.35h0Z"/>
      <path class="cls-4" d="M213.34,105.82h0c-7.65.67-18.59-3.42-18.59-3.42-11.73-10.15-12.53-17.8-12.53-17.8,2.64-3.07,9.36-6.23,9.36-6.23,2.64,4.71,19.78,12.82,19.78,12.82-.13,2.6,1.91,14.28,1.98,14.63h0Z"/>
      <path class="cls-4" d="M212.39,106.08c.32-.41.63-.83.95-1.25-1.57.13-3.15.07-4.71-.09-.21-.02-.41-.04-.62-.07-.1-.01-.19-.02-.28-.03l-.14-.02s-.21-.03-.11-.02c.11.02-.05,0-.06-.01-.05,0-.1-.01-.14-.02-.11-.02-.22-.03-.33-.05-.2-.03-.41-.06-.61-.1-.8-.13-1.61-.29-2.41-.46-2.53-.54-5.03-1.23-7.48-2.05-.48-.16-.96-.32-1.44-.5.14.09.29.17.44.26-2-1.74-3.91-3.58-5.66-5.58-.38-.43-.75-.86-1.1-1.31-.15-.19-.31-.38-.46-.58-.04-.05-.23-.3-.12-.15-.09-.12-.18-.23-.27-.35-.55-.74-1.08-1.49-1.57-2.26-.77-1.2-1.46-2.46-2.05-3.76-.03-.06-.05-.12-.08-.18-.11-.25.05.12,0-.01-.05-.12-.1-.24-.15-.36-.09-.23-.18-.45-.26-.69-.12-.35-.24-.71-.34-1.08-.07-.26-.13-.51-.18-.77-.01-.07-.02-.14-.04-.21-.03-.15.04.35.03.19-.1.23-.19.47-.29.7.58-.67,1.24-1.25,1.93-1.78-.16.12.11-.08.14-.11.1-.07.19-.14.28-.21.19-.14.38-.28.58-.41.4-.28.81-.54,1.22-.8,1.34-.85,2.74-1.62,4.15-2.34.28-.14.56-.29.85-.42-.45-.12-.9-.23-1.35-.36.74,1.3,1.95,2.33,3.11,3.25,1.59,1.26,3.29,2.39,5.01,3.45,3.2,1.97,6.51,3.74,9.86,5.42.71.36,1.43.71,2.15,1.05-.17-.28-.32-.57-.49-.85-.04.8.06,1.62.14,2.42.13,1.25.3,2.5.48,3.75.34,2.35.71,4.7,1.11,7.05.1.58.19,1.13.29,1.68.09.53.74.82,1.21.69.55-.15.78-.69.69-1.21-.26-1.45-.5-2.9-.73-4.35-.2-1.26-.4-2.52-.58-3.78-.05-.31-.09-.63-.13-.95-.02-.14-.04-.29-.06-.43-.02-.11-.03-.26,0-.06-.01-.08-.02-.17-.03-.25-.07-.59-.15-1.17-.22-1.76-.1-.92-.22-1.86-.18-2.79.02-.32-.19-.71-.49-.85-2-.95-3.97-1.96-5.92-3-3.54-1.89-7.09-3.88-10.3-6.3-.1-.07-.19-.14-.28-.21-.11-.09.19.15.02.02-.05-.04-.1-.08-.15-.12-.19-.15-.38-.31-.57-.46-.34-.28-.67-.58-.99-.88-.28-.27-.55-.55-.79-.85-.03-.03-.05-.06-.07-.09-.13-.16-.03.03.03.04-.04,0-.13-.18-.15-.21-.09-.13-.18-.26-.25-.4-.28-.5-.87-.58-1.35-.36-1.1.52-2.18,1.1-3.23,1.7-1.97,1.12-3.94,2.36-5.59,3.92-.41.39-1,.87-1.02,1.46,0,.11.03.23.05.34.03.19.06.37.11.55.2.87.5,1.72.85,2.55,1.54,3.71,3.93,7.01,6.6,9.98.97,1.09,2,2.13,3.06,3.13.59.56,1.19,1.11,1.81,1.65.27.24.53.46.87.59,1.07.39,2.16.74,3.25,1.07,2.09.63,4.21,1.18,6.35,1.6,2.46.48,4.97.84,7.48.83.56,0,1.12-.03,1.68-.07.69-.06,1.07-.58.95-1.25h0c-.09-.53-.74-.83-1.21-.7-.57.15-.79.68-.7,1.21h0Z"/>
      <path class="cls-4" d="M213.34,20.91s-1.98,18.33-1.45,21.36c0,0-19.52,9.96-20.3,11.14,0,0-9.28-7.58-10.64-14.24,0,0,5.1-16.16,14.34-21.03,0,0,10.8-.13,18.05,2.77Z"/>
      <path class="cls-4" d="M212.35,20.91c-.23,2.14-.44,4.28-.64,6.41-.35,3.7-.68,7.41-.84,11.13-.06,1.34-.15,2.74.07,4.07.15-.37.3-.75.45-1.12-2.24,1.15-4.48,2.31-6.72,3.47-3.64,1.9-7.28,3.8-10.83,5.86-.64.37-1.29.75-1.92,1.16-.44.28-.89.58-1.19,1.01.52-.07,1.03-.13,1.56-.2-1.11-.91-2.15-1.9-3.16-2.9-1-.99-1.95-2.02-2.86-3.09-.24-.29-.47-.58-.7-.86-.06-.08-.12-.16-.19-.24.1.13-.02-.03-.06-.07-.12-.16-.25-.32-.36-.48-.45-.62-.88-1.25-1.27-1.9-.43-.7-.8-1.43-1.14-2.18,0-.02-.06-.14-.02-.03.05.11-.02-.05-.03-.07-.04-.1-.08-.2-.12-.3-.06-.17-.13-.35-.18-.52-.12-.37-.22-.76-.3-1.14v.53c.17-.54.37-1.08.56-1.61.23-.61.46-1.21.71-1.82.06-.17.13-.32.2-.49.02-.05.04-.11.07-.16,0,.02-.1.23-.03.07.05-.11.1-.22.14-.33.17-.39.35-.79.52-1.18.83-1.81,1.74-3.59,2.75-5.31.55-.93,1.13-1.85,1.76-2.74.14-.21.29-.42.44-.62.08-.11.16-.21.24-.32l.14-.19s.18-.24.04-.05c.34-.43.68-.86,1.04-1.27.79-.91,1.64-1.77,2.55-2.55.11-.09.21-.18.32-.27.06-.05.12-.1.18-.14.04-.03.23-.18.04-.03.23-.18.46-.35.7-.51.48-.33.98-.63,1.5-.91-.17.04-.33.09-.5.13,1.35-.02,2.7.04,4.04.13,1.39.09,2.78.2,4.15.37.18.02.37.04.55.07.09.01.19.02.28.04-.22-.03.09.01.11.02.38.05.76.11,1.13.17.8.13,1.59.27,2.39.44,1.75.37,3.48.85,5.14,1.51.48.19,1.11-.21,1.21-.69.13-.57-.18-1.01-.69-1.21-2.8-1.11-5.78-1.72-8.75-2.13-2.5-.35-5.02-.56-7.54-.64-.61-.02-1.21-.03-1.82-.03-.81,0-1.59.62-2.24,1.07-2.13,1.47-3.89,3.36-5.46,5.4-2.78,3.63-4.87,7.76-6.58,11.98-.42,1.02-.81,2.06-1.16,3.11-.21.65.06,1.36.28,1.98.43,1.28,1.04,2.49,1.75,3.64,1.41,2.29,3.17,4.36,5.04,6.28,1.13,1.17,2.32,2.3,3.57,3.35.06.05.12.11.19.15.52.42,1.17.36,1.56-.2-.06.1-.21.22-.05.09.1-.08.33-.22-.01,0,.17-.11.33-.24.5-.35.52-.34,1.05-.66,1.59-.97,1.61-.94,3.25-1.84,4.9-2.73,3.52-1.9,7.07-3.76,10.63-5.59l2.4-1.23c.42-.21.53-.7.45-1.12-.05-.29.02.27,0,0-.01-.11-.02-.22-.03-.33-.02-.25-.02-.49-.03-.74-.01-.67.01-1.33.03-2,.06-1.76.19-3.53.32-5.29.27-3.49.59-6.98.95-10.46.08-.76.15-1.52.24-2.29.05-.52-.5-1.01-.99-.99-.58.03-.92.44-.99.99h0Z"/>
      <path class="cls-4" d="M267.93,22.1c-4.61-.39-12.26,3.3-12.26,3.3-2.77-5.8-21.13-13.32-21.13-13.32,0,0,1-9.21,2.16-10.27,11.18,1.92,21.24,7.14,29.13,14.61.97.9,2.1,5.68,2.1,5.68Z"/>
      <path class="cls-4" d="M267.93,21.11c-2.15-.18-4.36.36-6.4.97-1.83.55-3.61,1.24-5.35,2-.34.15-.68.3-1.01.46.45.12.9.23,1.35.36-.72-1.49-2.03-2.69-3.29-3.72-1.69-1.37-3.51-2.55-5.38-3.65-3.39-1.99-6.93-3.72-10.52-5.32-.84-.37-1.67-.74-2.52-1.09.24.32.48.63.72.95.03-.3.07-.61.11-.91.04-.32.08-.64.12-.96.01-.1.03-.19.04-.28.03-.21-.03.25,0,.03,0-.04.01-.08.02-.12l.1-.69c.26-1.78.53-3.57,1-5.31.1-.37.22-.73.35-1.09.03-.08.08-.09-.05.12.02-.04.04-.09.05-.12.03-.06.06-.11.09-.17.02-.04.09-.11.1-.15-.04.17-.18.2-.04.07-.32.09-.64.17-.96.26,2.15.37,4.28.86,6.37,1.48,1.03.3,2.04.63,3.05,1,.51.18,1.02.37,1.52.57.23.09.47.19.7.28.13.05.27.11.4.17q.11.04.26.11c3.9,1.67,7.62,3.79,11.05,6.29.96.7,1.72,1.29,2.65,2.07.93.77,1.83,1.57,2.7,2.4v-1.4c-.37.37-.39,1.03,0,1.4.04.04.07.08.11.11.11.1-.13-.2-.05-.06.06.1.13.2.19.3.06.12.13.24.19.36.03.06.05.12.08.17.02.04.04.08.05.12-.06-.13-.06-.15-.02-.05.24.61.45,1.23.64,1.85.25.8.47,1.61.67,2.43.12.52.71.83,1.21.69.53-.14.81-.69.69-1.21-.2-.86-.44-1.73-.71-2.57-.22-.7-.46-1.4-.75-2.08-.22-.52-.48-1.07-.89-1.46v1.4c.37-.37.39-1.03,0-1.4-2.69-2.54-5.62-4.83-8.75-6.82-3.15-2-6.5-3.69-9.99-5.04-3.49-1.36-7.15-2.44-10.84-3.01-1.26-.19-1.67,1.4-1.93,2.33-.3,1.08-.51,2.18-.69,3.28-.2,1.18-.37,2.37-.53,3.55-.09.66-.19,1.31-.24,1.97,0,.03,0,.07-.01.1-.05.46.35.8.72.95.04.02.09.04.13.05.05.02.1.04.15.06.03.01.06.03.09.04.16.07-.3-.13-.09-.04.46.19.91.39,1.36.59,1.5.66,2.99,1.35,4.47,2.07,3.8,1.85,7.62,3.85,10.99,6.42.04.03.09.07.13.1-.23-.18.02.01.06.05.1.08.2.16.3.25.2.16.39.32.58.48.36.31.71.64,1.04.99.15.17.31.33.46.5.07.08.13.16.2.24.02.03.13.16.02.02-.12-.15.02.03.04.06.23.31.43.63.6.97.25.51.91.57,1.35.36.26-.12.52-.24.78-.36.13-.06.26-.12.39-.17.07-.03.15-.06.22-.1.03-.02.07-.03.1-.04.18-.08-.2.08-.02.01.39-.16.78-.32,1.17-.47,1.94-.76,3.94-1.42,5.98-1.81.28-.05.55-.1.84-.14.19-.03.02,0-.02,0,.08-.01.17-.02.25-.03.15-.02.29-.03.44-.04.54-.04,1.09-.05,1.63-.01.52.04,1.01-.48.99-.99-.03-.58-.44-.95-1-1h0Z"/>
      <path class="cls-4" d="M274.78,29.21c2.43,4.14,4.29,8.44,5.59,13.06.38,1.34.7,2.68.98,4.04.11.52.72.83,1.21.69.54-.15.8-.69.69-1.21-.99-4.84-2.62-9.53-4.81-13.95-.61-1.23-1.27-2.44-1.97-3.62-.27-.46-.89-.62-1.35-.36-.46.27-.62.89-.35,1.35Z"/>
      <path class="cls-4" d="M172.51,47.98c1.42-8.19,4.66-15.97,9.47-22.75,4.77-6.7,11.05-12.3,18.23-16.3,7.93-4.42,16.9-6.8,25.96-6.94,9.33-.15,18.64,2.06,26.88,6.45,7.93,4.22,14.81,10.38,19.86,17.82.66.96,1.27,1.95,1.87,2.95.65,1.09,2.36.1,1.71-1-4.81-8.1-11.59-14.99-19.64-19.89C248.76,3.39,239.49.57,230.04.08c-9.52-.49-19.1,1.42-27.7,5.53-7.77,3.71-14.7,9.23-20.07,15.96-5.3,6.66-9.12,14.45-11.04,22.75-.24,1.04-.45,2.08-.63,3.13-.09.53.14,1.07.69,1.21.47.13,1.12-.16,1.21-.69Z"/>
      <path class="cls-4" d="M175.1,76.44c-2.58-7.1-3.7-14.53-3.3-22.06.11-2.17.35-4.28.71-6.4.09-.51-.13-1.09-.69-1.21-.48-.11-1.12.14-1.21.69-1.34,7.81-1.1,15.86.78,23.56.49,2.02,1.1,4.01,1.81,5.96.18.5.67.84,1.21.69.48-.14.88-.72.69-1.23Z"/>
      <path class="cls-4" d="M266.13,96.59c-5.47,5.43-12.05,9.73-19.26,12.47-7.65,2.91-15.88,4.09-24.04,3.48-6.82-.51-13.56-2.31-19.71-5.28-6.04-2.91-11.52-6.91-16.14-11.76s-8.37-10.56-10.97-16.74c-.32-.76-.62-1.53-.91-2.31-.19-.5-.67-.84-1.21-.69-.48.13-.87.71-.69,1.21,2.43,6.6,6.04,12.72,10.65,18.03,4.52,5.2,10.01,9.59,16.08,12.85,6.3,3.39,13.18,5.54,20.27,6.41,8.23,1,16.69.2,24.58-2.37,7.61-2.47,14.65-6.55,20.61-11.89.73-.66,1.44-1.33,2.14-2.02.91-.89-.49-2.29-1.4-1.39Z"/>
      <path class="cls-4" d="M281.36,46.35c1.51,7.48,1.45,15.35-.17,22.8-1.48,6.78-4.14,13.06-7.98,18.83-2.07,3.12-4.39,5.93-7.07,8.61-.38.38-.38,1.02,0,1.4s1.02.38,1.4,0c4.9-4.88,8.93-10.65,11.78-16.95,3.1-6.86,4.84-14.28,5.09-21.81.15-4.5-.24-9.01-1.13-13.42-.11-.52-.73-.83-1.21-.69-.55.15-.8.69-.7,1.22h0Z"/>
      <path class="cls-4" d="M194.33,10.55c-.37,2.56-.56,5.31,0,7.86.09.42.54.73.95.72,1.35-.02,2.7.04,4.04.13,1.39.09,2.78.2,4.15.37.18.02.37.04.55.07.09.01.19.02.28.04-.22-.03.09.01.11.02.38.05.76.11,1.13.17.8.13,1.59.27,2.39.44,1.75.37,3.48.85,5.14,1.51-.24-.32-.48-.63-.72-.95-.23,2.14-.44,4.28-.64,6.41-.35,3.7-.68,7.41-.84,11.13-.06,1.34-.15,2.74.07,4.07.15-.37.3-.75.45-1.12-2.24,1.15-4.48,2.31-6.72,3.47-3.64,1.9-7.28,3.8-10.83,5.86-.64.37-1.29.75-1.92,1.16-.44.28-.89.58-1.19,1.01.52-.07,1.03-.13,1.56-.2-1.11-.91-2.15-1.9-3.16-2.9-1-.99-1.95-2.02-2.86-3.09-.24-.29-.47-.58-.7-.86-.06-.08-.12-.16-.19-.24.1.13-.02-.03-.06-.07-.12-.16-.25-.32-.36-.48-.45-.62-.88-1.25-1.27-1.9-.43-.7-.8-1.43-1.14-2.18,0-.02-.06-.14-.02-.03.05.11-.02-.05-.03-.07-.04-.1-.08-.2-.12-.3-.06-.17-.13-.35-.18-.52-.12-.37-.22-.76-.3-1.14v.53c.17-.54.37-1.08.56-1.61.23-.61.46-1.21.71-1.82.06-.17.13-.32.2-.49.02-.05.04-.11.07-.16,0,.02-.1.23-.03.07.05-.11.1-.22.14-.33.17-.39.35-.79.52-1.18.83-1.81,1.74-3.59,2.75-5.31.55-.93,1.13-1.85,1.76-2.74.14-.21.29-.42.44-.62.08-.11.16-.21.24-.32l.14-.19s.18-.24.04-.05c.34-.43.68-.86,1.04-1.27.79-.91,1.64-1.77,2.55-2.55.11-.09.21-.18.32-.27.06-.05.12-.1.18-.14.04-.03.23-.18.04-.03.23-.18.46-.35.7-.51.48-.33.98-.63,1.5-.91.47-.25.62-.91.36-1.35-.28-.48-.88-.61-1.35-.36-3.27,1.74-5.82,4.6-7.91,7.59-1.94,2.76-3.53,5.78-4.88,8.88-.5,1.15-.97,2.3-1.41,3.47-.2.53-.42,1.07-.56,1.61-.16.58.15,1.33.34,1.87.32.94.74,1.85,1.23,2.72.98,1.76,2.21,3.39,3.52,4.92,1.73,2.03,3.64,3.94,5.69,5.66.03.03.07.06.1.09.52.42,1.17.36,1.56-.2-.06.1-.21.22-.05.09.1-.08.33-.22-.01,0,.17-.11.33-.24.5-.35.52-.34,1.05-.66,1.59-.97,1.61-.94,3.25-1.84,4.9-2.73,3.52-1.9,7.07-3.76,10.63-5.59l2.4-1.23c.42-.21.53-.7.45-1.12-.05-.29.02.27,0,0-.01-.11-.02-.22-.03-.33-.02-.25-.02-.49-.03-.74-.01-.67.01-1.33.03-2,.06-1.76.19-3.53.32-5.29.27-3.49.59-6.98.95-10.46.08-.76.15-1.52.24-2.29.05-.46-.35-.8-.72-.95-3.03-1.2-6.26-1.81-9.48-2.23-2.47-.32-4.95-.51-7.43-.56-.47-.01-.94-.02-1.41-.02.32.24.63.48.95.72-.04-.19-.08-.38-.11-.57,0-.03-.04-.3-.03-.19.01.1-.02-.21-.03-.24-.04-.38-.06-.77-.07-1.15-.03-.78-.01-1.56.03-2.33.03-.61.09-1.21.15-1.81l.06-.53c.03-.26-.04.29,0,.03.07-.51-.13-1.09-.69-1.21-.47-.11-1.15.14-1.23.69h0Z"/>
      <path class="cls-4" d="M172.43,48.41s0-.1.01-.15c-.01.26.02-.06.04-.17.03-.11.05-.21.09-.31.03-.09.05-.17.09-.25.02-.05.04-.1.06-.15.09-.22-.05.12-.02.05.24-.5.5-.98.82-1.44.04-.06.08-.12.12-.17s.22-.33.05-.06c.1-.15.23-.3.36-.44.28-.32.57-.63.87-.93.35-.34.7-.66,1.08-.96.11-.09.22-.18.33-.27.05-.04.09-.07.14-.11-.14.11.01-.01.05-.04.24-.18.48-.35.72-.52,1.34-.93,2.76-1.74,4.23-2.46.48-.24.61-.92.36-1.35-.29-.49-.87-.59-1.35-.36-2.42,1.2-4.78,2.63-6.75,4.49-1.07,1.01-2.07,2.19-2.67,3.53-.29.64-.56,1.35-.56,2.06,0,.52.45,1.01.99.99.52-.04.97-.45.97-1h0Z"/>
      <path class="cls-4" d="M190.63,53.15c-.41,1.99-.68,4.02-.92,6.04-.48,4.09-.7,8.24-.38,12.35.19,2.39.54,4.8,1.3,7.09.15-.37.3-.75.45-1.12-2.51,1.18-4.98,2.58-7.19,4.26-.85.64-1.67,1.32-2.38,2.13.4-.05.8-.1,1.2-.15-.23-.15-.46-.31-.69-.47-.25-.18-.49-.35-.74-.53-.14-.11-.28-.21-.43-.31-.08-.06-.16-.12-.24-.18-.04-.03-.07-.05-.11-.09-.06-.05.15.12-.02-.02-1.49-1.16-2.94-2.4-4.17-3.84-.09-.1-.17-.2-.25-.3-.04-.05-.08-.1-.12-.15.08.1.06.08,0-.01-.14-.2-.28-.39-.42-.6-.12-.19-.24-.39-.34-.59-.05-.1-.09-.2-.14-.29-.05-.1.08.09.03.08-.03,0-.09-.25-.1-.27-.17-.51-.68-.84-1.21-.69-.5.13-.86.71-.69,1.21.63,1.87,2.1,3.4,3.51,4.72,1.32,1.23,2.74,2.34,4.2,3.39.3.22.61.43.92.64.34.22.93.16,1.2-.15.58-.67,1.24-1.25,1.93-1.78-.16.12.11-.08.14-.11.1-.07.19-.14.28-.21.19-.14.38-.28.58-.41.4-.28.81-.54,1.22-.8,1.34-.85,2.74-1.62,4.15-2.34.28-.14.56-.29.85-.42.37-.18.58-.73.45-1.12-.31-.96-.56-1.94-.76-2.93-.1-.52-.19-1.03-.26-1.56,0-.03-.03-.22-.01-.1.02.12-.01-.07-.01-.1-.02-.14-.03-.27-.05-.41-.03-.28-.06-.55-.09-.83-.2-2.14-.23-4.29-.17-6.44.06-1.97.21-3.93.42-5.89.05-.43.1-.86.15-1.28.03-.2.05-.39.07-.59.01-.07,0-.21.04-.27,0,.01-.03.25-.01.07.01-.06.02-.13.03-.19.09-.64.19-1.29.29-1.93.11-.67.22-1.33.36-1.99.1-.51-.14-1.09-.69-1.21-.49-.11-1.1.15-1.21.69h0Z"/>
      <path class="cls-4" d="M181.24,84.6c.1.94.39,1.86.72,2.74.92,2.46,2.25,4.75,3.79,6.88,1.18,1.62,2.47,3.17,3.85,4.63.8.85,1.63,1.68,2.48,2.48.46.43.92.85,1.39,1.27.32.29.64.62,1.05.78,1.99.77,4.09,1.35,6.15,1.89,3.69.95,7.53,1.7,11.35,1.64.44-.01.88-.03,1.32-.07.69-.06,1.07-.58.95-1.25-.24-1.44-.49-2.88-.72-4.33-.2-1.26-.4-2.51-.58-3.78-.05-.31-.09-.63-.13-.95-.02-.15-.04-.31-.06-.47,0-.04-.04-.27-.02-.12.02.14-.02-.11-.02-.15-.08-.59-.15-1.18-.22-1.76-.1-.93-.23-1.89-.19-2.82.02-.32-.19-.71-.49-.85-2-.95-3.97-1.96-5.92-3-3.54-1.89-7.09-3.88-10.3-6.3-.1-.07-.19-.14-.28-.21-.11-.09.19.15.02.02-.05-.04-.1-.08-.15-.12-.19-.15-.38-.31-.57-.46-.34-.28-.67-.58-.99-.88-.28-.27-.55-.55-.79-.85-.03-.03-.05-.06-.07-.09-.13-.16-.03.03.03.04-.04,0-.13-.18-.15-.21-.09-.13-.18-.26-.25-.4-.26-.46-.89-.62-1.35-.36-.47.27-.62.88-.36,1.35.74,1.3,1.95,2.33,3.11,3.25,1.59,1.26,3.29,2.39,5.01,3.45,3.2,1.97,6.51,3.74,9.86,5.42.71.36,1.43.71,2.15,1.05-.17-.28-.32-.57-.49-.85-.04.8.06,1.62.14,2.42.13,1.27.3,2.53.48,3.79.34,2.35.71,4.7,1.1,7.04.09.55.19,1.1.28,1.65.32-.42.63-.84.95-1.25-1.57.13-3.15.07-4.71-.09-.21-.02-.41-.04-.62-.07-.1-.01-.19-.02-.28-.03l-.14-.02s-.21-.03-.11-.02c.11.02-.05,0-.06-.01-.05,0-.1-.01-.14-.02-.11-.02-.22-.03-.33-.05-.2-.03-.41-.06-.61-.1-.8-.13-1.61-.29-2.41-.46-2.53-.54-5.03-1.23-7.48-2.05-.48-.16-.96-.32-1.44-.5.14.09.29.17.44.26-2-1.74-3.91-3.58-5.66-5.58-.38-.43-.75-.86-1.1-1.31-.15-.19-.31-.38-.46-.58-.04-.05-.23-.3-.12-.15-.09-.12-.18-.23-.27-.35-.55-.74-1.08-1.49-1.57-2.26-.77-1.2-1.46-2.46-2.05-3.76-.03-.06-.05-.12-.08-.18-.11-.25.05.12,0-.01-.05-.12-.1-.24-.15-.36-.09-.23-.18-.45-.26-.69-.12-.35-.24-.71-.34-1.08-.07-.26-.13-.51-.18-.77-.01-.07-.02-.14-.04-.21-.03-.15.04.35.03.19-.05-.51-.42-1.01-.99-.99-.48.03-1.03.44-.97.99h0Z"/>
      <path class="cls-4" d="M214.04,21.62c-.39.3-.17.13-.08.06.11-.08.22-.16.33-.24.4-.29.81-.58,1.23-.86,1.41-.95,2.86-1.82,4.35-2.64,2.06-1.12,4.08-2.07,6.17-2.84,1.19-.44,2.4-.83,3.62-1.16.65-.17,1.31-.32,1.97-.46.3-.06.6-.11.89-.17.16-.03.31-.05.47-.07.07-.01.14-.02.21-.03,0,0,.31-.04.16-.02.31-.04.65-.04.96-.11.26-.05-.06-.07-.03-.05.05.03.12.05.17.07.05.02.1.04.14.06.22.09-.28-.12-.03-.02.17.07.32.14.49.21,1.05.45,2.1.92,3.14,1.41,3.14,1.46,6.25,3.03,9.22,4.81.78.47,1.54.95,2.29,1.45.35.23.7.47,1.04.72.17.12.33.24.5.36.07.05.14.11.21.16.18.13-.13-.1-.02-.01.05.04.1.08.15.12.59.46,1.16.95,1.68,1.48.24.24.47.48.69.75.05.06.1.12.15.18l.06.08c.1.12-.06-.07-.06-.08,0,.07.23.32.28.39.15.22.29.46.4.7-.04-.17-.09-.33-.13-.5.05,2.11.06,4.23.06,6.35,0,3.7-.02,7.42-.3,11.12-.03.43-.07.87-.12,1.3-.02.19-.04.37-.06.56-.01.09-.07.45-.01.07-.02.07-.02.15-.03.23-.08.54-.17,1.09-.36,1.6.15-.2.3-.39.45-.59-2.1,1.13-4.22,2.23-6.36,3.29-1.91.95-3.84,1.89-5.77,2.78-.96.44-1.93.87-2.9,1.28.28-.12-.07.03-.13.05-.12.05-.24.1-.36.15-.23.1-.47.19-.71.29-.43.17-.86.34-1.29.5-.8.29-1.62.57-2.46.78-.17.04-.34.08-.52.11-.07.02-.14.03-.22.04-.04,0-.07.01-.11.02-.22.04.25-.02.1-.01-.25.02-.48.04-.74.02.17.04.33.09.5.13-2.21-1.23-4.39-2.5-6.56-3.79-3.76-2.24-7.53-4.52-11.05-7.12-.21-.15-.43-.3-.62-.47.26.22-.07-.05-.13-.11-.1-.07-.19-.15-.28-.22-.32-.26-.64-.53-.94-.81-.25-.23-.49-.46-.71-.71-.05-.05-.1-.11-.14-.17-.17-.19.15.22.02.02-.06-.1-.13-.19-.18-.29-.25-.47-.91-.62-1.35-.36-.48.28-.61.88-.36,1.35.29.55.76,1.02,1.21,1.44.67.63,1.41,1.2,2.14,1.76,1.82,1.38,3.74,2.64,5.67,3.87,2.05,1.31,4.12,2.57,6.22,3.81,1.58.93,3.16,1.85,4.75,2.76.39.22.78.44,1.17.66.41.23.86.27,1.32.22,1.79-.19,3.53-.88,5.19-1.54,2.31-.92,4.56-1.95,6.8-3.02,2.07-.99,4.13-2.02,6.17-3.07,1.16-.6,2.32-1.2,3.47-1.82.06-.03.13-.06.19-.1.42-.26.54-.79.64-1.24.2-.86.29-1.74.38-2.62.22-2.32.29-4.67.34-7,.05-2.4.05-4.79.04-7.19-.01-1.38-.03-2.76-.05-4.14-.02-.66-.43-1.24-.81-1.74-.64-.85-1.4-1.6-2.21-2.3-1.95-1.66-4.13-3.04-6.35-4.32-2.19-1.26-4.45-2.42-6.74-3.51-1.56-.75-3.14-1.46-4.73-2.14-.34-.14-.67-.32-1.01-.43-.33-.1-.78.01-1.12.05-.53.06-1.06.13-1.59.22-.93.15-1.85.35-2.76.59-3.43.88-6.73,2.27-9.86,3.93-2.02,1.07-3.99,2.26-5.85,3.58-.33.23-.66.48-.99.72-.42.32-.35,1.05,0,1.4.4.4.96.31,1.38-.01h0Z"/>
      <path class="cls-4" d="M235.53,12.08c.03-.3.07-.61.11-.91l.13-1.02.03-.26c.02-.14-.04.27,0,.06,0-.04.01-.08.02-.12l.1-.69c.26-1.8.53-3.61,1.01-5.36.05-.19.11-.37.17-.56.02-.07.21-.46.19-.51,0,0-.11.25-.05.13.02-.03.03-.07.05-.1.03-.06.06-.12.1-.18.05-.08.17-.31-.04.03.02-.03.05-.06.09-.09.38-.38.38-1.02,0-1.4s-1.02-.38-1.4,0c-.46.46-.69,1.13-.87,1.75-.26.82-.43,1.67-.6,2.51-.35,1.83-.61,3.68-.84,5.52-.05.4-.1.79-.14,1.19-.05.52.5,1.01.99.99.59-.03.93-.44.99-1h0Z"/>
      <path class="cls-4" d="M256.17,26.25c.26-.12.52-.24.78-.36.13-.06.26-.12.39-.17.07-.03.15-.06.22-.1.03-.02.07-.03.1-.04.18-.08-.2.08-.02.01.39-.16.78-.32,1.17-.47,1.94-.76,3.94-1.42,5.98-1.81.28-.05.55-.1.84-.14.19-.03.02,0-.02,0,.08-.01.17-.02.25-.03.15-.02.29-.03.44-.04.54-.04,1.09-.05,1.63-.01.67.05,1.09-.67.95-1.25-.2-.86-.44-1.73-.71-2.57-.22-.7-.46-1.4-.75-2.08-.22-.52-.48-1.07-.89-1.46-.38-.37-1.02-.38-1.4,0-.37.37-.39,1.03,0,1.4.04.04.07.08.11.11.11.1-.13-.2-.05-.06.06.1.13.2.19.3.06.12.13.24.19.36.03.06.05.12.08.17.02.04.04.08.05.12-.06-.13-.06-.15-.02-.05.24.61.45,1.23.64,1.85.25.8.47,1.61.67,2.43.32-.42.63-.84.95-1.25-2.15-.18-4.36.36-6.4.97-1.83.55-3.61,1.24-5.35,2-.34.15-.68.3-1.01.46-.48.23-.61.92-.36,1.35.29.5.87.6,1.35.36h0Z"/>
      <path class="cls-4" d="M267.43,22.95c.75.53,1.49,1.07,2.23,1.62.15.11.3.23.45.34l.14.11c.11.09-.14-.11-.03-.02.09.07.18.14.27.21.35.28.7.55,1.05.84.67.54,1.32,1.11,1.95,1.7.29.28.58.57.85.87.06.07.12.14.19.21.02.03.05.05.07.09.13.15-.04,0-.03-.04-.01.05.24.35.28.42.27.46.89.62,1.35.36.46-.27.63-.89.36-1.35-.79-1.35-2.13-2.41-3.31-3.4-1.28-1.07-2.62-2.08-3.97-3.06-.28-.2-.56-.4-.84-.6-.44-.3-1.1-.08-1.35.36-.29.49-.09,1.04.35,1.35h0Z"/>
      <path class="cls-4" d="M253.97,47.39c1.37,1.78,2.72,3.6,4.05,5.42,2.27,3.11,4.54,6.25,6.48,9.58.39.67.76,1.34,1.08,2.05.12.28-.06-.17.01.02.03.06.05.13.07.2.04.12.09.23.12.36.03.1.05.2.07.31.05.21-.01-.28-.02-.11,0,.05,0,.09,0,.14-.01.5.46,1.04.99.99,1.56-.17,3.11-.42,4.64-.73,2.57-.51,5.26-1.16,7.55-2.48.51-.29,1-.63,1.43-1.04.32-.3.71-.69.83-1.12.13-.48.18-1.01.26-1.51.39-2.33.77-4.66,1.12-6.99.19-1.26.36-2.52.51-3.79.09-.77.2-1.57.17-2.35,0-.19-.03-.37-.06-.56-.1-.52-.73-.83-1.21-.69-.55.15-.79.69-.69,1.21.04.2-.02-.32-.01-.1,0,.06,0,.12.01.18,0,.14,0,.28,0,.42-.02.39-.05.79-.09,1.19-.05.51-.11,1.02-.18,1.53-.04.28-.07.56-.11.84.03-.19.02-.11,0,.03-.01.06-.02.13-.03.2l-.06.46c-.34,2.38-.72,4.76-1.12,7.13-.11.68-.23,1.35-.35,2.02-.01.06-.03.14-.04.2,0,.18.14-.3,0-.05-.01.02.15-.18.02-.03l-.1.11c-.09.09-.18.18-.27.27-.09.08-.17.15-.26.22-.13.11.17-.12.03-.02-.06.04-.12.09-.18.13-.46.32-.95.59-1.46.83-.13.06-.26.12-.39.18-.16.07.19-.07-.04.02-.07.03-.15.06-.22.09-.3.12-.61.23-.92.34-1.23.42-2.49.75-3.77,1.03-1.1.24-2.22.44-3.33.62-.21.03-.42.06-.63.09-.1.02-.19.03-.28.04-.17.02.06-.01.11-.02-.05,0-.09.01-.14.02-.21.03-.43.04-.63.08-.03,0-.05,0-.09.01l.99.99c.01-.48-.15-.96-.32-1.4-.27-.67-.59-1.31-.94-1.94-.87-1.57-1.85-3.07-2.85-4.55-2.09-3.1-4.29-6.12-6.54-9.1-.5-.66-.99-1.32-1.49-1.97-.32-.42-.85-.65-1.35-.36-.42.27-.69.95-.36,1.37h0Z"/>
      <path class="cls-4" d="M279.37,61c.05.34.1.68.14,1.02.01.08.02.16.03.25s.05.42,0,.05c.02.21.05.42.08.62.06.47.12.94.18,1.41.25,2.12.48,4.26.52,6.39.01.49.01.98-.02,1.47,0,.12-.02.23-.03.35-.01.12-.11.38,0,.05-.06.17-.06.37-.12.54-.15.5.18,1.1.69,1.21.53.12,1.05-.16,1.21-.69.24-.79.25-1.67.25-2.49,0-1.05-.07-2.11-.15-3.16-.17-2.09-.42-4.17-.7-6.24-.06-.44-.12-.87-.19-1.31-.08-.53-.75-.82-1.21-.69-.56.15-.77.69-.69,1.21h0Z"/>
      <path class="cls-4" d="M265.88,65.09c-.11.4-.25.8-.38,1.19-.16.47-.33.93-.51,1.39-.11.28-.22.56-.34.85-.06.15-.12.3-.19.45-.1.22.07-.18-.02.05-.04.09-.07.18-.12.27-1.52,3.51-3.44,6.86-5.69,9.95-.75,1.02-1.51,1.97-2.39,2.98-.95,1.09-1.95,2.14-3,3.13.23-.1.47-.19.7-.29-.59-.05-1.17-.11-1.76-.17-.64-.07-1.27-.14-1.91-.21-.38-.05-.76-.09-1.14-.14l-.59-.08c-.06,0-.19-.02.07.01-.05,0-.11-.02-.16-.02-.12-.02-.24-.03-.36-.05-3.66-.51-7.37-1.11-10.9-2.24-.44-.14-.87-.29-1.29-.45-.09-.04-.18-.07-.27-.11-.07-.03-.45-.15-.13-.05-.19-.06-.37-.17-.55-.25-.32-.15-.63-.32-.94-.51-.14-.09-.27-.18-.4-.28s.08.01.09.06c0-.01-.09-.07-.1-.08-.06-.05-.12-.1-.18-.15.1.23.19.47.29.7,0-.82.01-1.64.01-2.46l.03-5.91c.01-2.38.03-4.75.04-7.12l.03-6.18c0-1,.04-2.01.02-3v-.04c0-.52-.46-1.01-.99-.99-.54.03-.99.44-.99.99,0,1.1-.01,2.2-.02,3.3-.02,2.51-.03,5.01-.04,7.52-.02,2.72-.03,5.45-.04,8.17-.01,1.75-.02,3.5-.03,5.25,0,.14,0,.29,0,.44.02.62.48.93.93,1.26.97.7,2.14,1.16,3.26,1.56,2.86,1.01,5.88,1.58,8.86,2.07,2.57.42,5.15.76,7.74,1.02.46.05.94.14,1.41.13.55,0,.93-.5,1.3-.86.44-.43.87-.87,1.28-1.32.82-.87,1.6-1.78,2.35-2.72,2.53-3.15,4.69-6.59,6.43-10.24.93-1.94,1.77-3.95,2.4-6.02.03-.09.06-.19.08-.28.14-.5-.17-1.1-.69-1.21-.51-.12-1.05.16-1.2.69h0Z"/>
      <path class="cls-4" d="M232.22,80.19c-1.95,1.3-3.95,2.54-5.96,3.73-1.8,1.07-3.61,2.1-5.47,3.08-.92.48-1.85.95-2.79,1.39-.45.21-.91.42-1.37.61-.05.02-.26.11,0,0-.04.02-.07.03-.12.05-.11.05-.23.1-.34.14-.2.08-.41.16-.61.24-.83.31-1.67.6-2.54.77-.09.02-.17.03-.26.05-.04,0-.09.01-.13.02-.17.03.3-.03.06,0-.15.02-.31.03-.46.04-.15,0-.3,0-.45-.01-.27-.02.22.05.04,0-.07-.02-.14-.03-.2-.04-.34-.09-.71,0-.96.26-.28.28-.3.6-.26.96l.67,4.97c.36,2.62.71,5.25,1.07,7.87.08.59.12,1.19.24,1.77.09.43.45.62.81.79.49.23.99.44,1.49.64.93.38,1.88.71,2.84,1.02,3.69,1.17,7.52,1.9,11.35,2.43,1.39.19,2.78.36,4.18.5.37.04.75.07,1.12.1.22.02.44.05.66,0,.45-.12.9-.36,1.33-.53,1.17-.48,2.33-.97,3.49-1.48,3.14-1.37,6.25-2.84,9.24-4.53,1.41-.8,2.8-1.65,4.1-2.63.59-.44,1.19-.89,1.71-1.42.33-.34.37-.66.37-1.07l-.06-6.63c-.02-2.26-.04-4.53-.06-6.8,0-.13,0-.26,0-.39,0-.52-.45-1.01-.99-.99-.53.02-1,.44-.99.99.02,1.59.03,3.17.04,4.76.02,2.53.05,5.06.07,7.6l.02,1.76c.1-.23.19-.47.29-.7-.23.22-.47.44-.71.65-.12.1-.24.2-.36.3-.07.05-.13.11-.2.16-.13.11.03-.02.04-.04-.05.04-.11.08-.16.12-.61.46-1.25.89-1.9,1.31-1.46.93-2.98,1.77-4.53,2.57-1.54.8-3.11,1.55-4.68,2.27-.71.32-1.42.64-2.14.96-.61.27-1.27.49-1.86.8.27-.14.06-.02-.02,0-.06.03-.13.05-.2.08-.13.05-.27.11-.39.17-.23.1-.45.19-.68.28-.31.13-.63.26-.95.38-.09.03-.18.06-.26.1-.22.11.19-.07.18,0,0,.01-.42-.03-.44-.03-.98-.08-1.96-.18-2.93-.29-.36-.04-.72-.09-1.09-.13-.08-.01-.17-.02-.25-.03-.09-.01-.32-.04-.1-.01-.21-.03-.42-.06-.63-.09-.87-.12-1.74-.26-2.61-.4-3.93-.67-7.87-1.58-11.57-3.11.19.07-.13-.06-.17-.07-.1-.04-.19-.08-.28-.12-.22-.1-.45-.2-.67-.31.15.2.3.39.45.59-.27-1.63-.44-3.28-.67-4.91-.36-2.64-.71-5.27-1.07-7.9-.08-.61-.17-1.21-.25-1.82l-1.21,1.21c1.38.37,2.94-.1,4.25-.54,1.9-.64,3.72-1.51,5.51-2.41,3.5-1.78,6.88-3.79,10.19-5.89.73-.46,1.45-.93,2.17-1.41.44-.3.63-.87.36-1.35-.23-.46-.88-.68-1.33-.38h0Z"/>
      <path class="cls-4" d="M253.58,101.01c.68.37,1.51.47,2.26.52,2.02.14,4.1-.34,6-.97,1.9-.63,3.72-1.47,5.49-2.41-.17.04-.33.09-.5.13.52,0,1.01-.45.99-.99-.03-.54-.44-.99-.99-.99-.47,0-.99.39-1.41.61-.43.21-.86.42-1.29.62-.2.1-.41.19-.62.28-.2.09-.15.07-.36.15-.37.15-.75.3-1.13.44-1.17.43-2.38.78-3.6,1-.11.02-.22.04-.32.05-.06.01-.13.02-.19.03-.22.04.24-.03.02,0-.23.03-.45.05-.68.07-.37.03-.74.04-1.11.02-.15,0-.29-.02-.44-.03-.06,0-.12-.01-.18-.02-.04,0-.07-.01-.11-.01-.15-.02.28.04.13.02-.21-.04-.42-.07-.62-.12-.14-.04-.28-.09-.43-.14s.32.14.12.05l-.03-.02c-.47-.26-1.08-.12-1.35.36-.27.44-.12,1.08.35,1.34h0Z"/>
      <path class="cls-4" d="M233.58,110.58v2.64c0,.52.45,1.01.99.99.54-.03.99-.44.99-.99v-2.64c0-.52-.45-1.01-.99-.99-.54.03-.99.44-.99.99Z"/>
    </g>
  </g>
  <path class="cls-2" d="M132.5,187.26c-62.63,3.16-104.78-33.16-113.17-40.7l207.77,232.07v-229.67c-10.42,9.01-44.04,35.76-94.6,38.31Z"/>
  <polygon class="cls-2" points="434.86 378.63 434.29 378.63 434.09 378.63 227.09 378.63 434.23 150.23 434.86 378.63"/>
  <path class="cls-7" d="M227.09,613.89v-235.26s138.75,154.82,138.75,154.82c-6.83,12.57-18.52,30.06-37.77,45.72-40.1,32.62-85.26,34.73-100.98,34.72Z"/>
  <path class="cls-8" d="M227.09,378.63H20.09c-.7,15.48-1.4,30.97-2.11,46.45,3.03,17.65,11.53,51.31,38.68,81.57,10.38,11.57,21.16,20.05,30.55,26.21"/>
  <line class="cls-7" x1="87.22" y1="532.86" x2="227.09" y2="378.63"/>
  <g>
    <path class="cls-3" d="M257.36,479.08l-31.59-109.46-38.14,109.46h-26.75l-38.28-118.36c-2.33-7.28-4.27-12.43-5.78-15.31-1.39-2.64-2.84-4.6-4.29-5.81-.97-.8-3.06-2-7.46-3.13l-2.63-.67v-13.87h68.72v14.01l-2.79.58c-7.04,1.46-9.64,3.15-10.56,4.03-1.4,1.34-2.12,3.56-2.12,6.61,0,2.57.29,5.3.87,8.13.6,2.95,1.52,6.43,2.73,10.37l21.31,69.23,37.5-112.95h27.21l31.82,112.97,23.8-66.13c1.42-3.87,2.6-7.57,3.5-11.03.86-3.29,1.29-6.38,1.29-9.19,0-3.45-.82-5.98-2.52-7.71-1.81-1.85-5.32-3.34-10.15-4.33l-2.8-.57v-14.01h61.53v13.89l-2.65.66c-3.27.82-4.94,1.52-5.76,1.96-1.11.59-2.25,1.51-3.39,2.74-1.2,1.29-2.6,3.41-4.17,6.31-1.65,3.05-3.77,7.88-6.3,14.37l-46.03,117.23h-26.11Z"/>
    <path class="cls-1" d="M348.28,325.43v7.66c-2.92.73-5.11,1.48-6.56,2.27-1.46.78-2.89,1.93-4.3,3.44-1.41,1.51-2.97,3.86-4.69,7.03-1.72,3.18-3.88,8.1-6.48,14.77l-45.16,115h-21.09l-33.91-117.5-40.94,117.5h-21.72l-37.5-115.94c-2.4-7.5-4.4-12.79-6.02-15.86-1.62-3.07-3.33-5.36-5.16-6.88-1.82-1.51-4.77-2.79-8.83-3.83v-7.66h61.72v7.66c-6.04,1.25-10.13,2.89-12.27,4.92-2.14,2.03-3.2,5.08-3.2,9.14,0,2.81.31,5.76.94,8.83.62,3.07,1.56,6.64,2.81,10.7l24.53,79.69,40.16-120.94h22.03l34.06,120.94,27.5-76.41c1.46-3.96,2.66-7.73,3.59-11.33s1.41-6.95,1.41-10.08c0-4.38-1.17-7.76-3.52-10.16-2.34-2.39-6.33-4.17-11.95-5.31v-7.66h54.53M355.28,318.43h-68.53v20.37l5.6,1.14c5.72,1.17,7.74,2.73,8.35,3.35,1.01,1.03,1.52,2.8,1.52,5.26s-.4,5.31-1.18,8.31c-.87,3.35-2.01,6.94-3.39,10.68v.02s-.02.02-.02.02l-20.1,55.85-28.14-99.9-1.44-5.1h-32.38l-1.59,4.79-33.26,100.17-18.09-58.77c-1.18-3.83-2.07-7.21-2.64-10.04-.53-2.6-.8-5.1-.8-7.43,0-1.15.13-3.22,1.03-4.07.18-.17,1.95-1.71,8.86-3.14l5.58-1.15v-20.36h-75.72v20.09l5.26,1.35c4.25,1.09,5.75,2.14,6.11,2.44.75.62,1.96,1.95,3.42,4.74.97,1.85,2.72,5.91,5.54,14.73l37.51,115.96,1.57,4.85h31.79l1.64-4.7,33.7-96.73,27.81,96.37,1.46,5.06h31.13l1.74-4.44,45.16-115c2.49-6.37,4.55-11.07,6.13-13.99,1.87-3.46,3.09-4.99,3.66-5.59.87-.94,1.71-1.62,2.47-2.03.43-.23,1.76-.85,4.96-1.65l5.3-1.33v-20.12h0Z"/>
  </g>
</svg>