<?xml version="1.0" encoding="UTF-8"?>
<svg id="Capa_1" data-name="Capa 1" xmlns="http://www.w3.org/2000/svg" viewBox="0 0 422.9 236.59">
  <defs>
    <style>
      .cls-1 {
        fill: #e7bf04;
      }

      .cls-1, .cls-2 {
        stroke-width: 0px;
      }

      .cls-2 {
        fill: #075329;
      }
    </style>
  </defs>
  <path class="cls-2" d="M169.01,122.1c-.84,4.27-1.63,8.33-2.45,12.4-4.2,20.81-8.33,41.64-12.64,62.43-3.24,15.61-12.72,25.14-28.49,27.96-10.72,1.92-21.46,1.79-32.09-.88-.43-.11-.85-.23-1.27-.37-.11-.04-.19-.15-.46-.38.96-3.84,1.95-7.78,2.91-11.63,3.63,1.02,7.07,2.22,10.6,2.94,6.17,1.27,12.4,1.25,18.58-.16,8.54-1.95,14.23-7.1,16.71-15.51,1.4-4.76,2.2-9.71,3.55-14.49,1.7-5.99,3.69-11.9,5.55-17.85.18-.58.32-1.17.16-1.89-.47.79-.95,1.58-1.42,2.37-4.4,7.26-9.19,14.22-15.94,19.51-5.52,4.33-11.99,5.78-18.89,5-6.57-.74-11.3-4.88-12.43-11.9-3.03-18.86,1.22-35.72,15.14-49.41,5.76-5.67,13.08-8.53,20.98-9.6,10.59-1.43,21.12-.44,31.9,1.45ZM154.24,131.21c-5.02-1.56-9.97-1.64-14.92-1.03-5.31.66-10.24,2.55-13.96,6.48-9.87,10.43-13.34,23.05-11.58,37.08.74,5.89,4.13,8.08,9.45,7.09,4.35-.81,7.69-3.41,10.62-6.51,6.17-6.53,10.58-14.23,14.35-22.31,3.05-6.54,5.06-13.41,6.04-20.8Z"/>
  <path class="cls-2" d="M0,190.45c2.83-4.89,5.41-9.36,8.01-13.82,11.49-19.71,22.98-39.42,34.46-59.13,3.84-6.59,7.7-13.16,11.5-19.78.57-1,1.22-1.38,2.38-1.36,4.28.07,8.56.03,13.06.03,5.59,31.32,11.15,62.54,16.77,94.04-4.66,0-9.05.04-13.44-.07-.39,0-.99-.97-1.09-1.56-1.05-6.28-2.06-12.56-2.96-18.86-.18-1.27-.68-1.5-1.81-1.5-12.86.03-25.73.04-38.59-.02-1.29,0-1.89.5-2.47,1.54-3.54,6.32-7.16,12.6-10.71,18.92-.61,1.09-1.28,1.63-2.64,1.59-4.01-.11-8.03-.04-12.48-.04ZM66.85,158.14c-2.72-15.62-5.42-31.05-8.05-46.16-8.64,15.13-17.43,30.52-26.35,46.16h34.4Z"/>
  <path class="cls-2" d="M231.15,166.72c.21-16.46,5.78-30.04,19.17-39.54,11.2-7.95,23.76-9.25,36.62-5.02,8.73,2.87,13.09,9.91,13.85,18.82,1.11,12.96-1.56,25.05-10.22,35.18-11.34,13.28-25.74,18.09-42.78,14.44-9.98-2.14-15.68-9.12-16.43-19.33-.12-1.63-.15-3.28-.21-4.55ZM272.42,130.67c-6.59,0-11.82,1.8-16.04,5.88-9.38,9.05-12.86,20.3-11.26,33.04.89,7.04,4.91,10.44,11.93,11.3,9.03,1.11,16.09-2.47,21.75-9.25,6.34-7.59,8.64-16.54,8.39-26.22-.06-2.4-.58-4.94-1.51-7.15-2.59-6.14-8.02-7.47-13.27-7.59Z"/>
  <path class="cls-2" d="M411,177.77c0,3.11.08,6-.07,8.89-.03.52-.91,1.25-1.54,1.46-6.94,2.23-14.05,3.64-21.35,3.52-4.26-.07-8.59-.31-12.74-1.16-7.54-1.54-12.57-6.37-13.55-13.99-2.45-19.15,2.03-36.3,17.36-49.04,9.97-8.29,21.87-9.42,33.98-5.54,9.84,3.15,12.85,15.26,6.45,24.14-3.34,4.63-8.09,7.32-13.3,9.27-7.4,2.76-15.12,3.84-22.96,4.21-2.33.11-4.67.1-6.99.31-.52.05-1.39.79-1.4,1.24-.13,4.01-.39,8.05-.03,12.03.37,4.22,3.05,6.82,7.23,7.66,8.82,1.77,17.43.63,25.91-2.01.95-.29,1.89-.61,3.01-.98ZM376.55,150.69c8.47-.2,16.44-.35,24.09-3.17,2.76-1.02,5.27-2.41,7.15-4.74,4.02-5.01,1.85-11.51-4.38-12.98-3.58-.84-7.18-.62-10.59.75-8.97,3.62-13.19,11.13-16.27,20.13Z"/>
  <path class="cls-2" d="M313.98,190.45c4.05-20.02,8.03-39.75,12.06-59.7h-14.92c.71-3.34,1.38-6.43,2.09-9.74,3.91,0,7.74.02,11.57,0,3.86-.03,3.02.46,3.77-3.12,1.13-5.39,2.45-10.69,5.22-15.5,5.14-8.92,13.18-13.47,23.16-14.24,5.41-.42,10.91.36,16.37.62.35.02.7.19,1.25.34-1.05,3.38-2.07,6.66-3.11,10.01-2.66-.39-5.19-.85-7.73-1.11-4.47-.45-8.82.03-12.82,2.29-3.1,1.75-5.04,4.5-6.42,7.7-1.76,4.08-2.51,8.39-3.17,13.02h19.83c-.78,3.15-1.42,6.02-2.26,8.83-.12.42-1.14.79-1.75.8-5.36.07-10.72.11-16.08.03-1.45-.02-2.05.32-2.35,1.85-3.45,17.43-6.98,34.84-10.5,52.25-.37,1.84-.34,4.27-1.49,5.29-1.05.93-3.47.34-5.28.36-2.38.03-4.75,0-7.42,0Z"/>
  <path class="cls-2" d="M199.74,144.16c2.19-3.52,4.28-7.11,6.6-10.53,2.8-4.13,5.84-8.07,10.11-10.85,4.1-2.67,8.61-3.31,13.66-2.91-.86,4.01-1.69,7.91-2.57,12.01-3.78-.53-7.19.27-10.24,2.44-4.19,2.99-7.15,7.05-9.88,11.31-7.16,11.18-11.1,23.51-13.22,36.52-.39,2.36-.92,4.7-1.48,7.02-.12.48-.66,1.21-1.03,1.21-3.95.09-7.91.05-12.15.05.68-3.52,1.29-6.84,1.95-10.14,3.22-16.06,6.46-32.11,9.69-48.16.62-3.09,1.3-6.16,1.85-9.26.21-1.2.64-1.7,1.94-1.67,3.64.08,7.28.03,11.07.03-1.23,8.03-3.93,15.41-6.31,22.93Z"/>
  <path class="cls-2" d="M261.88,2.71c5.26,1.14,8.56,2.13,10.63,2.85,3.93,1.36,4.41,1.53,4.41,1.53,2.56.93,3.13,1.2,4.3,1.48,2.37.58,4.24.48,5.08.46,6.91-.15,17.65,3.41,19.79,4.12,4.36,1.44,7.46,2.88,11.2,4.61,4.85,2.24,8.4,4.22,11.63,6.03,1.58.89,4.99,2.82,12.73,7.66,7.44,4.65,8.55,5.6,13.79,8.81,3.87,2.37,8.17,4.86,12.91,7.39,3.59,0,7.18.01,10.77.02.02-.04.16-.34.03-.51-.04-.05-.1-.07-.19-.11-.19-.08-.31-.08-.44-.11-.05-.01-.1-.02-.5-.2-.28-.13-.47-.22-.58-.27-.19-.09-.38-.17-.75-.34-.62-.27-.71-.31-.96-.42-.33-.15-.38-.18-.75-.35-.53-.25-.94-.42-1.64-.73-.47-.2-.58-.25-1-.43-.27-.12-.53-.23-.83-.37-.13-.06-.28-.13-.43-.2-.97-.46-1.56-.78-2.69-1.39-2.12-1.14-1.94-1.01-3.11-1.65-.75-.41-1.43-.79-2.49-1.41-2.17-1.26-3.77-2.22-6.47-3.84-1.26-.75-2.51-1.51-3.77-2.26-2.09-1.26-4.18-2.51-6.27-3.77-4.27-2.56-7.65-4.59-10.41-6.19,0,0-10.16-5.87-20.59-10.57-1.41-.64-4.28-1.93-8.16-3.43-1.05-.4-2.35-.91-4.06-1.51-3.59-1.26-6.23-1.97-10.25-3.05-4.18-1.12-6.38-1.59-8.56-1.88-.89-.12-1.87-.22-1.87-.22-1.51-.16-3.18-.28-5.79-.36-2.51-.07-4.55-.14-7.35-.03-1.97.08-4.48.25-7.39.62Z"/>
  <path class="cls-1" d="M129.58,81.72c12.04-7.9,21.56-14.55,28.05-19.2,9.95-7.11,14.39-10.63,24.05-17.04,3.25-2.16,7.12-4.67,14.89-9.86,3.11-2.08,6.23-4.14,9.34-6.22,4.51-3.02,6.99-4.71,10.84-7.02,2.23-1.34,4.05-2.38,5.17-3,3.37-1.88,4.71-2.49,12.86-6.57,5.98-3,6.62-3.36,8.81-4.34,2.83-1.27,1.66-.63,8.07-3.32,1.01-.42,2.28-.96,4.09-1.44,1.71-.45,3.05-.63,3.99-.74,3.94-.48,6.9-.84,11.21-.94,0,0,5.16-.12,11.03.4,1.08.1,2.06.21,3.13.38,1.05.17,1.88.35,3.89.83,2.78.66,4.17,1,6.26,1.56,1.36.37,2.76.75,4.63,1.34.87.27,2.51.8,4.91,1.69,3.8,1.4,6.69,2.65,8.74,3.54,4.64,2.02,8.12,3.73,9.48,4.4,2.84,1.42,4.94,2.55,6.89,3.61,1.04.57,4.14,2.25,8.33,4.69,2.03,1.18,2.37,1.41,9.32,5.59.81.49,2.46,1.47,5.74,3.45,7.69,4.61,9.63,5.77,12.61,7.4.29.16.26.14.81.43.65.34,1.89,1.04,3.55,1.87.38.19.65.32.71.35.77.37,1.33.62,1.99.91.93.41,1,.44,1.25.55.32.14.55.24.63.28.74.33,1.08.49,1.94.86.54.24.46.2.67.29.44.2.78.38,1.08.47.13.04.25.1.38.12.05,0,.09.03.17.06.04.02.08.03.11.08.02.03,0,.04.02.05.04.04.12,0,.26,0,0,0,0,0,.02,0,.03,0,.06,0,.17,0,.15,0,.23-.01.45,0,.24,0,.3.02.52,0,.23,0,.34-.01.39-.05.17-.16,0-.7-.32-1.03-.27-.28-.6-.35-.76-.38-1.95-.63-4.79-1.63-8.11-3.13-5.76-2.6-9.53-5.21-12.73-7.23-4.99-3.15-9.36-5.69-18.1-10.77-9.2-5.35-14.04-8.17-21.11-11.49-9.16-4.3-16.09-6.64-17.97-7.26-5.81-1.93-11.35-3.73-18.93-4.72-3.11-.41-6.07-.54-11.98-.8-6.79-.3-11.65-.51-16.64-.3-10.45.44-18.36,2.61-22.37,3.72-9.19,2.53-17.74,6.39-37.65,18.54-21.77,13.29-38.43,25.09-59.53,39.42-4.39,2.98-6.24,4.22-10.63,7.23-5,3.43-6.04,4.19-8.28,5.65-2.74,1.78-6.8,4.3-12,7.09h25.68Z"/>
  <path class="cls-1" d="M137.78,81.72h21.69c1.9-1.3,4.67-3.23,7.99-5.6,2.32-1.66,5.03-3.62,11.49-8.43,15.45-11.5,14.81-11.07,17.95-13.36,3.63-2.65,7.16-5.18,12.65-9.11,4.53-3.25,6.8-4.87,7.88-5.63,11.87-8.33,21.34-13.85,23.55-15.13,4.75-2.75,7.47-4.16,12.69-6.85,5.65-2.91,9.12-4.52,13.79-5.79.79-.22,2.78-.74,5.27-1.16,4.09-.7,10.6-1.3,18.91.03,5.48.88,9.85,2.3,12.22,3.1,1.26.42,2.16.76,3.34,1.2,3.03,1.13,7.64,2.86,12.82,5.5,1.16.59,3.79,2.1,9.06,5.11,2.52,1.44,5.03,2.89,6.26,3.61,8.45,4.92,13.28,8.38,20.11,12.57,3.67,2.25,9.02,5.4,15.8,8.89.73,0,1.46.01,2.2.02.04-.03.26-.24.26-.57s-.22-.54-.26-.57c-.42-.1-.92-.22-1.48-.37-.83-.21-1.3-.33-1.74-.53-.34-.15-.68-.33-.68-.33-.12-.06-.22-.12-.41-.23-.38-.21-.48-.28-.75-.43-.12-.07-.3-.16-.52-.28-6.92-3.71-12.18-6.93-15.79-9.26-1.57-1.01-2.84-1.86-6.04-3.9-1.75-1.12-5.93-3.78-10.91-6.8-1.58-.96-3.27-1.97-5.37-3.17-.37-.21-1.45-.82-2.87-1.61-1.3-.72-2.81-1.54-4.73-2.53-1.63-.83-2.82-1.4-4.25-2.08-2.17-1.03-3.58-1.71-5.58-2.55-1.99-.84-3.38-1.35-3.78-1.5-1.13-.41-1.99-.7-2.95-1.01-.1-.03-2.04-.67-4-1.24-.58-.17-.98-.28-1.53-.43-.44-.11-.6-.15-1.14-.29-.46-.12-.58-.16-.97-.26,0,0-.48-.12-1.01-.25-1.07-.25-2.16-.42-2.35-.45-3.47-.56-5.2-.84-6.8-1-1.26-.13-2.36-.2-3.66-.29-1.18-.08-1.26-.07-2.74-.17-2.91-.18-3.29-.28-4.76-.32-.92-.03-2.42-.07-3.84-.06-5.57.04-11.67.07-17.78,1.2-6.13,1.13-10.33,2.98-16.3,5.62-1.56.69-3.01,1.37-4.38,2.05-5.17,2.57-8.89,4.85-10.82,6.05-11.1,6.91-16.66,10.36-20.04,12.64-22.64,15.29-39.99,28.53-49.33,34.74-.89.59-5.15,3.41-10.73,7.35-1.46,1.03-2.62,1.86-3.19,2.28l-2.43,1.58Z"/>
  <path class="cls-2" d="M280.67,12.82c1.51.32,3.65.94,6.27,2.21,1.38.68,4.34,2.1,6.18,2.6.11.03.23.06.23.06.42.1,1.03.22,3.52.66,4.22.75,4.34.75,5.1.9,2.48.49,4.34,1.2,8.04,2.62,1.72.66,4.2,1.66,7.18,3.05,1.57.73,5.04,2.39,9.41,4.92,1.47.85,1.44.87,7.09,4.4,7.42,4.64,7.21,4.44,9.57,5.98,3.83,2.5,4.38,3.02,8.47,5.72,3.31,2.18,6.06,3.88,7.84,4.97.06.04.13.08.19.13,6.81-.02,9.68-.02,10.01,0,.15,0,.3,0,.44,0,.48-.02.6-.07.66-.09.09-.04.22-.12.36-.29-7.64-3.97-12.43-6.81-15.01-8.41-1.16-.71-3.75-2.34-6.55-4.12-2.28-1.45-4.17-2.68-5.48-3.53-3.44-2.19-6.31-3.91-8.34-5.1-4.25-2.5-9.76-5.57-12.3-7.05-.51-.3-.83-.48-1.46-.84-1.12-.64-1.73-.96-2.4-1.3-.12-.06-.31-.15-.67-.33-.76-.37-1.73-.83-2.31-1.11-1.33-.62-2.53-1.13-3.31-1.46-2.08-.88-3.72-1.5-6.04-2.37-.91-.34-1.36-.51-1.8-.67-3.21-1.16-5.78-1.87-6.5-2.07-1.29-.35-4.18-1.13-7.81-1.68-3.12-.48-7.42-.88-12.63-.63-.79.04-1.45.1-1.96.14-.62.06-1.14.12-1.44.16-.11.01-.13.02-.86.11-.79.1-1.13.06-1.15.17-.03.12.41.31.52.36,2.02.87,3.49,1.1,3.49,1.1,1.16.18,2.29.53,3.43.78Z"/>
  <path class="cls-1" d="M164.65,82.58s.17.05.46.02c4.61-.02,9.25-.02,13.92,0,1.26,0,2.51.01,3.76.02,13.66-10.12,24.46-18.36,31.69-23.94,4.02-3.1,15.81-12.21,29.65-21.64,0,0,5.14-3.5,15.83-9.64,4.13-2.37,7.93-4.44,13.15-6.26,2.12-.74,4.21-1.47,7.12-2.01,6.96-1.31,12.55-.43,15.73.1,5.21.86,9.21,2.36,12.29,3.51,2.16.81,3.93,1.58,5.2,2.15,2.5,1.18,6.44,3.11,11.15,5.74,9.17,5.12,13.7,8.69,25.91,16.49,2.8,1.79,6.98,4.43,12.15,7.55.87,0,1.73,0,2.6,0,.12-.58,0-.9-.14-1.08-.38-.51-1.07-.22-2.3-.72-.24-.1-.56-.29-1.22-.68-.67-.4-1.1-.68-1.54-.97-.68-.45-1.22-.77-2.29-1.43-1.04-.64-1.65-.99-2.69-1.68-.15-.1-.11-.07-.33-.22-1.43-.96-2.02-1.3-3.18-2.06-.19-.13-.59-.39-1.37-.92-1.49-1.01-2.59-1.76-2.88-1.96,0,0-2.1-1.43-4.77-3.2-2.51-1.66-3.8-2.38-7.28-4.5-6.95-4.23-5.96-3.84-9.16-5.69-5.33-3.07-9.28-4.85-10.09-5.21-2.69-1.2-5.76-2.4-5.95-2.47-1.04-.4-2.36-.9-2.56-.97-.86-.32-1.3-.48-1.67-.61-.81-.27-1.98-.67-3.47-.98-.39-.08-.27-.05-1.54-.29-.65-.13-1.19-.23-1.9-.37-.79-.16-.96-.2-1.78-.35,0,0-1.73-.33-3.38-.61-16.25-2.76-28.1.02-28.1.02-3.7.87-6.47,1.92-8.66,2.76-2.6.99-6.4,2.59-13.45,6.56-7.3,4.1-12.59,7.65-13.23,8.07-15.99,10.76-33.63,23.96-38.43,27.54-5.04,3.77-12.97,11.38-25.82,19.07-.38.23-.69.41-.9.53-.36.15-.53.26-.51.31Z"/>
  <path class="cls-2" d="M280.03,19.19c3,.85,5.44,1.58,7.21,2.12,1.69.52,2.28.71,3,.98,1.88.7,2.69,1.17,5.06,2.18.75.32,1.89.8,3.32,1.35,4.94.69,8.53,1.61,9.87,2.01,2.07.63,4,1.4,4,1.4,0,0,0,0,0,0,.91.35,2.25.89,3.73,1.56,0,0,.72.33,1.81.87,0,0,2.06,1.03,4.08,2.19,4.88,2.82,25.21,16.15,26.27,16.85.86.57,2.57,1.68,4.82,3.02,1.01.6,1.82,1.07,2.27,1.32h7.14v-.22l.02-.14c-1.52-.92-3.47-2.11-5.73-3.51-1.98-1.23-5.43-3.37-9.76-6.2-2.72-1.78-6.51-4.28-7.97-5.26-.3-.2-1.28-.85-2.59-1.71,0,0-1.55-1.02-2.81-1.83-3.96-2.56-8.31-5.03-8.31-5.03-2.02-1.15-4.96-2.81-8.82-4.67-4.28-2.06-8.48-4.08-14.36-5.76-2.16-.62-5.75-1.52-9.89-1.97-3.03-.33-5.17-.28-6.07-.25-1.36.05-2.56.17-3.27.25-1.16.13-2.18.29-3.03.45Z"/>
  <path class="cls-1" d="M192.49,81.72h14.65c4.98-3.79,12.63-9.62,21.99-16.83,8.97-6.91,12.54-9.71,19.58-15.01,15.24-11.46,22.53-16.41,32.82-20.38,3.03-1.17,5.58-1.97,7.27-2.47,1.43-.17,3.32-.33,5.53-.37,0,0,3.1-.05,5.91.22,8.57.81,16.88,5.43,21.48,7.99,1.16.65,2.13,1.23,4.07,2.38,6.05,3.61,10.29,6.45,11.47,7.25,3.85,2.6,3.71,2.72,6.58,4.63,4.91,3.27,9.13,5.62,11.99,7.12.12.11.23.22.35.34.13.12.26.23.38.35.63.02,1.26.04,1.89.06.07-.16.18-.48.14-.89-.02-.25-.09-.44-.16-.57-.75,0-1.51-.02-2.26-.02-.35-.22-.91-.56-1.6-.98-.94-.57-1.7-1.02-2.08-1.24-.12-.07-.19-.11-.24-.14-1.19-.7-2.53-1.58-3.07-1.93-2.22-1.46-2.41-1.54-3.95-2.58-.5-.33-.84-.57-1.07-.73-4.49-3.05-9.91-6.49-11.32-7.38-.59-.37-1.14-.72-1.14-.72-1.34-.84-2.09-1.29-5.43-3.4-1.54-.97-2.2-1.39-3.27-2.02-2.71-1.61-4.89-2.68-5.45-2.96-1.9-.93-4.54-2.2-8.16-3.32-2.71-.84-4.96-1.29-6.53-1.59-.51-.1-2.13-.41-4.15-.68-5.98-.81-11.08-.72-12.71-.67-4.85.14-7.65.21-11.39,1.17-1.4.36-4.11,1.14-9.98,4.12-7.14,3.62-12.18,7.06-12.68,7.41-18.78,12.91-28.3,20.26-28.3,20.26-7.2,5.56-17.77,13.63-31.18,23.6Z"/>
  <path class="cls-2" d="M289.09,27c2.57.74,6.73,2.03,10.26,3.59,2.23.99,3.35,1.48,4.19,1.94,1.26.69,2.06,1.22,3.47,1.7,1.34.45,2.4.56,2.68.6,4.32.54,13.04,5.35,13.04,5.35s7.32,3.96,17.55,11.23c.49.35,2.13,1.52,4.4,3.03,1.69,1.12,3.08,2,3.95,2.54h7.91s.02-.02.02-.02c0-.02,0-.05-.04-.06-.01-.01-.03-.03-.06-.05-.2-.18-.32-.3-.46-.43-.09-.08-.1-.12-.18-.18-.05-.03-.06-.04-.21-.11-.11-.06-.11-.06-.25-.13-.12-.06-.13-.07-.23-.12-.13-.07-.22-.12-.26-.14-.24-.14-.95-.52-1.3-.7-.49-.27-.98-.54-1.94-1.09-.53-.3-.8-.45-1.14-.65-.38-.22-.97-.57-1.67-1-.8-.49-.89-.57-2.02-1.27-.6-.37-.63-.38-.99-.61-1.03-.64-1.8-1.16-2.24-1.47-1.7-1.16-2.69-1.96-4.65-3.31-.93-.64-2.57-1.76-4.65-3.11-.25-.16-1.38-.9-2.95-1.88-.94-.59-3.11-1.95-5.46-3.34-3.7-2.19-6.41-3.81-10.2-5.63-1.68-.81-4.32-2.02-7.19-2.98-1.91-.64-3.41-.99-3.9-1.1-1.3-.3-2.29-.45-2.6-.5-2.44-.38-4.32-.4-6.13-.43-1.94-.03-3.42.05-4.14.1-1.03.06-1.92.15-2.63.23Z"/>
  <path class="cls-1" d="M216.15,81.15h12.06c9.53-7.33,17.12-13.29,22.16-17.28,0,0,10.44-8.2,25.91-19.15,0,0,3.74-2.65,10.72-6.48.46-.25,2.33-1.27,4.91-2.27,1.99-.77,2.93-1.01,3.67-1.14,1.49-.26,2.77-.24,3.54-.22,1.46.03,2.19.2,3.82.13.24,0,.61-.03,1.14-.02,0,0,1.04.01,2.11.15,1.77.23,3.93.95,5.23,1.39,2.3.78,3.46,1.18,4.56,1.63,3.5,1.43,6.05,2.98,7.57,3.92,7.01,4.32,11.59,7.47,11.59,7.47,3.48,2.36,8.51,5.74,14.78,9.8.53.01,1.06.02,1.6.03.03-.01.25-.12.29-.34.05-.27-.19-.5-.39-.58-.21-.09-.41-.03-.46-.02-.32.08-.97-.1-2.39-1.22-1.06-.67-2.62-1.66-4.49-2.9-4.74-3.13-5.35-3.77-9.63-6.66-5.23-3.52-8.8-5.58-10.46-6.51-1.65-.93-3.1-1.7-4.65-2.45-1.99-.98-3.86-1.9-6.28-2.76-1.61-.58-4.09-1.35-7.18-1.88-3.44-.6-6.05-.61-9.1-.64-2.32-.02-3.82.08-6.17.23-2.63.17-3.83.34-5.2.73-1.36.39-2.42.87-3.1,1.21-1.76.75-4.31,1.89-7.31,3.45-7.14,3.71-11.43,6.98-19.47,12.89-12.65,9.29-10.27,7.23-18.9,13.69-6.83,5.11-12.95,9.87-18.32,14.14-.73.55-1.46,1.1-2.19,1.64Z"/>
  <path class="cls-2" d="M296.33,34.73c2.62.87,5.42,1.91,8.34,3.16,2.39,1.02,4.62,2.08,6.68,3.14,3.55,1.01,6.32,2.19,8.22,3.09,4.5,2.14,7.81,4.53,11.79,7.39,1.08.77,2.85,2.09,6.4,4.73,1.66,1.23,3.02,2.25,3.94,2.93,2.75.02,5.5.03,8.25.05,0-.05-.02-.09-.03-.14-.43-.28-.85-.55-1.28-.83-.34-.22-.68-.44-1.02-.67-3.9-2.52-6.91-4.54-8.99-5.96-1.08-.73-2.8-1.91-5.27-3.55-2.06-1.37-3.52-2.31-4.59-3-.96-.62-1.82-1.15-2.46-1.56-1.38-.87-2.07-1.3-2.81-1.75-1.69-1.03-3.08-1.8-3.53-2.05-1.36-.74-3.97-2.02-8.22-3.32-1.38-.61-3.23-1.23-5.46-1.51-.98-.12-1.88-.16-2.69-.14-1.66-.17-3.5-.24-5.48-.15-.61.03-1.21.07-1.79.13Z"/>
  <path class="cls-1" d="M235.95,81.72h10.12c7.04-5.86,14.07-11.73,21.11-17.59.84-.7,4.61-3.72,9.67-7.59,3.97-3.04,6.56-4.84,11.73-8.44.92-.64,3.78-2.62,7.69-4.56,1.79-.89,3.35-1.55,5.33-1.98,0,0,2.13-.46,4.43-.45,5.29.02,10.77,2.72,12.49,3.59,4.1,2.07,8.24,4.56,19.68,12.79,2.6,1.87,4.71,3.42,6.09,4.43.57,0,1.13-.01,1.7-.02.17-.11.27-.29.26-.49-.01-.29-.25-.44-.27-.45-2.34-.61-3.58-1.28-4.28-1.79-.08-.06-.3-.22-.6-.45-1.11-.82-1.92-1.43-2.27-1.69,0,0-.55-.42-2.92-2.18-3.93-2.93-5.9-4.39-8.25-5.96-2.66-1.77-5.15-3.42-8.73-5.07-2.05-.94-3.64-1.51-4.29-1.73-2.47-.85-4.64-1.37-6.33-1.69-2.98-.46-7.14-.77-11.97,0h0c-5.57.76-9.55,3.16-11.42,4.31-8.65,5.34-13.85,9.38-13.85,9.38-8.91,6.93-13.36,10.4-17.43,13.66-4.12,3.3-10.17,8.12-17.69,13.96Z"/>
  <path class="cls-1" d="M252.63,82.01c1,.08,2.07.14,3.21.14,1.35,0,2.62-.05,3.78-.14.78-.58,2-1.51,3.49-2.68,3.67-2.87,6.29-5.1,7.23-5.89,5.36-4.53,11.08-8.84,15.22-11.97,3.02-2.28,7.2-5.37,12.3-8.95,1.12-.77,2.56-1.62,4.32-2.35,1.21-.5,2.34-.84,3.34-1.08,1.37-.2,3.33-.36,5.65-.06,1.71.22,3.83.71,7.01,2.2,3.43,1.61,5.49,3.16,9.52,6.1,2.03,1.48,5.29,3.85,9.48,6.83.09.11.17.22.26.32.44,0,.89.02,1.33.02.19-.13.4-.33.37-.51-.04-.28-.6-.4-.76-.44-.62-.15-1.6-.63-3.12-2.03-.72-.52-6.15-4.45-10.34-7.32-.76-.52-1.97-1.35-3.65-2.3-.15-.08-1.86-1.05-3.37-1.72-4.61-2.07-9.32-2.34-10.66-2.41-1.99-.1-4.57-.23-7.76.57-3.65.91-6.17,2.56-7.4,3.38-12.78,8.51-25.12,18.8-25.12,18.8-3.27,2.72-8.17,6.73-14.35,11.51Z"/>
  <path class="cls-2" d="M306.37,48.98c.72.24,1.76.62,2.99,1.13,1.42.59,5.98,2.57,13.72,8.46,1.93,1.47,4.42,3.46,7.23,5.96,2.38-.02,4.76-.03,7.13-.05-.1-.12-.2-.23-.29-.35-2.48-1.76-4.5-3.2-5.97-4.27-1.23-.89-2.2-1.6-2.2-1.6-2.45-1.79-3-2.22-4.16-3.03-1.17-.82-1.87-1.31-2.87-1.93-1.43-.89-3.3-2.03-5.89-3-.86-.32-1.98-.74-3.5-1.04-2.57-.52-4.75-.44-6.21-.28Z"/>
  <path class="cls-2" d="M323.15,53.02c-1.46-.93-1.96-1.18-3.38-2.09-1.58-1.01-2.45-1.67-3.34-2.29-3.93-2.74-7.62-4.47-8.76-4.99-1.36-.63-3.22-1.42-5.52-2.19,1.82-.33,3.36-.37,4.48-.33,2.8.1,4.91.74,6.1,1.12,1.25.39,2.27.82,3,1.15.67.29,1.64.73,2.8,1.3.74.36,1.44.73,2.1,1.09,2.06,1.11,3.8,2.22,5.19,3.13,3.28,2.13,5.57,3.75,5.57,3.75,5.26,3.7,10.36,7.41,12.91,9.27-2.86,0-5.72,0-8.58,0-.38-.3-.94-.74-1.65-1.26-1.02-.76-1.79-1.29-2.2-1.58-2.63-1.83-2.52-1.82-5.19-3.67-1.7-1.18-2.55-1.77-3.53-2.39Z"/>
  <g>
    <path class="cls-1" d="M233.73,211.16c-.42-.21-.94-.41-1.55-.58-.62-.17-1.24-.26-1.89-.26-1.9,0-3.43.72-4.6,2.15-1.17,1.44-1.96,3.32-2.38,5.66-.17.86-.26,1.7-.26,2.54,0,1.53.36,2.71,1.07,3.52.71.82,1.81,1.23,3.29,1.23s2.98-.28,4.36-.84v2.95c-.86.34-1.75.59-2.68.75s-1.79.24-2.6.24c-2.46,0-4.27-.65-5.41-1.95-1.14-1.3-1.72-3.11-1.72-5.44,0-.99.11-2.09.33-3.29.3-1.63.76-3.1,1.41-4.4.64-1.3,1.43-2.4,2.38-3.32.95-.91,2.03-1.61,3.23-2.09,1.21-.48,2.51-.72,3.92-.72.84,0,1.63.07,2.38.22.75.15,1.44.36,2.05.62l-1.33,3.01Z"/>
    <path class="cls-1" d="M252.16,228.16h-2.7l.41-4.74c-.4.67-.86,1.31-1.41,1.93-.54.62-1.14,1.17-1.79,1.65s-1.36.87-2.13,1.17-1.56.44-2.4.44c-1.11,0-2.05-.26-2.83-.78-.78-.52-1.37-1.25-1.79-2.17s-.66-2.01-.74-3.27.02-2.64.29-4.14c.3-1.58.76-3.04,1.39-4.38.63-1.34,1.43-2.5,2.4-3.47.97-.98,2.11-1.74,3.4-2.29,1.29-.55,2.74-.82,4.34-.82,1.11,0,2.27.09,3.47.26,1.21.17,2.43.41,3.66.7l-3.58,19.93ZM250.04,210.46c-.65-.12-1.32-.18-2.01-.18-1.01,0-1.92.2-2.73.58-.81.39-1.52.92-2.13,1.61-.6.68-1.11,1.51-1.51,2.49-.41.98-.72,2.04-.94,3.19-.2,1.02-.3,1.97-.3,2.85s.1,1.62.3,2.29c.2.67.49,1.19.89,1.57.39.37.9.56,1.52.56.76,0,1.56-.27,2.38-.82.82-.55,1.6-1.27,2.33-2.17.73-.9,1.37-1.94,1.92-3.11.55-1.18.94-2.41,1.16-3.7l.85-4.66c-.49-.22-1.07-.38-1.72-.5Z"/>
    <path class="cls-1" d="M285.45,228.16h-3.51l2.18-12.08c.34-1.85.43-3.27.24-4.27-.18-.99-.79-1.49-1.83-1.49-.69,0-1.41.28-2.16.85-.75.56-1.46,1.29-2.14,2.17-.68.89-1.27,1.88-1.78,2.98s-.86,2.19-1.05,3.26l-1.52,8.58h-3.51l2.18-12.08c.17-.91.29-1.72.35-2.44.06-.71.04-1.31-.05-1.81-.1-.5-.3-.87-.61-1.13-.31-.26-.73-.38-1.28-.38-.66,0-1.37.28-2.11.85-.74.56-1.45,1.29-2.13,2.17-.68.89-1.28,1.89-1.81,3-.53,1.11-.89,2.23-1.09,3.36l-1.52,8.45h-3.51l3.66-20.49h2.66l-.15,4.42c.89-1.45,1.92-2.62,3.1-3.52,1.18-.9,2.48-1.35,3.88-1.35,1.48,0,2.57.41,3.29,1.23.71.82,1.1,2.11,1.15,3.88.84-1.5,1.87-2.72,3.1-3.68s2.57-1.43,4.03-1.43c1.06,0,1.92.21,2.57.62.65.42,1.13,1,1.44,1.75.31.75.47,1.63.48,2.65.01,1.02-.09,2.14-.31,3.37l-2.25,12.53Z"/>
    <path class="cls-1" d="M309.48,221.95c-.63,1.33-1.42,2.48-2.38,3.45-.96.98-2.09,1.74-3.38,2.29-1.29.55-2.73.82-4.3.82-.71,0-1.42-.04-2.11-.12s-1.26-.17-1.7-.28l-1.52,8.48h-3.51l5.17-28.93h2.7l-.37,4.66c.37-.64.82-1.27,1.37-1.89.54-.62,1.15-1.16,1.81-1.63.67-.47,1.39-.85,2.16-1.15.78-.29,1.57-.44,2.38-.44,1.06,0,1.96.26,2.72.76.75.51,1.35,1.23,1.79,2.15s.71,2.01.81,3.27c.1,1.26.01,2.65-.26,4.18-.3,1.58-.76,3.03-1.39,4.36ZM307.49,214.79c.01-.89-.07-1.66-.26-2.34-.19-.67-.47-1.19-.87-1.57-.4-.38-.91-.56-1.55-.56-.81,0-1.63.28-2.46.85-.82.56-1.59,1.3-2.29,2.19-.7.9-1.32,1.92-1.85,3.06-.53,1.14-.91,2.29-1.13,3.44l-.89,4.92c.52.21,1.1.39,1.74.52.64.13,1.31.2,2,.2,2.04,0,3.66-.7,4.86-2.11,1.19-1.41,2-3.32,2.42-5.74.17-1.02.26-1.97.28-2.86Z"/>
    <path class="cls-1" d="M332.35,222.23c-.65,1.3-1.47,2.42-2.46,3.38-.98.95-2.11,1.69-3.36,2.23-1.26.54-2.62.8-4.1.8s-2.83-.26-3.9-.78c-1.07-.52-1.92-1.26-2.53-2.21-.62-.95-1.01-2.08-1.18-3.4-.17-1.31-.11-2.77.18-4.38.27-1.55.73-2.99,1.37-4.3s1.44-2.44,2.4-3.4c.96-.95,2.07-1.69,3.34-2.21s2.67-.78,4.19-.78,2.83.27,3.9.8c1.07.54,1.92,1.28,2.53,2.25.62.96,1,2.1,1.16,3.42.16,1.31.1,2.74-.17,4.3s-.73,2.98-1.39,4.28ZM330.28,215.11c-.04-.94-.22-1.77-.56-2.5-.33-.72-.82-1.29-1.46-1.71s-1.46-.63-2.45-.63-1.84.19-2.63.56-1.48.9-2.07,1.57c-.59.67-1.09,1.46-1.48,2.38-.4.91-.69,1.91-.89,2.98-.2,1.18-.27,2.25-.22,3.2.05.95.24,1.77.57,2.44.33.67.82,1.2,1.46,1.57.64.38,1.47.56,2.48.56s1.84-.21,2.63-.62c.79-.42,1.48-.97,2.08-1.65s1.08-1.48,1.46-2.38c.38-.9.66-1.83.83-2.8.2-1.05.28-2.04.24-2.98Z"/>
  </g>
  <path class="cls-2" d="M357.55,210.9c-.47-.2-.98-.35-1.52-.44s-1.07-.14-1.57-.14c-.43,0-.87.06-1.3.19-.43.13-.82.32-1.16.59s-.61.59-.82.97c-.21.38-.31.83-.31,1.34,0,.36.07.69.22.99.15.3.35.57.6.82.25.24.54.48.87.69.33.22.68.44,1.04.65.43.27.86.55,1.29.84.42.29.81.62,1.15.98.34.36.62.78.83,1.27s.33,1.03.33,1.65c0,1.09-.23,2.04-.68,2.85-.45.81-1.04,1.48-1.77,2.02-.73.54-1.55.94-2.46,1.2-.91.26-1.83.4-2.75.4-.66,0-1.31-.05-1.97-.14-.65-.09-1.29-.25-1.91-.49l.78-2.32c.54.22,1.12.38,1.74.49.62.11,1.22.16,1.8.16.52,0,1.04-.08,1.55-.23.51-.15.98-.38,1.39-.68.42-.3.75-.68,1-1.13.25-.45.38-.99.38-1.61,0-.4-.08-.76-.24-1.08-.16-.32-.36-.61-.61-.87s-.54-.5-.87-.72-.68-.44-1.04-.65c-.42-.24-.82-.49-1.22-.76s-.76-.59-1.09-.94c-.33-.36-.59-.76-.79-1.21-.2-.45-.3-.99-.3-1.61,0-.94.19-1.79.56-2.52.37-.73.86-1.35,1.47-1.85s1.31-.88,2.11-1.13,1.61-.38,2.45-.38c.61,0,1.24.05,1.9.14.66.09,1.27.26,1.82.52l-.88,2.15Z"/>
  <path class="cls-2" d="M362.41,227.18c-.36.37-.79.56-1.28.56s-.88-.18-1.2-.53-.47-.77-.47-1.24c0-.53.18-.98.53-1.35.36-.37.78-.56,1.26-.56s.87.18,1.2.53c.33.35.5.77.5,1.24,0,.53-.18.98-.55,1.35Z"/>
  <path class="cls-2" d="M379.32,216.8c-.91.84-1.99,1.44-3.24,1.78l3.41,8.85h-2.92l-2.91-8.45h-2.19l-1.59,8.45h-2.55l3.54-19.02h4.95c1.99,0,3.44.47,4.32,1.42.89.94,1.18,2.23.89,3.87-.23,1.22-.79,2.25-1.71,3.09ZM378.25,212.45c-.06-.34-.2-.65-.43-.93-.23-.27-.54-.49-.95-.65s-.92-.24-1.55-.24h-2.32l-1.15,6.18h2.13c1.25,0,2.22-.3,2.92-.91.69-.61,1.14-1.4,1.33-2.38.07-.36.07-.72.01-1.06Z"/>
  <path class="cls-2" d="M386.05,227.18c-.36.37-.79.56-1.27.56s-.89-.18-1.2-.53c-.31-.35-.47-.77-.47-1.24,0-.53.18-.98.53-1.35s.78-.56,1.26-.56.87.18,1.2.53c.33.35.49.77.49,1.24,0,.53-.18.98-.55,1.35Z"/>
  <path class="cls-2" d="M400.47,227.44h-9.5l3.54-19.02h2.55l-3.12,16.81h6.95l-.42,2.21Z"/>
  <path class="cls-2" d="M407.01,227.18c-.36.37-.79.56-1.27.56s-.89-.18-1.2-.53c-.31-.35-.47-.77-.47-1.24,0-.53.18-.98.53-1.35s.78-.56,1.26-.56.87.18,1.2.53c.33.35.49.77.49,1.24,0,.53-.18.98-.55,1.35Z"/>
</svg>